%TF.GenerationSoftware,KiCad,Pcbnew,9.0.6*%
%TF.CreationDate,2026-07-11T20:03:06+02:00*%
%TF.ProjectId,iCE40UP5K_logic_analyzer_rev2,69434534-3055-4503-954b-5f6c6f676963,rev?*%
%TF.SameCoordinates,Original*%
%TF.FileFunction,Copper,L4,Bot*%
%TF.FilePolarity,Positive*%
%FSLAX46Y46*%
G04 Gerber Fmt 4.6, Leading zero omitted, Abs format (unit mm)*
G04 Created by KiCad (PCBNEW 9.0.6) date 2026-07-11 20:03:06*
%MOMM*%
%LPD*%
G01*
G04 APERTURE LIST*
%TA.AperFunction,ComponentPad*%
%ADD10C,2.250000*%
%TD*%
%TA.AperFunction,ComponentPad*%
%ADD11C,1.300000*%
%TD*%
%TA.AperFunction,ComponentPad*%
%ADD12R,1.650000X1.650000*%
%TD*%
%TA.AperFunction,ComponentPad*%
%ADD13C,1.650000*%
%TD*%
%TA.AperFunction,ComponentPad*%
%ADD14R,2.475000X2.475000*%
%TD*%
%TA.AperFunction,ComponentPad*%
%ADD15C,2.475000*%
%TD*%
%TA.AperFunction,ComponentPad*%
%ADD16R,1.420000X1.420000*%
%TD*%
%TA.AperFunction,ComponentPad*%
%ADD17C,1.420000*%
%TD*%
%TA.AperFunction,ComponentPad*%
%ADD18C,3.450000*%
%TD*%
%TA.AperFunction,ViaPad*%
%ADD19C,0.700000*%
%TD*%
%TA.AperFunction,Conductor*%
%ADD20C,0.200000*%
%TD*%
%TA.AperFunction,Conductor*%
%ADD21C,0.250000*%
%TD*%
G04 APERTURE END LIST*
D10*
%TO.P,S1,5*%
%TO.N,N/C*%
X138191460Y-109643600D03*
%TO.P,S1,4*%
X138191460Y-101443600D03*
D11*
%TO.P,S1,3,3*%
%TO.N,unconnected-(S1-Pad3)*%
X138191460Y-107543600D03*
%TO.P,S1,2,2*%
%TO.N,/CRESET_B*%
X138191460Y-105543600D03*
%TO.P,S1,1,1*%
%TO.N,GND*%
X138191460Y-103543600D03*
%TD*%
D12*
%TO.P,J4,1,1*%
%TO.N,GND*%
X155981400Y-141782800D03*
D13*
%TO.P,J4,2,2*%
%TO.N,/FPGA_DBG0*%
X155981400Y-139242800D03*
%TO.P,J4,3,3*%
%TO.N,GND*%
X158521400Y-141782800D03*
%TO.P,J4,4,4*%
%TO.N,/FPGA_DBG1*%
X158521400Y-139242800D03*
%TO.P,J4,5,5*%
%TO.N,GND*%
X161061400Y-141782800D03*
%TO.P,J4,6,6*%
%TO.N,/FPGA_DBG2*%
X161061400Y-139242800D03*
%TO.P,J4,7,7*%
%TO.N,GND*%
X163601400Y-141782800D03*
%TO.P,J4,8,8*%
%TO.N,/FPGA_DBG3*%
X163601400Y-139242800D03*
%TD*%
%TO.P,J6,3,3*%
%TO.N,/CDONE*%
X141071600Y-137566400D03*
%TO.P,J6,2,2*%
%TO.N,/CRESET_B*%
X138531600Y-137566400D03*
D12*
%TO.P,J6,1,1*%
%TO.N,GND*%
X135991600Y-137566400D03*
%TD*%
%TO.P,J7,1,1*%
%TO.N,GND*%
X212750400Y-77622400D03*
D13*
%TO.P,J7,2,2*%
%TO.N,+5V*%
X210210400Y-77622400D03*
%TO.P,J7,3,3*%
%TO.N,GND*%
X212750400Y-75082400D03*
%TO.P,J7,4,4*%
%TO.N,+3V3*%
X210210400Y-75082400D03*
%TO.P,J7,5,5*%
%TO.N,GND*%
X212750400Y-72542400D03*
%TO.P,J7,6,6*%
%TO.N,+1V2*%
X210210400Y-72542400D03*
%TD*%
D12*
%TO.P,J5,1,1*%
%TO.N,GND*%
X212852000Y-99237800D03*
D13*
%TO.P,J5,2,2*%
%TO.N,/FPGA_UART_RX*%
X210312000Y-99237800D03*
%TO.P,J5,3,3*%
%TO.N,GND*%
X212852000Y-96697800D03*
%TO.P,J5,4,4*%
%TO.N,/FPGA_UART_TX*%
X210312000Y-96697800D03*
%TO.P,J5,5,5*%
%TO.N,GND*%
X212852000Y-94157800D03*
%TO.P,J5,6,6*%
%TO.N,/RTS#*%
X210312000Y-94157800D03*
%TO.P,J5,7,7*%
%TO.N,GND*%
X212852000Y-91617800D03*
%TO.P,J5,8,8*%
%TO.N,/CTS#*%
X210312000Y-91617800D03*
%TD*%
D14*
%TO.P,S2,1,1*%
%TO.N,+5V*%
X154917200Y-76809600D03*
D15*
%TO.P,S2,2,2*%
%TO.N,Net-(FL1-Pad1)*%
X150317200Y-76809600D03*
%TD*%
D12*
%TO.P,J3,1,1*%
%TO.N,GND*%
X204866600Y-110998000D03*
D13*
%TO.P,J3,2,2*%
%TO.N,/LA0_raw*%
X207406600Y-110998000D03*
%TO.P,J3,3,3*%
%TO.N,/LA1_raw*%
X204866600Y-113538000D03*
%TO.P,J3,4,4*%
%TO.N,/LA2_raw*%
X207406600Y-113538000D03*
%TO.P,J3,5,5*%
%TO.N,/LA3_raw*%
X204866600Y-116078000D03*
%TO.P,J3,6,6*%
%TO.N,GND*%
X207406600Y-116078000D03*
%TO.P,J3,7,7*%
%TO.N,/LA4_raw*%
X204866600Y-118618000D03*
%TO.P,J3,8,8*%
%TO.N,/LA5_raw*%
X207406600Y-118618000D03*
%TO.P,J3,9,9*%
%TO.N,/LA6_raw*%
X204866600Y-121158000D03*
%TO.P,J3,10,10*%
%TO.N,/LA7_raw*%
X207406600Y-121158000D03*
%TO.P,J3,11,11*%
%TO.N,GND*%
X204866600Y-123698000D03*
%TO.P,J3,12,12*%
%TO.N,/LA8_raw*%
X207406600Y-123698000D03*
%TO.P,J3,13,13*%
%TO.N,/LA9_raw*%
X204866600Y-126238000D03*
%TO.P,J3,14,14*%
%TO.N,/LA10_raw*%
X207406600Y-126238000D03*
%TO.P,J3,15,15*%
%TO.N,/LA11_raw*%
X204866600Y-128778000D03*
%TO.P,J3,16,16*%
%TO.N,GND*%
X207406600Y-128778000D03*
%TO.P,J3,17,17*%
%TO.N,/LA12_raw*%
X204866600Y-131318000D03*
%TO.P,J3,18,18*%
%TO.N,/LA13_raw*%
X207406600Y-131318000D03*
%TO.P,J3,19,19*%
%TO.N,/LA14_raw*%
X204866600Y-133858000D03*
%TO.P,J3,20,20*%
%TO.N,/LA15_raw*%
X207406600Y-133858000D03*
%TD*%
D12*
%TO.P,J2,1,1*%
%TO.N,GND*%
X137922000Y-129438400D03*
D13*
%TO.P,J2,2,2*%
%TO.N,Net-(J2-Pad2)*%
X137922000Y-126898400D03*
%TO.P,J2,3,3*%
%TO.N,Net-(J2-Pad3)*%
X137922000Y-124358400D03*
%TO.P,J2,4,4*%
%TO.N,Net-(J2-Pad4)*%
X137922000Y-121818400D03*
%TO.P,J2,5,5*%
%TO.N,/SPI_MISO*%
X137922000Y-119278400D03*
%TO.P,J2,6,6*%
%TO.N,Net-(J2-Pad6)*%
X137922000Y-116738400D03*
%TD*%
D16*
%TO.P,J1,1,1*%
%TO.N,Net-(D1-K)*%
X148067600Y-91389200D03*
D17*
%TO.P,J1,2,2*%
%TO.N,/USB_D-*%
X148067600Y-88889200D03*
%TO.P,J1,3,3*%
%TO.N,/USB_D+*%
X146067600Y-88889200D03*
%TO.P,J1,4,4*%
%TO.N,GND*%
X146067600Y-91389200D03*
D18*
%TO.P,J1,MH1,MH1*%
X143357600Y-96159200D03*
%TO.P,J1,MH2,MH2*%
X143357600Y-84119200D03*
%TD*%
D19*
%TO.N,/SPI_MOSI*%
X150774400Y-122529600D03*
%TO.N,GND*%
X139750800Y-103581200D03*
X134721600Y-105816400D03*
X174269400Y-83388200D03*
X177850800Y-96621600D03*
X174447200Y-80619600D03*
X160350200Y-89001600D03*
X144678400Y-141986000D03*
X133553200Y-141960600D03*
X137896600Y-132867400D03*
X137134600Y-90043000D03*
X143560800Y-76860400D03*
X149682200Y-69850000D03*
X217703400Y-67589400D03*
X204393800Y-67818000D03*
X217373200Y-87426800D03*
X206222600Y-87452200D03*
X216154000Y-142697200D03*
X198628000Y-142849600D03*
X215823800Y-104394000D03*
X206171800Y-102590600D03*
X198094600Y-104267000D03*
%TO.N,+3V3*%
X189800000Y-140400000D03*
X191000000Y-128800000D03*
X176200000Y-70800000D03*
X194800000Y-69836300D03*
%TO.N,+1V2*%
X200507200Y-90218600D03*
X200202400Y-91488600D03*
X199135600Y-91844200D03*
X198068800Y-91387000D03*
%TO.N,+3V3*%
X198619200Y-77100000D03*
X196600000Y-77200000D03*
X197619200Y-76900000D03*
X194800000Y-73200000D03*
%TO.N,/FTDI_TX_LED#*%
X187000000Y-71461900D03*
%TO.N,/FTDI_RX_LED#*%
X188600000Y-74400000D03*
%TO.N,+3V3*%
X190708533Y-94535523D03*
X190735561Y-93370270D03*
X190696301Y-91846400D03*
X190714691Y-90322400D03*
X190724632Y-88796217D03*
%TO.N,GND*%
X201619200Y-82900000D03*
X195548400Y-82620800D03*
X195758000Y-86400000D03*
X200311600Y-79260000D03*
%TO.N,+1V2*%
X197865600Y-89913800D03*
%TO.N,/FTDI_RX_LED#*%
X176631600Y-100685600D03*
%TO.N,/FTDI_TX_LED#*%
X177647600Y-100035600D03*
%TO.N,+3V3*%
X176123600Y-68580000D03*
X165147120Y-108360080D03*
%TO.N,+1V2*%
X166740171Y-128270000D03*
%TO.N,+3V3*%
X174709000Y-70909000D03*
X174650400Y-68580000D03*
%TO.N,+5V*%
X170586400Y-76758800D03*
%TO.N,GND*%
X139700000Y-79400400D03*
%TO.N,+5V*%
X154889200Y-78790800D03*
%TO.N,+3V3*%
X165811200Y-83312000D03*
X164541200Y-81635600D03*
%TO.N,+1V8*%
X163017200Y-95707200D03*
X180746400Y-93522800D03*
X177546000Y-84328000D03*
X167589200Y-84226400D03*
%TO.N,+3V3*%
X166725600Y-122275600D03*
X166624000Y-124206000D03*
X152247600Y-115316000D03*
X142798800Y-128270000D03*
%TO.N,+5V*%
X164490400Y-71577200D03*
%TO.N,+3V3*%
X160711614Y-86159273D03*
X179781200Y-90271600D03*
X173024800Y-79578200D03*
X173177200Y-82092800D03*
X174193200Y-82042000D03*
%TO.N,GND*%
X168757600Y-71780400D03*
X171246800Y-72593200D03*
X165963600Y-71932800D03*
%TO.N,+3V3*%
X174904400Y-113893600D03*
X174701200Y-112522000D03*
%TO.N,+1V2*%
X166928800Y-129438400D03*
%TO.N,+3V3*%
X175920400Y-127508000D03*
%TO.N,+1V2*%
X170557741Y-112989808D03*
%TO.N,GND*%
X171551600Y-110388400D03*
%TO.N,+1V2*%
X168960800Y-110388400D03*
%TO.N,/FPGA_UART_TX*%
X172415200Y-108153200D03*
%TO.N,+3V3*%
X161137600Y-97536000D03*
X160528000Y-93268800D03*
%TO.N,+5V*%
X145288000Y-100228400D03*
%TO.N,+3V3*%
X155194000Y-100228400D03*
X163322000Y-109524800D03*
X161036000Y-114147600D03*
%TO.N,GND*%
X173837600Y-103327200D03*
%TO.N,/FPGA_UART_RX*%
X175432498Y-107258898D03*
X169180102Y-106476800D03*
%TO.N,GND*%
X164084000Y-104089200D03*
%TO.N,/FPGA_UART_TX*%
X174286800Y-108081238D03*
%TO.N,+3V3*%
X176479200Y-97180400D03*
X171450000Y-99568000D03*
%TO.N,GND*%
X162864800Y-67056000D03*
%TO.N,/CDONE*%
X159512000Y-110512600D03*
X156006800Y-113030000D03*
%TO.N,/UART_RX_LED*%
X156921200Y-110490000D03*
X156931010Y-111846711D03*
%TO.N,GND*%
X146405600Y-104190800D03*
%TO.N,/USER_LED*%
X157835600Y-110512600D03*
X157835600Y-111861600D03*
%TO.N,/UART_TX_LED*%
X156031133Y-111861730D03*
X156021481Y-110512601D03*
%TO.N,/CTS#*%
X171354600Y-104038400D03*
%TO.N,/FPGA_UART_RX*%
X172516800Y-107137200D03*
%TO.N,/CTS#*%
X169855102Y-105531698D03*
%TO.N,GND*%
X178968400Y-126085600D03*
X173800000Y-127600000D03*
X173000000Y-127600000D03*
%TO.N,/LA12*%
X171266317Y-129976141D03*
X170022278Y-125093757D03*
%TO.N,/LA15*%
X171043600Y-132740400D03*
X167390171Y-125635214D03*
%TO.N,/LA14*%
X171245456Y-131819817D03*
X168287980Y-125572421D03*
%TO.N,/LA13*%
X171219820Y-130874941D03*
X169162548Y-125359969D03*
%TO.N,GND*%
X168910000Y-132130800D03*
X193792200Y-131622800D03*
X194147800Y-126187200D03*
X193131800Y-127812800D03*
%TO.N,+3V3*%
X191399994Y-115407748D03*
%TO.N,GND*%
X193690600Y-138277600D03*
X193639800Y-134975600D03*
X193690600Y-133599800D03*
X193081000Y-141173200D03*
X178308000Y-111150400D03*
X183683000Y-133709800D03*
X186477000Y-142345800D03*
X185156200Y-142447400D03*
X185816600Y-130712600D03*
X189271000Y-129082800D03*
X191912600Y-124972200D03*
X191912600Y-121924200D03*
X191963400Y-117403000D03*
X183794400Y-119944800D03*
X189829800Y-115015400D03*
X192420600Y-113237400D03*
X193182600Y-114558200D03*
X184648200Y-116539400D03*
X192369800Y-110189400D03*
X192319000Y-102569400D03*
X192369800Y-107141400D03*
%TO.N,/LA2*%
X187670800Y-108538400D03*
X188320400Y-106989000D03*
%TO.N,GND*%
X184343400Y-105657800D03*
X163474400Y-124104400D03*
%TO.N,+3V3*%
X153263600Y-129286000D03*
%TO.N,GND*%
X150622000Y-128371600D03*
%TO.N,/SPI_CSn*%
X160731200Y-118008400D03*
X159105600Y-116382800D03*
%TO.N,/SPI_MOSI*%
X150774400Y-124409200D03*
%TO.N,GND*%
X150825200Y-119075200D03*
%TO.N,/SPI_MISO*%
X160020000Y-118922800D03*
X157429200Y-117094000D03*
%TO.N,GND*%
X163474400Y-123139200D03*
%TO.N,+3V3*%
X155244800Y-129170634D03*
X156972000Y-124499200D03*
%TO.N,GND*%
X157073600Y-127963634D03*
X171704000Y-111404400D03*
X163474400Y-122021600D03*
X166522400Y-131724400D03*
X167538400Y-78460600D03*
X156972000Y-83312000D03*
X160147000Y-83591400D03*
X161340800Y-86802802D03*
X161645600Y-95707200D03*
X157226000Y-91948000D03*
X160375600Y-92049600D03*
X179070000Y-80721200D03*
X171399200Y-80721200D03*
X174523400Y-77343000D03*
X167691200Y-80935600D03*
X165862000Y-80162400D03*
X182829200Y-89763600D03*
X179070000Y-87020400D03*
X182901780Y-92586620D03*
X179049202Y-93826465D03*
X169595800Y-117922000D03*
X173101000Y-121376400D03*
X177185942Y-115129600D03*
X164370175Y-93159775D03*
X169595800Y-121376400D03*
X162560000Y-84480400D03*
X165455600Y-86715600D03*
X151757393Y-106049534D03*
X155448000Y-90119200D03*
X164642800Y-88799400D03*
X169595800Y-119649200D03*
X165150800Y-91637600D03*
X171373800Y-117922000D03*
X164949225Y-94592814D03*
X169973698Y-101702902D03*
X173177200Y-97737602D03*
X171373800Y-121376400D03*
X173101000Y-117871200D03*
X173101000Y-119649200D03*
%TO.N,+3V3*%
X176800000Y-69800000D03*
%TO.N,+1V2*%
X171615613Y-124191598D03*
%TD*%
D20*
%TO.N,/FTDI_RX_LED#*%
X188600000Y-75000000D02*
X188600000Y-74400000D01*
X192273600Y-78673600D02*
X188600000Y-75000000D01*
X189850000Y-98897200D02*
X192273600Y-96473600D01*
X181976000Y-98897200D02*
X189850000Y-98897200D01*
X180187600Y-100685600D02*
X181976000Y-98897200D01*
X176631600Y-100685600D02*
X180187600Y-100685600D01*
X192273600Y-96473600D02*
X192273600Y-78673600D01*
%TO.N,/FTDI_TX_LED#*%
X177658000Y-100025200D02*
X177647600Y-100035600D01*
X180086000Y-100025200D02*
X177658000Y-100025200D01*
X181711600Y-98399600D02*
X180086000Y-100025200D01*
X191516000Y-96367600D02*
X189484000Y-98399600D01*
X189484000Y-98399600D02*
X181711600Y-98399600D01*
X191516000Y-79316000D02*
X191516000Y-96367600D01*
X187000000Y-74800000D02*
X191516000Y-79316000D01*
X187000000Y-71461900D02*
X187000000Y-74800000D01*
%TO.N,/LA12*%
X169972436Y-125143599D02*
X170022278Y-125093757D01*
X169972436Y-128773636D02*
X169972436Y-125143599D01*
X171174941Y-129976141D02*
X169972436Y-128773636D01*
X171266317Y-129976141D02*
X171174941Y-129976141D01*
%TO.N,/LA13*%
X171049961Y-130816361D02*
X169162548Y-128928948D01*
X171219820Y-130874941D02*
X171161240Y-130816361D01*
X171161240Y-130816361D02*
X171049961Y-130816361D01*
X169162548Y-128928948D02*
X169162548Y-125359969D01*
%TO.N,/LA14*%
X168287980Y-128862341D02*
X168287980Y-125572421D01*
X171245456Y-131819817D02*
X168287980Y-128862341D01*
%TO.N,/LA15*%
X167390171Y-128883771D02*
X167390171Y-125635214D01*
X171043600Y-132537200D02*
X167390171Y-128883771D01*
X171043600Y-132740400D02*
X171043600Y-132537200D01*
D21*
%TO.N,/FPGA_UART_RX*%
X171907200Y-106527600D02*
X172516800Y-107137200D01*
X169230902Y-106527600D02*
X171907200Y-106527600D01*
X169180102Y-106476800D02*
X169230902Y-106527600D01*
%TO.N,/CTS#*%
X170039102Y-105353898D02*
X171354600Y-104038400D01*
X170032902Y-105353898D02*
X170039102Y-105353898D01*
X169855102Y-105531698D02*
X170032902Y-105353898D01*
%TO.N,/FPGA_UART_RX*%
X175310800Y-107137200D02*
X172516800Y-107137200D01*
X175432498Y-107258898D02*
X175310800Y-107137200D01*
%TO.N,/FPGA_UART_TX*%
X172415200Y-108153200D02*
X174214838Y-108153200D01*
X174214838Y-108153200D02*
X174286800Y-108081238D01*
D20*
%TO.N,/CDONE*%
X159512000Y-111709200D02*
X158191200Y-113030000D01*
X158191200Y-113030000D02*
X156006800Y-113030000D01*
X159512000Y-110512600D02*
X159512000Y-111709200D01*
%TO.N,/UART_TX_LED*%
X156031133Y-110522253D02*
X156021481Y-110512601D01*
X156031133Y-111861730D02*
X156031133Y-110522253D01*
%TO.N,/UART_RX_LED*%
X156931010Y-110499810D02*
X156921200Y-110490000D01*
X156931010Y-111846711D02*
X156931010Y-110499810D01*
%TO.N,/USER_LED*%
X157835600Y-110512600D02*
X157835600Y-111861600D01*
%TO.N,/LA2*%
X188305800Y-107903400D02*
X188305800Y-107003600D01*
X187670800Y-108538400D02*
X188305800Y-107903400D01*
X188305800Y-107003600D02*
X188320400Y-106989000D01*
D21*
%TO.N,/SPI_CSn*%
X160731200Y-118008400D02*
X159105600Y-116382800D01*
%TO.N,/SPI_MISO*%
X159308800Y-118922800D02*
X157480000Y-117094000D01*
X160020000Y-118922800D02*
X159308800Y-118922800D01*
X157480000Y-117094000D02*
X157429200Y-117094000D01*
%TO.N,/SPI_MOSI*%
X150774400Y-124409200D02*
X150774400Y-122529600D01*
%TD*%
M02*
