%TF.GenerationSoftware,KiCad,Pcbnew,9.0.6*%
%TF.CreationDate,2026-07-11T20:03:06+02:00*%
%TF.ProjectId,iCE40UP5K_logic_analyzer_rev2,69434534-3055-4503-954b-5f6c6f676963,rev?*%
%TF.SameCoordinates,Original*%
%TF.FileFunction,Legend,Bot*%
%TF.FilePolarity,Positive*%
%FSLAX46Y46*%
G04 Gerber Fmt 4.6, Leading zero omitted, Abs format (unit mm)*
G04 Created by KiCad (PCBNEW 9.0.6) date 2026-07-11 20:03:06*
%MOMM*%
%LPD*%
G01*
G04 APERTURE LIST*
%ADD10C,0.160000*%
%ADD11C,2.250000*%
%ADD12C,1.300000*%
%ADD13R,1.650000X1.650000*%
%ADD14C,1.650000*%
%ADD15R,2.475000X2.475000*%
%ADD16C,2.475000*%
%ADD17R,1.420000X1.420000*%
%ADD18C,1.420000*%
%ADD19C,3.450000*%
G04 APERTURE END LIST*
D10*
X218382451Y-65616323D02*
X218858641Y-65616323D01*
X218858641Y-65616323D02*
X218858641Y-64616323D01*
X217906260Y-65616323D02*
X218001498Y-65568704D01*
X218001498Y-65568704D02*
X218049117Y-65521084D01*
X218049117Y-65521084D02*
X218096736Y-65425846D01*
X218096736Y-65425846D02*
X218096736Y-65140132D01*
X218096736Y-65140132D02*
X218049117Y-65044894D01*
X218049117Y-65044894D02*
X218001498Y-64997275D01*
X218001498Y-64997275D02*
X217906260Y-64949656D01*
X217906260Y-64949656D02*
X217763403Y-64949656D01*
X217763403Y-64949656D02*
X217668165Y-64997275D01*
X217668165Y-64997275D02*
X217620546Y-65044894D01*
X217620546Y-65044894D02*
X217572927Y-65140132D01*
X217572927Y-65140132D02*
X217572927Y-65425846D01*
X217572927Y-65425846D02*
X217620546Y-65521084D01*
X217620546Y-65521084D02*
X217668165Y-65568704D01*
X217668165Y-65568704D02*
X217763403Y-65616323D01*
X217763403Y-65616323D02*
X217906260Y-65616323D01*
X216715784Y-64949656D02*
X216715784Y-65759180D01*
X216715784Y-65759180D02*
X216763403Y-65854418D01*
X216763403Y-65854418D02*
X216811022Y-65902037D01*
X216811022Y-65902037D02*
X216906260Y-65949656D01*
X216906260Y-65949656D02*
X217049117Y-65949656D01*
X217049117Y-65949656D02*
X217144355Y-65902037D01*
X216715784Y-65568704D02*
X216811022Y-65616323D01*
X216811022Y-65616323D02*
X217001498Y-65616323D01*
X217001498Y-65616323D02*
X217096736Y-65568704D01*
X217096736Y-65568704D02*
X217144355Y-65521084D01*
X217144355Y-65521084D02*
X217191974Y-65425846D01*
X217191974Y-65425846D02*
X217191974Y-65140132D01*
X217191974Y-65140132D02*
X217144355Y-65044894D01*
X217144355Y-65044894D02*
X217096736Y-64997275D01*
X217096736Y-64997275D02*
X217001498Y-64949656D01*
X217001498Y-64949656D02*
X216811022Y-64949656D01*
X216811022Y-64949656D02*
X216715784Y-64997275D01*
X216239593Y-65616323D02*
X216239593Y-64949656D01*
X216239593Y-64616323D02*
X216287212Y-64663942D01*
X216287212Y-64663942D02*
X216239593Y-64711561D01*
X216239593Y-64711561D02*
X216191974Y-64663942D01*
X216191974Y-64663942D02*
X216239593Y-64616323D01*
X216239593Y-64616323D02*
X216239593Y-64711561D01*
X215334832Y-65568704D02*
X215430070Y-65616323D01*
X215430070Y-65616323D02*
X215620546Y-65616323D01*
X215620546Y-65616323D02*
X215715784Y-65568704D01*
X215715784Y-65568704D02*
X215763403Y-65521084D01*
X215763403Y-65521084D02*
X215811022Y-65425846D01*
X215811022Y-65425846D02*
X215811022Y-65140132D01*
X215811022Y-65140132D02*
X215763403Y-65044894D01*
X215763403Y-65044894D02*
X215715784Y-64997275D01*
X215715784Y-64997275D02*
X215620546Y-64949656D01*
X215620546Y-64949656D02*
X215430070Y-64949656D01*
X215430070Y-64949656D02*
X215334832Y-64997275D01*
X214191974Y-65330608D02*
X213715784Y-65330608D01*
X214287212Y-65616323D02*
X213953879Y-64616323D01*
X213953879Y-64616323D02*
X213620546Y-65616323D01*
X213287212Y-64949656D02*
X213287212Y-65616323D01*
X213287212Y-65044894D02*
X213239593Y-64997275D01*
X213239593Y-64997275D02*
X213144355Y-64949656D01*
X213144355Y-64949656D02*
X213001498Y-64949656D01*
X213001498Y-64949656D02*
X212906260Y-64997275D01*
X212906260Y-64997275D02*
X212858641Y-65092513D01*
X212858641Y-65092513D02*
X212858641Y-65616323D01*
X211953879Y-65616323D02*
X211953879Y-65092513D01*
X211953879Y-65092513D02*
X212001498Y-64997275D01*
X212001498Y-64997275D02*
X212096736Y-64949656D01*
X212096736Y-64949656D02*
X212287212Y-64949656D01*
X212287212Y-64949656D02*
X212382450Y-64997275D01*
X211953879Y-65568704D02*
X212049117Y-65616323D01*
X212049117Y-65616323D02*
X212287212Y-65616323D01*
X212287212Y-65616323D02*
X212382450Y-65568704D01*
X212382450Y-65568704D02*
X212430069Y-65473465D01*
X212430069Y-65473465D02*
X212430069Y-65378227D01*
X212430069Y-65378227D02*
X212382450Y-65282989D01*
X212382450Y-65282989D02*
X212287212Y-65235370D01*
X212287212Y-65235370D02*
X212049117Y-65235370D01*
X212049117Y-65235370D02*
X211953879Y-65187751D01*
X211334831Y-65616323D02*
X211430069Y-65568704D01*
X211430069Y-65568704D02*
X211477688Y-65473465D01*
X211477688Y-65473465D02*
X211477688Y-64616323D01*
X211049116Y-64949656D02*
X210811021Y-65616323D01*
X210572926Y-64949656D02*
X210811021Y-65616323D01*
X210811021Y-65616323D02*
X210906259Y-65854418D01*
X210906259Y-65854418D02*
X210953878Y-65902037D01*
X210953878Y-65902037D02*
X211049116Y-65949656D01*
X210287211Y-64949656D02*
X209763402Y-64949656D01*
X209763402Y-64949656D02*
X210287211Y-65616323D01*
X210287211Y-65616323D02*
X209763402Y-65616323D01*
X209001497Y-65568704D02*
X209096735Y-65616323D01*
X209096735Y-65616323D02*
X209287211Y-65616323D01*
X209287211Y-65616323D02*
X209382449Y-65568704D01*
X209382449Y-65568704D02*
X209430068Y-65473465D01*
X209430068Y-65473465D02*
X209430068Y-65092513D01*
X209430068Y-65092513D02*
X209382449Y-64997275D01*
X209382449Y-64997275D02*
X209287211Y-64949656D01*
X209287211Y-64949656D02*
X209096735Y-64949656D01*
X209096735Y-64949656D02*
X209001497Y-64997275D01*
X209001497Y-64997275D02*
X208953878Y-65092513D01*
X208953878Y-65092513D02*
X208953878Y-65187751D01*
X208953878Y-65187751D02*
X209430068Y-65282989D01*
X208525306Y-65616323D02*
X208525306Y-64949656D01*
X208525306Y-65140132D02*
X208477687Y-65044894D01*
X208477687Y-65044894D02*
X208430068Y-64997275D01*
X208430068Y-64997275D02*
X208334830Y-64949656D01*
X208334830Y-64949656D02*
X208239592Y-64949656D01*
X218858641Y-67226267D02*
X218858641Y-66559600D01*
X218858641Y-66226267D02*
X218906260Y-66273886D01*
X218906260Y-66273886D02*
X218858641Y-66321505D01*
X218858641Y-66321505D02*
X218811022Y-66273886D01*
X218811022Y-66273886D02*
X218858641Y-66226267D01*
X218858641Y-66226267D02*
X218858641Y-66321505D01*
X217811023Y-67131028D02*
X217858642Y-67178648D01*
X217858642Y-67178648D02*
X218001499Y-67226267D01*
X218001499Y-67226267D02*
X218096737Y-67226267D01*
X218096737Y-67226267D02*
X218239594Y-67178648D01*
X218239594Y-67178648D02*
X218334832Y-67083409D01*
X218334832Y-67083409D02*
X218382451Y-66988171D01*
X218382451Y-66988171D02*
X218430070Y-66797695D01*
X218430070Y-66797695D02*
X218430070Y-66654838D01*
X218430070Y-66654838D02*
X218382451Y-66464362D01*
X218382451Y-66464362D02*
X218334832Y-66369124D01*
X218334832Y-66369124D02*
X218239594Y-66273886D01*
X218239594Y-66273886D02*
X218096737Y-66226267D01*
X218096737Y-66226267D02*
X218001499Y-66226267D01*
X218001499Y-66226267D02*
X217858642Y-66273886D01*
X217858642Y-66273886D02*
X217811023Y-66321505D01*
X217382451Y-66702457D02*
X217049118Y-66702457D01*
X216906261Y-67226267D02*
X217382451Y-67226267D01*
X217382451Y-67226267D02*
X217382451Y-66226267D01*
X217382451Y-66226267D02*
X216906261Y-66226267D01*
X216049118Y-66559600D02*
X216049118Y-67226267D01*
X216287213Y-66178648D02*
X216525308Y-66892933D01*
X216525308Y-66892933D02*
X215906261Y-66892933D01*
X215334832Y-66226267D02*
X215239594Y-66226267D01*
X215239594Y-66226267D02*
X215144356Y-66273886D01*
X215144356Y-66273886D02*
X215096737Y-66321505D01*
X215096737Y-66321505D02*
X215049118Y-66416743D01*
X215049118Y-66416743D02*
X215001499Y-66607219D01*
X215001499Y-66607219D02*
X215001499Y-66845314D01*
X215001499Y-66845314D02*
X215049118Y-67035790D01*
X215049118Y-67035790D02*
X215096737Y-67131028D01*
X215096737Y-67131028D02*
X215144356Y-67178648D01*
X215144356Y-67178648D02*
X215239594Y-67226267D01*
X215239594Y-67226267D02*
X215334832Y-67226267D01*
X215334832Y-67226267D02*
X215430070Y-67178648D01*
X215430070Y-67178648D02*
X215477689Y-67131028D01*
X215477689Y-67131028D02*
X215525308Y-67035790D01*
X215525308Y-67035790D02*
X215572927Y-66845314D01*
X215572927Y-66845314D02*
X215572927Y-66607219D01*
X215572927Y-66607219D02*
X215525308Y-66416743D01*
X215525308Y-66416743D02*
X215477689Y-66321505D01*
X215477689Y-66321505D02*
X215430070Y-66273886D01*
X215430070Y-66273886D02*
X215334832Y-66226267D01*
X213811022Y-66226267D02*
X213811022Y-67035790D01*
X213811022Y-67035790D02*
X213763403Y-67131028D01*
X213763403Y-67131028D02*
X213715784Y-67178648D01*
X213715784Y-67178648D02*
X213620546Y-67226267D01*
X213620546Y-67226267D02*
X213430070Y-67226267D01*
X213430070Y-67226267D02*
X213334832Y-67178648D01*
X213334832Y-67178648D02*
X213287213Y-67131028D01*
X213287213Y-67131028D02*
X213239594Y-67035790D01*
X213239594Y-67035790D02*
X213239594Y-66226267D01*
X212763403Y-67226267D02*
X212763403Y-66226267D01*
X212763403Y-66226267D02*
X212382451Y-66226267D01*
X212382451Y-66226267D02*
X212287213Y-66273886D01*
X212287213Y-66273886D02*
X212239594Y-66321505D01*
X212239594Y-66321505D02*
X212191975Y-66416743D01*
X212191975Y-66416743D02*
X212191975Y-66559600D01*
X212191975Y-66559600D02*
X212239594Y-66654838D01*
X212239594Y-66654838D02*
X212287213Y-66702457D01*
X212287213Y-66702457D02*
X212382451Y-66750076D01*
X212382451Y-66750076D02*
X212763403Y-66750076D01*
X211287213Y-66226267D02*
X211763403Y-66226267D01*
X211763403Y-66226267D02*
X211811022Y-66702457D01*
X211811022Y-66702457D02*
X211763403Y-66654838D01*
X211763403Y-66654838D02*
X211668165Y-66607219D01*
X211668165Y-66607219D02*
X211430070Y-66607219D01*
X211430070Y-66607219D02*
X211334832Y-66654838D01*
X211334832Y-66654838D02*
X211287213Y-66702457D01*
X211287213Y-66702457D02*
X211239594Y-66797695D01*
X211239594Y-66797695D02*
X211239594Y-67035790D01*
X211239594Y-67035790D02*
X211287213Y-67131028D01*
X211287213Y-67131028D02*
X211334832Y-67178648D01*
X211334832Y-67178648D02*
X211430070Y-67226267D01*
X211430070Y-67226267D02*
X211668165Y-67226267D01*
X211668165Y-67226267D02*
X211763403Y-67178648D01*
X211763403Y-67178648D02*
X211811022Y-67131028D01*
X210811022Y-67226267D02*
X210811022Y-66226267D01*
X210239594Y-67226267D02*
X210668165Y-66654838D01*
X210239594Y-66226267D02*
X210811022Y-66797695D01*
X218287213Y-68836211D02*
X218620546Y-68360020D01*
X218858641Y-68836211D02*
X218858641Y-67836211D01*
X218858641Y-67836211D02*
X218477689Y-67836211D01*
X218477689Y-67836211D02*
X218382451Y-67883830D01*
X218382451Y-67883830D02*
X218334832Y-67931449D01*
X218334832Y-67931449D02*
X218287213Y-68026687D01*
X218287213Y-68026687D02*
X218287213Y-68169544D01*
X218287213Y-68169544D02*
X218334832Y-68264782D01*
X218334832Y-68264782D02*
X218382451Y-68312401D01*
X218382451Y-68312401D02*
X218477689Y-68360020D01*
X218477689Y-68360020D02*
X218858641Y-68360020D01*
X217477689Y-68788592D02*
X217572927Y-68836211D01*
X217572927Y-68836211D02*
X217763403Y-68836211D01*
X217763403Y-68836211D02*
X217858641Y-68788592D01*
X217858641Y-68788592D02*
X217906260Y-68693353D01*
X217906260Y-68693353D02*
X217906260Y-68312401D01*
X217906260Y-68312401D02*
X217858641Y-68217163D01*
X217858641Y-68217163D02*
X217763403Y-68169544D01*
X217763403Y-68169544D02*
X217572927Y-68169544D01*
X217572927Y-68169544D02*
X217477689Y-68217163D01*
X217477689Y-68217163D02*
X217430070Y-68312401D01*
X217430070Y-68312401D02*
X217430070Y-68407639D01*
X217430070Y-68407639D02*
X217906260Y-68502877D01*
X217096736Y-68169544D02*
X216858641Y-68836211D01*
X216858641Y-68836211D02*
X216620546Y-68169544D01*
X216239593Y-68836211D02*
X216239593Y-68169544D01*
X216239593Y-67836211D02*
X216287212Y-67883830D01*
X216287212Y-67883830D02*
X216239593Y-67931449D01*
X216239593Y-67931449D02*
X216191974Y-67883830D01*
X216191974Y-67883830D02*
X216239593Y-67836211D01*
X216239593Y-67836211D02*
X216239593Y-67931449D01*
X215811022Y-68788592D02*
X215715784Y-68836211D01*
X215715784Y-68836211D02*
X215525308Y-68836211D01*
X215525308Y-68836211D02*
X215430070Y-68788592D01*
X215430070Y-68788592D02*
X215382451Y-68693353D01*
X215382451Y-68693353D02*
X215382451Y-68645734D01*
X215382451Y-68645734D02*
X215430070Y-68550496D01*
X215430070Y-68550496D02*
X215525308Y-68502877D01*
X215525308Y-68502877D02*
X215668165Y-68502877D01*
X215668165Y-68502877D02*
X215763403Y-68455258D01*
X215763403Y-68455258D02*
X215811022Y-68360020D01*
X215811022Y-68360020D02*
X215811022Y-68312401D01*
X215811022Y-68312401D02*
X215763403Y-68217163D01*
X215763403Y-68217163D02*
X215668165Y-68169544D01*
X215668165Y-68169544D02*
X215525308Y-68169544D01*
X215525308Y-68169544D02*
X215430070Y-68217163D01*
X214953879Y-68836211D02*
X214953879Y-68169544D01*
X214953879Y-67836211D02*
X215001498Y-67883830D01*
X215001498Y-67883830D02*
X214953879Y-67931449D01*
X214953879Y-67931449D02*
X214906260Y-67883830D01*
X214906260Y-67883830D02*
X214953879Y-67836211D01*
X214953879Y-67836211D02*
X214953879Y-67931449D01*
X214334832Y-68836211D02*
X214430070Y-68788592D01*
X214430070Y-68788592D02*
X214477689Y-68740972D01*
X214477689Y-68740972D02*
X214525308Y-68645734D01*
X214525308Y-68645734D02*
X214525308Y-68360020D01*
X214525308Y-68360020D02*
X214477689Y-68264782D01*
X214477689Y-68264782D02*
X214430070Y-68217163D01*
X214430070Y-68217163D02*
X214334832Y-68169544D01*
X214334832Y-68169544D02*
X214191975Y-68169544D01*
X214191975Y-68169544D02*
X214096737Y-68217163D01*
X214096737Y-68217163D02*
X214049118Y-68264782D01*
X214049118Y-68264782D02*
X214001499Y-68360020D01*
X214001499Y-68360020D02*
X214001499Y-68645734D01*
X214001499Y-68645734D02*
X214049118Y-68740972D01*
X214049118Y-68740972D02*
X214096737Y-68788592D01*
X214096737Y-68788592D02*
X214191975Y-68836211D01*
X214191975Y-68836211D02*
X214334832Y-68836211D01*
X213572927Y-68169544D02*
X213572927Y-68836211D01*
X213572927Y-68264782D02*
X213525308Y-68217163D01*
X213525308Y-68217163D02*
X213430070Y-68169544D01*
X213430070Y-68169544D02*
X213287213Y-68169544D01*
X213287213Y-68169544D02*
X213191975Y-68217163D01*
X213191975Y-68217163D02*
X213144356Y-68312401D01*
X213144356Y-68312401D02*
X213144356Y-68836211D01*
X211953879Y-67931449D02*
X211906260Y-67883830D01*
X211906260Y-67883830D02*
X211811022Y-67836211D01*
X211811022Y-67836211D02*
X211572927Y-67836211D01*
X211572927Y-67836211D02*
X211477689Y-67883830D01*
X211477689Y-67883830D02*
X211430070Y-67931449D01*
X211430070Y-67931449D02*
X211382451Y-68026687D01*
X211382451Y-68026687D02*
X211382451Y-68121925D01*
X211382451Y-68121925D02*
X211430070Y-68264782D01*
X211430070Y-68264782D02*
X212001498Y-68836211D01*
X212001498Y-68836211D02*
X211382451Y-68836211D01*
X218334832Y-70446155D02*
X218906260Y-70446155D01*
X218620546Y-70446155D02*
X218620546Y-69446155D01*
X218620546Y-69446155D02*
X218715784Y-69589012D01*
X218715784Y-69589012D02*
X218811022Y-69684250D01*
X218811022Y-69684250D02*
X218906260Y-69731869D01*
X217382451Y-70446155D02*
X217953879Y-70446155D01*
X217668165Y-70446155D02*
X217668165Y-69446155D01*
X217668165Y-69446155D02*
X217763403Y-69589012D01*
X217763403Y-69589012D02*
X217858641Y-69684250D01*
X217858641Y-69684250D02*
X217953879Y-69731869D01*
X216953879Y-70065202D02*
X216191975Y-70065202D01*
X215525308Y-69446155D02*
X215430070Y-69446155D01*
X215430070Y-69446155D02*
X215334832Y-69493774D01*
X215334832Y-69493774D02*
X215287213Y-69541393D01*
X215287213Y-69541393D02*
X215239594Y-69636631D01*
X215239594Y-69636631D02*
X215191975Y-69827107D01*
X215191975Y-69827107D02*
X215191975Y-70065202D01*
X215191975Y-70065202D02*
X215239594Y-70255678D01*
X215239594Y-70255678D02*
X215287213Y-70350916D01*
X215287213Y-70350916D02*
X215334832Y-70398536D01*
X215334832Y-70398536D02*
X215430070Y-70446155D01*
X215430070Y-70446155D02*
X215525308Y-70446155D01*
X215525308Y-70446155D02*
X215620546Y-70398536D01*
X215620546Y-70398536D02*
X215668165Y-70350916D01*
X215668165Y-70350916D02*
X215715784Y-70255678D01*
X215715784Y-70255678D02*
X215763403Y-70065202D01*
X215763403Y-70065202D02*
X215763403Y-69827107D01*
X215763403Y-69827107D02*
X215715784Y-69636631D01*
X215715784Y-69636631D02*
X215668165Y-69541393D01*
X215668165Y-69541393D02*
X215620546Y-69493774D01*
X215620546Y-69493774D02*
X215525308Y-69446155D01*
X214858641Y-69446155D02*
X214191975Y-69446155D01*
X214191975Y-69446155D02*
X214620546Y-70446155D01*
X213811022Y-70065202D02*
X213049118Y-70065202D01*
X212620546Y-69541393D02*
X212572927Y-69493774D01*
X212572927Y-69493774D02*
X212477689Y-69446155D01*
X212477689Y-69446155D02*
X212239594Y-69446155D01*
X212239594Y-69446155D02*
X212144356Y-69493774D01*
X212144356Y-69493774D02*
X212096737Y-69541393D01*
X212096737Y-69541393D02*
X212049118Y-69636631D01*
X212049118Y-69636631D02*
X212049118Y-69731869D01*
X212049118Y-69731869D02*
X212096737Y-69874726D01*
X212096737Y-69874726D02*
X212668165Y-70446155D01*
X212668165Y-70446155D02*
X212049118Y-70446155D01*
X211430070Y-69446155D02*
X211334832Y-69446155D01*
X211334832Y-69446155D02*
X211239594Y-69493774D01*
X211239594Y-69493774D02*
X211191975Y-69541393D01*
X211191975Y-69541393D02*
X211144356Y-69636631D01*
X211144356Y-69636631D02*
X211096737Y-69827107D01*
X211096737Y-69827107D02*
X211096737Y-70065202D01*
X211096737Y-70065202D02*
X211144356Y-70255678D01*
X211144356Y-70255678D02*
X211191975Y-70350916D01*
X211191975Y-70350916D02*
X211239594Y-70398536D01*
X211239594Y-70398536D02*
X211334832Y-70446155D01*
X211334832Y-70446155D02*
X211430070Y-70446155D01*
X211430070Y-70446155D02*
X211525308Y-70398536D01*
X211525308Y-70398536D02*
X211572927Y-70350916D01*
X211572927Y-70350916D02*
X211620546Y-70255678D01*
X211620546Y-70255678D02*
X211668165Y-70065202D01*
X211668165Y-70065202D02*
X211668165Y-69827107D01*
X211668165Y-69827107D02*
X211620546Y-69636631D01*
X211620546Y-69636631D02*
X211572927Y-69541393D01*
X211572927Y-69541393D02*
X211525308Y-69493774D01*
X211525308Y-69493774D02*
X211430070Y-69446155D01*
X210715784Y-69541393D02*
X210668165Y-69493774D01*
X210668165Y-69493774D02*
X210572927Y-69446155D01*
X210572927Y-69446155D02*
X210334832Y-69446155D01*
X210334832Y-69446155D02*
X210239594Y-69493774D01*
X210239594Y-69493774D02*
X210191975Y-69541393D01*
X210191975Y-69541393D02*
X210144356Y-69636631D01*
X210144356Y-69636631D02*
X210144356Y-69731869D01*
X210144356Y-69731869D02*
X210191975Y-69874726D01*
X210191975Y-69874726D02*
X210763403Y-70446155D01*
X210763403Y-70446155D02*
X210144356Y-70446155D01*
X209287213Y-69446155D02*
X209477689Y-69446155D01*
X209477689Y-69446155D02*
X209572927Y-69493774D01*
X209572927Y-69493774D02*
X209620546Y-69541393D01*
X209620546Y-69541393D02*
X209715784Y-69684250D01*
X209715784Y-69684250D02*
X209763403Y-69874726D01*
X209763403Y-69874726D02*
X209763403Y-70255678D01*
X209763403Y-70255678D02*
X209715784Y-70350916D01*
X209715784Y-70350916D02*
X209668165Y-70398536D01*
X209668165Y-70398536D02*
X209572927Y-70446155D01*
X209572927Y-70446155D02*
X209382451Y-70446155D01*
X209382451Y-70446155D02*
X209287213Y-70398536D01*
X209287213Y-70398536D02*
X209239594Y-70350916D01*
X209239594Y-70350916D02*
X209191975Y-70255678D01*
X209191975Y-70255678D02*
X209191975Y-70017583D01*
X209191975Y-70017583D02*
X209239594Y-69922345D01*
X209239594Y-69922345D02*
X209287213Y-69874726D01*
X209287213Y-69874726D02*
X209382451Y-69827107D01*
X209382451Y-69827107D02*
X209572927Y-69827107D01*
X209572927Y-69827107D02*
X209668165Y-69874726D01*
X209668165Y-69874726D02*
X209715784Y-69922345D01*
X209715784Y-69922345D02*
X209763403Y-70017583D01*
X218144356Y-71008480D02*
X219001498Y-72294194D01*
X217096737Y-71008480D02*
X217953879Y-72294194D01*
X216477689Y-71056099D02*
X216477689Y-71770384D01*
X216477689Y-71770384D02*
X216525308Y-71913241D01*
X216525308Y-71913241D02*
X216620546Y-72008480D01*
X216620546Y-72008480D02*
X216763403Y-72056099D01*
X216763403Y-72056099D02*
X216858641Y-72056099D01*
X216001498Y-72056099D02*
X216001498Y-71056099D01*
X215430070Y-72056099D02*
X215858641Y-71484670D01*
X215430070Y-71056099D02*
X216001498Y-71627527D01*
X214811022Y-71056099D02*
X214620546Y-71056099D01*
X214620546Y-71056099D02*
X214525308Y-71103718D01*
X214525308Y-71103718D02*
X214430070Y-71198956D01*
X214430070Y-71198956D02*
X214382451Y-71389432D01*
X214382451Y-71389432D02*
X214382451Y-71722765D01*
X214382451Y-71722765D02*
X214430070Y-71913241D01*
X214430070Y-71913241D02*
X214525308Y-72008480D01*
X214525308Y-72008480D02*
X214620546Y-72056099D01*
X214620546Y-72056099D02*
X214811022Y-72056099D01*
X214811022Y-72056099D02*
X214906260Y-72008480D01*
X214906260Y-72008480D02*
X215001498Y-71913241D01*
X215001498Y-71913241D02*
X215049117Y-71722765D01*
X215049117Y-71722765D02*
X215049117Y-71389432D01*
X215049117Y-71389432D02*
X215001498Y-71198956D01*
X215001498Y-71198956D02*
X214906260Y-71103718D01*
X214906260Y-71103718D02*
X214811022Y-71056099D01*
%LPC*%
D11*
%TO.C,S1*%
X138191460Y-109643600D03*
X138191460Y-101443600D03*
D12*
X138191460Y-107543600D03*
X138191460Y-105543600D03*
X138191460Y-103543600D03*
%TD*%
D13*
%TO.C,J4*%
X155981400Y-141782800D03*
D14*
X155981400Y-139242800D03*
X158521400Y-141782800D03*
X158521400Y-139242800D03*
X161061400Y-141782800D03*
X161061400Y-139242800D03*
X163601400Y-141782800D03*
X163601400Y-139242800D03*
%TD*%
%TO.C,J6*%
X141071600Y-137566400D03*
X138531600Y-137566400D03*
D13*
X135991600Y-137566400D03*
%TD*%
%TO.C,J7*%
X212750400Y-77622400D03*
D14*
X210210400Y-77622400D03*
X212750400Y-75082400D03*
X210210400Y-75082400D03*
X212750400Y-72542400D03*
X210210400Y-72542400D03*
%TD*%
D13*
%TO.C,J5*%
X212852000Y-99237800D03*
D14*
X210312000Y-99237800D03*
X212852000Y-96697800D03*
X210312000Y-96697800D03*
X212852000Y-94157800D03*
X210312000Y-94157800D03*
X212852000Y-91617800D03*
X210312000Y-91617800D03*
%TD*%
D15*
%TO.C,S2*%
X154917200Y-76809600D03*
D16*
X150317200Y-76809600D03*
%TD*%
D13*
%TO.C,J3*%
X204866600Y-110998000D03*
D14*
X207406600Y-110998000D03*
X204866600Y-113538000D03*
X207406600Y-113538000D03*
X204866600Y-116078000D03*
X207406600Y-116078000D03*
X204866600Y-118618000D03*
X207406600Y-118618000D03*
X204866600Y-121158000D03*
X207406600Y-121158000D03*
X204866600Y-123698000D03*
X207406600Y-123698000D03*
X204866600Y-126238000D03*
X207406600Y-126238000D03*
X204866600Y-128778000D03*
X207406600Y-128778000D03*
X204866600Y-131318000D03*
X207406600Y-131318000D03*
X204866600Y-133858000D03*
X207406600Y-133858000D03*
%TD*%
D13*
%TO.C,J2*%
X137922000Y-129438400D03*
D14*
X137922000Y-126898400D03*
X137922000Y-124358400D03*
X137922000Y-121818400D03*
X137922000Y-119278400D03*
X137922000Y-116738400D03*
%TD*%
D17*
%TO.C,J1*%
X148067600Y-91389200D03*
D18*
X148067600Y-88889200D03*
X146067600Y-88889200D03*
X146067600Y-91389200D03*
D19*
X143357600Y-96159200D03*
X143357600Y-84119200D03*
%TD*%
%LPD*%
M02*
