M48
; DRILL file {KiCad 9.0.6} date 2026-07-11T20:04:46+0200
; FORMAT={-:-/ absolute / metric / decimal}
; #@! TF.CreationDate,2026-07-11T20:04:46+02:00
; #@! TF.GenerationSoftware,Kicad,Pcbnew,9.0.6
; #@! TF.FileFunction,Plated,1,4,PTH
FMAT,2
METRIC
; #@! TA.AperFunction,Plated,PTH,ViaDrill
T1C0.300
; #@! TA.AperFunction,Plated,PTH,ComponentDrill
T2C0.800
; #@! TA.AperFunction,Plated,PTH,ComponentDrill
T3C0.920
; #@! TA.AperFunction,Plated,PTH,ComponentDrill
T4C1.100
; #@! TA.AperFunction,Plated,PTH,ComponentDrill
T5C1.500
; #@! TA.AperFunction,Plated,PTH,ComponentDrill
T6C1.650
; #@! TA.AperFunction,Plated,PTH,ComponentDrill
T7C2.300
%
G90
G05
T1
X133.553Y-141.961
X134.722Y-105.816
X137.135Y-90.043
X137.897Y-132.867
X139.7Y-79.4
X139.751Y-103.581
X142.799Y-128.27
X143.561Y-76.86
X144.678Y-141.986
X145.288Y-100.228
X146.406Y-104.191
X149.682Y-69.85
X150.622Y-128.372
X150.774Y-122.53
X150.774Y-124.409
X150.825Y-119.075
X151.757Y-106.05
X152.248Y-115.316
X153.264Y-129.286
X154.889Y-78.791
X155.194Y-100.228
X155.245Y-129.171
X155.448Y-90.119
X156.007Y-113.03
X156.021Y-110.513
X156.031Y-111.862
X156.921Y-110.49
X156.931Y-111.847
X156.972Y-83.312
X156.972Y-124.499
X157.074Y-127.964
X157.226Y-91.948
X157.429Y-117.094
X157.836Y-110.513
X157.836Y-111.862
X159.106Y-116.383
X159.512Y-110.513
X160.02Y-118.923
X160.147Y-83.591
X160.35Y-89.002
X160.376Y-92.05
X160.528Y-93.269
X160.712Y-86.159
X160.731Y-118.008
X161.036Y-114.148
X161.138Y-97.536
X161.341Y-86.803
X161.646Y-95.707
X162.56Y-84.48
X162.865Y-67.056
X163.017Y-95.707
X163.322Y-109.525
X163.474Y-122.022
X163.474Y-123.139
X163.474Y-124.104
X164.084Y-104.089
X164.37Y-93.16
X164.49Y-71.577
X164.541Y-81.636
X164.643Y-88.799
X164.949Y-94.593
X165.147Y-108.36
X165.151Y-91.638
X165.456Y-86.716
X165.811Y-83.312
X165.862Y-80.162
X165.964Y-71.933
X166.522Y-131.724
X166.624Y-124.206
X166.726Y-122.276
X166.74Y-128.27
X166.929Y-129.438
X167.39Y-125.635
X167.538Y-78.461
X167.589Y-84.226
X167.691Y-80.936
X168.288Y-125.572
X168.758Y-71.78
X168.91Y-132.131
X168.961Y-110.388
X169.163Y-125.36
X169.18Y-106.477
X169.596Y-117.922
X169.596Y-119.649
X169.596Y-121.376
X169.855Y-105.532
X169.974Y-101.703
X170.022Y-125.094
X170.558Y-112.99
X170.586Y-76.759
X171.044Y-132.74
X171.22Y-130.875
X171.245Y-131.82
X171.247Y-72.593
X171.266Y-129.976
X171.355Y-104.038
X171.374Y-117.922
X171.374Y-121.376
X171.399Y-80.721
X171.45Y-99.568
X171.552Y-110.388
X171.616Y-124.192
X171.704Y-111.404
X172.415Y-108.153
X172.517Y-107.137
X173.0Y-127.6
X173.025Y-79.578
X173.101Y-117.871
X173.101Y-119.649
X173.101Y-121.376
X173.177Y-82.093
X173.177Y-97.738
X173.8Y-127.6
X173.838Y-103.327
X174.193Y-82.042
X174.269Y-83.388
X174.287Y-108.081
X174.447Y-80.62
X174.523Y-77.343
X174.65Y-68.58
X174.701Y-112.522
X174.709Y-70.909
X174.904Y-113.894
X175.432Y-107.259
X175.92Y-127.508
X176.124Y-68.58
X176.2Y-70.8
X176.479Y-97.18
X176.632Y-100.686
X176.8Y-69.8
X177.186Y-115.13
X177.546Y-84.328
X177.648Y-100.036
X177.851Y-96.622
X178.308Y-111.15
X178.968Y-126.086
X179.049Y-93.826
X179.07Y-80.721
X179.07Y-87.02
X179.781Y-90.272
X180.746Y-93.523
X182.829Y-89.764
X182.902Y-92.587
X183.683Y-133.71
X183.794Y-119.945
X184.343Y-105.658
X184.648Y-116.539
X185.156Y-142.447
X185.817Y-130.713
X186.477Y-142.346
X187.0Y-71.462
X187.671Y-108.538
X188.32Y-106.989
X188.6Y-74.4
X189.271Y-129.083
X189.8Y-140.4
X189.83Y-115.015
X190.696Y-91.846
X190.709Y-94.536
X190.715Y-90.322
X190.725Y-88.796
X190.736Y-93.37
X191.0Y-128.8
X191.4Y-115.408
X191.913Y-121.924
X191.913Y-124.972
X191.963Y-117.403
X192.319Y-102.569
X192.37Y-107.141
X192.37Y-110.189
X192.421Y-113.237
X193.081Y-141.173
X193.132Y-127.813
X193.183Y-114.558
X193.64Y-134.976
X193.691Y-133.6
X193.691Y-138.278
X193.792Y-131.623
X194.148Y-126.187
X194.8Y-69.836
X194.8Y-73.2
X195.548Y-82.621
X195.758Y-86.4
X196.6Y-77.2
X197.619Y-76.9
X197.866Y-89.914
X198.069Y-91.387
X198.095Y-104.267
X198.619Y-77.1
X198.628Y-142.85
X199.136Y-91.844
X200.202Y-91.489
X200.312Y-79.26
X200.507Y-90.219
X201.619Y-82.9
X204.394Y-67.818
X206.172Y-102.591
X206.223Y-87.452
X215.824Y-104.394
X216.154Y-142.697
X217.373Y-87.427
X217.703Y-67.589
T2
X138.191Y-103.544
X138.191Y-105.544
X138.191Y-107.544
T3
X146.068Y-88.889
X146.068Y-91.389
X148.068Y-88.889
X148.068Y-91.389
T4
X135.992Y-137.566
X137.922Y-116.738
X137.922Y-119.278
X137.922Y-121.818
X137.922Y-124.358
X137.922Y-126.898
X137.922Y-129.438
X138.532Y-137.566
X141.072Y-137.566
X155.981Y-139.243
X155.981Y-141.783
X158.521Y-139.243
X158.521Y-141.783
X161.061Y-139.243
X161.061Y-141.783
X163.601Y-139.243
X163.601Y-141.783
X204.867Y-110.998
X204.867Y-113.538
X204.867Y-116.078
X204.867Y-118.618
X204.867Y-121.158
X204.867Y-123.698
X204.867Y-126.238
X204.867Y-128.778
X204.867Y-131.318
X204.867Y-133.858
X207.407Y-110.998
X207.407Y-113.538
X207.407Y-116.078
X207.407Y-118.618
X207.407Y-121.158
X207.407Y-123.698
X207.407Y-126.238
X207.407Y-128.778
X207.407Y-131.318
X207.407Y-133.858
X210.21Y-72.542
X210.21Y-75.082
X210.21Y-77.622
X210.312Y-91.618
X210.312Y-94.158
X210.312Y-96.698
X210.312Y-99.238
X212.75Y-72.542
X212.75Y-75.082
X212.75Y-77.622
X212.852Y-91.618
X212.852Y-94.158
X212.852Y-96.698
X212.852Y-99.238
T5
X138.191Y-101.444
X138.191Y-109.644
T6
X150.317Y-76.81
X154.917Y-76.81
T7
X143.358Y-84.119
X143.358Y-96.159
M30
