%TF.GenerationSoftware,KiCad,Pcbnew,9.0.6*%
%TF.CreationDate,2026-07-11T20:03:06+02:00*%
%TF.ProjectId,iCE40UP5K_logic_analyzer_rev2,69434534-3055-4503-954b-5f6c6f676963,rev?*%
%TF.SameCoordinates,Original*%
%TF.FileFunction,Copper,L2,Inr*%
%TF.FilePolarity,Positive*%
%FSLAX46Y46*%
G04 Gerber Fmt 4.6, Leading zero omitted, Abs format (unit mm)*
G04 Created by KiCad (PCBNEW 9.0.6) date 2026-07-11 20:03:06*
%MOMM*%
%LPD*%
G01*
G04 APERTURE LIST*
%TA.AperFunction,ComponentPad*%
%ADD10C,2.250000*%
%TD*%
%TA.AperFunction,ComponentPad*%
%ADD11C,1.300000*%
%TD*%
%TA.AperFunction,ComponentPad*%
%ADD12R,1.650000X1.650000*%
%TD*%
%TA.AperFunction,ComponentPad*%
%ADD13C,1.650000*%
%TD*%
%TA.AperFunction,ComponentPad*%
%ADD14R,2.475000X2.475000*%
%TD*%
%TA.AperFunction,ComponentPad*%
%ADD15C,2.475000*%
%TD*%
%TA.AperFunction,ComponentPad*%
%ADD16R,1.420000X1.420000*%
%TD*%
%TA.AperFunction,ComponentPad*%
%ADD17C,1.420000*%
%TD*%
%TA.AperFunction,ComponentPad*%
%ADD18C,3.450000*%
%TD*%
%TA.AperFunction,ViaPad*%
%ADD19C,0.700000*%
%TD*%
G04 APERTURE END LIST*
D10*
%TO.N,N/C*%
%TO.C,S1*%
X138191460Y-109643600D03*
X138191460Y-101443600D03*
D11*
%TO.N,unconnected-(S1-Pad3)*%
X138191460Y-107543600D03*
%TO.N,/CRESET_B*%
X138191460Y-105543600D03*
%TO.N,GND*%
X138191460Y-103543600D03*
%TD*%
D12*
%TO.N,GND*%
%TO.C,J4*%
X155981400Y-141782800D03*
D13*
%TO.N,/FPGA_DBG0*%
X155981400Y-139242800D03*
%TO.N,GND*%
X158521400Y-141782800D03*
%TO.N,/FPGA_DBG1*%
X158521400Y-139242800D03*
%TO.N,GND*%
X161061400Y-141782800D03*
%TO.N,/FPGA_DBG2*%
X161061400Y-139242800D03*
%TO.N,GND*%
X163601400Y-141782800D03*
%TO.N,/FPGA_DBG3*%
X163601400Y-139242800D03*
%TD*%
%TO.N,/CDONE*%
%TO.C,J6*%
X141071600Y-137566400D03*
%TO.N,/CRESET_B*%
X138531600Y-137566400D03*
D12*
%TO.N,GND*%
X135991600Y-137566400D03*
%TD*%
%TO.N,GND*%
%TO.C,J7*%
X212750400Y-77622400D03*
D13*
%TO.N,+5V*%
X210210400Y-77622400D03*
%TO.N,GND*%
X212750400Y-75082400D03*
%TO.N,+3V3*%
X210210400Y-75082400D03*
%TO.N,GND*%
X212750400Y-72542400D03*
%TO.N,+1V2*%
X210210400Y-72542400D03*
%TD*%
D12*
%TO.N,GND*%
%TO.C,J5*%
X212852000Y-99237800D03*
D13*
%TO.N,/FPGA_UART_RX*%
X210312000Y-99237800D03*
%TO.N,GND*%
X212852000Y-96697800D03*
%TO.N,/FPGA_UART_TX*%
X210312000Y-96697800D03*
%TO.N,GND*%
X212852000Y-94157800D03*
%TO.N,/RTS#*%
X210312000Y-94157800D03*
%TO.N,GND*%
X212852000Y-91617800D03*
%TO.N,/CTS#*%
X210312000Y-91617800D03*
%TD*%
D14*
%TO.N,+5V*%
%TO.C,S2*%
X154917200Y-76809600D03*
D15*
%TO.N,Net-(FL1-Pad1)*%
X150317200Y-76809600D03*
%TD*%
D12*
%TO.N,GND*%
%TO.C,J3*%
X204866600Y-110998000D03*
D13*
%TO.N,/LA0_raw*%
X207406600Y-110998000D03*
%TO.N,/LA1_raw*%
X204866600Y-113538000D03*
%TO.N,/LA2_raw*%
X207406600Y-113538000D03*
%TO.N,/LA3_raw*%
X204866600Y-116078000D03*
%TO.N,GND*%
X207406600Y-116078000D03*
%TO.N,/LA4_raw*%
X204866600Y-118618000D03*
%TO.N,/LA5_raw*%
X207406600Y-118618000D03*
%TO.N,/LA6_raw*%
X204866600Y-121158000D03*
%TO.N,/LA7_raw*%
X207406600Y-121158000D03*
%TO.N,GND*%
X204866600Y-123698000D03*
%TO.N,/LA8_raw*%
X207406600Y-123698000D03*
%TO.N,/LA9_raw*%
X204866600Y-126238000D03*
%TO.N,/LA10_raw*%
X207406600Y-126238000D03*
%TO.N,/LA11_raw*%
X204866600Y-128778000D03*
%TO.N,GND*%
X207406600Y-128778000D03*
%TO.N,/LA12_raw*%
X204866600Y-131318000D03*
%TO.N,/LA13_raw*%
X207406600Y-131318000D03*
%TO.N,/LA14_raw*%
X204866600Y-133858000D03*
%TO.N,/LA15_raw*%
X207406600Y-133858000D03*
%TD*%
D12*
%TO.N,GND*%
%TO.C,J2*%
X137922000Y-129438400D03*
D13*
%TO.N,Net-(J2-Pad2)*%
X137922000Y-126898400D03*
%TO.N,Net-(J2-Pad3)*%
X137922000Y-124358400D03*
%TO.N,Net-(J2-Pad4)*%
X137922000Y-121818400D03*
%TO.N,/SPI_MISO*%
X137922000Y-119278400D03*
%TO.N,Net-(J2-Pad6)*%
X137922000Y-116738400D03*
%TD*%
D16*
%TO.N,Net-(D1-K)*%
%TO.C,J1*%
X148067600Y-91389200D03*
D17*
%TO.N,/USB_D-*%
X148067600Y-88889200D03*
%TO.N,/USB_D+*%
X146067600Y-88889200D03*
%TO.N,GND*%
X146067600Y-91389200D03*
D18*
X143357600Y-96159200D03*
X143357600Y-84119200D03*
%TD*%
D19*
%TO.N,/SPI_MOSI*%
X150774400Y-122529600D03*
%TO.N,GND*%
X139750800Y-103581200D03*
X134721600Y-105816400D03*
X174269400Y-83388200D03*
X177850800Y-96621600D03*
X174447200Y-80619600D03*
X160350200Y-89001600D03*
X144678400Y-141986000D03*
X133553200Y-141960600D03*
X137896600Y-132867400D03*
X137134600Y-90043000D03*
X143560800Y-76860400D03*
X149682200Y-69850000D03*
X217703400Y-67589400D03*
X204393800Y-67818000D03*
X217373200Y-87426800D03*
X206222600Y-87452200D03*
X216154000Y-142697200D03*
X198628000Y-142849600D03*
X215823800Y-104394000D03*
X206171800Y-102590600D03*
X198094600Y-104267000D03*
%TO.N,+3V3*%
X189800000Y-140400000D03*
X191000000Y-128800000D03*
X176200000Y-70800000D03*
X194800000Y-69836300D03*
%TO.N,+1V2*%
X200507200Y-90218600D03*
X200202400Y-91488600D03*
X199135600Y-91844200D03*
X198068800Y-91387000D03*
%TO.N,+3V3*%
X198619200Y-77100000D03*
X196600000Y-77200000D03*
X197619200Y-76900000D03*
X194800000Y-73200000D03*
%TO.N,/FTDI_TX_LED#*%
X187000000Y-71461900D03*
%TO.N,/FTDI_RX_LED#*%
X188600000Y-74400000D03*
%TO.N,+3V3*%
X190708533Y-94535523D03*
X190735561Y-93370270D03*
X190696301Y-91846400D03*
X190714691Y-90322400D03*
X190724632Y-88796217D03*
%TO.N,GND*%
X201619200Y-82900000D03*
X195548400Y-82620800D03*
X195758000Y-86400000D03*
X200311600Y-79260000D03*
%TO.N,+1V2*%
X197865600Y-89913800D03*
%TO.N,/FTDI_RX_LED#*%
X176631600Y-100685600D03*
%TO.N,/FTDI_TX_LED#*%
X177647600Y-100035600D03*
%TO.N,+3V3*%
X176123600Y-68580000D03*
X165147120Y-108360080D03*
%TO.N,+1V2*%
X166740171Y-128270000D03*
%TO.N,+3V3*%
X174709000Y-70909000D03*
X174650400Y-68580000D03*
%TO.N,+5V*%
X170586400Y-76758800D03*
%TO.N,GND*%
X139700000Y-79400400D03*
%TO.N,+5V*%
X154889200Y-78790800D03*
%TO.N,+3V3*%
X165811200Y-83312000D03*
X164541200Y-81635600D03*
%TO.N,+1V8*%
X163017200Y-95707200D03*
X180746400Y-93522800D03*
X177546000Y-84328000D03*
X167589200Y-84226400D03*
%TO.N,+3V3*%
X166725600Y-122275600D03*
X166624000Y-124206000D03*
X152247600Y-115316000D03*
X142798800Y-128270000D03*
%TO.N,+5V*%
X164490400Y-71577200D03*
%TO.N,+3V3*%
X160711614Y-86159273D03*
X179781200Y-90271600D03*
X173024800Y-79578200D03*
X173177200Y-82092800D03*
X174193200Y-82042000D03*
%TO.N,GND*%
X168757600Y-71780400D03*
X171246800Y-72593200D03*
X165963600Y-71932800D03*
%TO.N,+3V3*%
X174904400Y-113893600D03*
X174701200Y-112522000D03*
%TO.N,+1V2*%
X166928800Y-129438400D03*
%TO.N,+3V3*%
X175920400Y-127508000D03*
%TO.N,+1V2*%
X170557741Y-112989808D03*
%TO.N,GND*%
X171551600Y-110388400D03*
%TO.N,+1V2*%
X168960800Y-110388400D03*
%TO.N,/FPGA_UART_TX*%
X172415200Y-108153200D03*
%TO.N,+3V3*%
X161137600Y-97536000D03*
X160528000Y-93268800D03*
%TO.N,+5V*%
X145288000Y-100228400D03*
%TO.N,+3V3*%
X155194000Y-100228400D03*
X163322000Y-109524800D03*
X161036000Y-114147600D03*
%TO.N,GND*%
X173837600Y-103327200D03*
%TO.N,/FPGA_UART_RX*%
X175432498Y-107258898D03*
X169180102Y-106476800D03*
%TO.N,GND*%
X164084000Y-104089200D03*
%TO.N,/FPGA_UART_TX*%
X174286800Y-108081238D03*
%TO.N,+3V3*%
X176479200Y-97180400D03*
X171450000Y-99568000D03*
%TO.N,GND*%
X162864800Y-67056000D03*
%TO.N,/CDONE*%
X159512000Y-110512600D03*
X156006800Y-113030000D03*
%TO.N,/UART_RX_LED*%
X156921200Y-110490000D03*
X156931010Y-111846711D03*
%TO.N,GND*%
X146405600Y-104190800D03*
%TO.N,/USER_LED*%
X157835600Y-110512600D03*
X157835600Y-111861600D03*
%TO.N,/UART_TX_LED*%
X156031133Y-111861730D03*
X156021481Y-110512601D03*
%TO.N,/CTS#*%
X171354600Y-104038400D03*
%TO.N,/FPGA_UART_RX*%
X172516800Y-107137200D03*
%TO.N,/CTS#*%
X169855102Y-105531698D03*
%TO.N,GND*%
X178968400Y-126085600D03*
X173800000Y-127600000D03*
X173000000Y-127600000D03*
%TO.N,/LA12*%
X171266317Y-129976141D03*
X170022278Y-125093757D03*
%TO.N,/LA15*%
X171043600Y-132740400D03*
X167390171Y-125635214D03*
%TO.N,/LA14*%
X171245456Y-131819817D03*
X168287980Y-125572421D03*
%TO.N,/LA13*%
X171219820Y-130874941D03*
X169162548Y-125359969D03*
%TO.N,GND*%
X168910000Y-132130800D03*
X193792200Y-131622800D03*
X194147800Y-126187200D03*
X193131800Y-127812800D03*
%TO.N,+3V3*%
X191399994Y-115407748D03*
%TO.N,GND*%
X193690600Y-138277600D03*
X193639800Y-134975600D03*
X193690600Y-133599800D03*
X193081000Y-141173200D03*
X178308000Y-111150400D03*
X183683000Y-133709800D03*
X186477000Y-142345800D03*
X185156200Y-142447400D03*
X185816600Y-130712600D03*
X189271000Y-129082800D03*
X191912600Y-124972200D03*
X191912600Y-121924200D03*
X191963400Y-117403000D03*
X183794400Y-119944800D03*
X189829800Y-115015400D03*
X192420600Y-113237400D03*
X193182600Y-114558200D03*
X184648200Y-116539400D03*
X192369800Y-110189400D03*
X192319000Y-102569400D03*
X192369800Y-107141400D03*
%TO.N,/LA2*%
X187670800Y-108538400D03*
X188320400Y-106989000D03*
%TO.N,GND*%
X184343400Y-105657800D03*
X163474400Y-124104400D03*
%TO.N,+3V3*%
X153263600Y-129286000D03*
%TO.N,GND*%
X150622000Y-128371600D03*
%TO.N,/SPI_CSn*%
X160731200Y-118008400D03*
X159105600Y-116382800D03*
%TO.N,/SPI_MOSI*%
X150774400Y-124409200D03*
%TO.N,GND*%
X150825200Y-119075200D03*
%TO.N,/SPI_MISO*%
X160020000Y-118922800D03*
X157429200Y-117094000D03*
%TO.N,GND*%
X163474400Y-123139200D03*
%TO.N,+3V3*%
X155244800Y-129170634D03*
X156972000Y-124499200D03*
%TO.N,GND*%
X157073600Y-127963634D03*
X171704000Y-111404400D03*
X163474400Y-122021600D03*
X166522400Y-131724400D03*
X167538400Y-78460600D03*
X156972000Y-83312000D03*
X160147000Y-83591400D03*
X161340800Y-86802802D03*
X161645600Y-95707200D03*
X157226000Y-91948000D03*
X160375600Y-92049600D03*
X179070000Y-80721200D03*
X171399200Y-80721200D03*
X174523400Y-77343000D03*
X167691200Y-80935600D03*
X165862000Y-80162400D03*
X182829200Y-89763600D03*
X179070000Y-87020400D03*
X182901780Y-92586620D03*
X179049202Y-93826465D03*
X169595800Y-117922000D03*
X173101000Y-121376400D03*
X177185942Y-115129600D03*
X164370175Y-93159775D03*
X169595800Y-121376400D03*
X162560000Y-84480400D03*
X165455600Y-86715600D03*
X151757393Y-106049534D03*
X155448000Y-90119200D03*
X164642800Y-88799400D03*
X169595800Y-119649200D03*
X165150800Y-91637600D03*
X171373800Y-117922000D03*
X164949225Y-94592814D03*
X169973698Y-101702902D03*
X173177200Y-97737602D03*
X171373800Y-121376400D03*
X173101000Y-117871200D03*
X173101000Y-119649200D03*
%TO.N,+3V3*%
X176800000Y-69800000D03*
%TO.N,+1V2*%
X171615613Y-124191598D03*
%TD*%
%TA.AperFunction,Conductor*%
%TO.N,GND*%
G36*
X157322845Y-139841735D02*
G01*
X157361885Y-139886790D01*
X157387728Y-139937512D01*
X157469486Y-140050041D01*
X157510365Y-140106305D01*
X157657895Y-140253835D01*
X157743778Y-140316233D01*
X157826687Y-140376471D01*
X157877961Y-140402596D01*
X157928758Y-140450570D01*
X157945553Y-140518391D01*
X157923016Y-140584526D01*
X157877963Y-140623565D01*
X157826955Y-140649555D01*
X157777580Y-140685427D01*
X158351166Y-141259012D01*
X158309108Y-141270282D01*
X158183692Y-141342690D01*
X158081290Y-141445092D01*
X158008882Y-141570508D01*
X157997612Y-141612565D01*
X157418140Y-141033093D01*
X157371752Y-141023349D01*
X157321995Y-140974298D01*
X157306400Y-140914095D01*
X157306400Y-140909972D01*
X157306399Y-140909955D01*
X157299998Y-140850423D01*
X157299997Y-140850422D01*
X157291122Y-140826629D01*
X157291120Y-140826629D01*
X156505186Y-141612563D01*
X156493918Y-141570508D01*
X156421510Y-141445092D01*
X156319108Y-141342690D01*
X156193692Y-141270282D01*
X156151635Y-141259012D01*
X156937570Y-140473077D01*
X156937570Y-140473076D01*
X156913775Y-140464201D01*
X156906227Y-140462418D01*
X156906881Y-140459646D01*
X156854761Y-140438043D01*
X156814927Y-140380641D01*
X156812450Y-140310815D01*
X156844907Y-140253832D01*
X156992435Y-140106305D01*
X157115070Y-139937514D01*
X157140915Y-139886790D01*
X157188889Y-139835994D01*
X157256710Y-139819198D01*
X157322845Y-139841735D01*
G37*
%TD.AperFunction*%
%TA.AperFunction,Conductor*%
G36*
X159862845Y-139841735D02*
G01*
X159901885Y-139886790D01*
X159927728Y-139937512D01*
X160009486Y-140050041D01*
X160050365Y-140106305D01*
X160197895Y-140253835D01*
X160283778Y-140316233D01*
X160366687Y-140376471D01*
X160417961Y-140402596D01*
X160468758Y-140450570D01*
X160485553Y-140518391D01*
X160463016Y-140584526D01*
X160417963Y-140623565D01*
X160366955Y-140649555D01*
X160317580Y-140685427D01*
X160891166Y-141259012D01*
X160849108Y-141270282D01*
X160723692Y-141342690D01*
X160621290Y-141445092D01*
X160548882Y-141570508D01*
X160537612Y-141612565D01*
X159964027Y-141038980D01*
X159928155Y-141088355D01*
X159901884Y-141139915D01*
X159853910Y-141190710D01*
X159786089Y-141207505D01*
X159719954Y-141184967D01*
X159680916Y-141139915D01*
X159654647Y-141088361D01*
X159654636Y-141088343D01*
X159618772Y-141038980D01*
X159618771Y-141038979D01*
X159045187Y-141612564D01*
X159033918Y-141570508D01*
X158961510Y-141445092D01*
X158859108Y-141342690D01*
X158733692Y-141270282D01*
X158691633Y-141259012D01*
X159265219Y-140685427D01*
X159215851Y-140649559D01*
X159164837Y-140623566D01*
X159114041Y-140575591D01*
X159097246Y-140507770D01*
X159119784Y-140441635D01*
X159164838Y-140402596D01*
X159216112Y-140376471D01*
X159216111Y-140376471D01*
X159216114Y-140376470D01*
X159384905Y-140253835D01*
X159532435Y-140106305D01*
X159655070Y-139937514D01*
X159680915Y-139886790D01*
X159728889Y-139835994D01*
X159796710Y-139819198D01*
X159862845Y-139841735D01*
G37*
%TD.AperFunction*%
%TA.AperFunction,Conductor*%
G36*
X162402845Y-139841735D02*
G01*
X162441885Y-139886790D01*
X162467728Y-139937512D01*
X162549486Y-140050041D01*
X162590365Y-140106305D01*
X162737895Y-140253835D01*
X162823778Y-140316233D01*
X162906687Y-140376471D01*
X162957961Y-140402596D01*
X163008758Y-140450570D01*
X163025553Y-140518391D01*
X163003016Y-140584526D01*
X162957963Y-140623565D01*
X162906955Y-140649555D01*
X162857580Y-140685427D01*
X163431166Y-141259012D01*
X163389108Y-141270282D01*
X163263692Y-141342690D01*
X163161290Y-141445092D01*
X163088882Y-141570508D01*
X163077612Y-141612565D01*
X162504027Y-141038980D01*
X162468155Y-141088355D01*
X162441884Y-141139915D01*
X162393910Y-141190710D01*
X162326089Y-141207505D01*
X162259954Y-141184967D01*
X162220916Y-141139915D01*
X162194647Y-141088361D01*
X162194636Y-141088343D01*
X162158772Y-141038980D01*
X162158771Y-141038979D01*
X161585187Y-141612564D01*
X161573918Y-141570508D01*
X161501510Y-141445092D01*
X161399108Y-141342690D01*
X161273692Y-141270282D01*
X161231633Y-141259012D01*
X161805219Y-140685427D01*
X161755851Y-140649559D01*
X161704837Y-140623566D01*
X161654041Y-140575591D01*
X161637246Y-140507770D01*
X161659784Y-140441635D01*
X161704838Y-140402596D01*
X161756112Y-140376471D01*
X161756111Y-140376471D01*
X161756114Y-140376470D01*
X161924905Y-140253835D01*
X162072435Y-140106305D01*
X162195070Y-139937514D01*
X162220915Y-139886790D01*
X162268889Y-139835994D01*
X162336710Y-139819198D01*
X162402845Y-139841735D01*
G37*
%TD.AperFunction*%
%TA.AperFunction,Conductor*%
G36*
X206894082Y-128990292D02*
G01*
X206966490Y-129115708D01*
X207068892Y-129218110D01*
X207194308Y-129290518D01*
X207236365Y-129301787D01*
X206662779Y-129875371D01*
X206662780Y-129875372D01*
X206712143Y-129911236D01*
X206712161Y-129911247D01*
X206763161Y-129937233D01*
X206813958Y-129985207D01*
X206830753Y-130053028D01*
X206808216Y-130119163D01*
X206763163Y-130158202D01*
X206711888Y-130184328D01*
X206543093Y-130306966D01*
X206395566Y-130454493D01*
X206272930Y-130623285D01*
X206247085Y-130674010D01*
X206199110Y-130724806D01*
X206131290Y-130741601D01*
X206065155Y-130719064D01*
X206026115Y-130674010D01*
X206002094Y-130626866D01*
X206000270Y-130623286D01*
X205877635Y-130454495D01*
X205730105Y-130306965D01*
X205660254Y-130256215D01*
X205561312Y-130184328D01*
X205510590Y-130158485D01*
X205459794Y-130110511D01*
X205442998Y-130042690D01*
X205465535Y-129976555D01*
X205510590Y-129937515D01*
X205561312Y-129911671D01*
X205561311Y-129911671D01*
X205561314Y-129911670D01*
X205730105Y-129789035D01*
X205877635Y-129641505D01*
X206000270Y-129472714D01*
X206026396Y-129421437D01*
X206074369Y-129370642D01*
X206142190Y-129353846D01*
X206208325Y-129376383D01*
X206247366Y-129421437D01*
X206273359Y-129472451D01*
X206309227Y-129521818D01*
X206309227Y-129521819D01*
X206882812Y-128948234D01*
X206894082Y-128990292D01*
G37*
%TD.AperFunction*%
%TA.AperFunction,Conductor*%
G36*
X206208045Y-126836935D02*
G01*
X206247085Y-126881990D01*
X206272928Y-126932712D01*
X206296995Y-126965837D01*
X206395565Y-127101505D01*
X206543095Y-127249035D01*
X206558084Y-127259925D01*
X206711887Y-127371671D01*
X206763161Y-127397796D01*
X206813958Y-127445770D01*
X206830753Y-127513591D01*
X206808216Y-127579726D01*
X206763163Y-127618765D01*
X206712155Y-127644755D01*
X206662780Y-127680627D01*
X207236366Y-128254212D01*
X207194308Y-128265482D01*
X207068892Y-128337890D01*
X206966490Y-128440292D01*
X206894082Y-128565708D01*
X206882812Y-128607765D01*
X206309227Y-128034180D01*
X206273355Y-128083555D01*
X206247365Y-128134563D01*
X206199390Y-128185358D01*
X206131569Y-128202153D01*
X206065434Y-128179615D01*
X206026396Y-128134561D01*
X206000271Y-128083287D01*
X205915353Y-127966409D01*
X205877635Y-127914495D01*
X205730105Y-127766965D01*
X205611272Y-127680627D01*
X205561312Y-127644328D01*
X205510590Y-127618485D01*
X205459794Y-127570511D01*
X205442998Y-127502690D01*
X205465535Y-127436555D01*
X205510590Y-127397515D01*
X205561312Y-127371671D01*
X205561311Y-127371671D01*
X205561314Y-127371670D01*
X205730105Y-127249035D01*
X205877635Y-127101505D01*
X206000270Y-126932714D01*
X206026115Y-126881990D01*
X206074089Y-126831194D01*
X206141910Y-126814398D01*
X206208045Y-126836935D01*
G37*
%TD.AperFunction*%
%TA.AperFunction,Conductor*%
G36*
X205963971Y-124441818D02*
G01*
X205963972Y-124441818D01*
X205999842Y-124392449D01*
X205999842Y-124392448D01*
X206025833Y-124341438D01*
X206073806Y-124290642D01*
X206141627Y-124273846D01*
X206207762Y-124296383D01*
X206246803Y-124341437D01*
X206272930Y-124392714D01*
X206395565Y-124561505D01*
X206543095Y-124709035D01*
X206711886Y-124831670D01*
X206750993Y-124851596D01*
X206762610Y-124857515D01*
X206813406Y-124905490D01*
X206830201Y-124973310D01*
X206807664Y-125039445D01*
X206762610Y-125078485D01*
X206711885Y-125104330D01*
X206543092Y-125226967D01*
X206395566Y-125374493D01*
X206272930Y-125543285D01*
X206247085Y-125594010D01*
X206199110Y-125644806D01*
X206131290Y-125661601D01*
X206065155Y-125639064D01*
X206026115Y-125594010D01*
X206011787Y-125565890D01*
X206000270Y-125543286D01*
X205877635Y-125374495D01*
X205730105Y-125226965D01*
X205561314Y-125104330D01*
X205539180Y-125093052D01*
X205510037Y-125078203D01*
X205459241Y-125030228D01*
X205442446Y-124962407D01*
X205464984Y-124896272D01*
X205510038Y-124857233D01*
X205561048Y-124831242D01*
X205561049Y-124831242D01*
X205610418Y-124795372D01*
X205610418Y-124795371D01*
X205036834Y-124221787D01*
X205078892Y-124210518D01*
X205204308Y-124138110D01*
X205306710Y-124035708D01*
X205379118Y-123910292D01*
X205390387Y-123868234D01*
X205963971Y-124441818D01*
G37*
%TD.AperFunction*%
%TA.AperFunction,Conductor*%
G36*
X206208045Y-121756935D02*
G01*
X206247085Y-121801990D01*
X206272928Y-121852712D01*
X206287479Y-121872739D01*
X206395565Y-122021505D01*
X206543095Y-122169035D01*
X206711886Y-122291670D01*
X206758871Y-122315610D01*
X206762610Y-122317515D01*
X206813406Y-122365490D01*
X206830201Y-122433310D01*
X206807664Y-122499445D01*
X206762610Y-122538485D01*
X206711885Y-122564330D01*
X206543093Y-122686966D01*
X206395566Y-122834493D01*
X206272928Y-123003288D01*
X206246802Y-123054563D01*
X206198827Y-123105358D01*
X206131006Y-123122153D01*
X206064872Y-123099615D01*
X206025833Y-123054561D01*
X205999847Y-123003561D01*
X205999836Y-123003543D01*
X205963972Y-122954180D01*
X205963971Y-122954179D01*
X205390387Y-123527764D01*
X205379118Y-123485708D01*
X205306710Y-123360292D01*
X205204308Y-123257890D01*
X205078892Y-123185482D01*
X205036833Y-123174212D01*
X205610419Y-122600627D01*
X205561051Y-122564759D01*
X205510037Y-122538766D01*
X205459241Y-122490791D01*
X205442446Y-122422970D01*
X205464984Y-122356835D01*
X205510038Y-122317796D01*
X205561312Y-122291671D01*
X205561311Y-122291671D01*
X205561314Y-122291670D01*
X205730105Y-122169035D01*
X205877635Y-122021505D01*
X206000270Y-121852714D01*
X206026115Y-121801990D01*
X206074089Y-121751194D01*
X206141910Y-121734398D01*
X206208045Y-121756935D01*
G37*
%TD.AperFunction*%
%TA.AperFunction,Conductor*%
G36*
X206894082Y-116290292D02*
G01*
X206966490Y-116415708D01*
X207068892Y-116518110D01*
X207194308Y-116590518D01*
X207236365Y-116601787D01*
X206662779Y-117175371D01*
X206662780Y-117175372D01*
X206712143Y-117211236D01*
X206712161Y-117211247D01*
X206763161Y-117237233D01*
X206813958Y-117285207D01*
X206830753Y-117353028D01*
X206808216Y-117419163D01*
X206763163Y-117458202D01*
X206711888Y-117484328D01*
X206543093Y-117606966D01*
X206543092Y-117606967D01*
X206400627Y-117749433D01*
X206395565Y-117754495D01*
X206327845Y-117847703D01*
X206272930Y-117923285D01*
X206247085Y-117974010D01*
X206199110Y-118024806D01*
X206131290Y-118041601D01*
X206065155Y-118019064D01*
X206026115Y-117974010D01*
X206011078Y-117944499D01*
X206000270Y-117923286D01*
X205877635Y-117754495D01*
X205730105Y-117606965D01*
X205673841Y-117566086D01*
X205561312Y-117484328D01*
X205510590Y-117458485D01*
X205459794Y-117410511D01*
X205442998Y-117342690D01*
X205465535Y-117276555D01*
X205510590Y-117237515D01*
X205561312Y-117211671D01*
X205561311Y-117211671D01*
X205561314Y-117211670D01*
X205730105Y-117089035D01*
X205877635Y-116941505D01*
X206000270Y-116772714D01*
X206026396Y-116721437D01*
X206074369Y-116670642D01*
X206142190Y-116653846D01*
X206208325Y-116676383D01*
X206247366Y-116721437D01*
X206273359Y-116772451D01*
X206309227Y-116821818D01*
X206309227Y-116821819D01*
X206882812Y-116248234D01*
X206894082Y-116290292D01*
G37*
%TD.AperFunction*%
%TA.AperFunction,Conductor*%
G36*
X206208045Y-114136935D02*
G01*
X206247085Y-114181990D01*
X206272928Y-114232712D01*
X206319247Y-114296463D01*
X206395565Y-114401505D01*
X206543095Y-114549035D01*
X206655622Y-114630791D01*
X206711887Y-114671671D01*
X206763161Y-114697796D01*
X206813958Y-114745770D01*
X206830753Y-114813591D01*
X206808216Y-114879726D01*
X206763163Y-114918765D01*
X206712155Y-114944755D01*
X206662780Y-114980627D01*
X207236366Y-115554212D01*
X207194308Y-115565482D01*
X207068892Y-115637890D01*
X206966490Y-115740292D01*
X206894082Y-115865708D01*
X206882812Y-115907765D01*
X206309227Y-115334180D01*
X206273355Y-115383555D01*
X206247365Y-115434563D01*
X206199390Y-115485358D01*
X206131569Y-115502153D01*
X206065434Y-115479615D01*
X206026396Y-115434561D01*
X206000271Y-115383287D01*
X205957178Y-115323976D01*
X205877635Y-115214495D01*
X205730105Y-115066965D01*
X205644660Y-115004885D01*
X205561312Y-114944328D01*
X205510590Y-114918485D01*
X205459794Y-114870511D01*
X205442998Y-114802690D01*
X205465535Y-114736555D01*
X205510590Y-114697515D01*
X205561312Y-114671671D01*
X205561311Y-114671671D01*
X205561314Y-114671670D01*
X205730105Y-114549035D01*
X205877635Y-114401505D01*
X206000270Y-114232714D01*
X206026115Y-114181990D01*
X206074089Y-114131194D01*
X206141910Y-114114398D01*
X206208045Y-114136935D01*
G37*
%TD.AperFunction*%
%TA.AperFunction,Conductor*%
G36*
X212339482Y-96910092D02*
G01*
X212411890Y-97035508D01*
X212514292Y-97137910D01*
X212639708Y-97210318D01*
X212681765Y-97221587D01*
X212102294Y-97801056D01*
X212092549Y-97847448D01*
X212043498Y-97897205D01*
X211983295Y-97912800D01*
X211979155Y-97912800D01*
X211919627Y-97919201D01*
X211919623Y-97919202D01*
X211895829Y-97928077D01*
X212681764Y-98714012D01*
X212639708Y-98725282D01*
X212514292Y-98797690D01*
X212411890Y-98900092D01*
X212339482Y-99025508D01*
X212328212Y-99067564D01*
X211542277Y-98281629D01*
X211533402Y-98305423D01*
X211531620Y-98312968D01*
X211528850Y-98312313D01*
X211507235Y-98364447D01*
X211449829Y-98404276D01*
X211380003Y-98406746D01*
X211323029Y-98374289D01*
X211175506Y-98226766D01*
X211006712Y-98104128D01*
X210956157Y-98078370D01*
X210955996Y-98078288D01*
X210905198Y-98030318D01*
X210888397Y-97962498D01*
X210910930Y-97896362D01*
X210955990Y-97857315D01*
X211006712Y-97831471D01*
X211006711Y-97831471D01*
X211006714Y-97831470D01*
X211175505Y-97708835D01*
X211323035Y-97561305D01*
X211445670Y-97392514D01*
X211471796Y-97341237D01*
X211519769Y-97290442D01*
X211587590Y-97273646D01*
X211653725Y-97296183D01*
X211692766Y-97341237D01*
X211718759Y-97392251D01*
X211754627Y-97441618D01*
X211754627Y-97441619D01*
X212328212Y-96868034D01*
X212339482Y-96910092D01*
G37*
%TD.AperFunction*%
%TA.AperFunction,Conductor*%
G36*
X212339482Y-94370092D02*
G01*
X212411890Y-94495508D01*
X212514292Y-94597910D01*
X212639708Y-94670318D01*
X212681765Y-94681587D01*
X212108179Y-95255171D01*
X212108180Y-95255172D01*
X212157543Y-95291036D01*
X212157561Y-95291047D01*
X212209115Y-95317316D01*
X212259910Y-95365290D01*
X212276705Y-95433111D01*
X212254167Y-95499246D01*
X212209115Y-95538284D01*
X212157555Y-95564555D01*
X212108180Y-95600427D01*
X212681766Y-96174012D01*
X212639708Y-96185282D01*
X212514292Y-96257690D01*
X212411890Y-96360092D01*
X212339482Y-96485508D01*
X212328212Y-96527565D01*
X211754627Y-95953980D01*
X211718755Y-96003355D01*
X211692765Y-96054363D01*
X211644790Y-96105158D01*
X211576969Y-96121953D01*
X211510834Y-96099415D01*
X211471796Y-96054361D01*
X211445671Y-96003087D01*
X211404791Y-95946822D01*
X211323035Y-95834295D01*
X211175505Y-95686765D01*
X211088337Y-95623433D01*
X211006712Y-95564128D01*
X210955990Y-95538285D01*
X210905194Y-95490311D01*
X210888398Y-95422490D01*
X210910935Y-95356355D01*
X210955990Y-95317315D01*
X211006712Y-95291471D01*
X211006711Y-95291471D01*
X211006714Y-95291470D01*
X211175505Y-95168835D01*
X211323035Y-95021305D01*
X211445670Y-94852514D01*
X211471796Y-94801237D01*
X211519769Y-94750442D01*
X211587590Y-94733646D01*
X211653725Y-94756183D01*
X211692766Y-94801237D01*
X211718759Y-94852251D01*
X211754627Y-94901618D01*
X211754627Y-94901619D01*
X212328212Y-94328034D01*
X212339482Y-94370092D01*
G37*
%TD.AperFunction*%
%TA.AperFunction,Conductor*%
G36*
X212339482Y-91830092D02*
G01*
X212411890Y-91955508D01*
X212514292Y-92057910D01*
X212639708Y-92130318D01*
X212681765Y-92141587D01*
X212108179Y-92715171D01*
X212108180Y-92715172D01*
X212157543Y-92751036D01*
X212157561Y-92751047D01*
X212209115Y-92777316D01*
X212259910Y-92825290D01*
X212276705Y-92893111D01*
X212254167Y-92959246D01*
X212209115Y-92998284D01*
X212157555Y-93024555D01*
X212108180Y-93060427D01*
X212681766Y-93634012D01*
X212639708Y-93645282D01*
X212514292Y-93717690D01*
X212411890Y-93820092D01*
X212339482Y-93945508D01*
X212328212Y-93987565D01*
X211754627Y-93413980D01*
X211718755Y-93463355D01*
X211692765Y-93514363D01*
X211644790Y-93565158D01*
X211576969Y-93581953D01*
X211510834Y-93559415D01*
X211471796Y-93514361D01*
X211445671Y-93463087D01*
X211365375Y-93352571D01*
X211323035Y-93294295D01*
X211175505Y-93146765D01*
X211056672Y-93060427D01*
X211006712Y-93024128D01*
X210955990Y-92998285D01*
X210905194Y-92950311D01*
X210888398Y-92882490D01*
X210910935Y-92816355D01*
X210955990Y-92777315D01*
X211006712Y-92751471D01*
X211006711Y-92751471D01*
X211006714Y-92751470D01*
X211175505Y-92628835D01*
X211323035Y-92481305D01*
X211445670Y-92312514D01*
X211471796Y-92261237D01*
X211519769Y-92210442D01*
X211587590Y-92193646D01*
X211653725Y-92216183D01*
X211692766Y-92261237D01*
X211718759Y-92312251D01*
X211754627Y-92361618D01*
X211754627Y-92361619D01*
X212328212Y-91788034D01*
X212339482Y-91830092D01*
G37*
%TD.AperFunction*%
%TA.AperFunction,Conductor*%
G36*
X212237882Y-75294692D02*
G01*
X212310290Y-75420108D01*
X212412692Y-75522510D01*
X212538108Y-75594918D01*
X212580165Y-75606187D01*
X212000694Y-76185656D01*
X211990949Y-76232048D01*
X211941898Y-76281805D01*
X211881695Y-76297400D01*
X211877555Y-76297400D01*
X211818027Y-76303801D01*
X211818023Y-76303802D01*
X211794229Y-76312677D01*
X212580164Y-77098612D01*
X212538108Y-77109882D01*
X212412692Y-77182290D01*
X212310290Y-77284692D01*
X212237882Y-77410108D01*
X212226612Y-77452163D01*
X211440678Y-76666229D01*
X211440677Y-76666229D01*
X211431802Y-76690023D01*
X211430020Y-76697568D01*
X211427250Y-76696913D01*
X211405635Y-76749047D01*
X211348229Y-76788876D01*
X211278403Y-76791346D01*
X211221429Y-76758889D01*
X211073906Y-76611366D01*
X210905112Y-76488728D01*
X210854557Y-76462970D01*
X210854396Y-76462888D01*
X210803598Y-76414918D01*
X210786797Y-76347098D01*
X210809330Y-76280962D01*
X210854390Y-76241915D01*
X210905112Y-76216071D01*
X210905111Y-76216071D01*
X210905114Y-76216070D01*
X211073905Y-76093435D01*
X211221435Y-75945905D01*
X211344070Y-75777114D01*
X211370196Y-75725837D01*
X211418169Y-75675042D01*
X211485990Y-75658246D01*
X211552125Y-75680783D01*
X211591166Y-75725837D01*
X211617159Y-75776851D01*
X211653027Y-75826218D01*
X211653027Y-75826219D01*
X212226612Y-75252634D01*
X212237882Y-75294692D01*
G37*
%TD.AperFunction*%
%TA.AperFunction,Conductor*%
G36*
X212237882Y-72754692D02*
G01*
X212310290Y-72880108D01*
X212412692Y-72982510D01*
X212538108Y-73054918D01*
X212580165Y-73066187D01*
X212006579Y-73639771D01*
X212006580Y-73639772D01*
X212055943Y-73675636D01*
X212055961Y-73675647D01*
X212107515Y-73701916D01*
X212158310Y-73749890D01*
X212175105Y-73817711D01*
X212152567Y-73883846D01*
X212107515Y-73922884D01*
X212055955Y-73949155D01*
X212006580Y-73985027D01*
X212580166Y-74558612D01*
X212538108Y-74569882D01*
X212412692Y-74642290D01*
X212310290Y-74744692D01*
X212237882Y-74870108D01*
X212226612Y-74912165D01*
X211653027Y-74338580D01*
X211617155Y-74387955D01*
X211591165Y-74438963D01*
X211543190Y-74489758D01*
X211475369Y-74506553D01*
X211409234Y-74484015D01*
X211370196Y-74438961D01*
X211344071Y-74387687D01*
X211292152Y-74316228D01*
X211221435Y-74218895D01*
X211073905Y-74071365D01*
X211000202Y-74017816D01*
X210905112Y-73948728D01*
X210854390Y-73922885D01*
X210803594Y-73874911D01*
X210786798Y-73807090D01*
X210809335Y-73740955D01*
X210854390Y-73701915D01*
X210905112Y-73676071D01*
X210905111Y-73676071D01*
X210905114Y-73676070D01*
X211073905Y-73553435D01*
X211221435Y-73405905D01*
X211344070Y-73237114D01*
X211370196Y-73185837D01*
X211418169Y-73135042D01*
X211485990Y-73118246D01*
X211552125Y-73140783D01*
X211591166Y-73185837D01*
X211617159Y-73236851D01*
X211653027Y-73286218D01*
X211653027Y-73286219D01*
X212226612Y-72712634D01*
X212237882Y-72754692D01*
G37*
%TD.AperFunction*%
%TA.AperFunction,Conductor*%
G36*
X219668539Y-64048351D02*
G01*
X219714294Y-64101155D01*
X219725500Y-64152666D01*
X219725500Y-144843666D01*
X219705815Y-144910705D01*
X219653011Y-144956460D01*
X219601500Y-144967666D01*
X132169440Y-144967666D01*
X132102401Y-144947981D01*
X132056646Y-144895177D01*
X132045440Y-144843666D01*
X132045440Y-139138475D01*
X154655900Y-139138475D01*
X154655900Y-139347124D01*
X154688537Y-139553189D01*
X154753012Y-139751620D01*
X154847730Y-139937514D01*
X154970366Y-140106306D01*
X155117889Y-140253829D01*
X155151374Y-140315152D01*
X155146390Y-140384844D01*
X155104518Y-140440777D01*
X155055969Y-140459888D01*
X155056568Y-140462420D01*
X155049023Y-140464202D01*
X155025229Y-140473077D01*
X155811164Y-141259012D01*
X155769108Y-141270282D01*
X155643692Y-141342690D01*
X155541290Y-141445092D01*
X155468882Y-141570508D01*
X155457612Y-141612564D01*
X154671677Y-140826629D01*
X154662802Y-140850423D01*
X154662801Y-140850427D01*
X154656400Y-140909955D01*
X154656400Y-142655644D01*
X154662801Y-142715175D01*
X154671677Y-142738970D01*
X155457612Y-141953035D01*
X155468882Y-141995092D01*
X155541290Y-142120508D01*
X155643692Y-142222910D01*
X155769108Y-142295318D01*
X155811164Y-142306587D01*
X155025229Y-143092520D01*
X155025229Y-143092522D01*
X155049022Y-143101397D01*
X155049023Y-143101398D01*
X155108555Y-143107799D01*
X155108572Y-143107800D01*
X156854228Y-143107800D01*
X156854244Y-143107799D01*
X156913772Y-143101398D01*
X156937569Y-143092521D01*
X156151635Y-142306587D01*
X156193692Y-142295318D01*
X156319108Y-142222910D01*
X156421510Y-142120508D01*
X156493918Y-141995092D01*
X156505187Y-141953035D01*
X157284433Y-142732281D01*
X157309592Y-142623551D01*
X157320070Y-142604947D01*
X157326085Y-142584465D01*
X157336873Y-142575116D01*
X157343882Y-142562674D01*
X157362756Y-142552688D01*
X157378889Y-142538710D01*
X157394342Y-142535978D01*
X157405642Y-142530001D01*
X157419473Y-142531173D01*
X157997612Y-141953034D01*
X158008882Y-141995092D01*
X158081290Y-142120508D01*
X158183692Y-142222910D01*
X158309108Y-142295318D01*
X158351165Y-142306587D01*
X157777579Y-142880171D01*
X157777580Y-142880172D01*
X157826943Y-142916036D01*
X157826956Y-142916044D01*
X158012772Y-143010724D01*
X158211127Y-143075173D01*
X158417121Y-143107800D01*
X158625679Y-143107800D01*
X158831672Y-143075173D01*
X159030027Y-143010724D01*
X159215851Y-142916040D01*
X159265218Y-142880172D01*
X159265218Y-142880171D01*
X158691634Y-142306587D01*
X158733692Y-142295318D01*
X158859108Y-142222910D01*
X158961510Y-142120508D01*
X159033918Y-141995092D01*
X159045187Y-141953034D01*
X159618771Y-142526618D01*
X159618772Y-142526618D01*
X159654640Y-142477251D01*
X159680915Y-142425685D01*
X159728889Y-142374889D01*
X159796710Y-142358094D01*
X159862845Y-142380631D01*
X159901885Y-142425685D01*
X159928159Y-142477251D01*
X159964027Y-142526618D01*
X159964027Y-142526619D01*
X160537612Y-141953034D01*
X160548882Y-141995092D01*
X160621290Y-142120508D01*
X160723692Y-142222910D01*
X160849108Y-142295318D01*
X160891165Y-142306587D01*
X160317579Y-142880171D01*
X160317580Y-142880172D01*
X160366943Y-142916036D01*
X160366956Y-142916044D01*
X160552772Y-143010724D01*
X160751127Y-143075173D01*
X160957121Y-143107800D01*
X161165679Y-143107800D01*
X161371672Y-143075173D01*
X161570027Y-143010724D01*
X161755851Y-142916040D01*
X161805218Y-142880172D01*
X161805218Y-142880171D01*
X161231634Y-142306587D01*
X161273692Y-142295318D01*
X161399108Y-142222910D01*
X161501510Y-142120508D01*
X161573918Y-141995092D01*
X161585187Y-141953034D01*
X162158771Y-142526618D01*
X162158772Y-142526618D01*
X162194640Y-142477251D01*
X162220915Y-142425685D01*
X162268889Y-142374889D01*
X162336710Y-142358094D01*
X162402845Y-142380631D01*
X162441885Y-142425685D01*
X162468159Y-142477251D01*
X162504027Y-142526618D01*
X162504027Y-142526619D01*
X163077612Y-141953034D01*
X163088882Y-141995092D01*
X163161290Y-142120508D01*
X163263692Y-142222910D01*
X163389108Y-142295318D01*
X163431165Y-142306587D01*
X162857579Y-142880171D01*
X162857580Y-142880172D01*
X162906943Y-142916036D01*
X162906956Y-142916044D01*
X163092772Y-143010724D01*
X163291127Y-143075173D01*
X163497121Y-143107800D01*
X163705679Y-143107800D01*
X163911672Y-143075173D01*
X164110027Y-143010724D01*
X164295851Y-142916040D01*
X164345218Y-142880172D01*
X164345218Y-142880171D01*
X163771634Y-142306587D01*
X163813692Y-142295318D01*
X163939108Y-142222910D01*
X164041510Y-142120508D01*
X164113918Y-141995092D01*
X164125187Y-141953034D01*
X164698771Y-142526618D01*
X164698772Y-142526618D01*
X164734640Y-142477251D01*
X164829324Y-142291427D01*
X164893773Y-142093072D01*
X164926400Y-141887079D01*
X164926400Y-141678520D01*
X164893773Y-141472527D01*
X164829324Y-141274172D01*
X164734644Y-141088356D01*
X164734636Y-141088343D01*
X164698772Y-141038980D01*
X164698771Y-141038979D01*
X164125187Y-141612564D01*
X164113918Y-141570508D01*
X164041510Y-141445092D01*
X163939108Y-141342690D01*
X163813692Y-141270282D01*
X163771633Y-141259012D01*
X164345219Y-140685427D01*
X164295851Y-140649559D01*
X164244837Y-140623566D01*
X164194041Y-140575591D01*
X164177246Y-140507770D01*
X164199784Y-140441635D01*
X164244838Y-140402596D01*
X164296112Y-140376471D01*
X164296111Y-140376471D01*
X164296114Y-140376470D01*
X164379029Y-140316228D01*
X188949500Y-140316228D01*
X188949500Y-140483771D01*
X188982182Y-140648074D01*
X188982184Y-140648082D01*
X189046295Y-140802860D01*
X189139373Y-140942162D01*
X189257837Y-141060626D01*
X189299346Y-141088361D01*
X189397137Y-141153703D01*
X189551918Y-141217816D01*
X189716228Y-141250499D01*
X189716232Y-141250500D01*
X189716233Y-141250500D01*
X189883768Y-141250500D01*
X189883769Y-141250499D01*
X190048082Y-141217816D01*
X190202863Y-141153703D01*
X190342162Y-141060626D01*
X190460626Y-140942162D01*
X190553703Y-140802863D01*
X190617816Y-140648082D01*
X190650500Y-140483767D01*
X190650500Y-140316233D01*
X190617816Y-140151918D01*
X190553703Y-139997137D01*
X190513863Y-139937512D01*
X190460626Y-139857837D01*
X190342162Y-139739373D01*
X190202860Y-139646295D01*
X190048082Y-139582184D01*
X190048074Y-139582182D01*
X189883771Y-139549500D01*
X189883767Y-139549500D01*
X189716233Y-139549500D01*
X189716228Y-139549500D01*
X189551925Y-139582182D01*
X189551917Y-139582184D01*
X189397139Y-139646295D01*
X189257837Y-139739373D01*
X189139373Y-139857837D01*
X189046295Y-139997139D01*
X188982184Y-140151917D01*
X188982182Y-140151925D01*
X188949500Y-140316228D01*
X164379029Y-140316228D01*
X164464905Y-140253835D01*
X164612435Y-140106305D01*
X164735070Y-139937514D01*
X164829789Y-139751616D01*
X164894262Y-139553189D01*
X164894846Y-139549500D01*
X164926900Y-139347124D01*
X164926900Y-139138475D01*
X164894262Y-138932410D01*
X164829787Y-138733979D01*
X164735069Y-138548085D01*
X164716531Y-138522570D01*
X164612435Y-138379295D01*
X164464905Y-138231765D01*
X164296114Y-138109130D01*
X164110220Y-138014412D01*
X163911789Y-137949937D01*
X163705724Y-137917300D01*
X163705719Y-137917300D01*
X163497081Y-137917300D01*
X163497076Y-137917300D01*
X163291010Y-137949937D01*
X163092579Y-138014412D01*
X162906685Y-138109130D01*
X162737893Y-138231766D01*
X162590366Y-138379293D01*
X162467730Y-138548085D01*
X162441885Y-138598810D01*
X162393910Y-138649606D01*
X162326090Y-138666401D01*
X162259955Y-138643864D01*
X162220915Y-138598810D01*
X162195069Y-138548085D01*
X162176531Y-138522570D01*
X162072435Y-138379295D01*
X161924905Y-138231765D01*
X161756114Y-138109130D01*
X161570220Y-138014412D01*
X161371789Y-137949937D01*
X161165724Y-137917300D01*
X161165719Y-137917300D01*
X160957081Y-137917300D01*
X160957076Y-137917300D01*
X160751010Y-137949937D01*
X160552579Y-138014412D01*
X160366685Y-138109130D01*
X160197893Y-138231766D01*
X160050366Y-138379293D01*
X159927730Y-138548085D01*
X159901885Y-138598810D01*
X159853910Y-138649606D01*
X159786090Y-138666401D01*
X159719955Y-138643864D01*
X159680915Y-138598810D01*
X159655069Y-138548085D01*
X159636531Y-138522570D01*
X159532435Y-138379295D01*
X159384905Y-138231765D01*
X159216114Y-138109130D01*
X159030220Y-138014412D01*
X158831789Y-137949937D01*
X158625724Y-137917300D01*
X158625719Y-137917300D01*
X158417081Y-137917300D01*
X158417076Y-137917300D01*
X158211010Y-137949937D01*
X158012579Y-138014412D01*
X157826685Y-138109130D01*
X157657893Y-138231766D01*
X157510366Y-138379293D01*
X157387730Y-138548085D01*
X157361885Y-138598810D01*
X157313910Y-138649606D01*
X157246090Y-138666401D01*
X157179955Y-138643864D01*
X157140915Y-138598810D01*
X157115069Y-138548085D01*
X157096531Y-138522570D01*
X156992435Y-138379295D01*
X156844905Y-138231765D01*
X156676114Y-138109130D01*
X156490220Y-138014412D01*
X156291789Y-137949937D01*
X156085724Y-137917300D01*
X156085719Y-137917300D01*
X155877081Y-137917300D01*
X155877076Y-137917300D01*
X155671010Y-137949937D01*
X155472579Y-138014412D01*
X155286685Y-138109130D01*
X155117893Y-138231766D01*
X154970366Y-138379293D01*
X154847730Y-138548085D01*
X154753012Y-138733979D01*
X154688537Y-138932410D01*
X154655900Y-139138475D01*
X132045440Y-139138475D01*
X132045440Y-136693555D01*
X134666600Y-136693555D01*
X134666600Y-138439244D01*
X134673001Y-138498775D01*
X134681877Y-138522570D01*
X135467812Y-137736635D01*
X135479082Y-137778692D01*
X135551490Y-137904108D01*
X135653892Y-138006510D01*
X135779308Y-138078918D01*
X135821364Y-138090187D01*
X135035429Y-138876120D01*
X135035429Y-138876122D01*
X135059222Y-138884997D01*
X135059223Y-138884998D01*
X135118755Y-138891399D01*
X135118772Y-138891400D01*
X136864428Y-138891400D01*
X136864444Y-138891399D01*
X136923972Y-138884998D01*
X136947769Y-138876121D01*
X136161835Y-138090187D01*
X136203892Y-138078918D01*
X136329308Y-138006510D01*
X136431710Y-137904108D01*
X136504118Y-137778692D01*
X136515387Y-137736635D01*
X137301321Y-138522569D01*
X137310199Y-138498770D01*
X137311983Y-138491224D01*
X137314764Y-138491881D01*
X137336317Y-138439811D01*
X137393699Y-138399947D01*
X137463523Y-138397435D01*
X137520570Y-138429910D01*
X137668095Y-138577435D01*
X137836886Y-138700070D01*
X137903437Y-138733979D01*
X138022779Y-138794787D01*
X138022781Y-138794787D01*
X138022784Y-138794789D01*
X138129145Y-138829348D01*
X138221210Y-138859262D01*
X138427276Y-138891900D01*
X138427281Y-138891900D01*
X138635924Y-138891900D01*
X138841989Y-138859262D01*
X139040416Y-138794789D01*
X139226314Y-138700070D01*
X139395105Y-138577435D01*
X139542635Y-138429905D01*
X139665270Y-138261114D01*
X139691115Y-138210390D01*
X139739089Y-138159594D01*
X139806910Y-138142798D01*
X139873045Y-138165335D01*
X139912085Y-138210390D01*
X139937928Y-138261112D01*
X140019686Y-138373641D01*
X140060565Y-138429905D01*
X140208095Y-138577435D01*
X140376886Y-138700070D01*
X140443437Y-138733979D01*
X140562779Y-138794787D01*
X140562781Y-138794787D01*
X140562784Y-138794789D01*
X140669145Y-138829348D01*
X140761210Y-138859262D01*
X140967276Y-138891900D01*
X140967281Y-138891900D01*
X141175924Y-138891900D01*
X141381989Y-138859262D01*
X141580416Y-138794789D01*
X141766314Y-138700070D01*
X141935105Y-138577435D01*
X142082635Y-138429905D01*
X142205270Y-138261114D01*
X142299989Y-138075216D01*
X142364462Y-137876789D01*
X142379999Y-137778692D01*
X142397100Y-137670724D01*
X142397100Y-137462075D01*
X142364462Y-137256010D01*
X142299987Y-137057579D01*
X142205269Y-136871685D01*
X142103338Y-136731390D01*
X142082635Y-136702895D01*
X141935105Y-136555365D01*
X141766314Y-136432730D01*
X141580420Y-136338012D01*
X141381989Y-136273537D01*
X141175924Y-136240900D01*
X141175919Y-136240900D01*
X140967281Y-136240900D01*
X140967276Y-136240900D01*
X140761210Y-136273537D01*
X140562779Y-136338012D01*
X140376885Y-136432730D01*
X140208093Y-136555366D01*
X140208092Y-136555367D01*
X140060570Y-136702890D01*
X140060566Y-136702893D01*
X139937930Y-136871685D01*
X139912085Y-136922410D01*
X139864110Y-136973206D01*
X139796290Y-136990001D01*
X139730155Y-136967464D01*
X139691115Y-136922410D01*
X139665269Y-136871685D01*
X139563338Y-136731390D01*
X139542635Y-136702895D01*
X139395105Y-136555365D01*
X139226314Y-136432730D01*
X139040420Y-136338012D01*
X138841989Y-136273537D01*
X138635924Y-136240900D01*
X138635919Y-136240900D01*
X138427281Y-136240900D01*
X138427276Y-136240900D01*
X138221210Y-136273537D01*
X138022779Y-136338012D01*
X137836885Y-136432730D01*
X137668096Y-136555364D01*
X137520570Y-136702890D01*
X137459247Y-136736374D01*
X137389555Y-136731390D01*
X137333622Y-136689518D01*
X137314524Y-136640968D01*
X137311981Y-136641569D01*
X137310197Y-136634022D01*
X137301322Y-136610229D01*
X137301320Y-136610229D01*
X136515386Y-137396163D01*
X136504118Y-137354108D01*
X136431710Y-137228692D01*
X136329308Y-137126290D01*
X136203892Y-137053882D01*
X136161835Y-137042612D01*
X136947770Y-136256677D01*
X136947770Y-136256676D01*
X136923975Y-136247801D01*
X136864444Y-136241400D01*
X135118755Y-136241400D01*
X135059227Y-136247801D01*
X135059223Y-136247802D01*
X135035429Y-136256677D01*
X135821364Y-137042612D01*
X135779308Y-137053882D01*
X135653892Y-137126290D01*
X135551490Y-137228692D01*
X135479082Y-137354108D01*
X135467812Y-137396164D01*
X134681877Y-136610229D01*
X134673002Y-136634023D01*
X134673001Y-136634027D01*
X134666600Y-136693555D01*
X132045440Y-136693555D01*
X132045440Y-132656628D01*
X170193100Y-132656628D01*
X170193100Y-132824171D01*
X170225782Y-132988474D01*
X170225784Y-132988482D01*
X170289895Y-133143260D01*
X170382973Y-133282562D01*
X170501437Y-133401026D01*
X170594094Y-133462937D01*
X170640737Y-133494103D01*
X170795518Y-133558216D01*
X170959828Y-133590899D01*
X170959832Y-133590900D01*
X170959833Y-133590900D01*
X171127368Y-133590900D01*
X171127369Y-133590899D01*
X171291682Y-133558216D01*
X171446463Y-133494103D01*
X171585762Y-133401026D01*
X171704226Y-133282562D01*
X171797303Y-133143263D01*
X171861416Y-132988482D01*
X171894100Y-132824167D01*
X171894100Y-132656633D01*
X171888725Y-132629611D01*
X171860228Y-132486343D01*
X171862954Y-132485800D01*
X171862411Y-132427895D01*
X171894029Y-132374031D01*
X171906082Y-132361979D01*
X171999159Y-132222680D01*
X172063272Y-132067899D01*
X172095956Y-131903584D01*
X172095956Y-131736050D01*
X172063272Y-131571735D01*
X171999159Y-131416954D01*
X171999157Y-131416951D01*
X171999155Y-131416947D01*
X171984576Y-131395128D01*
X171963698Y-131328450D01*
X171973117Y-131278784D01*
X171973525Y-131277800D01*
X172037636Y-131123023D01*
X172070320Y-130958708D01*
X172070320Y-130791174D01*
X172037636Y-130626859D01*
X171992880Y-130518811D01*
X171985412Y-130449344D01*
X172004339Y-130402471D01*
X172020020Y-130379004D01*
X172084133Y-130224223D01*
X172116817Y-130059908D01*
X172116817Y-129892374D01*
X172084133Y-129728059D01*
X172020111Y-129573497D01*
X172020021Y-129573280D01*
X171926943Y-129433978D01*
X171808479Y-129315514D01*
X171669177Y-129222436D01*
X171514399Y-129158325D01*
X171514391Y-129158323D01*
X171350088Y-129125641D01*
X171350084Y-129125641D01*
X171182550Y-129125641D01*
X171182545Y-129125641D01*
X171018242Y-129158323D01*
X171018234Y-129158325D01*
X170863456Y-129222436D01*
X170724154Y-129315514D01*
X170605690Y-129433978D01*
X170512612Y-129573280D01*
X170448501Y-129728058D01*
X170448499Y-129728066D01*
X170415817Y-129892369D01*
X170415817Y-130059912D01*
X170442112Y-130192103D01*
X170448501Y-130224223D01*
X170475291Y-130288900D01*
X170493255Y-130332267D01*
X170500724Y-130401736D01*
X170481798Y-130448608D01*
X170466116Y-130472077D01*
X170402004Y-130626858D01*
X170402002Y-130626866D01*
X170369320Y-130791169D01*
X170369320Y-130958712D01*
X170402002Y-131123015D01*
X170402004Y-131123023D01*
X170466115Y-131277800D01*
X170466119Y-131277808D01*
X170480700Y-131299630D01*
X170501577Y-131366308D01*
X170492158Y-131415972D01*
X170427641Y-131571730D01*
X170427638Y-131571742D01*
X170394956Y-131736045D01*
X170394956Y-131903588D01*
X170428828Y-132073874D01*
X170426133Y-132074409D01*
X170426595Y-132132494D01*
X170395028Y-132186184D01*
X170382971Y-132198241D01*
X170289895Y-132337539D01*
X170225784Y-132492317D01*
X170225782Y-132492325D01*
X170193100Y-132656628D01*
X132045440Y-132656628D01*
X132045440Y-116634075D01*
X136596500Y-116634075D01*
X136596500Y-116842724D01*
X136629137Y-117048789D01*
X136693612Y-117247220D01*
X136747524Y-117353028D01*
X136788330Y-117433114D01*
X136910965Y-117601905D01*
X137058495Y-117749435D01*
X137227286Y-117872070D01*
X137274271Y-117896010D01*
X137278010Y-117897915D01*
X137328806Y-117945890D01*
X137345601Y-118013710D01*
X137323064Y-118079845D01*
X137278010Y-118118885D01*
X137227285Y-118144730D01*
X137058493Y-118267366D01*
X136910966Y-118414893D01*
X136788330Y-118583685D01*
X136693612Y-118769579D01*
X136629137Y-118968010D01*
X136596500Y-119174075D01*
X136596500Y-119382724D01*
X136629137Y-119588789D01*
X136693612Y-119787220D01*
X136747668Y-119893310D01*
X136788330Y-119973114D01*
X136910965Y-120141905D01*
X137058495Y-120289435D01*
X137227286Y-120412070D01*
X137274271Y-120436010D01*
X137278010Y-120437915D01*
X137328806Y-120485890D01*
X137345601Y-120553710D01*
X137323064Y-120619845D01*
X137278010Y-120658885D01*
X137227285Y-120684730D01*
X137058493Y-120807366D01*
X136910966Y-120954893D01*
X136788330Y-121123685D01*
X136693612Y-121309579D01*
X136629137Y-121508010D01*
X136596500Y-121714075D01*
X136596500Y-121922724D01*
X136629137Y-122128789D01*
X136693612Y-122327220D01*
X136788330Y-122513114D01*
X136910965Y-122681905D01*
X137058495Y-122829435D01*
X137227286Y-122952070D01*
X137274271Y-122976010D01*
X137278010Y-122977915D01*
X137328806Y-123025890D01*
X137345601Y-123093710D01*
X137323064Y-123159845D01*
X137278010Y-123198885D01*
X137227285Y-123224730D01*
X137058493Y-123347366D01*
X136910966Y-123494893D01*
X136788330Y-123663685D01*
X136693612Y-123849579D01*
X136629137Y-124048010D01*
X136596500Y-124254075D01*
X136596500Y-124462724D01*
X136629137Y-124668789D01*
X136693612Y-124867220D01*
X136776669Y-125030228D01*
X136788330Y-125053114D01*
X136910965Y-125221905D01*
X137058495Y-125369435D01*
X137227286Y-125492070D01*
X137274271Y-125516010D01*
X137278010Y-125517915D01*
X137328806Y-125565890D01*
X137345601Y-125633710D01*
X137323064Y-125699845D01*
X137278010Y-125738885D01*
X137227285Y-125764730D01*
X137058493Y-125887366D01*
X136910966Y-126034893D01*
X136788330Y-126203685D01*
X136693612Y-126389579D01*
X136629137Y-126588010D01*
X136596500Y-126794075D01*
X136596500Y-127002724D01*
X136629137Y-127208789D01*
X136693612Y-127407220D01*
X136787644Y-127591767D01*
X136788330Y-127593114D01*
X136906734Y-127756082D01*
X136910966Y-127761906D01*
X137058489Y-127909429D01*
X137091974Y-127970752D01*
X137086990Y-128040444D01*
X137045118Y-128096377D01*
X136996569Y-128115488D01*
X136997168Y-128118020D01*
X136989620Y-128119803D01*
X136854913Y-128170045D01*
X136854906Y-128170049D01*
X136739812Y-128256209D01*
X136739809Y-128256212D01*
X136653649Y-128371306D01*
X136653645Y-128371313D01*
X136603403Y-128506020D01*
X136603401Y-128506027D01*
X136597000Y-128565555D01*
X136597000Y-129188400D01*
X137431252Y-129188400D01*
X137409482Y-129226108D01*
X137372000Y-129365991D01*
X137372000Y-129510809D01*
X137409482Y-129650692D01*
X137431252Y-129688400D01*
X136597000Y-129688400D01*
X136597000Y-130311244D01*
X136603401Y-130370772D01*
X136603403Y-130370779D01*
X136653645Y-130505486D01*
X136653649Y-130505493D01*
X136739809Y-130620587D01*
X136739812Y-130620590D01*
X136854906Y-130706750D01*
X136854913Y-130706754D01*
X136989620Y-130756996D01*
X136989627Y-130756998D01*
X137049155Y-130763399D01*
X137049172Y-130763400D01*
X137672000Y-130763400D01*
X137672000Y-129929147D01*
X137709708Y-129950918D01*
X137849591Y-129988400D01*
X137994409Y-129988400D01*
X138134292Y-129950918D01*
X138172000Y-129929147D01*
X138172000Y-130763400D01*
X138794828Y-130763400D01*
X138794844Y-130763399D01*
X138854372Y-130756998D01*
X138854379Y-130756996D01*
X138989086Y-130706754D01*
X138989093Y-130706750D01*
X139104187Y-130620590D01*
X139104190Y-130620587D01*
X139190350Y-130505493D01*
X139190354Y-130505486D01*
X139240596Y-130370779D01*
X139240598Y-130370772D01*
X139246999Y-130311244D01*
X139247000Y-130311227D01*
X139247000Y-129688400D01*
X138412748Y-129688400D01*
X138434518Y-129650692D01*
X138472000Y-129510809D01*
X138472000Y-129365991D01*
X138434518Y-129226108D01*
X138420731Y-129202228D01*
X152413100Y-129202228D01*
X152413100Y-129369771D01*
X152445782Y-129534074D01*
X152445784Y-129534082D01*
X152509895Y-129688860D01*
X152602973Y-129828162D01*
X152721437Y-129946626D01*
X152784033Y-129988451D01*
X152860737Y-130039703D01*
X152860738Y-130039703D01*
X152860739Y-130039704D01*
X152892906Y-130053028D01*
X153015518Y-130103816D01*
X153179828Y-130136499D01*
X153179832Y-130136500D01*
X153179833Y-130136500D01*
X153347368Y-130136500D01*
X153347369Y-130136499D01*
X153511682Y-130103816D01*
X153666463Y-130039703D01*
X153805762Y-129946626D01*
X153924226Y-129828162D01*
X154017303Y-129688863D01*
X154081416Y-129534082D01*
X154114100Y-129369767D01*
X154114100Y-129202233D01*
X154111730Y-129190317D01*
X154094753Y-129104966D01*
X154091152Y-129086862D01*
X154394300Y-129086862D01*
X154394300Y-129254405D01*
X154426982Y-129418708D01*
X154426984Y-129418716D01*
X154491095Y-129573494D01*
X154584173Y-129712796D01*
X154702637Y-129831260D01*
X154768656Y-129875372D01*
X154841937Y-129924337D01*
X154996718Y-129988450D01*
X155161028Y-130021133D01*
X155161032Y-130021134D01*
X155161033Y-130021134D01*
X155328568Y-130021134D01*
X155328569Y-130021133D01*
X155492882Y-129988450D01*
X155647663Y-129924337D01*
X155786962Y-129831260D01*
X155905426Y-129712796D01*
X155998503Y-129573497D01*
X156062616Y-129418716D01*
X156095300Y-129254401D01*
X156095300Y-129086867D01*
X156062616Y-128922552D01*
X156005781Y-128785341D01*
X155998504Y-128767773D01*
X155905426Y-128628471D01*
X155786962Y-128510007D01*
X155647660Y-128416929D01*
X155492882Y-128352818D01*
X155492874Y-128352816D01*
X155328571Y-128320134D01*
X155328567Y-128320134D01*
X155161033Y-128320134D01*
X155161028Y-128320134D01*
X154996725Y-128352816D01*
X154996717Y-128352818D01*
X154841939Y-128416929D01*
X154702637Y-128510007D01*
X154584173Y-128628471D01*
X154491095Y-128767773D01*
X154426984Y-128922551D01*
X154426982Y-128922559D01*
X154394300Y-129086862D01*
X154091152Y-129086862D01*
X154087702Y-129069521D01*
X154081416Y-129037918D01*
X154017566Y-128883771D01*
X154017304Y-128883139D01*
X154016759Y-128882324D01*
X153986137Y-128836494D01*
X153924226Y-128743837D01*
X153805762Y-128625373D01*
X153666460Y-128532295D01*
X153511682Y-128468184D01*
X153511674Y-128468182D01*
X153347371Y-128435500D01*
X153347367Y-128435500D01*
X153179833Y-128435500D01*
X153179828Y-128435500D01*
X153015525Y-128468182D01*
X153015517Y-128468184D01*
X152860739Y-128532295D01*
X152721437Y-128625373D01*
X152602973Y-128743837D01*
X152509895Y-128883139D01*
X152445784Y-129037917D01*
X152445782Y-129037925D01*
X152413100Y-129202228D01*
X138420731Y-129202228D01*
X138412748Y-129188400D01*
X139247000Y-129188400D01*
X139247000Y-128565572D01*
X139246999Y-128565555D01*
X139240598Y-128506027D01*
X139240596Y-128506020D01*
X139190354Y-128371313D01*
X139190353Y-128371311D01*
X139104188Y-128256210D01*
X139104187Y-128256209D01*
X139010705Y-128186228D01*
X141948300Y-128186228D01*
X141948300Y-128353771D01*
X141980982Y-128518074D01*
X141980984Y-128518082D01*
X142045095Y-128672860D01*
X142138173Y-128812162D01*
X142256637Y-128930626D01*
X142289259Y-128952423D01*
X142395937Y-129023703D01*
X142395938Y-129023703D01*
X142395939Y-129023704D01*
X142424511Y-129035539D01*
X142550718Y-129087816D01*
X142690942Y-129115708D01*
X142715028Y-129120499D01*
X142715032Y-129120500D01*
X142715033Y-129120500D01*
X142882568Y-129120500D01*
X142882569Y-129120499D01*
X143046882Y-129087816D01*
X143201663Y-129023703D01*
X143340962Y-128930626D01*
X143459426Y-128812162D01*
X143552503Y-128672863D01*
X143616616Y-128518082D01*
X143649300Y-128353767D01*
X143649300Y-128186233D01*
X143649299Y-128186228D01*
X165889671Y-128186228D01*
X165889671Y-128353771D01*
X165922353Y-128518074D01*
X165922355Y-128518082D01*
X165986466Y-128672860D01*
X166079544Y-128812162D01*
X166154591Y-128887209D01*
X166188076Y-128948532D01*
X166183092Y-129018224D01*
X166176275Y-129033331D01*
X166175098Y-129035531D01*
X166110984Y-129190317D01*
X166110982Y-129190325D01*
X166078300Y-129354628D01*
X166078300Y-129522171D01*
X166110982Y-129686474D01*
X166110984Y-129686482D01*
X166175095Y-129841260D01*
X166268173Y-129980562D01*
X166386637Y-130099026D01*
X166475201Y-130158202D01*
X166525937Y-130192103D01*
X166680718Y-130256216D01*
X166845028Y-130288899D01*
X166845032Y-130288900D01*
X166845033Y-130288900D01*
X167012568Y-130288900D01*
X167012569Y-130288899D01*
X167176882Y-130256216D01*
X167331663Y-130192103D01*
X167470962Y-130099026D01*
X167589426Y-129980562D01*
X167682503Y-129841263D01*
X167746616Y-129686482D01*
X167779300Y-129522167D01*
X167779300Y-129354633D01*
X167746616Y-129190318D01*
X167682503Y-129035537D01*
X167624368Y-128948532D01*
X167589426Y-128896237D01*
X167514378Y-128821189D01*
X167503848Y-128801906D01*
X167489412Y-128785341D01*
X167487431Y-128771840D01*
X167480893Y-128759866D01*
X167482460Y-128737951D01*
X167479273Y-128716228D01*
X190149500Y-128716228D01*
X190149500Y-128883771D01*
X190182182Y-129048074D01*
X190182184Y-129048082D01*
X190246295Y-129202860D01*
X190339373Y-129342162D01*
X190457837Y-129460626D01*
X190532942Y-129510809D01*
X190597137Y-129553703D01*
X190751918Y-129617816D01*
X190871012Y-129641505D01*
X190916228Y-129650499D01*
X190916232Y-129650500D01*
X190916233Y-129650500D01*
X191083768Y-129650500D01*
X191083769Y-129650499D01*
X191248082Y-129617816D01*
X191402863Y-129553703D01*
X191542162Y-129460626D01*
X191660626Y-129342162D01*
X191753703Y-129202863D01*
X191817816Y-129048082D01*
X191850500Y-128883767D01*
X191850500Y-128716233D01*
X191817816Y-128551918D01*
X191753703Y-128397137D01*
X191668333Y-128269372D01*
X191660626Y-128257837D01*
X191542162Y-128139373D01*
X191402860Y-128046295D01*
X191248082Y-127982184D01*
X191248074Y-127982182D01*
X191083771Y-127949500D01*
X191083767Y-127949500D01*
X190916233Y-127949500D01*
X190916228Y-127949500D01*
X190751925Y-127982182D01*
X190751917Y-127982184D01*
X190597139Y-128046295D01*
X190457837Y-128139373D01*
X190339373Y-128257837D01*
X190246295Y-128397139D01*
X190182184Y-128551917D01*
X190182182Y-128551925D01*
X190149500Y-128716228D01*
X167479273Y-128716228D01*
X167479271Y-128716211D01*
X167485345Y-128697601D01*
X167485877Y-128690174D01*
X167489118Y-128682318D01*
X167492409Y-128675054D01*
X167493874Y-128672863D01*
X167557987Y-128518082D01*
X167590671Y-128353767D01*
X167590671Y-128186233D01*
X167557987Y-128021918D01*
X167493874Y-127867137D01*
X167423559Y-127761903D01*
X167400797Y-127727837D01*
X167282336Y-127609376D01*
X167282332Y-127609373D01*
X167150436Y-127521243D01*
X167143034Y-127516297D01*
X167143031Y-127516295D01*
X167143030Y-127516295D01*
X166988253Y-127452184D01*
X166988245Y-127452182D01*
X166847711Y-127424228D01*
X175069900Y-127424228D01*
X175069900Y-127591771D01*
X175102582Y-127756074D01*
X175102584Y-127756082D01*
X175166695Y-127910860D01*
X175259773Y-128050162D01*
X175378237Y-128168626D01*
X175428414Y-128202153D01*
X175517537Y-128261703D01*
X175517538Y-128261703D01*
X175517539Y-128261704D01*
X175536051Y-128269372D01*
X175672318Y-128325816D01*
X175812859Y-128353771D01*
X175836628Y-128358499D01*
X175836632Y-128358500D01*
X175836633Y-128358500D01*
X176004168Y-128358500D01*
X176004169Y-128358499D01*
X176168482Y-128325816D01*
X176323263Y-128261703D01*
X176462562Y-128168626D01*
X176581026Y-128050162D01*
X176674103Y-127910863D01*
X176738216Y-127756082D01*
X176770900Y-127591767D01*
X176770900Y-127424233D01*
X176738216Y-127259918D01*
X176674103Y-127105137D01*
X176605673Y-127002724D01*
X176581026Y-126965837D01*
X176462562Y-126847373D01*
X176323260Y-126754295D01*
X176168482Y-126690184D01*
X176168474Y-126690182D01*
X176004171Y-126657500D01*
X176004167Y-126657500D01*
X175836633Y-126657500D01*
X175836628Y-126657500D01*
X175672325Y-126690182D01*
X175672317Y-126690184D01*
X175517539Y-126754295D01*
X175378237Y-126847373D01*
X175259773Y-126965837D01*
X175166695Y-127105139D01*
X175102584Y-127259917D01*
X175102582Y-127259925D01*
X175069900Y-127424228D01*
X166847711Y-127424228D01*
X166823942Y-127419500D01*
X166823938Y-127419500D01*
X166656404Y-127419500D01*
X166656399Y-127419500D01*
X166492096Y-127452182D01*
X166492088Y-127452184D01*
X166337310Y-127516295D01*
X166198008Y-127609373D01*
X166079544Y-127727837D01*
X165986466Y-127867139D01*
X165922355Y-128021917D01*
X165922353Y-128021925D01*
X165889671Y-128186228D01*
X143649299Y-128186228D01*
X143616616Y-128021918D01*
X143552503Y-127867137D01*
X143482188Y-127761903D01*
X143459426Y-127727837D01*
X143340962Y-127609373D01*
X143201660Y-127516295D01*
X143046882Y-127452184D01*
X143046874Y-127452182D01*
X142882571Y-127419500D01*
X142882567Y-127419500D01*
X142715033Y-127419500D01*
X142715028Y-127419500D01*
X142550725Y-127452182D01*
X142550717Y-127452184D01*
X142395939Y-127516295D01*
X142256637Y-127609373D01*
X142138173Y-127727837D01*
X142045095Y-127867139D01*
X141980984Y-128021917D01*
X141980982Y-128021925D01*
X141948300Y-128186228D01*
X139010705Y-128186228D01*
X138989093Y-128170049D01*
X138989086Y-128170045D01*
X138854379Y-128119803D01*
X138846832Y-128118020D01*
X138847486Y-128115249D01*
X138795357Y-128093639D01*
X138755525Y-128036235D01*
X138753052Y-127966409D01*
X138785507Y-127909432D01*
X138933035Y-127761905D01*
X139055670Y-127593114D01*
X139150389Y-127407216D01*
X139214862Y-127208789D01*
X139247500Y-127002724D01*
X139247500Y-126794075D01*
X139214862Y-126588010D01*
X139171004Y-126453030D01*
X139150389Y-126389584D01*
X139150387Y-126389581D01*
X139150387Y-126389579D01*
X139100421Y-126291516D01*
X139055670Y-126203686D01*
X138933035Y-126034895D01*
X138785505Y-125887365D01*
X138729241Y-125846486D01*
X138616712Y-125764728D01*
X138565990Y-125738885D01*
X138515194Y-125690911D01*
X138498398Y-125623090D01*
X138520935Y-125556955D01*
X138565990Y-125517915D01*
X138616712Y-125492071D01*
X138616711Y-125492071D01*
X138616714Y-125492070D01*
X138785505Y-125369435D01*
X138933035Y-125221905D01*
X139055670Y-125053114D01*
X139150389Y-124867216D01*
X139214862Y-124668789D01*
X139224765Y-124606264D01*
X139247500Y-124462724D01*
X139247500Y-124254075D01*
X139214862Y-124048010D01*
X139150387Y-123849579D01*
X139073154Y-123698001D01*
X139055670Y-123663686D01*
X138933035Y-123494895D01*
X138785505Y-123347365D01*
X138729241Y-123306486D01*
X138616712Y-123224728D01*
X138565990Y-123198885D01*
X138515194Y-123150911D01*
X138498398Y-123083090D01*
X138520935Y-123016955D01*
X138565990Y-122977915D01*
X138616712Y-122952071D01*
X138616711Y-122952071D01*
X138616714Y-122952070D01*
X138785505Y-122829435D01*
X138933035Y-122681905D01*
X139055670Y-122513114D01*
X139089954Y-122445828D01*
X149923900Y-122445828D01*
X149923900Y-122613371D01*
X149956582Y-122777674D01*
X149956584Y-122777682D01*
X150020695Y-122932460D01*
X150113773Y-123071762D01*
X150232237Y-123190226D01*
X150324894Y-123252137D01*
X150371537Y-123283303D01*
X150526318Y-123347416D01*
X150526320Y-123347416D01*
X150526322Y-123347417D01*
X150528162Y-123347783D01*
X150529036Y-123348240D01*
X150532150Y-123349185D01*
X150531970Y-123349775D01*
X150590072Y-123380169D01*
X150624646Y-123440885D01*
X150620905Y-123510654D01*
X150580038Y-123567326D01*
X150532038Y-123589246D01*
X150532150Y-123589615D01*
X150529415Y-123590444D01*
X150528162Y-123591017D01*
X150526322Y-123591382D01*
X150526317Y-123591384D01*
X150371539Y-123655495D01*
X150232237Y-123748573D01*
X150113773Y-123867037D01*
X150020695Y-124006339D01*
X149956584Y-124161117D01*
X149956582Y-124161125D01*
X149923900Y-124325428D01*
X149923900Y-124492971D01*
X149956582Y-124657274D01*
X149956584Y-124657282D01*
X150020695Y-124812060D01*
X150113773Y-124951362D01*
X150232237Y-125069826D01*
X150324894Y-125131737D01*
X150371537Y-125162903D01*
X150526318Y-125227016D01*
X150656462Y-125252903D01*
X150690628Y-125259699D01*
X150690632Y-125259700D01*
X150690633Y-125259700D01*
X150858168Y-125259700D01*
X150858169Y-125259699D01*
X151022482Y-125227016D01*
X151177263Y-125162903D01*
X151316562Y-125069826D01*
X151435026Y-124951362D01*
X151528103Y-124812063D01*
X151592216Y-124657282D01*
X151624900Y-124492967D01*
X151624900Y-124415428D01*
X156121500Y-124415428D01*
X156121500Y-124582971D01*
X156154182Y-124747274D01*
X156154184Y-124747282D01*
X156218295Y-124902060D01*
X156311373Y-125041362D01*
X156429837Y-125159826D01*
X156503532Y-125209067D01*
X156569137Y-125252903D01*
X156723918Y-125317016D01*
X156848673Y-125341831D01*
X156888228Y-125349699D01*
X156888232Y-125349700D01*
X156888233Y-125349700D01*
X157055768Y-125349700D01*
X157055769Y-125349699D01*
X157220082Y-125317016D01*
X157374863Y-125252903D01*
X157514162Y-125159826D01*
X157632626Y-125041362D01*
X157725703Y-124902063D01*
X157789816Y-124747282D01*
X157822500Y-124582967D01*
X157822500Y-124415433D01*
X157789816Y-124251118D01*
X157736428Y-124122228D01*
X165773500Y-124122228D01*
X165773500Y-124289771D01*
X165806182Y-124454074D01*
X165806184Y-124454082D01*
X165870295Y-124608860D01*
X165963373Y-124748162D01*
X166081837Y-124866626D01*
X166150493Y-124912500D01*
X166221137Y-124959703D01*
X166221138Y-124959703D01*
X166221139Y-124959704D01*
X166253306Y-124973028D01*
X166375918Y-125023816D01*
X166450051Y-125038561D01*
X166546208Y-125057689D01*
X166545759Y-125059943D01*
X166601045Y-125082247D01*
X166641423Y-125139268D01*
X166644563Y-125209067D01*
X166638697Y-125226966D01*
X166572356Y-125387127D01*
X166572353Y-125387139D01*
X166539671Y-125551442D01*
X166539671Y-125718985D01*
X166572353Y-125883288D01*
X166572355Y-125883296D01*
X166636466Y-126038074D01*
X166729544Y-126177376D01*
X166848008Y-126295840D01*
X166932016Y-126351972D01*
X166987308Y-126388917D01*
X166987309Y-126388917D01*
X166987310Y-126388918D01*
X166990497Y-126390238D01*
X167142089Y-126453030D01*
X167306399Y-126485713D01*
X167306403Y-126485714D01*
X167306404Y-126485714D01*
X167473939Y-126485714D01*
X167473940Y-126485713D01*
X167638253Y-126453030D01*
X167793034Y-126388917D01*
X167831175Y-126363431D01*
X167897851Y-126342553D01*
X167947518Y-126351971D01*
X168039898Y-126390237D01*
X168204208Y-126422920D01*
X168204212Y-126422921D01*
X168204213Y-126422921D01*
X168371748Y-126422921D01*
X168371749Y-126422920D01*
X168536062Y-126390237D01*
X168690843Y-126326124D01*
X168830142Y-126233047D01*
X168843358Y-126219829D01*
X168904677Y-126186346D01*
X168955230Y-126185894D01*
X169078776Y-126210468D01*
X169078780Y-126210469D01*
X169078781Y-126210469D01*
X169246316Y-126210469D01*
X169246317Y-126210468D01*
X169410630Y-126177785D01*
X169565411Y-126113672D01*
X169704710Y-126020595D01*
X169760308Y-125964996D01*
X169821628Y-125931513D01*
X169872175Y-125931062D01*
X169926710Y-125941909D01*
X169938510Y-125944257D01*
X169938511Y-125944257D01*
X170106046Y-125944257D01*
X170106047Y-125944256D01*
X170270360Y-125911573D01*
X170425141Y-125847460D01*
X170564440Y-125754383D01*
X170682904Y-125635919D01*
X170775981Y-125496620D01*
X170840094Y-125341839D01*
X170872778Y-125177524D01*
X170872778Y-125009990D01*
X170872663Y-125009414D01*
X170870677Y-124999431D01*
X170863524Y-124963467D01*
X170869751Y-124893878D01*
X170912613Y-124838700D01*
X170978502Y-124815455D01*
X171046500Y-124831522D01*
X171068678Y-124848435D01*
X171068741Y-124848359D01*
X171070889Y-124850122D01*
X171072822Y-124851596D01*
X171073450Y-124852224D01*
X171148040Y-124902063D01*
X171212750Y-124945301D01*
X171367531Y-125009414D01*
X171528146Y-125041362D01*
X171531841Y-125042097D01*
X171531845Y-125042098D01*
X171531846Y-125042098D01*
X171699381Y-125042098D01*
X171699382Y-125042097D01*
X171863695Y-125009414D01*
X172018476Y-124945301D01*
X172157775Y-124852224D01*
X172276239Y-124733760D01*
X172369316Y-124594461D01*
X172433429Y-124439680D01*
X172466113Y-124275365D01*
X172466113Y-124107831D01*
X172433429Y-123943516D01*
X172369316Y-123788735D01*
X172285862Y-123663838D01*
X172281787Y-123657739D01*
X172281786Y-123657738D01*
X172280287Y-123655495D01*
X172276239Y-123649436D01*
X172276238Y-123649435D01*
X172276237Y-123649433D01*
X172157775Y-123530971D01*
X172018473Y-123437893D01*
X171863695Y-123373782D01*
X171863687Y-123373780D01*
X171699384Y-123341098D01*
X171699380Y-123341098D01*
X171531846Y-123341098D01*
X171531841Y-123341098D01*
X171367538Y-123373780D01*
X171367530Y-123373782D01*
X171212752Y-123437893D01*
X171073450Y-123530971D01*
X170954986Y-123649435D01*
X170861908Y-123788737D01*
X170797797Y-123943515D01*
X170797795Y-123943523D01*
X170765113Y-124107826D01*
X170765113Y-124275369D01*
X170774366Y-124321886D01*
X170768139Y-124391478D01*
X170725276Y-124446655D01*
X170659386Y-124469899D01*
X170591389Y-124453831D01*
X170569213Y-124436919D01*
X170569150Y-124436996D01*
X170566996Y-124435228D01*
X170565068Y-124433758D01*
X170564440Y-124433130D01*
X170425138Y-124340052D01*
X170270360Y-124275941D01*
X170270352Y-124275939D01*
X170106049Y-124243257D01*
X170106045Y-124243257D01*
X169938511Y-124243257D01*
X169938506Y-124243257D01*
X169774203Y-124275939D01*
X169774195Y-124275941D01*
X169619417Y-124340052D01*
X169480119Y-124433128D01*
X169424518Y-124488728D01*
X169363194Y-124522212D01*
X169312648Y-124522663D01*
X169310380Y-124522212D01*
X169294659Y-124519085D01*
X169246315Y-124509469D01*
X169078781Y-124509469D01*
X169078776Y-124509469D01*
X168914473Y-124542151D01*
X168914465Y-124542153D01*
X168759687Y-124606264D01*
X168620389Y-124699340D01*
X168620382Y-124699346D01*
X168607163Y-124712564D01*
X168545838Y-124746046D01*
X168495297Y-124746496D01*
X168412224Y-124729972D01*
X168371747Y-124721921D01*
X168204213Y-124721921D01*
X168204208Y-124721921D01*
X168039905Y-124754603D01*
X168039897Y-124754605D01*
X167885119Y-124818716D01*
X167846972Y-124844205D01*
X167780294Y-124865081D01*
X167730631Y-124855662D01*
X167638253Y-124817398D01*
X167638245Y-124817396D01*
X167467963Y-124783525D01*
X167468409Y-124781280D01*
X167413084Y-124758934D01*
X167372730Y-124701896D01*
X167369620Y-124632095D01*
X167375473Y-124614246D01*
X167377704Y-124608860D01*
X167441816Y-124454082D01*
X167474500Y-124289767D01*
X167474500Y-124122233D01*
X167441816Y-123957918D01*
X167377703Y-123803137D01*
X167339188Y-123745495D01*
X167284626Y-123663837D01*
X167166162Y-123545373D01*
X167026860Y-123452295D01*
X166872082Y-123388184D01*
X166872074Y-123388182D01*
X166789299Y-123371717D01*
X166727388Y-123339332D01*
X166692814Y-123278617D01*
X166696553Y-123208847D01*
X166737420Y-123152175D01*
X166802438Y-123126594D01*
X166805942Y-123126437D01*
X166809361Y-123126100D01*
X166809367Y-123126100D01*
X166973682Y-123093416D01*
X167128463Y-123029303D01*
X167267762Y-122936226D01*
X167386226Y-122817762D01*
X167479303Y-122678463D01*
X167543416Y-122523682D01*
X167576100Y-122359367D01*
X167576100Y-122191833D01*
X167543416Y-122027518D01*
X167479303Y-121872737D01*
X167432031Y-121801990D01*
X167386226Y-121733437D01*
X167267762Y-121614973D01*
X167128460Y-121521895D01*
X166973682Y-121457784D01*
X166973674Y-121457782D01*
X166809371Y-121425100D01*
X166809367Y-121425100D01*
X166641833Y-121425100D01*
X166641828Y-121425100D01*
X166477525Y-121457782D01*
X166477517Y-121457784D01*
X166322739Y-121521895D01*
X166183437Y-121614973D01*
X166064973Y-121733437D01*
X165971895Y-121872739D01*
X165907784Y-122027517D01*
X165907782Y-122027525D01*
X165875100Y-122191828D01*
X165875100Y-122359371D01*
X165907782Y-122523674D01*
X165907784Y-122523682D01*
X165971895Y-122678460D01*
X166064973Y-122817762D01*
X166183437Y-122936226D01*
X166276094Y-122998137D01*
X166322737Y-123029303D01*
X166477518Y-123093416D01*
X166508683Y-123099615D01*
X166560301Y-123109883D01*
X166622212Y-123142268D01*
X166656786Y-123202983D01*
X166653047Y-123272753D01*
X166612180Y-123329425D01*
X166547162Y-123355006D01*
X166543657Y-123355162D01*
X166540228Y-123355500D01*
X166375925Y-123388182D01*
X166375917Y-123388184D01*
X166221139Y-123452295D01*
X166081837Y-123545373D01*
X165963373Y-123663837D01*
X165870295Y-123803139D01*
X165806184Y-123957917D01*
X165806182Y-123957925D01*
X165773500Y-124122228D01*
X157736428Y-124122228D01*
X157725703Y-124096337D01*
X157633219Y-123957925D01*
X157632626Y-123957037D01*
X157514162Y-123838573D01*
X157374860Y-123745495D01*
X157220082Y-123681384D01*
X157220074Y-123681382D01*
X157055771Y-123648700D01*
X157055767Y-123648700D01*
X156888233Y-123648700D01*
X156888228Y-123648700D01*
X156723925Y-123681382D01*
X156723917Y-123681384D01*
X156569139Y-123745495D01*
X156429837Y-123838573D01*
X156311373Y-123957037D01*
X156218295Y-124096339D01*
X156154184Y-124251117D01*
X156154182Y-124251125D01*
X156121500Y-124415428D01*
X151624900Y-124415428D01*
X151624900Y-124325433D01*
X151592216Y-124161118D01*
X151528103Y-124006337D01*
X151463928Y-123910292D01*
X151435026Y-123867037D01*
X151316562Y-123748573D01*
X151177260Y-123655495D01*
X151022482Y-123591384D01*
X151022483Y-123591384D01*
X151021864Y-123591261D01*
X151020638Y-123591017D01*
X151019763Y-123590559D01*
X151016650Y-123589615D01*
X151016829Y-123589024D01*
X150958729Y-123558633D01*
X150924154Y-123497918D01*
X150927893Y-123428148D01*
X150968758Y-123371476D01*
X151016761Y-123349553D01*
X151016650Y-123349185D01*
X151019384Y-123348355D01*
X151020638Y-123347782D01*
X151022482Y-123347416D01*
X151177263Y-123283303D01*
X151316562Y-123190226D01*
X151435026Y-123071762D01*
X151528103Y-122932463D01*
X151592216Y-122777682D01*
X151624900Y-122613367D01*
X151624900Y-122445833D01*
X151592216Y-122281518D01*
X151528103Y-122126737D01*
X151496937Y-122080094D01*
X151435026Y-121987437D01*
X151316562Y-121868973D01*
X151177260Y-121775895D01*
X151022482Y-121711784D01*
X151022474Y-121711782D01*
X150858171Y-121679100D01*
X150858167Y-121679100D01*
X150690633Y-121679100D01*
X150690628Y-121679100D01*
X150526325Y-121711782D01*
X150526317Y-121711784D01*
X150371539Y-121775895D01*
X150232237Y-121868973D01*
X150113773Y-121987437D01*
X150020695Y-122126739D01*
X149956584Y-122281517D01*
X149956582Y-122281525D01*
X149923900Y-122445828D01*
X139089954Y-122445828D01*
X139130888Y-122365490D01*
X139150386Y-122327223D01*
X139150386Y-122327219D01*
X139150389Y-122327216D01*
X139214862Y-122128789D01*
X139237250Y-121987437D01*
X139247500Y-121922724D01*
X139247500Y-121714075D01*
X139214862Y-121508010D01*
X139150387Y-121309579D01*
X139055669Y-121123685D01*
X139004808Y-121053681D01*
X138933035Y-120954895D01*
X138785505Y-120807365D01*
X138729241Y-120766486D01*
X138616712Y-120684728D01*
X138565990Y-120658885D01*
X138515194Y-120610911D01*
X138498398Y-120543090D01*
X138520935Y-120476955D01*
X138565990Y-120437915D01*
X138616712Y-120412071D01*
X138616711Y-120412071D01*
X138616714Y-120412070D01*
X138785505Y-120289435D01*
X138933035Y-120141905D01*
X139055670Y-119973114D01*
X139150389Y-119787216D01*
X139214862Y-119588789D01*
X139231854Y-119481505D01*
X139247500Y-119382724D01*
X139247500Y-119174075D01*
X139214862Y-118968010D01*
X139187103Y-118882579D01*
X139172953Y-118839028D01*
X159169500Y-118839028D01*
X159169500Y-119006571D01*
X159202182Y-119170874D01*
X159202184Y-119170882D01*
X159266295Y-119325660D01*
X159359373Y-119464962D01*
X159477837Y-119583426D01*
X159546093Y-119629033D01*
X159617137Y-119676503D01*
X159771918Y-119740616D01*
X159936228Y-119773299D01*
X159936232Y-119773300D01*
X159936233Y-119773300D01*
X160103768Y-119773300D01*
X160103769Y-119773299D01*
X160268082Y-119740616D01*
X160422863Y-119676503D01*
X160562162Y-119583426D01*
X160680626Y-119464962D01*
X160773703Y-119325663D01*
X160837816Y-119170882D01*
X160870500Y-119006567D01*
X160870500Y-118949618D01*
X160890185Y-118882579D01*
X160942989Y-118836824D01*
X160970305Y-118828001D01*
X160979282Y-118826216D01*
X161134063Y-118762103D01*
X161273362Y-118669026D01*
X161391826Y-118550562D01*
X161484903Y-118411263D01*
X161549016Y-118256482D01*
X161581700Y-118092167D01*
X161581700Y-117924633D01*
X161549016Y-117760318D01*
X161484903Y-117605537D01*
X161453737Y-117558894D01*
X161391826Y-117466237D01*
X161273362Y-117347773D01*
X161134060Y-117254695D01*
X160979282Y-117190584D01*
X160979274Y-117190582D01*
X160814971Y-117157900D01*
X160814967Y-117157900D01*
X160647433Y-117157900D01*
X160647428Y-117157900D01*
X160483125Y-117190582D01*
X160483117Y-117190584D01*
X160328339Y-117254695D01*
X160189037Y-117347773D01*
X160070573Y-117466237D01*
X159977495Y-117605539D01*
X159913384Y-117760317D01*
X159913382Y-117760325D01*
X159880700Y-117924628D01*
X159880700Y-117981581D01*
X159861015Y-118048620D01*
X159808211Y-118094375D01*
X159780896Y-118103197D01*
X159771927Y-118104981D01*
X159771917Y-118104984D01*
X159617139Y-118169095D01*
X159477837Y-118262173D01*
X159359373Y-118380637D01*
X159266295Y-118519939D01*
X159202184Y-118674717D01*
X159202182Y-118674725D01*
X159169500Y-118839028D01*
X139172953Y-118839028D01*
X139150389Y-118769584D01*
X139055670Y-118583686D01*
X138933035Y-118414895D01*
X138785505Y-118267365D01*
X138729241Y-118226486D01*
X138616712Y-118144728D01*
X138565990Y-118118885D01*
X138515194Y-118070911D01*
X138498398Y-118003090D01*
X138520935Y-117936955D01*
X138565990Y-117897915D01*
X138616712Y-117872071D01*
X138616711Y-117872071D01*
X138616714Y-117872070D01*
X138785505Y-117749435D01*
X138933035Y-117601905D01*
X139055670Y-117433114D01*
X139150389Y-117247216D01*
X139214862Y-117048789D01*
X139220969Y-117010228D01*
X156578700Y-117010228D01*
X156578700Y-117177771D01*
X156611382Y-117342074D01*
X156611384Y-117342082D01*
X156675495Y-117496860D01*
X156768573Y-117636162D01*
X156887037Y-117754626D01*
X156979694Y-117816537D01*
X157026337Y-117847703D01*
X157181118Y-117911816D01*
X157345428Y-117944499D01*
X157345432Y-117944500D01*
X157345433Y-117944500D01*
X157512968Y-117944500D01*
X157512969Y-117944499D01*
X157677282Y-117911816D01*
X157832063Y-117847703D01*
X157971362Y-117754626D01*
X158089826Y-117636162D01*
X158182903Y-117496863D01*
X158247016Y-117342082D01*
X158279700Y-117177767D01*
X158279700Y-117059051D01*
X158299385Y-116992012D01*
X158352189Y-116946257D01*
X158421347Y-116936313D01*
X158484903Y-116965338D01*
X158491381Y-116971370D01*
X158563437Y-117043426D01*
X158586822Y-117059051D01*
X158702737Y-117136503D01*
X158857518Y-117200616D01*
X159021828Y-117233299D01*
X159021832Y-117233300D01*
X159021833Y-117233300D01*
X159189368Y-117233300D01*
X159189369Y-117233299D01*
X159353682Y-117200616D01*
X159508463Y-117136503D01*
X159647762Y-117043426D01*
X159766226Y-116924962D01*
X159859303Y-116785663D01*
X159923416Y-116630882D01*
X159956100Y-116466567D01*
X159956100Y-116299033D01*
X159923416Y-116134718D01*
X159859303Y-115979937D01*
X159789115Y-115874893D01*
X159766226Y-115840637D01*
X159647762Y-115722173D01*
X159508460Y-115629095D01*
X159353682Y-115564984D01*
X159353674Y-115564982D01*
X159189371Y-115532300D01*
X159189367Y-115532300D01*
X159021833Y-115532300D01*
X159021828Y-115532300D01*
X158857525Y-115564982D01*
X158857517Y-115564984D01*
X158702739Y-115629095D01*
X158563437Y-115722173D01*
X158444973Y-115840637D01*
X158351895Y-115979939D01*
X158287784Y-116134717D01*
X158287782Y-116134725D01*
X158255100Y-116299028D01*
X158255100Y-116417749D01*
X158235415Y-116484788D01*
X158182611Y-116530543D01*
X158113453Y-116540487D01*
X158049897Y-116511462D01*
X158043419Y-116505430D01*
X157971362Y-116433373D01*
X157832060Y-116340295D01*
X157677282Y-116276184D01*
X157677274Y-116276182D01*
X157512971Y-116243500D01*
X157512967Y-116243500D01*
X157345433Y-116243500D01*
X157345428Y-116243500D01*
X157181125Y-116276182D01*
X157181117Y-116276184D01*
X157026339Y-116340295D01*
X156887037Y-116433373D01*
X156768573Y-116551837D01*
X156675495Y-116691139D01*
X156611384Y-116845917D01*
X156611382Y-116845925D01*
X156578700Y-117010228D01*
X139220969Y-117010228D01*
X139227124Y-116971370D01*
X139247500Y-116842724D01*
X139247500Y-116634075D01*
X139214862Y-116428010D01*
X139165530Y-116276184D01*
X139150389Y-116229584D01*
X139150387Y-116229581D01*
X139150387Y-116229579D01*
X139073154Y-116078001D01*
X139055670Y-116043686D01*
X138933035Y-115874895D01*
X138785505Y-115727365D01*
X138616714Y-115604730D01*
X138430820Y-115510012D01*
X138232389Y-115445537D01*
X138026324Y-115412900D01*
X138026319Y-115412900D01*
X137817681Y-115412900D01*
X137817676Y-115412900D01*
X137611610Y-115445537D01*
X137413179Y-115510012D01*
X137227285Y-115604730D01*
X137058493Y-115727366D01*
X136910966Y-115874893D01*
X136788330Y-116043685D01*
X136693612Y-116229579D01*
X136629137Y-116428010D01*
X136596500Y-116634075D01*
X132045440Y-116634075D01*
X132045440Y-115232228D01*
X151397100Y-115232228D01*
X151397100Y-115399771D01*
X151429782Y-115564074D01*
X151429784Y-115564082D01*
X151493895Y-115718860D01*
X151586973Y-115858162D01*
X151705437Y-115976626D01*
X151798094Y-116038537D01*
X151844737Y-116069703D01*
X151844738Y-116069703D01*
X151844739Y-116069704D01*
X151864770Y-116078001D01*
X151999518Y-116133816D01*
X152138450Y-116161451D01*
X152163828Y-116166499D01*
X152163832Y-116166500D01*
X152163833Y-116166500D01*
X152331368Y-116166500D01*
X152331369Y-116166499D01*
X152495682Y-116133816D01*
X152650463Y-116069703D01*
X152789762Y-115976626D01*
X152908226Y-115858162D01*
X153001303Y-115718863D01*
X153065416Y-115564082D01*
X153098100Y-115399767D01*
X153098100Y-115323976D01*
X190549494Y-115323976D01*
X190549494Y-115491519D01*
X190582176Y-115655822D01*
X190582178Y-115655830D01*
X190646289Y-115810608D01*
X190739367Y-115949910D01*
X190857831Y-116068374D01*
X190950488Y-116130285D01*
X190997131Y-116161451D01*
X191151912Y-116225564D01*
X191316222Y-116258247D01*
X191316226Y-116258248D01*
X191316227Y-116258248D01*
X191483762Y-116258248D01*
X191483763Y-116258247D01*
X191648076Y-116225564D01*
X191802857Y-116161451D01*
X191942156Y-116068374D01*
X192060620Y-115949910D01*
X192153697Y-115810611D01*
X192217810Y-115655830D01*
X192250494Y-115491515D01*
X192250494Y-115323981D01*
X192217810Y-115159666D01*
X192153697Y-115004885D01*
X192096154Y-114918766D01*
X192060620Y-114865585D01*
X191942156Y-114747121D01*
X191802854Y-114654043D01*
X191648076Y-114589932D01*
X191648068Y-114589930D01*
X191483765Y-114557248D01*
X191483761Y-114557248D01*
X191316227Y-114557248D01*
X191316222Y-114557248D01*
X191151919Y-114589930D01*
X191151911Y-114589932D01*
X190997133Y-114654043D01*
X190857831Y-114747121D01*
X190739367Y-114865585D01*
X190646289Y-115004887D01*
X190582178Y-115159665D01*
X190582176Y-115159673D01*
X190549494Y-115323976D01*
X153098100Y-115323976D01*
X153098100Y-115232233D01*
X153065416Y-115067918D01*
X153001303Y-114913137D01*
X152969530Y-114865585D01*
X152908226Y-114773837D01*
X152789762Y-114655373D01*
X152650460Y-114562295D01*
X152495682Y-114498184D01*
X152495674Y-114498182D01*
X152331371Y-114465500D01*
X152331367Y-114465500D01*
X152163833Y-114465500D01*
X152163828Y-114465500D01*
X151999525Y-114498182D01*
X151999517Y-114498184D01*
X151844739Y-114562295D01*
X151705437Y-114655373D01*
X151586973Y-114773837D01*
X151493895Y-114913139D01*
X151429784Y-115067917D01*
X151429782Y-115067925D01*
X151397100Y-115232228D01*
X132045440Y-115232228D01*
X132045440Y-114063828D01*
X160185500Y-114063828D01*
X160185500Y-114231371D01*
X160218182Y-114395674D01*
X160218184Y-114395682D01*
X160282295Y-114550460D01*
X160375373Y-114689762D01*
X160493837Y-114808226D01*
X160576561Y-114863500D01*
X160633137Y-114901303D01*
X160633138Y-114901303D01*
X160633139Y-114901304D01*
X160661711Y-114913139D01*
X160787918Y-114965416D01*
X160952228Y-114998099D01*
X160952232Y-114998100D01*
X160952233Y-114998100D01*
X161119768Y-114998100D01*
X161119769Y-114998099D01*
X161284082Y-114965416D01*
X161438863Y-114901303D01*
X161578162Y-114808226D01*
X161696626Y-114689762D01*
X161789703Y-114550463D01*
X161853816Y-114395682D01*
X161886500Y-114231367D01*
X161886500Y-114063833D01*
X161853816Y-113899518D01*
X161789703Y-113744737D01*
X161753547Y-113690626D01*
X161696626Y-113605437D01*
X161578162Y-113486973D01*
X161438860Y-113393895D01*
X161284082Y-113329784D01*
X161284074Y-113329782D01*
X161119771Y-113297100D01*
X161119767Y-113297100D01*
X160952233Y-113297100D01*
X160952228Y-113297100D01*
X160787925Y-113329782D01*
X160787917Y-113329784D01*
X160633139Y-113393895D01*
X160493837Y-113486973D01*
X160375373Y-113605437D01*
X160282295Y-113744739D01*
X160218184Y-113899517D01*
X160218182Y-113899525D01*
X160185500Y-114063828D01*
X132045440Y-114063828D01*
X132045440Y-112946228D01*
X155156300Y-112946228D01*
X155156300Y-113113771D01*
X155188982Y-113278074D01*
X155188984Y-113278082D01*
X155253095Y-113432860D01*
X155346173Y-113572162D01*
X155464637Y-113690626D01*
X155545623Y-113744739D01*
X155603937Y-113783703D01*
X155758718Y-113847816D01*
X155923028Y-113880499D01*
X155923032Y-113880500D01*
X155923033Y-113880500D01*
X156090568Y-113880500D01*
X156090569Y-113880499D01*
X156254882Y-113847816D01*
X156409663Y-113783703D01*
X156548962Y-113690626D01*
X156667426Y-113572162D01*
X156760503Y-113432863D01*
X156824616Y-113278082D01*
X156857300Y-113113767D01*
X156857300Y-112946233D01*
X156855874Y-112939064D01*
X156852906Y-112924140D01*
X156849305Y-112906036D01*
X169707241Y-112906036D01*
X169707241Y-113073579D01*
X169739923Y-113237882D01*
X169739925Y-113237890D01*
X169804036Y-113392668D01*
X169897114Y-113531970D01*
X170015578Y-113650434D01*
X170075730Y-113690626D01*
X170154878Y-113743511D01*
X170154879Y-113743511D01*
X170154880Y-113743512D01*
X170189942Y-113758035D01*
X170309659Y-113807624D01*
X170473969Y-113840307D01*
X170473973Y-113840308D01*
X170473974Y-113840308D01*
X170641509Y-113840308D01*
X170641510Y-113840307D01*
X170805823Y-113807624D01*
X170960604Y-113743511D01*
X171099903Y-113650434D01*
X171218367Y-113531970D01*
X171311444Y-113392671D01*
X171375557Y-113237890D01*
X171408241Y-113073575D01*
X171408241Y-112906041D01*
X171375557Y-112741726D01*
X171311444Y-112586945D01*
X171218367Y-112447646D01*
X171218366Y-112447645D01*
X171218364Y-112447642D01*
X171208950Y-112438228D01*
X173850700Y-112438228D01*
X173850700Y-112605771D01*
X173883382Y-112770074D01*
X173883384Y-112770082D01*
X173947495Y-112924860D01*
X174040573Y-113064162D01*
X174159035Y-113182624D01*
X174159038Y-113182626D01*
X174192498Y-113204983D01*
X174237302Y-113258594D01*
X174246011Y-113327919D01*
X174226710Y-113376975D01*
X174150695Y-113490740D01*
X174086584Y-113645517D01*
X174086582Y-113645525D01*
X174053900Y-113809828D01*
X174053900Y-113977371D01*
X174086582Y-114141674D01*
X174086584Y-114141682D01*
X174150695Y-114296460D01*
X174243773Y-114435762D01*
X174362237Y-114554226D01*
X174454894Y-114616137D01*
X174501537Y-114647303D01*
X174501538Y-114647303D01*
X174501539Y-114647304D01*
X174521022Y-114655374D01*
X174656318Y-114711416D01*
X174820628Y-114744099D01*
X174820632Y-114744100D01*
X174820633Y-114744100D01*
X174988168Y-114744100D01*
X174988169Y-114744099D01*
X175152482Y-114711416D01*
X175307263Y-114647303D01*
X175446562Y-114554226D01*
X175565026Y-114435762D01*
X175658103Y-114296463D01*
X175722216Y-114141682D01*
X175754900Y-113977367D01*
X175754900Y-113809833D01*
X175722216Y-113645518D01*
X175658103Y-113490737D01*
X175619976Y-113433675D01*
X203541100Y-113433675D01*
X203541100Y-113642324D01*
X203573737Y-113848389D01*
X203638212Y-114046820D01*
X203686543Y-114141674D01*
X203732930Y-114232714D01*
X203855565Y-114401505D01*
X204003095Y-114549035D01*
X204171886Y-114671670D01*
X204207394Y-114689762D01*
X204222610Y-114697515D01*
X204273406Y-114745490D01*
X204290201Y-114813310D01*
X204267664Y-114879445D01*
X204222610Y-114918485D01*
X204171885Y-114944330D01*
X204003093Y-115066966D01*
X203855566Y-115214493D01*
X203732930Y-115383285D01*
X203638212Y-115569179D01*
X203573737Y-115767610D01*
X203541100Y-115973675D01*
X203541100Y-116182324D01*
X203573737Y-116388389D01*
X203638212Y-116586820D01*
X203732796Y-116772451D01*
X203732930Y-116772714D01*
X203855565Y-116941505D01*
X204003095Y-117089035D01*
X204171886Y-117211670D01*
X204214336Y-117233299D01*
X204222610Y-117237515D01*
X204273406Y-117285490D01*
X204290201Y-117353310D01*
X204267664Y-117419445D01*
X204222610Y-117458485D01*
X204171885Y-117484330D01*
X204003093Y-117606966D01*
X204003092Y-117606967D01*
X203860627Y-117749433D01*
X203855565Y-117754495D01*
X203787845Y-117847703D01*
X203732930Y-117923285D01*
X203638212Y-118109179D01*
X203573737Y-118307610D01*
X203541100Y-118513675D01*
X203541100Y-118722324D01*
X203573737Y-118928389D01*
X203638212Y-119126820D01*
X203707085Y-119261990D01*
X203732930Y-119312714D01*
X203855565Y-119481505D01*
X204003095Y-119629035D01*
X204171886Y-119751670D01*
X204214336Y-119773299D01*
X204222610Y-119777515D01*
X204273406Y-119825490D01*
X204290201Y-119893310D01*
X204267664Y-119959445D01*
X204222610Y-119998485D01*
X204171885Y-120024330D01*
X204003093Y-120146966D01*
X203855566Y-120294493D01*
X203732930Y-120463285D01*
X203638212Y-120649179D01*
X203573737Y-120847610D01*
X203541100Y-121053675D01*
X203541100Y-121262324D01*
X203573737Y-121468389D01*
X203638212Y-121666820D01*
X203693789Y-121775895D01*
X203732930Y-121852714D01*
X203855565Y-122021505D01*
X204003095Y-122169035D01*
X204115622Y-122250791D01*
X204171887Y-122291671D01*
X204223161Y-122317796D01*
X204273958Y-122365770D01*
X204290753Y-122433591D01*
X204268216Y-122499726D01*
X204223163Y-122538765D01*
X204172155Y-122564755D01*
X204122780Y-122600627D01*
X204696366Y-123174212D01*
X204654308Y-123185482D01*
X204528892Y-123257890D01*
X204426490Y-123360292D01*
X204354082Y-123485708D01*
X204342812Y-123527765D01*
X203769227Y-122954180D01*
X203733357Y-123003552D01*
X203638675Y-123189372D01*
X203574226Y-123387727D01*
X203541600Y-123593720D01*
X203541600Y-123802279D01*
X203574226Y-124008272D01*
X203638675Y-124206627D01*
X203733359Y-124392451D01*
X203769227Y-124441818D01*
X203769227Y-124441819D01*
X204342812Y-123868234D01*
X204354082Y-123910292D01*
X204426490Y-124035708D01*
X204528892Y-124138110D01*
X204654308Y-124210518D01*
X204696365Y-124221787D01*
X204122779Y-124795371D01*
X204122780Y-124795372D01*
X204172143Y-124831236D01*
X204172161Y-124831247D01*
X204223161Y-124857233D01*
X204273958Y-124905207D01*
X204290753Y-124973028D01*
X204268216Y-125039163D01*
X204223163Y-125078202D01*
X204171888Y-125104328D01*
X204003092Y-125226967D01*
X203855566Y-125374493D01*
X203732930Y-125543285D01*
X203638212Y-125729179D01*
X203573737Y-125927610D01*
X203541100Y-126133675D01*
X203541100Y-126342324D01*
X203573737Y-126548389D01*
X203638212Y-126746820D01*
X203689447Y-126847374D01*
X203732930Y-126932714D01*
X203855565Y-127101505D01*
X204003095Y-127249035D01*
X204171886Y-127371670D01*
X204218871Y-127395610D01*
X204222610Y-127397515D01*
X204273406Y-127445490D01*
X204290201Y-127513310D01*
X204267664Y-127579445D01*
X204222610Y-127618485D01*
X204171885Y-127644330D01*
X204003093Y-127766966D01*
X203855566Y-127914493D01*
X203732930Y-128083285D01*
X203638212Y-128269179D01*
X203573737Y-128467610D01*
X203541100Y-128673675D01*
X203541100Y-128882324D01*
X203573737Y-129088389D01*
X203638212Y-129286820D01*
X203726771Y-129460626D01*
X203732930Y-129472714D01*
X203855565Y-129641505D01*
X204003095Y-129789035D01*
X204171886Y-129911670D01*
X204196747Y-129924337D01*
X204222610Y-129937515D01*
X204273406Y-129985490D01*
X204290201Y-130053310D01*
X204267664Y-130119445D01*
X204222610Y-130158485D01*
X204171885Y-130184330D01*
X204003093Y-130306966D01*
X203855566Y-130454493D01*
X203732930Y-130623285D01*
X203638212Y-130809179D01*
X203573737Y-131007610D01*
X203541100Y-131213675D01*
X203541100Y-131422324D01*
X203573737Y-131628389D01*
X203638212Y-131826820D01*
X203707085Y-131961990D01*
X203732930Y-132012714D01*
X203855565Y-132181505D01*
X204003095Y-132329035D01*
X204171886Y-132451670D01*
X204218871Y-132475610D01*
X204222610Y-132477515D01*
X204273406Y-132525490D01*
X204290201Y-132593310D01*
X204267664Y-132659445D01*
X204222610Y-132698485D01*
X204171885Y-132724330D01*
X204003093Y-132846966D01*
X203855566Y-132994493D01*
X203732930Y-133163285D01*
X203638212Y-133349179D01*
X203573737Y-133547610D01*
X203541100Y-133753675D01*
X203541100Y-133962324D01*
X203573737Y-134168389D01*
X203638212Y-134366820D01*
X203707085Y-134501990D01*
X203732930Y-134552714D01*
X203855565Y-134721505D01*
X204003095Y-134869035D01*
X204171886Y-134991670D01*
X204259716Y-135036421D01*
X204357779Y-135086387D01*
X204357781Y-135086387D01*
X204357784Y-135086389D01*
X204464145Y-135120948D01*
X204556210Y-135150862D01*
X204762276Y-135183500D01*
X204762281Y-135183500D01*
X204970924Y-135183500D01*
X205176989Y-135150862D01*
X205375416Y-135086389D01*
X205561314Y-134991670D01*
X205730105Y-134869035D01*
X205877635Y-134721505D01*
X206000270Y-134552714D01*
X206026115Y-134501990D01*
X206074089Y-134451194D01*
X206141910Y-134434398D01*
X206208045Y-134456935D01*
X206247085Y-134501990D01*
X206272928Y-134552712D01*
X206354686Y-134665241D01*
X206395565Y-134721505D01*
X206543095Y-134869035D01*
X206711886Y-134991670D01*
X206799716Y-135036421D01*
X206897779Y-135086387D01*
X206897781Y-135086387D01*
X206897784Y-135086389D01*
X207004145Y-135120948D01*
X207096210Y-135150862D01*
X207302276Y-135183500D01*
X207302281Y-135183500D01*
X207510924Y-135183500D01*
X207716989Y-135150862D01*
X207915416Y-135086389D01*
X208101314Y-134991670D01*
X208270105Y-134869035D01*
X208417635Y-134721505D01*
X208540270Y-134552714D01*
X208634989Y-134366816D01*
X208699462Y-134168389D01*
X208732100Y-133962324D01*
X208732100Y-133753675D01*
X208699462Y-133547610D01*
X208669548Y-133455545D01*
X208634989Y-133349184D01*
X208634987Y-133349181D01*
X208634987Y-133349179D01*
X208540269Y-133163285D01*
X208525720Y-133143260D01*
X208417635Y-132994495D01*
X208270105Y-132846965D01*
X208213841Y-132806086D01*
X208101312Y-132724328D01*
X208050590Y-132698485D01*
X207999794Y-132650511D01*
X207982998Y-132582690D01*
X208005535Y-132516555D01*
X208050590Y-132477515D01*
X208101312Y-132451671D01*
X208101311Y-132451671D01*
X208101314Y-132451670D01*
X208270105Y-132329035D01*
X208417635Y-132181505D01*
X208540270Y-132012714D01*
X208634989Y-131826816D01*
X208699462Y-131628389D01*
X208708436Y-131571730D01*
X208732100Y-131422324D01*
X208732100Y-131213675D01*
X208699462Y-131007610D01*
X208634987Y-130809179D01*
X208542094Y-130626866D01*
X208540270Y-130623286D01*
X208417635Y-130454495D01*
X208270105Y-130306965D01*
X208101314Y-130184330D01*
X208050590Y-130158485D01*
X208050037Y-130158203D01*
X207999241Y-130110228D01*
X207982446Y-130042407D01*
X208004984Y-129976272D01*
X208050038Y-129937233D01*
X208101048Y-129911242D01*
X208101049Y-129911242D01*
X208150418Y-129875372D01*
X208150418Y-129875371D01*
X207576834Y-129301787D01*
X207618892Y-129290518D01*
X207744308Y-129218110D01*
X207846710Y-129115708D01*
X207919118Y-128990292D01*
X207930387Y-128948234D01*
X208503971Y-129521818D01*
X208503972Y-129521818D01*
X208539840Y-129472451D01*
X208634524Y-129286627D01*
X208698973Y-129088272D01*
X208731600Y-128882279D01*
X208731600Y-128673720D01*
X208698973Y-128467727D01*
X208634524Y-128269372D01*
X208539844Y-128083556D01*
X208539836Y-128083543D01*
X208503972Y-128034180D01*
X208503971Y-128034179D01*
X207930387Y-128607764D01*
X207919118Y-128565708D01*
X207846710Y-128440292D01*
X207744308Y-128337890D01*
X207618892Y-128265482D01*
X207576833Y-128254212D01*
X208150419Y-127680627D01*
X208101051Y-127644759D01*
X208050037Y-127618766D01*
X207999241Y-127570791D01*
X207982446Y-127502970D01*
X208004984Y-127436835D01*
X208050038Y-127397796D01*
X208101312Y-127371671D01*
X208101311Y-127371671D01*
X208101314Y-127371670D01*
X208270105Y-127249035D01*
X208417635Y-127101505D01*
X208540270Y-126932714D01*
X208634989Y-126746816D01*
X208699462Y-126548389D01*
X208714565Y-126453031D01*
X208732100Y-126342324D01*
X208732100Y-126133675D01*
X208699462Y-125927610D01*
X208669548Y-125835545D01*
X208634989Y-125729184D01*
X208634987Y-125729181D01*
X208634987Y-125729179D01*
X208566115Y-125594010D01*
X208540270Y-125543286D01*
X208417635Y-125374495D01*
X208270105Y-125226965D01*
X208149402Y-125139268D01*
X208101312Y-125104328D01*
X208050590Y-125078485D01*
X207999794Y-125030511D01*
X207982998Y-124962690D01*
X208005535Y-124896555D01*
X208050590Y-124857515D01*
X208101312Y-124831671D01*
X208101311Y-124831671D01*
X208101314Y-124831670D01*
X208270105Y-124709035D01*
X208417635Y-124561505D01*
X208540270Y-124392714D01*
X208634989Y-124206816D01*
X208699462Y-124008389D01*
X208721850Y-123867037D01*
X208732100Y-123802324D01*
X208732100Y-123593675D01*
X208699462Y-123387610D01*
X208669548Y-123295545D01*
X208634989Y-123189184D01*
X208634987Y-123189181D01*
X208634987Y-123189179D01*
X208566396Y-123054561D01*
X208540270Y-123003286D01*
X208417635Y-122834495D01*
X208270105Y-122686965D01*
X208168813Y-122613371D01*
X208101312Y-122564328D01*
X208050590Y-122538485D01*
X207999794Y-122490511D01*
X207982998Y-122422690D01*
X208005535Y-122356555D01*
X208050590Y-122317515D01*
X208101312Y-122291671D01*
X208101311Y-122291671D01*
X208101314Y-122291670D01*
X208270105Y-122169035D01*
X208417635Y-122021505D01*
X208540270Y-121852714D01*
X208634989Y-121666816D01*
X208699462Y-121468389D01*
X208706318Y-121425100D01*
X208732100Y-121262324D01*
X208732100Y-121053675D01*
X208699462Y-120847610D01*
X208669548Y-120755545D01*
X208634989Y-120649184D01*
X208634987Y-120649181D01*
X208634987Y-120649179D01*
X208566115Y-120514010D01*
X208540270Y-120463286D01*
X208417635Y-120294495D01*
X208270105Y-120146965D01*
X208213841Y-120106086D01*
X208101312Y-120024328D01*
X208050590Y-119998485D01*
X207999794Y-119950511D01*
X207982998Y-119882690D01*
X208005535Y-119816555D01*
X208050590Y-119777515D01*
X208101312Y-119751671D01*
X208101311Y-119751671D01*
X208101314Y-119751670D01*
X208270105Y-119629035D01*
X208417635Y-119481505D01*
X208540270Y-119312714D01*
X208634989Y-119126816D01*
X208699462Y-118928389D01*
X208712218Y-118847853D01*
X208732100Y-118722324D01*
X208732100Y-118513675D01*
X208699462Y-118307610D01*
X208654455Y-118169095D01*
X208634989Y-118109184D01*
X208634987Y-118109181D01*
X208634987Y-118109179D01*
X208580932Y-118003090D01*
X208540270Y-117923286D01*
X208417635Y-117754495D01*
X208270105Y-117606965D01*
X208101314Y-117484330D01*
X208101310Y-117484328D01*
X208050037Y-117458203D01*
X207999241Y-117410228D01*
X207982446Y-117342407D01*
X208004984Y-117276272D01*
X208050038Y-117237233D01*
X208101048Y-117211242D01*
X208101049Y-117211242D01*
X208150418Y-117175372D01*
X208150418Y-117175371D01*
X207576834Y-116601787D01*
X207618892Y-116590518D01*
X207744308Y-116518110D01*
X207846710Y-116415708D01*
X207919118Y-116290292D01*
X207930387Y-116248234D01*
X208503971Y-116821818D01*
X208503972Y-116821818D01*
X208539840Y-116772451D01*
X208634524Y-116586627D01*
X208698973Y-116388272D01*
X208731600Y-116182279D01*
X208731600Y-115973720D01*
X208698973Y-115767727D01*
X208634524Y-115569372D01*
X208539844Y-115383556D01*
X208539836Y-115383543D01*
X208503972Y-115334180D01*
X208503971Y-115334179D01*
X207930387Y-115907764D01*
X207919118Y-115865708D01*
X207846710Y-115740292D01*
X207744308Y-115637890D01*
X207618892Y-115565482D01*
X207576833Y-115554212D01*
X208150419Y-114980627D01*
X208101051Y-114944759D01*
X208050037Y-114918766D01*
X207999241Y-114870791D01*
X207982446Y-114802970D01*
X208004984Y-114736835D01*
X208050038Y-114697796D01*
X208101312Y-114671671D01*
X208101311Y-114671671D01*
X208101314Y-114671670D01*
X208270105Y-114549035D01*
X208417635Y-114401505D01*
X208540270Y-114232714D01*
X208634989Y-114046816D01*
X208699462Y-113848389D01*
X208705569Y-113809832D01*
X208732100Y-113642324D01*
X208732100Y-113433675D01*
X208699462Y-113227610D01*
X208662472Y-113113767D01*
X208634989Y-113029184D01*
X208634987Y-113029181D01*
X208634987Y-113029179D01*
X208572245Y-112906041D01*
X208540270Y-112843286D01*
X208417635Y-112674495D01*
X208270105Y-112526965D01*
X208160933Y-112447646D01*
X208101312Y-112404328D01*
X208050590Y-112378485D01*
X207999794Y-112330511D01*
X207982998Y-112262690D01*
X208005535Y-112196555D01*
X208050590Y-112157515D01*
X208101312Y-112131671D01*
X208101311Y-112131671D01*
X208101314Y-112131670D01*
X208270105Y-112009035D01*
X208417635Y-111861505D01*
X208540270Y-111692714D01*
X208634989Y-111506816D01*
X208699462Y-111308389D01*
X208732100Y-111102324D01*
X208732100Y-110893675D01*
X208699462Y-110687610D01*
X208634987Y-110489179D01*
X208576962Y-110375299D01*
X208540270Y-110303286D01*
X208417635Y-110134495D01*
X208270105Y-109986965D01*
X208101314Y-109864330D01*
X208077062Y-109851973D01*
X207915420Y-109769612D01*
X207716989Y-109705137D01*
X207510924Y-109672500D01*
X207510919Y-109672500D01*
X207302281Y-109672500D01*
X207302276Y-109672500D01*
X207096210Y-109705137D01*
X206897779Y-109769612D01*
X206711885Y-109864330D01*
X206543096Y-109986964D01*
X206395570Y-110134490D01*
X206334247Y-110167974D01*
X206264555Y-110162990D01*
X206208622Y-110121118D01*
X206189522Y-110072567D01*
X206186980Y-110073168D01*
X206185196Y-110065620D01*
X206134954Y-109930913D01*
X206134950Y-109930906D01*
X206048790Y-109815812D01*
X206048787Y-109815809D01*
X205933693Y-109729649D01*
X205933686Y-109729645D01*
X205798979Y-109679403D01*
X205798972Y-109679401D01*
X205739444Y-109673000D01*
X205116600Y-109673000D01*
X205116600Y-110507252D01*
X205078892Y-110485482D01*
X204939009Y-110448000D01*
X204794191Y-110448000D01*
X204654308Y-110485482D01*
X204616600Y-110507252D01*
X204616600Y-109673000D01*
X203993755Y-109673000D01*
X203934227Y-109679401D01*
X203934220Y-109679403D01*
X203799513Y-109729645D01*
X203799506Y-109729649D01*
X203684412Y-109815809D01*
X203684409Y-109815812D01*
X203598249Y-109930906D01*
X203598245Y-109930913D01*
X203548003Y-110065620D01*
X203548001Y-110065627D01*
X203541600Y-110125155D01*
X203541600Y-110748000D01*
X204375852Y-110748000D01*
X204354082Y-110785708D01*
X204316600Y-110925591D01*
X204316600Y-111070409D01*
X204354082Y-111210292D01*
X204375852Y-111248000D01*
X203541600Y-111248000D01*
X203541600Y-111870844D01*
X203548001Y-111930372D01*
X203548003Y-111930379D01*
X203598245Y-112065086D01*
X203598249Y-112065093D01*
X203684409Y-112180187D01*
X203684412Y-112180190D01*
X203799506Y-112266350D01*
X203799513Y-112266354D01*
X203934220Y-112316596D01*
X203941768Y-112318380D01*
X203941111Y-112321158D01*
X203993203Y-112342728D01*
X204033058Y-112400116D01*
X204035560Y-112469941D01*
X204003090Y-112526970D01*
X203855564Y-112674496D01*
X203732930Y-112843285D01*
X203638212Y-113029179D01*
X203573737Y-113227610D01*
X203541100Y-113433675D01*
X175619976Y-113433675D01*
X175619431Y-113432860D01*
X175565026Y-113351437D01*
X175446564Y-113232975D01*
X175430152Y-113222009D01*
X175413101Y-113210616D01*
X175368296Y-113157004D01*
X175359589Y-113087680D01*
X175378889Y-113038625D01*
X175454903Y-112924863D01*
X175519016Y-112770082D01*
X175551700Y-112605767D01*
X175551700Y-112438233D01*
X175519016Y-112273918D01*
X175454903Y-112119137D01*
X175381334Y-112009033D01*
X175361826Y-111979837D01*
X175243362Y-111861373D01*
X175104060Y-111768295D01*
X174949282Y-111704184D01*
X174949274Y-111704182D01*
X174784971Y-111671500D01*
X174784967Y-111671500D01*
X174617433Y-111671500D01*
X174617428Y-111671500D01*
X174453125Y-111704182D01*
X174453117Y-111704184D01*
X174298339Y-111768295D01*
X174159037Y-111861373D01*
X174040573Y-111979837D01*
X173947495Y-112119139D01*
X173883384Y-112273917D01*
X173883382Y-112273925D01*
X173850700Y-112438228D01*
X171208950Y-112438228D01*
X171099903Y-112329181D01*
X170960601Y-112236103D01*
X170805823Y-112171992D01*
X170805815Y-112171990D01*
X170641512Y-112139308D01*
X170641508Y-112139308D01*
X170473974Y-112139308D01*
X170473969Y-112139308D01*
X170309666Y-112171990D01*
X170309658Y-112171992D01*
X170154880Y-112236103D01*
X170015578Y-112329181D01*
X169897114Y-112447645D01*
X169804036Y-112586947D01*
X169739925Y-112741725D01*
X169739923Y-112741733D01*
X169707241Y-112906036D01*
X156849305Y-112906036D01*
X156837244Y-112845402D01*
X156843471Y-112775811D01*
X156886334Y-112720633D01*
X156952224Y-112697389D01*
X156958861Y-112697211D01*
X157014778Y-112697211D01*
X157014779Y-112697210D01*
X157179092Y-112664527D01*
X157319918Y-112606194D01*
X157389381Y-112598726D01*
X157426649Y-112613781D01*
X157427370Y-112612434D01*
X157432733Y-112615300D01*
X157432737Y-112615303D01*
X157587518Y-112679416D01*
X157751828Y-112712099D01*
X157751832Y-112712100D01*
X157751833Y-112712100D01*
X157919368Y-112712100D01*
X157919369Y-112712099D01*
X158083682Y-112679416D01*
X158238463Y-112615303D01*
X158377762Y-112522226D01*
X158496226Y-112403762D01*
X158589303Y-112264463D01*
X158653416Y-112109682D01*
X158686100Y-111945367D01*
X158686100Y-111777833D01*
X158653416Y-111613518D01*
X158589303Y-111458737D01*
X158525400Y-111363100D01*
X158496226Y-111319437D01*
X158451570Y-111274781D01*
X158451164Y-111274039D01*
X158450426Y-111273623D01*
X158434433Y-111243398D01*
X158418085Y-111213458D01*
X158418145Y-111212614D01*
X158417749Y-111211865D01*
X158420633Y-111177823D01*
X158423069Y-111143766D01*
X158423600Y-111142808D01*
X158423648Y-111142245D01*
X158425419Y-111139528D01*
X158440968Y-111111493D01*
X158445879Y-111105108D01*
X158496226Y-111054762D01*
X158573000Y-110939860D01*
X158575517Y-110936590D01*
X158600545Y-110918361D01*
X158624309Y-110898501D01*
X158628544Y-110897969D01*
X158631995Y-110895456D01*
X158662914Y-110893652D01*
X158693634Y-110889794D01*
X158697483Y-110891635D01*
X158701746Y-110891387D01*
X158728734Y-110906586D01*
X158756662Y-110919948D01*
X158760669Y-110924572D01*
X158762625Y-110925674D01*
X158764195Y-110928641D01*
X158776897Y-110943301D01*
X158813447Y-110998000D01*
X158851375Y-111054764D01*
X158969837Y-111173226D01*
X159053420Y-111229074D01*
X159109137Y-111266303D01*
X159109138Y-111266303D01*
X159109139Y-111266304D01*
X159141410Y-111279671D01*
X159263918Y-111330416D01*
X159428228Y-111363099D01*
X159428232Y-111363100D01*
X159428233Y-111363100D01*
X159595768Y-111363100D01*
X159595769Y-111363099D01*
X159760082Y-111330416D01*
X159914863Y-111266303D01*
X160054162Y-111173226D01*
X160172626Y-111054762D01*
X160265703Y-110915463D01*
X160329816Y-110760682D01*
X160362500Y-110596367D01*
X160362500Y-110428833D01*
X160329816Y-110264518D01*
X160272729Y-110126698D01*
X160265704Y-110109739D01*
X160262705Y-110105251D01*
X160234537Y-110063094D01*
X160172626Y-109970437D01*
X160054162Y-109851973D01*
X159914860Y-109758895D01*
X159760082Y-109694784D01*
X159760074Y-109694782D01*
X159595771Y-109662100D01*
X159595767Y-109662100D01*
X159428233Y-109662100D01*
X159428228Y-109662100D01*
X159263925Y-109694782D01*
X159263917Y-109694784D01*
X159109139Y-109758895D01*
X158969837Y-109851973D01*
X158851373Y-109970437D01*
X158776902Y-110081893D01*
X158723290Y-110126698D01*
X158653965Y-110135405D01*
X158590938Y-110105251D01*
X158570698Y-110081893D01*
X158560721Y-110066962D01*
X158556509Y-110060658D01*
X158496226Y-109970437D01*
X158377762Y-109851973D01*
X158238460Y-109758895D01*
X158083682Y-109694784D01*
X158083674Y-109694782D01*
X157919371Y-109662100D01*
X157919367Y-109662100D01*
X157751833Y-109662100D01*
X157751828Y-109662100D01*
X157587525Y-109694782D01*
X157587517Y-109694784D01*
X157447764Y-109752672D01*
X157378294Y-109760141D01*
X157331419Y-109741212D01*
X157324063Y-109736296D01*
X157169282Y-109672184D01*
X157169274Y-109672182D01*
X157004971Y-109639500D01*
X157004967Y-109639500D01*
X156837433Y-109639500D01*
X156837428Y-109639500D01*
X156673125Y-109672182D01*
X156673117Y-109672184D01*
X156518335Y-109736297D01*
X156518330Y-109736300D01*
X156516582Y-109737468D01*
X156515528Y-109737797D01*
X156512967Y-109739167D01*
X156512707Y-109738680D01*
X156449902Y-109758338D01*
X156400253Y-109748918D01*
X156269567Y-109694786D01*
X156269555Y-109694783D01*
X156105252Y-109662101D01*
X156105248Y-109662101D01*
X155937714Y-109662101D01*
X155937709Y-109662101D01*
X155773406Y-109694783D01*
X155773398Y-109694785D01*
X155618620Y-109758896D01*
X155479318Y-109851974D01*
X155360854Y-109970438D01*
X155267776Y-110109740D01*
X155203665Y-110264518D01*
X155203663Y-110264526D01*
X155170981Y-110428829D01*
X155170981Y-110596372D01*
X155203663Y-110760675D01*
X155203665Y-110760683D01*
X155267776Y-110915461D01*
X155360854Y-111054763D01*
X155410401Y-111104310D01*
X155443886Y-111165633D01*
X155438902Y-111235325D01*
X155410402Y-111279671D01*
X155370506Y-111319567D01*
X155277428Y-111458869D01*
X155213317Y-111613647D01*
X155213315Y-111613655D01*
X155180633Y-111777958D01*
X155180633Y-111945501D01*
X155213315Y-112109804D01*
X155213317Y-112109812D01*
X155277428Y-112264590D01*
X155277429Y-112264592D01*
X155277430Y-112264593D01*
X155320586Y-112329181D01*
X155340354Y-112358765D01*
X155361232Y-112425443D01*
X155342747Y-112492823D01*
X155340355Y-112496546D01*
X155253095Y-112627140D01*
X155188984Y-112781917D01*
X155188982Y-112781925D01*
X155156300Y-112946228D01*
X132045440Y-112946228D01*
X132045440Y-101315670D01*
X136565960Y-101315670D01*
X136565960Y-101571529D01*
X136605986Y-101824240D01*
X136685048Y-102067572D01*
X136685049Y-102067575D01*
X136801210Y-102295550D01*
X136951592Y-102502535D01*
X136951596Y-102502540D01*
X137132521Y-102683465D01*
X137203935Y-102735349D01*
X137246602Y-102790679D01*
X137252582Y-102860292D01*
X137231372Y-102908550D01*
X137207890Y-102940871D01*
X137125712Y-103102152D01*
X137125711Y-103102155D01*
X137069777Y-103274306D01*
X137041460Y-103453093D01*
X137041460Y-103634106D01*
X137069777Y-103812893D01*
X137125711Y-103985044D01*
X137125712Y-103985047D01*
X137207891Y-104146330D01*
X137219373Y-104162132D01*
X137219373Y-104162133D01*
X137791460Y-103590046D01*
X137791460Y-103596261D01*
X137818719Y-103697994D01*
X137871380Y-103789206D01*
X137945854Y-103863680D01*
X138037066Y-103916341D01*
X138138799Y-103943600D01*
X138145013Y-103943600D01*
X137566709Y-104521902D01*
X137557223Y-104567057D01*
X137520855Y-104608725D01*
X137441965Y-104666041D01*
X137441960Y-104666045D01*
X137313905Y-104794100D01*
X137313901Y-104794105D01*
X137207466Y-104940602D01*
X137125248Y-105101960D01*
X137125247Y-105101963D01*
X137069289Y-105274189D01*
X137040960Y-105453048D01*
X137040960Y-105634151D01*
X137069289Y-105813010D01*
X137125247Y-105985236D01*
X137125248Y-105985239D01*
X137207466Y-106146597D01*
X137313901Y-106293094D01*
X137313905Y-106293099D01*
X137441960Y-106421154D01*
X137472416Y-106443282D01*
X137515081Y-106498613D01*
X137521060Y-106568226D01*
X137488454Y-106630021D01*
X137472416Y-106643918D01*
X137441960Y-106666045D01*
X137313905Y-106794100D01*
X137313901Y-106794105D01*
X137207466Y-106940602D01*
X137125248Y-107101960D01*
X137125247Y-107101963D01*
X137069289Y-107274189D01*
X137040960Y-107453048D01*
X137040960Y-107634151D01*
X137069289Y-107813010D01*
X137125247Y-107985236D01*
X137125248Y-107985239D01*
X137180885Y-108094431D01*
X137201831Y-108135539D01*
X137207466Y-108146597D01*
X137230964Y-108178940D01*
X137254444Y-108244746D01*
X137238618Y-108312800D01*
X137203532Y-108352142D01*
X137132524Y-108403733D01*
X137132515Y-108403740D01*
X136951596Y-108584659D01*
X136951592Y-108584664D01*
X136801210Y-108791649D01*
X136685049Y-109019624D01*
X136685048Y-109019627D01*
X136605986Y-109262959D01*
X136575674Y-109454339D01*
X136565960Y-109515670D01*
X136565960Y-109771530D01*
X136580658Y-109864330D01*
X136605986Y-110024240D01*
X136685048Y-110267572D01*
X136685049Y-110267575D01*
X136739938Y-110375299D01*
X136797963Y-110489179D01*
X136801210Y-110495550D01*
X136951592Y-110702535D01*
X136951596Y-110702540D01*
X137132519Y-110883463D01*
X137132524Y-110883467D01*
X137274743Y-110986794D01*
X137339513Y-111033852D01*
X137477794Y-111104310D01*
X137567484Y-111150010D01*
X137567487Y-111150011D01*
X137638937Y-111173226D01*
X137810821Y-111229074D01*
X138063530Y-111269100D01*
X138063531Y-111269100D01*
X138319389Y-111269100D01*
X138319390Y-111269100D01*
X138572099Y-111229074D01*
X138815435Y-111150010D01*
X139043407Y-111033852D01*
X139250402Y-110883462D01*
X139431322Y-110702542D01*
X139581712Y-110495547D01*
X139697870Y-110267575D01*
X139776934Y-110024239D01*
X139816960Y-109771530D01*
X139816960Y-109515670D01*
X139805138Y-109441028D01*
X162471500Y-109441028D01*
X162471500Y-109608571D01*
X162504182Y-109772874D01*
X162504184Y-109772882D01*
X162568295Y-109927660D01*
X162661373Y-110066962D01*
X162779837Y-110185426D01*
X162794823Y-110195439D01*
X162919137Y-110278503D01*
X163073918Y-110342616D01*
X163196486Y-110366996D01*
X163238228Y-110375299D01*
X163238232Y-110375300D01*
X163238233Y-110375300D01*
X163405768Y-110375300D01*
X163405769Y-110375299D01*
X163570082Y-110342616D01*
X163661792Y-110304628D01*
X168110300Y-110304628D01*
X168110300Y-110472171D01*
X168142982Y-110636474D01*
X168142984Y-110636482D01*
X168207095Y-110791260D01*
X168300173Y-110930562D01*
X168418637Y-111049026D01*
X168498396Y-111102319D01*
X168557937Y-111142103D01*
X168557938Y-111142103D01*
X168557939Y-111142104D01*
X168577026Y-111150010D01*
X168712718Y-111206216D01*
X168859060Y-111235325D01*
X168877028Y-111238899D01*
X168877032Y-111238900D01*
X168877033Y-111238900D01*
X169044568Y-111238900D01*
X169044569Y-111238899D01*
X169208882Y-111206216D01*
X169363663Y-111142103D01*
X169502962Y-111049026D01*
X169621426Y-110930562D01*
X169714503Y-110791263D01*
X169778616Y-110636482D01*
X169811300Y-110472167D01*
X169811300Y-110304633D01*
X169806103Y-110278504D01*
X169779756Y-110146047D01*
X169779754Y-110146041D01*
X169778617Y-110140325D01*
X169778616Y-110140318D01*
X169714503Y-109985537D01*
X169633515Y-109864330D01*
X169621426Y-109846237D01*
X169502962Y-109727773D01*
X169363660Y-109634695D01*
X169208882Y-109570584D01*
X169208874Y-109570582D01*
X169044571Y-109537900D01*
X169044567Y-109537900D01*
X168877033Y-109537900D01*
X168877028Y-109537900D01*
X168712725Y-109570582D01*
X168712717Y-109570584D01*
X168557939Y-109634695D01*
X168418637Y-109727773D01*
X168300173Y-109846237D01*
X168207095Y-109985539D01*
X168142984Y-110140317D01*
X168142982Y-110140325D01*
X168110300Y-110304628D01*
X163661792Y-110304628D01*
X163724863Y-110278503D01*
X163864162Y-110185426D01*
X163982626Y-110066962D01*
X164075703Y-109927663D01*
X164139816Y-109772882D01*
X164172500Y-109608567D01*
X164172500Y-109441033D01*
X164139816Y-109276718D01*
X164075703Y-109121937D01*
X164044537Y-109075294D01*
X163982626Y-108982637D01*
X163864162Y-108864173D01*
X163724860Y-108771095D01*
X163570082Y-108706984D01*
X163570074Y-108706982D01*
X163405771Y-108674300D01*
X163405767Y-108674300D01*
X163238233Y-108674300D01*
X163238228Y-108674300D01*
X163073925Y-108706982D01*
X163073917Y-108706984D01*
X162919139Y-108771095D01*
X162779837Y-108864173D01*
X162661373Y-108982637D01*
X162568295Y-109121939D01*
X162504184Y-109276717D01*
X162504182Y-109276725D01*
X162471500Y-109441028D01*
X139805138Y-109441028D01*
X139776934Y-109262961D01*
X139728464Y-109113783D01*
X139697871Y-109019627D01*
X139697870Y-109019624D01*
X139653089Y-108931737D01*
X139581712Y-108791653D01*
X139511753Y-108695362D01*
X139431327Y-108584664D01*
X139431323Y-108584659D01*
X139250404Y-108403740D01*
X139250402Y-108403738D01*
X139204707Y-108370538D01*
X139179388Y-108352143D01*
X139136722Y-108296813D01*
X139134961Y-108276308D01*
X164296620Y-108276308D01*
X164296620Y-108443851D01*
X164329302Y-108608154D01*
X164329304Y-108608162D01*
X164393415Y-108762940D01*
X164486493Y-108902242D01*
X164604957Y-109020706D01*
X164694538Y-109080562D01*
X164744257Y-109113783D01*
X164899038Y-109177896D01*
X165005267Y-109199026D01*
X165063348Y-109210579D01*
X165063352Y-109210580D01*
X165063353Y-109210580D01*
X165230888Y-109210580D01*
X165230889Y-109210579D01*
X165395202Y-109177896D01*
X165549983Y-109113783D01*
X165689282Y-109020706D01*
X165807746Y-108902242D01*
X165900823Y-108762943D01*
X165964936Y-108608162D01*
X165997620Y-108443847D01*
X165997620Y-108276313D01*
X165964936Y-108111998D01*
X165947303Y-108069428D01*
X171564700Y-108069428D01*
X171564700Y-108236971D01*
X171597382Y-108401274D01*
X171597384Y-108401282D01*
X171661495Y-108556060D01*
X171754573Y-108695362D01*
X171873037Y-108813826D01*
X171904640Y-108834942D01*
X172012337Y-108906903D01*
X172167118Y-108971016D01*
X172331428Y-109003699D01*
X172331432Y-109003700D01*
X172331433Y-109003700D01*
X172498968Y-109003700D01*
X172498969Y-109003699D01*
X172663282Y-108971016D01*
X172818063Y-108906903D01*
X172957362Y-108813826D01*
X173075826Y-108695362D01*
X173168903Y-108556063D01*
X173233016Y-108401282D01*
X173239492Y-108368723D01*
X173271875Y-108306814D01*
X173332590Y-108272239D01*
X173402360Y-108275978D01*
X173459033Y-108316843D01*
X173475670Y-108345462D01*
X173533095Y-108484098D01*
X173626173Y-108623400D01*
X173744637Y-108741864D01*
X173788385Y-108771095D01*
X173883937Y-108834941D01*
X174038718Y-108899054D01*
X174203028Y-108931737D01*
X174203032Y-108931738D01*
X174203033Y-108931738D01*
X174370568Y-108931738D01*
X174370569Y-108931737D01*
X174534882Y-108899054D01*
X174689663Y-108834941D01*
X174828962Y-108741864D01*
X174947426Y-108623400D01*
X175040503Y-108484101D01*
X175052711Y-108454628D01*
X186820300Y-108454628D01*
X186820300Y-108622171D01*
X186852982Y-108786474D01*
X186852984Y-108786482D01*
X186917095Y-108941260D01*
X187010173Y-109080562D01*
X187128637Y-109199026D01*
X187221294Y-109260937D01*
X187267937Y-109292103D01*
X187422718Y-109356216D01*
X187587028Y-109388899D01*
X187587032Y-109388900D01*
X187587033Y-109388900D01*
X187754568Y-109388900D01*
X187754569Y-109388899D01*
X187918882Y-109356216D01*
X188073663Y-109292103D01*
X188212962Y-109199026D01*
X188331426Y-109080562D01*
X188424503Y-108941263D01*
X188488616Y-108786482D01*
X188521300Y-108622167D01*
X188521300Y-108454633D01*
X188488616Y-108290318D01*
X188436709Y-108165005D01*
X188424504Y-108135539D01*
X188421314Y-108130765D01*
X188350618Y-108024961D01*
X188329741Y-107958286D01*
X188348225Y-107890905D01*
X188400204Y-107844215D01*
X188429530Y-107834455D01*
X188568482Y-107806816D01*
X188723263Y-107742703D01*
X188862562Y-107649626D01*
X188981026Y-107531162D01*
X189074103Y-107391863D01*
X189138216Y-107237082D01*
X189170900Y-107072767D01*
X189170900Y-106905233D01*
X189138216Y-106740918D01*
X189074103Y-106586137D01*
X189015621Y-106498613D01*
X188981026Y-106446837D01*
X188862562Y-106328373D01*
X188723260Y-106235295D01*
X188568482Y-106171184D01*
X188568474Y-106171182D01*
X188404171Y-106138500D01*
X188404167Y-106138500D01*
X188236633Y-106138500D01*
X188236628Y-106138500D01*
X188072325Y-106171182D01*
X188072317Y-106171184D01*
X187917539Y-106235295D01*
X187778237Y-106328373D01*
X187659773Y-106446837D01*
X187566695Y-106586139D01*
X187502584Y-106740917D01*
X187502582Y-106740925D01*
X187469900Y-106905228D01*
X187469900Y-107072771D01*
X187502582Y-107237074D01*
X187502584Y-107237082D01*
X187566695Y-107391860D01*
X187640580Y-107502436D01*
X187661458Y-107569114D01*
X187642973Y-107636494D01*
X187590995Y-107683184D01*
X187561670Y-107692944D01*
X187422723Y-107720582D01*
X187422717Y-107720584D01*
X187267939Y-107784695D01*
X187128637Y-107877773D01*
X187010173Y-107996237D01*
X186917095Y-108135539D01*
X186852984Y-108290317D01*
X186852982Y-108290325D01*
X186820300Y-108454628D01*
X175052711Y-108454628D01*
X175104616Y-108329320D01*
X175132680Y-108188227D01*
X175133885Y-108183866D01*
X175150003Y-108157867D01*
X175164180Y-108130765D01*
X175168239Y-108128453D01*
X175170701Y-108124483D01*
X175198320Y-108111324D01*
X175224896Y-108096191D01*
X175230285Y-108096094D01*
X175233778Y-108094431D01*
X175244813Y-108095835D01*
X175277603Y-108095250D01*
X175348729Y-108109397D01*
X175348730Y-108109398D01*
X175348731Y-108109398D01*
X175516266Y-108109398D01*
X175516267Y-108109397D01*
X175680580Y-108076714D01*
X175835361Y-108012601D01*
X175974660Y-107919524D01*
X176093124Y-107801060D01*
X176186201Y-107661761D01*
X176250314Y-107506980D01*
X176282998Y-107342665D01*
X176282998Y-107175131D01*
X176250314Y-107010816D01*
X176186201Y-106856035D01*
X176109282Y-106740918D01*
X176093124Y-106716735D01*
X175974660Y-106598271D01*
X175835358Y-106505193D01*
X175680580Y-106441082D01*
X175680572Y-106441080D01*
X175516269Y-106408398D01*
X175516265Y-106408398D01*
X175348731Y-106408398D01*
X175348726Y-106408398D01*
X175184423Y-106441080D01*
X175184415Y-106441082D01*
X175029637Y-106505193D01*
X174890335Y-106598271D01*
X174771871Y-106716735D01*
X174678793Y-106856037D01*
X174614682Y-107010815D01*
X174614680Y-107010821D01*
X174587501Y-107147460D01*
X174555116Y-107209371D01*
X174494400Y-107243945D01*
X174441693Y-107244885D01*
X174370571Y-107230738D01*
X174370567Y-107230738D01*
X174203033Y-107230738D01*
X174203028Y-107230738D01*
X174038725Y-107263420D01*
X174038717Y-107263422D01*
X173883939Y-107327533D01*
X173744637Y-107420611D01*
X173626173Y-107539075D01*
X173533095Y-107678377D01*
X173468984Y-107833155D01*
X173468982Y-107833160D01*
X173462507Y-107865715D01*
X173446816Y-107895708D01*
X173431645Y-107926018D01*
X173430654Y-107926605D01*
X173430121Y-107927625D01*
X173400693Y-107944382D01*
X173371556Y-107961670D01*
X173370406Y-107961628D01*
X173369405Y-107962199D01*
X173335563Y-107960384D01*
X173301731Y-107959176D01*
X173300785Y-107958519D01*
X173299636Y-107958458D01*
X173272166Y-107938649D01*
X173244338Y-107919328D01*
X173243564Y-107918023D01*
X173242964Y-107917591D01*
X173226329Y-107888975D01*
X173221689Y-107877774D01*
X173179380Y-107775630D01*
X173171911Y-107706160D01*
X173190835Y-107659292D01*
X173270503Y-107540063D01*
X173334616Y-107385282D01*
X173367300Y-107220967D01*
X173367300Y-107053433D01*
X173334616Y-106889118D01*
X173270503Y-106734337D01*
X173224872Y-106666045D01*
X173177426Y-106595037D01*
X173058962Y-106476573D01*
X172919660Y-106383495D01*
X172764882Y-106319384D01*
X172764874Y-106319382D01*
X172600571Y-106286700D01*
X172600567Y-106286700D01*
X172433033Y-106286700D01*
X172433028Y-106286700D01*
X172268725Y-106319382D01*
X172268717Y-106319384D01*
X172113939Y-106383495D01*
X171974637Y-106476573D01*
X171856173Y-106595037D01*
X171763095Y-106734339D01*
X171698984Y-106889117D01*
X171698982Y-106889125D01*
X171666300Y-107053428D01*
X171666300Y-107220971D01*
X171698982Y-107385274D01*
X171698984Y-107385282D01*
X171752619Y-107514768D01*
X171760088Y-107584238D01*
X171741161Y-107631111D01*
X171661495Y-107750340D01*
X171597384Y-107905117D01*
X171597382Y-107905125D01*
X171564700Y-108069428D01*
X165947303Y-108069428D01*
X165902135Y-107960384D01*
X165900824Y-107957219D01*
X165807746Y-107817917D01*
X165689282Y-107699453D01*
X165549980Y-107606375D01*
X165395202Y-107542264D01*
X165395194Y-107542262D01*
X165230891Y-107509580D01*
X165230887Y-107509580D01*
X165063353Y-107509580D01*
X165063348Y-107509580D01*
X164899045Y-107542262D01*
X164899037Y-107542264D01*
X164744259Y-107606375D01*
X164604957Y-107699453D01*
X164486493Y-107817917D01*
X164393415Y-107957219D01*
X164329304Y-108111997D01*
X164329302Y-108112005D01*
X164296620Y-108276308D01*
X139134961Y-108276308D01*
X139130743Y-108227200D01*
X139151954Y-108178940D01*
X139175456Y-108146594D01*
X139257671Y-107985239D01*
X139313631Y-107813009D01*
X139331616Y-107699454D01*
X139341960Y-107634151D01*
X139341960Y-107453048D01*
X139322080Y-107327535D01*
X139313631Y-107274191D01*
X139257671Y-107101961D01*
X139257671Y-107101960D01*
X139229200Y-107046084D01*
X139175456Y-106940606D01*
X139149756Y-106905233D01*
X139069018Y-106794105D01*
X139069014Y-106794100D01*
X138940961Y-106666047D01*
X138910504Y-106643919D01*
X138897891Y-106627563D01*
X138881768Y-106614658D01*
X138876988Y-106600455D01*
X138867838Y-106588589D01*
X138866070Y-106568013D01*
X138859483Y-106548438D01*
X138863141Y-106533903D01*
X138861859Y-106518976D01*
X138871495Y-106500712D01*
X138876537Y-106480681D01*
X138889727Y-106466157D01*
X138894464Y-106457180D01*
X138898592Y-106453126D01*
X138904240Y-106447831D01*
X138940961Y-106421153D01*
X138969086Y-106393028D01*
X168329602Y-106393028D01*
X168329602Y-106560571D01*
X168362284Y-106724874D01*
X168362286Y-106724882D01*
X168426397Y-106879660D01*
X168519475Y-107018962D01*
X168637939Y-107137426D01*
X168694369Y-107175131D01*
X168777239Y-107230503D01*
X168777240Y-107230503D01*
X168777241Y-107230504D01*
X168793122Y-107237082D01*
X168932020Y-107294616D01*
X169096330Y-107327299D01*
X169096334Y-107327300D01*
X169096335Y-107327300D01*
X169263870Y-107327300D01*
X169263871Y-107327299D01*
X169428184Y-107294616D01*
X169582965Y-107230503D01*
X169722264Y-107137426D01*
X169840728Y-107018962D01*
X169933805Y-106879663D01*
X169997918Y-106724882D01*
X170030602Y-106560567D01*
X170030602Y-106462432D01*
X170050287Y-106395393D01*
X170103091Y-106349638D01*
X170107119Y-106347883D01*
X170257965Y-106285401D01*
X170397264Y-106192324D01*
X170515728Y-106073860D01*
X170608805Y-105934561D01*
X170672918Y-105779780D01*
X170705602Y-105615465D01*
X170705602Y-105447931D01*
X170672918Y-105283616D01*
X170608805Y-105128835D01*
X170577639Y-105082192D01*
X170515728Y-104989535D01*
X170397264Y-104871071D01*
X170257962Y-104777993D01*
X170103184Y-104713882D01*
X170103176Y-104713880D01*
X169938873Y-104681198D01*
X169938869Y-104681198D01*
X169771335Y-104681198D01*
X169771330Y-104681198D01*
X169607027Y-104713880D01*
X169607019Y-104713882D01*
X169452241Y-104777993D01*
X169312939Y-104871071D01*
X169194475Y-104989535D01*
X169101397Y-105128837D01*
X169037286Y-105283615D01*
X169037284Y-105283623D01*
X169004602Y-105447926D01*
X169004602Y-105546065D01*
X168984917Y-105613104D01*
X168932113Y-105658859D01*
X168928055Y-105660626D01*
X168777241Y-105723095D01*
X168637939Y-105816173D01*
X168519475Y-105934637D01*
X168426397Y-106073939D01*
X168362286Y-106228717D01*
X168362284Y-106228725D01*
X168329602Y-106393028D01*
X138969086Y-106393028D01*
X139069013Y-106293101D01*
X139175456Y-106146594D01*
X139257671Y-105985239D01*
X139313631Y-105813009D01*
X139328225Y-105720859D01*
X139341960Y-105634151D01*
X139341960Y-105453048D01*
X139325479Y-105348997D01*
X139313631Y-105274191D01*
X139285651Y-105188076D01*
X139257672Y-105101963D01*
X139257671Y-105101960D01*
X139200387Y-104989536D01*
X139175456Y-104940606D01*
X139114144Y-104856217D01*
X139069018Y-104794105D01*
X139069014Y-104794100D01*
X138940959Y-104666045D01*
X138940954Y-104666041D01*
X138862064Y-104608724D01*
X138819398Y-104553394D01*
X138814503Y-104520195D01*
X138237908Y-103943600D01*
X138244121Y-103943600D01*
X138345854Y-103916341D01*
X138437066Y-103863680D01*
X138511540Y-103789206D01*
X138564201Y-103697994D01*
X138591460Y-103596261D01*
X138591460Y-103590047D01*
X139163545Y-104162132D01*
X139175028Y-104146330D01*
X139257205Y-103985052D01*
X139257208Y-103985044D01*
X139267091Y-103954628D01*
X170504100Y-103954628D01*
X170504100Y-104122171D01*
X170536782Y-104286474D01*
X170536784Y-104286482D01*
X170600895Y-104441260D01*
X170693973Y-104580562D01*
X170812437Y-104699026D01*
X170834668Y-104713880D01*
X170951737Y-104792103D01*
X170951738Y-104792103D01*
X170951739Y-104792104D01*
X170956558Y-104794100D01*
X171106518Y-104856216D01*
X171270828Y-104888899D01*
X171270832Y-104888900D01*
X171270833Y-104888900D01*
X171438368Y-104888900D01*
X171438369Y-104888899D01*
X171602682Y-104856216D01*
X171757463Y-104792103D01*
X171896762Y-104699026D01*
X172015226Y-104580562D01*
X172108303Y-104441263D01*
X172172416Y-104286482D01*
X172205100Y-104122167D01*
X172205100Y-103954633D01*
X172172416Y-103790318D01*
X172108303Y-103635537D01*
X172046872Y-103543599D01*
X172015226Y-103496237D01*
X171896762Y-103377773D01*
X171757460Y-103284695D01*
X171602682Y-103220584D01*
X171602674Y-103220582D01*
X171438371Y-103187900D01*
X171438367Y-103187900D01*
X171270833Y-103187900D01*
X171270828Y-103187900D01*
X171106525Y-103220582D01*
X171106517Y-103220584D01*
X170951739Y-103284695D01*
X170812437Y-103377773D01*
X170693973Y-103496237D01*
X170600895Y-103635539D01*
X170536784Y-103790317D01*
X170536782Y-103790325D01*
X170504100Y-103954628D01*
X139267091Y-103954628D01*
X139281519Y-103910223D01*
X139313142Y-103812893D01*
X139341460Y-103634106D01*
X139341460Y-103453093D01*
X139313142Y-103274306D01*
X139257208Y-103102155D01*
X139257207Y-103102152D01*
X139175025Y-102940865D01*
X139151550Y-102908553D01*
X139128070Y-102842746D01*
X139143896Y-102774693D01*
X139178981Y-102735351D01*
X139250402Y-102683462D01*
X139431322Y-102502542D01*
X139581712Y-102295547D01*
X139697870Y-102067575D01*
X139776934Y-101824239D01*
X139816960Y-101571530D01*
X139816960Y-101315670D01*
X139776934Y-101062961D01*
X139734926Y-100933674D01*
X139697871Y-100819627D01*
X139697870Y-100819624D01*
X139601894Y-100631263D01*
X139581712Y-100591653D01*
X139498030Y-100476474D01*
X139431327Y-100384664D01*
X139431323Y-100384659D01*
X139250400Y-100203736D01*
X139250395Y-100203732D01*
X139169045Y-100144628D01*
X144437500Y-100144628D01*
X144437500Y-100312171D01*
X144470182Y-100476474D01*
X144470184Y-100476482D01*
X144534295Y-100631260D01*
X144627373Y-100770562D01*
X144745837Y-100889026D01*
X144812658Y-100933674D01*
X144885137Y-100982103D01*
X145039918Y-101046216D01*
X145204228Y-101078899D01*
X145204232Y-101078900D01*
X145204233Y-101078900D01*
X145371768Y-101078900D01*
X145371769Y-101078899D01*
X145536082Y-101046216D01*
X145690863Y-100982103D01*
X145830162Y-100889026D01*
X145948626Y-100770562D01*
X146041703Y-100631263D01*
X146105816Y-100476482D01*
X146138500Y-100312167D01*
X146138500Y-100144633D01*
X146138499Y-100144628D01*
X154343500Y-100144628D01*
X154343500Y-100312171D01*
X154376182Y-100476474D01*
X154376184Y-100476482D01*
X154440295Y-100631260D01*
X154533373Y-100770562D01*
X154651837Y-100889026D01*
X154718658Y-100933674D01*
X154791137Y-100982103D01*
X154945918Y-101046216D01*
X155110228Y-101078899D01*
X155110232Y-101078900D01*
X155110233Y-101078900D01*
X155277768Y-101078900D01*
X155277769Y-101078899D01*
X155442082Y-101046216D01*
X155596863Y-100982103D01*
X155736162Y-100889026D01*
X155854626Y-100770562D01*
X155947703Y-100631263D01*
X155959895Y-100601828D01*
X175781100Y-100601828D01*
X175781100Y-100769371D01*
X175813782Y-100933674D01*
X175813784Y-100933682D01*
X175877895Y-101088460D01*
X175970973Y-101227762D01*
X176089437Y-101346226D01*
X176182094Y-101408137D01*
X176228737Y-101439303D01*
X176383518Y-101503416D01*
X176547828Y-101536099D01*
X176547832Y-101536100D01*
X176547833Y-101536100D01*
X176715368Y-101536100D01*
X176715369Y-101536099D01*
X176879682Y-101503416D01*
X177034463Y-101439303D01*
X177173762Y-101346226D01*
X177292226Y-101227762D01*
X177385303Y-101088463D01*
X177437644Y-100962099D01*
X177481483Y-100907698D01*
X177547777Y-100885633D01*
X177562681Y-100886100D01*
X177563833Y-100886100D01*
X177731368Y-100886100D01*
X177731369Y-100886099D01*
X177895682Y-100853416D01*
X178050463Y-100789303D01*
X178189762Y-100696226D01*
X178308226Y-100577762D01*
X178401303Y-100438463D01*
X178465416Y-100283682D01*
X178498100Y-100119367D01*
X178498100Y-99951833D01*
X178465416Y-99787518D01*
X178401303Y-99632737D01*
X178344810Y-99548189D01*
X178308226Y-99493437D01*
X178189762Y-99374973D01*
X178050460Y-99281895D01*
X177895682Y-99217784D01*
X177895674Y-99217782D01*
X177731371Y-99185100D01*
X177731367Y-99185100D01*
X177563833Y-99185100D01*
X177563828Y-99185100D01*
X177399525Y-99217782D01*
X177399517Y-99217784D01*
X177244739Y-99281895D01*
X177105437Y-99374973D01*
X176986973Y-99493437D01*
X176893895Y-99632739D01*
X176841556Y-99759098D01*
X176797715Y-99813501D01*
X176731421Y-99835566D01*
X176716510Y-99835100D01*
X176715367Y-99835100D01*
X176547833Y-99835100D01*
X176547828Y-99835100D01*
X176383525Y-99867782D01*
X176383517Y-99867784D01*
X176228739Y-99931895D01*
X176089437Y-100024973D01*
X175970973Y-100143437D01*
X175877895Y-100282739D01*
X175813784Y-100437517D01*
X175813782Y-100437525D01*
X175781100Y-100601828D01*
X155959895Y-100601828D01*
X155969864Y-100577762D01*
X155982073Y-100548288D01*
X155982073Y-100548287D01*
X156011816Y-100476482D01*
X156044500Y-100312167D01*
X156044500Y-100144633D01*
X156011816Y-99980318D01*
X155947703Y-99825537D01*
X155894972Y-99746620D01*
X155854626Y-99686237D01*
X155736162Y-99567773D01*
X155611127Y-99484228D01*
X170599500Y-99484228D01*
X170599500Y-99651771D01*
X170632182Y-99816074D01*
X170632184Y-99816082D01*
X170696295Y-99970860D01*
X170789373Y-100110162D01*
X170907837Y-100228626D01*
X170988823Y-100282739D01*
X171047137Y-100321703D01*
X171201918Y-100385816D01*
X171366228Y-100418499D01*
X171366232Y-100418500D01*
X171366233Y-100418500D01*
X171533768Y-100418500D01*
X171533769Y-100418499D01*
X171698082Y-100385816D01*
X171852863Y-100321703D01*
X171992162Y-100228626D01*
X172110626Y-100110162D01*
X172203703Y-99970863D01*
X172267816Y-99816082D01*
X172300500Y-99651767D01*
X172300500Y-99484233D01*
X172267816Y-99319918D01*
X172203703Y-99165137D01*
X172172537Y-99118494D01*
X172110626Y-99025837D01*
X171992162Y-98907373D01*
X171852860Y-98814295D01*
X171698082Y-98750184D01*
X171698074Y-98750182D01*
X171533771Y-98717500D01*
X171533767Y-98717500D01*
X171366233Y-98717500D01*
X171366228Y-98717500D01*
X171201925Y-98750182D01*
X171201917Y-98750184D01*
X171047139Y-98814295D01*
X170907837Y-98907373D01*
X170789373Y-99025837D01*
X170696295Y-99165139D01*
X170632184Y-99319917D01*
X170632182Y-99319925D01*
X170599500Y-99484228D01*
X155611127Y-99484228D01*
X155596860Y-99474695D01*
X155442082Y-99410584D01*
X155442074Y-99410582D01*
X155277771Y-99377900D01*
X155277767Y-99377900D01*
X155110233Y-99377900D01*
X155110228Y-99377900D01*
X154945925Y-99410582D01*
X154945917Y-99410584D01*
X154791139Y-99474695D01*
X154651837Y-99567773D01*
X154533373Y-99686237D01*
X154440295Y-99825539D01*
X154376184Y-99980317D01*
X154376182Y-99980325D01*
X154343500Y-100144628D01*
X146138499Y-100144628D01*
X146105816Y-99980318D01*
X146041703Y-99825537D01*
X145988972Y-99746620D01*
X145948626Y-99686237D01*
X145830162Y-99567773D01*
X145690860Y-99474695D01*
X145536082Y-99410584D01*
X145536074Y-99410582D01*
X145371771Y-99377900D01*
X145371767Y-99377900D01*
X145204233Y-99377900D01*
X145204228Y-99377900D01*
X145039925Y-99410582D01*
X145039917Y-99410584D01*
X144885139Y-99474695D01*
X144745837Y-99567773D01*
X144627373Y-99686237D01*
X144534295Y-99825539D01*
X144470184Y-99980317D01*
X144470182Y-99980325D01*
X144437500Y-100144628D01*
X139169045Y-100144628D01*
X139043410Y-100053350D01*
X139043409Y-100053349D01*
X139043407Y-100053348D01*
X138970370Y-100016133D01*
X138815435Y-99937189D01*
X138815432Y-99937188D01*
X138572100Y-99858126D01*
X138429664Y-99835566D01*
X138319390Y-99818100D01*
X138063530Y-99818100D01*
X138016576Y-99825537D01*
X137810819Y-99858126D01*
X137567487Y-99937188D01*
X137567484Y-99937189D01*
X137339509Y-100053350D01*
X137132524Y-100203732D01*
X137132519Y-100203736D01*
X136951596Y-100384659D01*
X136951592Y-100384664D01*
X136801210Y-100591649D01*
X136685049Y-100819624D01*
X136685048Y-100819627D01*
X136605986Y-101062959D01*
X136565960Y-101315670D01*
X132045440Y-101315670D01*
X132045440Y-96013372D01*
X141132600Y-96013372D01*
X141132600Y-96305027D01*
X141132601Y-96305044D01*
X141170669Y-96594203D01*
X141246162Y-96875944D01*
X141357771Y-97145395D01*
X141357779Y-97145411D01*
X141503606Y-97397988D01*
X141503612Y-97397996D01*
X141617208Y-97546037D01*
X142385512Y-96777732D01*
X142480429Y-96908375D01*
X142608425Y-97036371D01*
X142739065Y-97131286D01*
X141970761Y-97899590D01*
X142118803Y-98013187D01*
X142118811Y-98013193D01*
X142371388Y-98159020D01*
X142371404Y-98159028D01*
X142640855Y-98270637D01*
X142922596Y-98346130D01*
X143211755Y-98384198D01*
X143211773Y-98384200D01*
X143503427Y-98384200D01*
X143503444Y-98384198D01*
X143792603Y-98346130D01*
X144074344Y-98270637D01*
X144343795Y-98159028D01*
X144343811Y-98159020D01*
X144596388Y-98013193D01*
X144596406Y-98013181D01*
X144744437Y-97899591D01*
X144744437Y-97899589D01*
X143976133Y-97131286D01*
X144106775Y-97036371D01*
X144234771Y-96908375D01*
X144329686Y-96777733D01*
X145097989Y-97546037D01*
X145097991Y-97546037D01*
X145169974Y-97452228D01*
X160287100Y-97452228D01*
X160287100Y-97619771D01*
X160319782Y-97784074D01*
X160319784Y-97784082D01*
X160383895Y-97938860D01*
X160476973Y-98078162D01*
X160595437Y-98196626D01*
X160688094Y-98258537D01*
X160734737Y-98289703D01*
X160889518Y-98353816D01*
X161042260Y-98384198D01*
X161053828Y-98386499D01*
X161053832Y-98386500D01*
X161053833Y-98386500D01*
X161221368Y-98386500D01*
X161221369Y-98386499D01*
X161385682Y-98353816D01*
X161540463Y-98289703D01*
X161679762Y-98196626D01*
X161798226Y-98078162D01*
X161891303Y-97938863D01*
X161955416Y-97784082D01*
X161988100Y-97619767D01*
X161988100Y-97452233D01*
X161955416Y-97287918D01*
X161896384Y-97145404D01*
X161893315Y-97137994D01*
X161893314Y-97137992D01*
X161891305Y-97133141D01*
X161891304Y-97133139D01*
X161866908Y-97096628D01*
X175628700Y-97096628D01*
X175628700Y-97264171D01*
X175661382Y-97428474D01*
X175661384Y-97428482D01*
X175725495Y-97583260D01*
X175818573Y-97722562D01*
X175937037Y-97841026D01*
X176014994Y-97893115D01*
X176076337Y-97934103D01*
X176076338Y-97934103D01*
X176076339Y-97934104D01*
X176111401Y-97948627D01*
X176231118Y-97998216D01*
X176392507Y-98030318D01*
X176395428Y-98030899D01*
X176395432Y-98030900D01*
X176395433Y-98030900D01*
X176562968Y-98030900D01*
X176562969Y-98030899D01*
X176727282Y-97998216D01*
X176882063Y-97934103D01*
X177021362Y-97841026D01*
X177139826Y-97722562D01*
X177232903Y-97583263D01*
X177297016Y-97428482D01*
X177329700Y-97264167D01*
X177329700Y-97096633D01*
X177297016Y-96932318D01*
X177232903Y-96777537D01*
X177201737Y-96730894D01*
X177139826Y-96638237D01*
X177021362Y-96519773D01*
X176882060Y-96426695D01*
X176727282Y-96362584D01*
X176727274Y-96362582D01*
X176562971Y-96329900D01*
X176562967Y-96329900D01*
X176395433Y-96329900D01*
X176395428Y-96329900D01*
X176231125Y-96362582D01*
X176231117Y-96362584D01*
X176076339Y-96426695D01*
X175937037Y-96519773D01*
X175818573Y-96638237D01*
X175725495Y-96777539D01*
X175661384Y-96932317D01*
X175661382Y-96932325D01*
X175628700Y-97096628D01*
X161866908Y-97096628D01*
X161798226Y-96993837D01*
X161679762Y-96875373D01*
X161540460Y-96782295D01*
X161385682Y-96718184D01*
X161385674Y-96718182D01*
X161221371Y-96685500D01*
X161221367Y-96685500D01*
X161053833Y-96685500D01*
X161053828Y-96685500D01*
X160889525Y-96718182D01*
X160889517Y-96718184D01*
X160734739Y-96782295D01*
X160595437Y-96875373D01*
X160476973Y-96993837D01*
X160383895Y-97133139D01*
X160319784Y-97287917D01*
X160319782Y-97287925D01*
X160287100Y-97452228D01*
X145169974Y-97452228D01*
X145211581Y-97398006D01*
X145211589Y-97397994D01*
X145219587Y-97384142D01*
X145219587Y-97384141D01*
X145219588Y-97384140D01*
X145357423Y-97145404D01*
X145357428Y-97145395D01*
X145469037Y-96875944D01*
X145544530Y-96594203D01*
X145582598Y-96305044D01*
X145582600Y-96305027D01*
X145582600Y-96013372D01*
X145582598Y-96013355D01*
X145544530Y-95724196D01*
X145524498Y-95649435D01*
X145517529Y-95623428D01*
X162166700Y-95623428D01*
X162166700Y-95790971D01*
X162199382Y-95955274D01*
X162199384Y-95955282D01*
X162263495Y-96110060D01*
X162356573Y-96249362D01*
X162475037Y-96367826D01*
X162563141Y-96426695D01*
X162614337Y-96460903D01*
X162769118Y-96525016D01*
X162933428Y-96557699D01*
X162933432Y-96557700D01*
X162933433Y-96557700D01*
X163100968Y-96557700D01*
X163100969Y-96557699D01*
X163265282Y-96525016D01*
X163420063Y-96460903D01*
X163559362Y-96367826D01*
X163677826Y-96249362D01*
X163770903Y-96110063D01*
X163835016Y-95955282D01*
X163867700Y-95790967D01*
X163867700Y-95623433D01*
X163835016Y-95459118D01*
X163770903Y-95304337D01*
X163683149Y-95173004D01*
X163677826Y-95165037D01*
X163559362Y-95046573D01*
X163420060Y-94953495D01*
X163265282Y-94889384D01*
X163265274Y-94889382D01*
X163100971Y-94856700D01*
X163100967Y-94856700D01*
X162933433Y-94856700D01*
X162933428Y-94856700D01*
X162769125Y-94889382D01*
X162769117Y-94889384D01*
X162614339Y-94953495D01*
X162475037Y-95046573D01*
X162356573Y-95165037D01*
X162263495Y-95304339D01*
X162199384Y-95459117D01*
X162199382Y-95459125D01*
X162166700Y-95623428D01*
X145517529Y-95623428D01*
X145469037Y-95442455D01*
X145357428Y-95173004D01*
X145357420Y-95172988D01*
X145211593Y-94920411D01*
X145211587Y-94920403D01*
X145097990Y-94772361D01*
X144329686Y-95540665D01*
X144234771Y-95410025D01*
X144106775Y-95282029D01*
X143976132Y-95187112D01*
X144744437Y-94418808D01*
X144596396Y-94305212D01*
X144596388Y-94305206D01*
X144343811Y-94159379D01*
X144343795Y-94159371D01*
X144074344Y-94047762D01*
X143792603Y-93972269D01*
X143503444Y-93934201D01*
X143503427Y-93934200D01*
X143211773Y-93934200D01*
X143211755Y-93934201D01*
X142922596Y-93972269D01*
X142640855Y-94047762D01*
X142371404Y-94159371D01*
X142371388Y-94159379D01*
X142118811Y-94305206D01*
X142118795Y-94305217D01*
X141970761Y-94418806D01*
X141970761Y-94418808D01*
X142739066Y-95187113D01*
X142608425Y-95282029D01*
X142480429Y-95410025D01*
X142385513Y-95540666D01*
X141617208Y-94772361D01*
X141617206Y-94772361D01*
X141503617Y-94920395D01*
X141503606Y-94920411D01*
X141357779Y-95172988D01*
X141357771Y-95173004D01*
X141246162Y-95442455D01*
X141170669Y-95724196D01*
X141132601Y-96013355D01*
X141132600Y-96013372D01*
X132045440Y-96013372D01*
X132045440Y-93185028D01*
X159677500Y-93185028D01*
X159677500Y-93352571D01*
X159710182Y-93516874D01*
X159710184Y-93516882D01*
X159774295Y-93671660D01*
X159867373Y-93810962D01*
X159985837Y-93929426D01*
X160009906Y-93945508D01*
X160125137Y-94022503D01*
X160279918Y-94086616D01*
X160444228Y-94119299D01*
X160444232Y-94119300D01*
X160444233Y-94119300D01*
X160611768Y-94119300D01*
X160611769Y-94119299D01*
X160776082Y-94086616D01*
X160930863Y-94022503D01*
X161070162Y-93929426D01*
X161188626Y-93810962D01*
X161281703Y-93671663D01*
X161345816Y-93516882D01*
X161361302Y-93439028D01*
X179895900Y-93439028D01*
X179895900Y-93606571D01*
X179928582Y-93770874D01*
X179928584Y-93770882D01*
X179992695Y-93925660D01*
X180085773Y-94064962D01*
X180204237Y-94183426D01*
X180274253Y-94230209D01*
X180343537Y-94276503D01*
X180498318Y-94340616D01*
X180646505Y-94370092D01*
X180662628Y-94373299D01*
X180662632Y-94373300D01*
X180662633Y-94373300D01*
X180830168Y-94373300D01*
X180830169Y-94373299D01*
X180994482Y-94340616D01*
X181149263Y-94276503D01*
X181288562Y-94183426D01*
X181407026Y-94064962D01*
X181500103Y-93925663D01*
X181564216Y-93770882D01*
X181596900Y-93606567D01*
X181596900Y-93439033D01*
X181564216Y-93274718D01*
X181501038Y-93122195D01*
X181500104Y-93119939D01*
X181407026Y-92980637D01*
X181288562Y-92862173D01*
X181149260Y-92769095D01*
X180994482Y-92704984D01*
X180994474Y-92704982D01*
X180830171Y-92672300D01*
X180830167Y-92672300D01*
X180662633Y-92672300D01*
X180662628Y-92672300D01*
X180498325Y-92704982D01*
X180498317Y-92704984D01*
X180343539Y-92769095D01*
X180204237Y-92862173D01*
X180085773Y-92980637D01*
X179992695Y-93119939D01*
X179928584Y-93274717D01*
X179928582Y-93274725D01*
X179895900Y-93439028D01*
X161361302Y-93439028D01*
X161367325Y-93408750D01*
X161378499Y-93352570D01*
X161378500Y-93352568D01*
X161378500Y-93185032D01*
X161378499Y-93185028D01*
X161365552Y-93119937D01*
X161345816Y-93020718D01*
X161281703Y-92865937D01*
X161222488Y-92777316D01*
X161188626Y-92726637D01*
X161070162Y-92608173D01*
X160930860Y-92515095D01*
X160776082Y-92450984D01*
X160776074Y-92450982D01*
X160611771Y-92418300D01*
X160611767Y-92418300D01*
X160444233Y-92418300D01*
X160444228Y-92418300D01*
X160279925Y-92450982D01*
X160279917Y-92450984D01*
X160125139Y-92515095D01*
X159985837Y-92608173D01*
X159867373Y-92726637D01*
X159774295Y-92865939D01*
X159710184Y-93020717D01*
X159710182Y-93020725D01*
X159677500Y-93185028D01*
X132045440Y-93185028D01*
X132045440Y-88793932D01*
X144857100Y-88793932D01*
X144857100Y-88984468D01*
X144869586Y-89063300D01*
X144886907Y-89172660D01*
X144886907Y-89172663D01*
X144945784Y-89353868D01*
X145032287Y-89523639D01*
X145095739Y-89610974D01*
X145144282Y-89677788D01*
X145279012Y-89812518D01*
X145303120Y-89830033D01*
X145433160Y-89924512D01*
X145602931Y-90011015D01*
X145635298Y-90021532D01*
X145692974Y-90060969D01*
X145720172Y-90125328D01*
X145708257Y-90194174D01*
X145661013Y-90245650D01*
X145635299Y-90257394D01*
X145603117Y-90267850D01*
X145433415Y-90354318D01*
X145406111Y-90374156D01*
X145406111Y-90374157D01*
X145970851Y-90938897D01*
X145890047Y-90960549D01*
X145785154Y-91021109D01*
X145699509Y-91106754D01*
X145638949Y-91211647D01*
X145617297Y-91292451D01*
X145052557Y-90727711D01*
X145052556Y-90727711D01*
X145032718Y-90755015D01*
X144946250Y-90924716D01*
X144887393Y-91105857D01*
X144857600Y-91293965D01*
X144857600Y-91484434D01*
X144887393Y-91672542D01*
X144946250Y-91853683D01*
X145032715Y-92023378D01*
X145052557Y-92050687D01*
X145052558Y-92050688D01*
X145617297Y-91485948D01*
X145638949Y-91566753D01*
X145699509Y-91671646D01*
X145785154Y-91757291D01*
X145890047Y-91817851D01*
X145970849Y-91839502D01*
X145406110Y-92404241D01*
X145433422Y-92424085D01*
X145603116Y-92510549D01*
X145784257Y-92569406D01*
X145972366Y-92599200D01*
X146162834Y-92599200D01*
X146350942Y-92569406D01*
X146532083Y-92510549D01*
X146701778Y-92424084D01*
X146780243Y-92367076D01*
X146846049Y-92343596D01*
X146914103Y-92359421D01*
X146952395Y-92393082D01*
X147000055Y-92456747D01*
X147115264Y-92542993D01*
X147115271Y-92542997D01*
X147250117Y-92593291D01*
X147250116Y-92593291D01*
X147257044Y-92594035D01*
X147309727Y-92599700D01*
X148825472Y-92599699D01*
X148885083Y-92593291D01*
X149019931Y-92542996D01*
X149135146Y-92456746D01*
X149221396Y-92341531D01*
X149271691Y-92206683D01*
X149278100Y-92147073D01*
X149278099Y-91762628D01*
X189845801Y-91762628D01*
X189845801Y-91930171D01*
X189878483Y-92094474D01*
X189878485Y-92094482D01*
X189942596Y-92249260D01*
X190035674Y-92388562D01*
X190154135Y-92507023D01*
X190154139Y-92507026D01*
X190173503Y-92519965D01*
X190218308Y-92573577D01*
X190227015Y-92642902D01*
X190196860Y-92705930D01*
X190192294Y-92710748D01*
X190074934Y-92828108D01*
X189981856Y-92967409D01*
X189917745Y-93122187D01*
X189917743Y-93122195D01*
X189885061Y-93286498D01*
X189885061Y-93454041D01*
X189917743Y-93618344D01*
X189917745Y-93618352D01*
X189980925Y-93770882D01*
X189981858Y-93773133D01*
X190002647Y-93804246D01*
X190042427Y-93863781D01*
X190063304Y-93930458D01*
X190044819Y-93997838D01*
X190042427Y-94001561D01*
X189954828Y-94132663D01*
X189890717Y-94287440D01*
X189890715Y-94287448D01*
X189858033Y-94451751D01*
X189858033Y-94619294D01*
X189890715Y-94783597D01*
X189890717Y-94783605D01*
X189954828Y-94938383D01*
X190047906Y-95077685D01*
X190166370Y-95196149D01*
X190254703Y-95255171D01*
X190305670Y-95289226D01*
X190305671Y-95289226D01*
X190305672Y-95289227D01*
X190310049Y-95291040D01*
X190460451Y-95353339D01*
X190624761Y-95386022D01*
X190624765Y-95386023D01*
X190624766Y-95386023D01*
X190792301Y-95386023D01*
X190792302Y-95386022D01*
X190956615Y-95353339D01*
X191111396Y-95289226D01*
X191250695Y-95196149D01*
X191369159Y-95077685D01*
X191462236Y-94938386D01*
X191526349Y-94783605D01*
X191559033Y-94619290D01*
X191559033Y-94451756D01*
X191526349Y-94287441D01*
X191462236Y-94132660D01*
X191453309Y-94119300D01*
X191401667Y-94042011D01*
X191380789Y-93975334D01*
X191399274Y-93907954D01*
X191401667Y-93904230D01*
X191489264Y-93773133D01*
X191553377Y-93618352D01*
X191586061Y-93454037D01*
X191586061Y-93286503D01*
X191553377Y-93122188D01*
X191489264Y-92967407D01*
X191421464Y-92865937D01*
X191396187Y-92828107D01*
X191277726Y-92709646D01*
X191277720Y-92709641D01*
X191258357Y-92696703D01*
X191213553Y-92643091D01*
X191204846Y-92573766D01*
X191235001Y-92510738D01*
X191239549Y-92505939D01*
X191356927Y-92388562D01*
X191450004Y-92249263D01*
X191514117Y-92094482D01*
X191546801Y-91930167D01*
X191546801Y-91762633D01*
X191514117Y-91598318D01*
X191450004Y-91443537D01*
X191359125Y-91307527D01*
X191356927Y-91304237D01*
X191234156Y-91181466D01*
X191235318Y-91180303D01*
X191200448Y-91129113D01*
X191198577Y-91059268D01*
X191234763Y-90999499D01*
X191249555Y-90987901D01*
X191256853Y-90983026D01*
X191375317Y-90864562D01*
X191468394Y-90725263D01*
X191532507Y-90570482D01*
X191565191Y-90406167D01*
X191565191Y-90238633D01*
X191532507Y-90074318D01*
X191468394Y-89919537D01*
X191408589Y-89830033D01*
X191408586Y-89830028D01*
X197015100Y-89830028D01*
X197015100Y-89997571D01*
X197047782Y-90161874D01*
X197047784Y-90161882D01*
X197111895Y-90316660D01*
X197204973Y-90455962D01*
X197323434Y-90574423D01*
X197323438Y-90574426D01*
X197410702Y-90632735D01*
X197455507Y-90686348D01*
X197464214Y-90755673D01*
X197434059Y-90818700D01*
X197429494Y-90823517D01*
X197408173Y-90844838D01*
X197315095Y-90984139D01*
X197250984Y-91138917D01*
X197250982Y-91138925D01*
X197218300Y-91303228D01*
X197218300Y-91470771D01*
X197250982Y-91635074D01*
X197250984Y-91635082D01*
X197315095Y-91789860D01*
X197408173Y-91929162D01*
X197526637Y-92047626D01*
X197619294Y-92109537D01*
X197665937Y-92140703D01*
X197665938Y-92140703D01*
X197665939Y-92140704D01*
X197686513Y-92149226D01*
X197820718Y-92204816D01*
X197985028Y-92237499D01*
X197985032Y-92237500D01*
X197985033Y-92237500D01*
X198152568Y-92237500D01*
X198152568Y-92237499D01*
X198268090Y-92214521D01*
X198337682Y-92220748D01*
X198392859Y-92263611D01*
X198395384Y-92267248D01*
X198474970Y-92386357D01*
X198474976Y-92386365D01*
X198593437Y-92504826D01*
X198686094Y-92566737D01*
X198732737Y-92597903D01*
X198732738Y-92597903D01*
X198732739Y-92597904D01*
X198757531Y-92608173D01*
X198887518Y-92662016D01*
X199051828Y-92694699D01*
X199051832Y-92694700D01*
X199051833Y-92694700D01*
X199219368Y-92694700D01*
X199219369Y-92694699D01*
X199383682Y-92662016D01*
X199538463Y-92597903D01*
X199677762Y-92504826D01*
X199796226Y-92386362D01*
X199816191Y-92356481D01*
X199869802Y-92311676D01*
X199939127Y-92302967D01*
X199952189Y-92305993D01*
X200118628Y-92339099D01*
X200118632Y-92339100D01*
X200118633Y-92339100D01*
X200286168Y-92339100D01*
X200286169Y-92339099D01*
X200450482Y-92306416D01*
X200605263Y-92242303D01*
X200744562Y-92149226D01*
X200863026Y-92030762D01*
X200956103Y-91891463D01*
X201020216Y-91736682D01*
X201052900Y-91572367D01*
X201052900Y-91513475D01*
X208986500Y-91513475D01*
X208986500Y-91722124D01*
X209019137Y-91928189D01*
X209083612Y-92126620D01*
X209153413Y-92263611D01*
X209178330Y-92312514D01*
X209300965Y-92481305D01*
X209448495Y-92628835D01*
X209617286Y-92751470D01*
X209651881Y-92769097D01*
X209668010Y-92777315D01*
X209718806Y-92825290D01*
X209735601Y-92893110D01*
X209713064Y-92959245D01*
X209668010Y-92998285D01*
X209617285Y-93024130D01*
X209448493Y-93146766D01*
X209300966Y-93294293D01*
X209178330Y-93463085D01*
X209083612Y-93648979D01*
X209019137Y-93847410D01*
X208986500Y-94053475D01*
X208986500Y-94262124D01*
X209019137Y-94468189D01*
X209083612Y-94666620D01*
X209178196Y-94852251D01*
X209178330Y-94852514D01*
X209300965Y-95021305D01*
X209448495Y-95168835D01*
X209617286Y-95291470D01*
X209642543Y-95304339D01*
X209668010Y-95317315D01*
X209718806Y-95365290D01*
X209735601Y-95433110D01*
X209713064Y-95499245D01*
X209668010Y-95538285D01*
X209617285Y-95564130D01*
X209448493Y-95686766D01*
X209300966Y-95834293D01*
X209178330Y-96003085D01*
X209083612Y-96188979D01*
X209019137Y-96387410D01*
X208986500Y-96593475D01*
X208986500Y-96802124D01*
X209019137Y-97008189D01*
X209083612Y-97206620D01*
X209174063Y-97384140D01*
X209178330Y-97392514D01*
X209300965Y-97561305D01*
X209448495Y-97708835D01*
X209617286Y-97831470D01*
X209634638Y-97840311D01*
X209668010Y-97857315D01*
X209718806Y-97905290D01*
X209735601Y-97973110D01*
X209713064Y-98039245D01*
X209668010Y-98078285D01*
X209617285Y-98104130D01*
X209448493Y-98226766D01*
X209448492Y-98226767D01*
X209300971Y-98374289D01*
X209300966Y-98374293D01*
X209178330Y-98543085D01*
X209083612Y-98728979D01*
X209019137Y-98927410D01*
X208986500Y-99133475D01*
X208986500Y-99342124D01*
X209019137Y-99548189D01*
X209083612Y-99746620D01*
X209178015Y-99931895D01*
X209178330Y-99932514D01*
X209300965Y-100101305D01*
X209448495Y-100248835D01*
X209617286Y-100371470D01*
X209705116Y-100416221D01*
X209803179Y-100466187D01*
X209803181Y-100466187D01*
X209803184Y-100466189D01*
X209909545Y-100500748D01*
X210001610Y-100530662D01*
X210207676Y-100563300D01*
X210207681Y-100563300D01*
X210416324Y-100563300D01*
X210622389Y-100530662D01*
X210820816Y-100466189D01*
X211006714Y-100371470D01*
X211175505Y-100248835D01*
X211323032Y-100101307D01*
X211384352Y-100067825D01*
X211454043Y-100072809D01*
X211509977Y-100114680D01*
X211529083Y-100163225D01*
X211531618Y-100162627D01*
X211533401Y-100170175D01*
X211542277Y-100193970D01*
X212328212Y-99408035D01*
X212339482Y-99450092D01*
X212411890Y-99575508D01*
X212514292Y-99677910D01*
X212639708Y-99750318D01*
X212681764Y-99761587D01*
X211895829Y-100547520D01*
X211895829Y-100547522D01*
X211919622Y-100556397D01*
X211919623Y-100556398D01*
X211979155Y-100562799D01*
X211979172Y-100562800D01*
X213724828Y-100562800D01*
X213724844Y-100562799D01*
X213784372Y-100556398D01*
X213808169Y-100547521D01*
X213022235Y-99761587D01*
X213064292Y-99750318D01*
X213189708Y-99677910D01*
X213292110Y-99575508D01*
X213364518Y-99450092D01*
X213375787Y-99408035D01*
X214161721Y-100193969D01*
X214170598Y-100170172D01*
X214176999Y-100110644D01*
X214177000Y-100110627D01*
X214177000Y-98364972D01*
X214176999Y-98364955D01*
X214170598Y-98305423D01*
X214170597Y-98305422D01*
X214161722Y-98281629D01*
X214161720Y-98281629D01*
X213375786Y-99067563D01*
X213364518Y-99025508D01*
X213292110Y-98900092D01*
X213189708Y-98797690D01*
X213064292Y-98725282D01*
X213022235Y-98714012D01*
X213808170Y-97928077D01*
X213808170Y-97928076D01*
X213784375Y-97919201D01*
X213724844Y-97912800D01*
X213720703Y-97912800D01*
X213653664Y-97893115D01*
X213607909Y-97840311D01*
X213600813Y-97800166D01*
X213022234Y-97221587D01*
X213064292Y-97210318D01*
X213189708Y-97137910D01*
X213292110Y-97035508D01*
X213364518Y-96910092D01*
X213375787Y-96868034D01*
X213949371Y-97441618D01*
X213949372Y-97441618D01*
X213985240Y-97392251D01*
X214079924Y-97206427D01*
X214144373Y-97008072D01*
X214177000Y-96802079D01*
X214177000Y-96593520D01*
X214144373Y-96387527D01*
X214079924Y-96189172D01*
X213985244Y-96003356D01*
X213985236Y-96003343D01*
X213949372Y-95953980D01*
X213949371Y-95953979D01*
X213375787Y-96527564D01*
X213364518Y-96485508D01*
X213292110Y-96360092D01*
X213189708Y-96257690D01*
X213064292Y-96185282D01*
X213022233Y-96174012D01*
X213595819Y-95600427D01*
X213546451Y-95564559D01*
X213494885Y-95538285D01*
X213444089Y-95490311D01*
X213427294Y-95422490D01*
X213449831Y-95356355D01*
X213494885Y-95317315D01*
X213546451Y-95291040D01*
X213595818Y-95255172D01*
X213595818Y-95255171D01*
X213022234Y-94681587D01*
X213064292Y-94670318D01*
X213189708Y-94597910D01*
X213292110Y-94495508D01*
X213364518Y-94370092D01*
X213375787Y-94328034D01*
X213949371Y-94901618D01*
X213949372Y-94901618D01*
X213985240Y-94852251D01*
X214079924Y-94666427D01*
X214144373Y-94468072D01*
X214177000Y-94262079D01*
X214177000Y-94053520D01*
X214144373Y-93847527D01*
X214079924Y-93649172D01*
X213985244Y-93463356D01*
X213985236Y-93463343D01*
X213949372Y-93413980D01*
X213949371Y-93413979D01*
X213375787Y-93987564D01*
X213364518Y-93945508D01*
X213292110Y-93820092D01*
X213189708Y-93717690D01*
X213064292Y-93645282D01*
X213022233Y-93634012D01*
X213595819Y-93060427D01*
X213546451Y-93024559D01*
X213494885Y-92998285D01*
X213444089Y-92950311D01*
X213427294Y-92882490D01*
X213449831Y-92816355D01*
X213494885Y-92777315D01*
X213546451Y-92751040D01*
X213595818Y-92715172D01*
X213595818Y-92715171D01*
X213022234Y-92141587D01*
X213064292Y-92130318D01*
X213189708Y-92057910D01*
X213292110Y-91955508D01*
X213364518Y-91830092D01*
X213375787Y-91788034D01*
X213949371Y-92361618D01*
X213949372Y-92361618D01*
X213985240Y-92312251D01*
X214079924Y-92126427D01*
X214144373Y-91928072D01*
X214177000Y-91722079D01*
X214177000Y-91513520D01*
X214144373Y-91307527D01*
X214079924Y-91109172D01*
X213985244Y-90923356D01*
X213985236Y-90923343D01*
X213949372Y-90873980D01*
X213949371Y-90873979D01*
X213375787Y-91447564D01*
X213364518Y-91405508D01*
X213292110Y-91280092D01*
X213189708Y-91177690D01*
X213064292Y-91105282D01*
X213022233Y-91094012D01*
X213595819Y-90520427D01*
X213546451Y-90484559D01*
X213360627Y-90389875D01*
X213162272Y-90325426D01*
X212956279Y-90292800D01*
X212747721Y-90292800D01*
X212541727Y-90325426D01*
X212343372Y-90389875D01*
X212157552Y-90484557D01*
X212108180Y-90520427D01*
X212681766Y-91094012D01*
X212639708Y-91105282D01*
X212514292Y-91177690D01*
X212411890Y-91280092D01*
X212339482Y-91405508D01*
X212328212Y-91447565D01*
X211754627Y-90873980D01*
X211718755Y-90923355D01*
X211692765Y-90974363D01*
X211644790Y-91025158D01*
X211576969Y-91041953D01*
X211510834Y-91019415D01*
X211471796Y-90974361D01*
X211445671Y-90923087D01*
X211369828Y-90818700D01*
X211323035Y-90754295D01*
X211175505Y-90606765D01*
X211006714Y-90484130D01*
X210972470Y-90466682D01*
X210820820Y-90389412D01*
X210622389Y-90324937D01*
X210416324Y-90292300D01*
X210416319Y-90292300D01*
X210207681Y-90292300D01*
X210207676Y-90292300D01*
X210001610Y-90324937D01*
X209803179Y-90389412D01*
X209617285Y-90484130D01*
X209448493Y-90606766D01*
X209300966Y-90754293D01*
X209178330Y-90923085D01*
X209083612Y-91108979D01*
X209019137Y-91307410D01*
X208986500Y-91513475D01*
X201052900Y-91513475D01*
X201052900Y-91404833D01*
X201020216Y-91240518D01*
X200956103Y-91085737D01*
X200956100Y-91085733D01*
X200953234Y-91080370D01*
X200955291Y-91079270D01*
X200937505Y-91022481D01*
X200955985Y-90955100D01*
X200992593Y-90917157D01*
X201049362Y-90879226D01*
X201167826Y-90760762D01*
X201260903Y-90621463D01*
X201325016Y-90466682D01*
X201357700Y-90302367D01*
X201357700Y-90134833D01*
X201325016Y-89970518D01*
X201260903Y-89815737D01*
X201203239Y-89729437D01*
X201167826Y-89676437D01*
X201049362Y-89557973D01*
X200910060Y-89464895D01*
X200755282Y-89400784D01*
X200755274Y-89400782D01*
X200590971Y-89368100D01*
X200590967Y-89368100D01*
X200423433Y-89368100D01*
X200423428Y-89368100D01*
X200259125Y-89400782D01*
X200259117Y-89400784D01*
X200104339Y-89464895D01*
X199965037Y-89557973D01*
X199846573Y-89676437D01*
X199753495Y-89815739D01*
X199689384Y-89970517D01*
X199689382Y-89970525D01*
X199656700Y-90134828D01*
X199656700Y-90302371D01*
X199689382Y-90466674D01*
X199689384Y-90466682D01*
X199753496Y-90621461D01*
X199756366Y-90626830D01*
X199754311Y-90627928D01*
X199772094Y-90684735D01*
X199753605Y-90752114D01*
X199717006Y-90790041D01*
X199660240Y-90827971D01*
X199660234Y-90827976D01*
X199541778Y-90946432D01*
X199541775Y-90946436D01*
X199521806Y-90976321D01*
X199468192Y-91021125D01*
X199398867Y-91029831D01*
X199385800Y-91026804D01*
X199219371Y-90993700D01*
X199219367Y-90993700D01*
X199051833Y-90993700D01*
X199009918Y-91002037D01*
X198936307Y-91016679D01*
X198866716Y-91010450D01*
X198811539Y-90967587D01*
X198809042Y-90963992D01*
X198729426Y-90844838D01*
X198729424Y-90844835D01*
X198610964Y-90726375D01*
X198586208Y-90709833D01*
X198523695Y-90668064D01*
X198478891Y-90614454D01*
X198470184Y-90545129D01*
X198500338Y-90482101D01*
X198504888Y-90477299D01*
X198526226Y-90455962D01*
X198619303Y-90316663D01*
X198683416Y-90161882D01*
X198716100Y-89997567D01*
X198716100Y-89830033D01*
X198683416Y-89665718D01*
X198624565Y-89523640D01*
X198619304Y-89510939D01*
X198526226Y-89371637D01*
X198407762Y-89253173D01*
X198268460Y-89160095D01*
X198113682Y-89095984D01*
X198113674Y-89095982D01*
X197949371Y-89063300D01*
X197949367Y-89063300D01*
X197781833Y-89063300D01*
X197781828Y-89063300D01*
X197617525Y-89095982D01*
X197617517Y-89095984D01*
X197462739Y-89160095D01*
X197323437Y-89253173D01*
X197204973Y-89371637D01*
X197111895Y-89510939D01*
X197047784Y-89665717D01*
X197047782Y-89665725D01*
X197015100Y-89830028D01*
X191408586Y-89830028D01*
X191375317Y-89780237D01*
X191256858Y-89661778D01*
X191252916Y-89658543D01*
X191213580Y-89600797D01*
X191211709Y-89530953D01*
X191247895Y-89471184D01*
X191262687Y-89459586D01*
X191266794Y-89456843D01*
X191385258Y-89338379D01*
X191478335Y-89199080D01*
X191542448Y-89044299D01*
X191575132Y-88879984D01*
X191575132Y-88712450D01*
X191542448Y-88548135D01*
X191478335Y-88393354D01*
X191447169Y-88346711D01*
X191385258Y-88254054D01*
X191266794Y-88135590D01*
X191127492Y-88042512D01*
X190972714Y-87978401D01*
X190972706Y-87978399D01*
X190808403Y-87945717D01*
X190808399Y-87945717D01*
X190640865Y-87945717D01*
X190640860Y-87945717D01*
X190476557Y-87978399D01*
X190476549Y-87978401D01*
X190321771Y-88042512D01*
X190182469Y-88135590D01*
X190064005Y-88254054D01*
X189970927Y-88393356D01*
X189906816Y-88548134D01*
X189906814Y-88548142D01*
X189874132Y-88712445D01*
X189874132Y-88879988D01*
X189906814Y-89044291D01*
X189906816Y-89044299D01*
X189970927Y-89199077D01*
X190064005Y-89338379D01*
X190182463Y-89456837D01*
X190186405Y-89460072D01*
X190225741Y-89517817D01*
X190227614Y-89587662D01*
X190191428Y-89647431D01*
X190176640Y-89659026D01*
X190172531Y-89661771D01*
X190172525Y-89661776D01*
X190054064Y-89780237D01*
X189960986Y-89919539D01*
X189896875Y-90074317D01*
X189896873Y-90074325D01*
X189864191Y-90238628D01*
X189864191Y-90406171D01*
X189896873Y-90570474D01*
X189896875Y-90570482D01*
X189960986Y-90725260D01*
X190054064Y-90864562D01*
X190176836Y-90987334D01*
X190175672Y-90988497D01*
X190210541Y-91039683D01*
X190212415Y-91109527D01*
X190176231Y-91169297D01*
X190161438Y-91180896D01*
X190154140Y-91185772D01*
X190154135Y-91185776D01*
X190035674Y-91304237D01*
X189942596Y-91443539D01*
X189878485Y-91598317D01*
X189878483Y-91598325D01*
X189845801Y-91762628D01*
X149278099Y-91762628D01*
X149278099Y-91389200D01*
X149278099Y-90631329D01*
X149278098Y-90631323D01*
X149277733Y-90627928D01*
X149271691Y-90571717D01*
X149271230Y-90570482D01*
X149221397Y-90436871D01*
X149221393Y-90436864D01*
X149169723Y-90367843D01*
X149135146Y-90321654D01*
X149019931Y-90235404D01*
X149019928Y-90235402D01*
X148892375Y-90187828D01*
X178930700Y-90187828D01*
X178930700Y-90355371D01*
X178963382Y-90519674D01*
X178963384Y-90519682D01*
X179027495Y-90674460D01*
X179120573Y-90813762D01*
X179239037Y-90932226D01*
X179313464Y-90981956D01*
X179378337Y-91025303D01*
X179378338Y-91025303D01*
X179378339Y-91025304D01*
X179389268Y-91029831D01*
X179533118Y-91089416D01*
X179634224Y-91109527D01*
X179697428Y-91122099D01*
X179697432Y-91122100D01*
X179697433Y-91122100D01*
X179864968Y-91122100D01*
X179864969Y-91122099D01*
X180029282Y-91089416D01*
X180184063Y-91025303D01*
X180323362Y-90932226D01*
X180441826Y-90813762D01*
X180534903Y-90674463D01*
X180599016Y-90519682D01*
X180631700Y-90355367D01*
X180631700Y-90187833D01*
X180599016Y-90023518D01*
X180534903Y-89868737D01*
X180475769Y-89780237D01*
X180441826Y-89729437D01*
X180323362Y-89610973D01*
X180184060Y-89517895D01*
X180029282Y-89453784D01*
X180029274Y-89453782D01*
X179864971Y-89421100D01*
X179864967Y-89421100D01*
X179697433Y-89421100D01*
X179697428Y-89421100D01*
X179533125Y-89453782D01*
X179533117Y-89453784D01*
X179378339Y-89517895D01*
X179239037Y-89610973D01*
X179120573Y-89729437D01*
X179027495Y-89868739D01*
X178963384Y-90023517D01*
X178963382Y-90023525D01*
X178930700Y-90187828D01*
X148892375Y-90187828D01*
X148885082Y-90185108D01*
X148885083Y-90185108D01*
X148825483Y-90178701D01*
X148825481Y-90178700D01*
X148825473Y-90178700D01*
X148825465Y-90178700D01*
X148719665Y-90178700D01*
X148652626Y-90159015D01*
X148606871Y-90106211D01*
X148596927Y-90037053D01*
X148625952Y-89973497D01*
X148663371Y-89944215D01*
X148668187Y-89941760D01*
X148702040Y-89924512D01*
X148856188Y-89812518D01*
X148990918Y-89677788D01*
X149102912Y-89523640D01*
X149189414Y-89353871D01*
X149222133Y-89253173D01*
X149248292Y-89172663D01*
X149248292Y-89172662D01*
X149248293Y-89172659D01*
X149278100Y-88984468D01*
X149278100Y-88793932D01*
X149248293Y-88605741D01*
X149248292Y-88605737D01*
X149248292Y-88605736D01*
X149189415Y-88424531D01*
X149102912Y-88254760D01*
X148990917Y-88100611D01*
X148856188Y-87965882D01*
X148702039Y-87853887D01*
X148532268Y-87767384D01*
X148351062Y-87708507D01*
X148209915Y-87686151D01*
X148162868Y-87678700D01*
X147972332Y-87678700D01*
X147909601Y-87688635D01*
X147784139Y-87708507D01*
X147784136Y-87708507D01*
X147602931Y-87767384D01*
X147433160Y-87853887D01*
X147279011Y-87965882D01*
X147155281Y-88089613D01*
X147093958Y-88123098D01*
X147024266Y-88118114D01*
X146979919Y-88089613D01*
X146856188Y-87965882D01*
X146702039Y-87853887D01*
X146532268Y-87767384D01*
X146351062Y-87708507D01*
X146209915Y-87686151D01*
X146162868Y-87678700D01*
X145972332Y-87678700D01*
X145909601Y-87688635D01*
X145784139Y-87708507D01*
X145784136Y-87708507D01*
X145602931Y-87767384D01*
X145433160Y-87853887D01*
X145279011Y-87965882D01*
X145144282Y-88100611D01*
X145032287Y-88254760D01*
X144945784Y-88424531D01*
X144886907Y-88605736D01*
X144886907Y-88605739D01*
X144886907Y-88605741D01*
X144857100Y-88793932D01*
X132045440Y-88793932D01*
X132045440Y-83973372D01*
X141132600Y-83973372D01*
X141132600Y-84265027D01*
X141132601Y-84265044D01*
X141170669Y-84554203D01*
X141246162Y-84835944D01*
X141357771Y-85105395D01*
X141357779Y-85105411D01*
X141503606Y-85357988D01*
X141503612Y-85357996D01*
X141617208Y-85506037D01*
X142385512Y-84737732D01*
X142480429Y-84868375D01*
X142608425Y-84996371D01*
X142739065Y-85091286D01*
X141970761Y-85859590D01*
X142118803Y-85973187D01*
X142118811Y-85973193D01*
X142371388Y-86119020D01*
X142371404Y-86119028D01*
X142640855Y-86230637D01*
X142922596Y-86306130D01*
X143211755Y-86344198D01*
X143211773Y-86344200D01*
X143503427Y-86344200D01*
X143503444Y-86344198D01*
X143792603Y-86306130D01*
X144074344Y-86230637D01*
X144343795Y-86119028D01*
X144343811Y-86119020D01*
X144419187Y-86075501D01*
X159861114Y-86075501D01*
X159861114Y-86243044D01*
X159893796Y-86407347D01*
X159893798Y-86407355D01*
X159957909Y-86562133D01*
X160050987Y-86701435D01*
X160169451Y-86819899D01*
X160262108Y-86881810D01*
X160308751Y-86912976D01*
X160463532Y-86977089D01*
X160627842Y-87009772D01*
X160627846Y-87009773D01*
X160627847Y-87009773D01*
X160795382Y-87009773D01*
X160795383Y-87009772D01*
X160959696Y-86977089D01*
X161114477Y-86912976D01*
X161253776Y-86819899D01*
X161372240Y-86701435D01*
X161465317Y-86562136D01*
X161529430Y-86407355D01*
X161562114Y-86243040D01*
X161562114Y-86075506D01*
X161529430Y-85911191D01*
X161465317Y-85756410D01*
X161434151Y-85709767D01*
X161372240Y-85617110D01*
X161253776Y-85498646D01*
X161114474Y-85405568D01*
X160959696Y-85341457D01*
X160959688Y-85341455D01*
X160795385Y-85308773D01*
X160795381Y-85308773D01*
X160627847Y-85308773D01*
X160627842Y-85308773D01*
X160463539Y-85341455D01*
X160463531Y-85341457D01*
X160308753Y-85405568D01*
X160169451Y-85498646D01*
X160050987Y-85617110D01*
X159957909Y-85756412D01*
X159893798Y-85911190D01*
X159893796Y-85911198D01*
X159861114Y-86075501D01*
X144419187Y-86075501D01*
X144596388Y-85973193D01*
X144596401Y-85973184D01*
X144599195Y-85971041D01*
X144599196Y-85971040D01*
X144599198Y-85971039D01*
X144744437Y-85859591D01*
X144744437Y-85859589D01*
X143976133Y-85091286D01*
X144106775Y-84996371D01*
X144234771Y-84868375D01*
X144329686Y-84737733D01*
X145097989Y-85506037D01*
X145097991Y-85506037D01*
X145211581Y-85358006D01*
X145211593Y-85357988D01*
X145357420Y-85105411D01*
X145357428Y-85105395D01*
X145469037Y-84835944D01*
X145544530Y-84554203D01*
X145582598Y-84265044D01*
X145582600Y-84265027D01*
X145582600Y-83973372D01*
X145582598Y-83973355D01*
X145544530Y-83684196D01*
X145469037Y-83402455D01*
X145414005Y-83269593D01*
X145396871Y-83228228D01*
X164960700Y-83228228D01*
X164960700Y-83395771D01*
X164993382Y-83560074D01*
X164993384Y-83560082D01*
X165057495Y-83714860D01*
X165150573Y-83854162D01*
X165269037Y-83972626D01*
X165352948Y-84028693D01*
X165408337Y-84065703D01*
X165563118Y-84129816D01*
X165727428Y-84162499D01*
X165727432Y-84162500D01*
X165727433Y-84162500D01*
X165894968Y-84162500D01*
X165894969Y-84162499D01*
X165994870Y-84142628D01*
X166738700Y-84142628D01*
X166738700Y-84310171D01*
X166771382Y-84474474D01*
X166771384Y-84474482D01*
X166835495Y-84629260D01*
X166928573Y-84768562D01*
X167047037Y-84887026D01*
X167139694Y-84948937D01*
X167186337Y-84980103D01*
X167341118Y-85044216D01*
X167505428Y-85076899D01*
X167505432Y-85076900D01*
X167505433Y-85076900D01*
X167672968Y-85076900D01*
X167672969Y-85076899D01*
X167837282Y-85044216D01*
X167992063Y-84980103D01*
X168131362Y-84887026D01*
X168249826Y-84768562D01*
X168342903Y-84629263D01*
X168407016Y-84474482D01*
X168439700Y-84310167D01*
X168439700Y-84244228D01*
X176695500Y-84244228D01*
X176695500Y-84411771D01*
X176728182Y-84576074D01*
X176728184Y-84576082D01*
X176792295Y-84730860D01*
X176885373Y-84870162D01*
X177003837Y-84988626D01*
X177087032Y-85044215D01*
X177143137Y-85081703D01*
X177297918Y-85145816D01*
X177462228Y-85178499D01*
X177462232Y-85178500D01*
X177462233Y-85178500D01*
X177629768Y-85178500D01*
X177629769Y-85178499D01*
X177794082Y-85145816D01*
X177948863Y-85081703D01*
X178088162Y-84988626D01*
X178206626Y-84870162D01*
X178299703Y-84730863D01*
X178363816Y-84576082D01*
X178396500Y-84411767D01*
X178396500Y-84244233D01*
X178363816Y-84079918D01*
X178299703Y-83925137D01*
X178252279Y-83854162D01*
X178206626Y-83785837D01*
X178088162Y-83667373D01*
X177948860Y-83574295D01*
X177794082Y-83510184D01*
X177794074Y-83510182D01*
X177629771Y-83477500D01*
X177629767Y-83477500D01*
X177462233Y-83477500D01*
X177462228Y-83477500D01*
X177297925Y-83510182D01*
X177297917Y-83510184D01*
X177143139Y-83574295D01*
X177003837Y-83667373D01*
X176885373Y-83785837D01*
X176792295Y-83925139D01*
X176728184Y-84079917D01*
X176728182Y-84079925D01*
X176695500Y-84244228D01*
X168439700Y-84244228D01*
X168439700Y-84142633D01*
X168407016Y-83978318D01*
X168342903Y-83823537D01*
X168304221Y-83765646D01*
X168249826Y-83684237D01*
X168131362Y-83565773D01*
X167992060Y-83472695D01*
X167837282Y-83408584D01*
X167837274Y-83408582D01*
X167672971Y-83375900D01*
X167672967Y-83375900D01*
X167505433Y-83375900D01*
X167505428Y-83375900D01*
X167341125Y-83408582D01*
X167341117Y-83408584D01*
X167186339Y-83472695D01*
X167047037Y-83565773D01*
X166928573Y-83684237D01*
X166835495Y-83823539D01*
X166771384Y-83978317D01*
X166771382Y-83978325D01*
X166738700Y-84142628D01*
X165994870Y-84142628D01*
X166059282Y-84129816D01*
X166214063Y-84065703D01*
X166353362Y-83972626D01*
X166471826Y-83854162D01*
X166564903Y-83714863D01*
X166629016Y-83560082D01*
X166661700Y-83395767D01*
X166661700Y-83228233D01*
X166629016Y-83063918D01*
X166579054Y-82943300D01*
X166564904Y-82909139D01*
X166471826Y-82769837D01*
X166353362Y-82651373D01*
X166214060Y-82558295D01*
X166059282Y-82494184D01*
X166059274Y-82494182D01*
X165894971Y-82461500D01*
X165894967Y-82461500D01*
X165727433Y-82461500D01*
X165727428Y-82461500D01*
X165563125Y-82494182D01*
X165563117Y-82494184D01*
X165408339Y-82558295D01*
X165269037Y-82651373D01*
X165150573Y-82769837D01*
X165057495Y-82909139D01*
X164993384Y-83063917D01*
X164993382Y-83063925D01*
X164960700Y-83228228D01*
X145396871Y-83228228D01*
X145357425Y-83132999D01*
X145357420Y-83132988D01*
X145211593Y-82880411D01*
X145211587Y-82880403D01*
X145097990Y-82732361D01*
X144329686Y-83500665D01*
X144234771Y-83370025D01*
X144106775Y-83242029D01*
X143976132Y-83147112D01*
X144744437Y-82378808D01*
X144596396Y-82265212D01*
X144596388Y-82265206D01*
X144343811Y-82119379D01*
X144343795Y-82119371D01*
X144074344Y-82007762D01*
X143792603Y-81932269D01*
X143503444Y-81894201D01*
X143503427Y-81894200D01*
X143211773Y-81894200D01*
X143211755Y-81894201D01*
X142922596Y-81932269D01*
X142640855Y-82007762D01*
X142371404Y-82119371D01*
X142371388Y-82119379D01*
X142118811Y-82265206D01*
X142118795Y-82265217D01*
X141970761Y-82378806D01*
X141970761Y-82378808D01*
X142739066Y-83147113D01*
X142608425Y-83242029D01*
X142480429Y-83370025D01*
X142385513Y-83500666D01*
X141617208Y-82732361D01*
X141617206Y-82732361D01*
X141503617Y-82880395D01*
X141503606Y-82880411D01*
X141357779Y-83132988D01*
X141357771Y-83133004D01*
X141246162Y-83402455D01*
X141170669Y-83684196D01*
X141132601Y-83973355D01*
X141132600Y-83973372D01*
X132045440Y-83973372D01*
X132045440Y-81551828D01*
X163690700Y-81551828D01*
X163690700Y-81719371D01*
X163723382Y-81883674D01*
X163723384Y-81883682D01*
X163787495Y-82038460D01*
X163880573Y-82177762D01*
X163999037Y-82296226D01*
X164065858Y-82340874D01*
X164138337Y-82389303D01*
X164293118Y-82453416D01*
X164457428Y-82486099D01*
X164457432Y-82486100D01*
X164457433Y-82486100D01*
X164624968Y-82486100D01*
X164624969Y-82486099D01*
X164789282Y-82453416D01*
X164944063Y-82389303D01*
X165083362Y-82296226D01*
X165201826Y-82177762D01*
X165294903Y-82038463D01*
X165307095Y-82009028D01*
X172326700Y-82009028D01*
X172326700Y-82176571D01*
X172359382Y-82340874D01*
X172359384Y-82340882D01*
X172423495Y-82495660D01*
X172516573Y-82634962D01*
X172635037Y-82753426D01*
X172698311Y-82795704D01*
X172774337Y-82846503D01*
X172774338Y-82846503D01*
X172774339Y-82846504D01*
X172809401Y-82861027D01*
X172929118Y-82910616D01*
X173093428Y-82943299D01*
X173093432Y-82943300D01*
X173093433Y-82943300D01*
X173260968Y-82943300D01*
X173260969Y-82943299D01*
X173425282Y-82910616D01*
X173580063Y-82846503D01*
X173654324Y-82796882D01*
X173720998Y-82776005D01*
X173784634Y-82793461D01*
X173784970Y-82792834D01*
X173787735Y-82794312D01*
X173788379Y-82794489D01*
X173789925Y-82795482D01*
X173790332Y-82795700D01*
X173790337Y-82795703D01*
X173945118Y-82859816D01*
X174109428Y-82892499D01*
X174109432Y-82892500D01*
X174109433Y-82892500D01*
X174276968Y-82892500D01*
X174276969Y-82892499D01*
X174441282Y-82859816D01*
X174596063Y-82795703D01*
X174735362Y-82702626D01*
X174853826Y-82584162D01*
X174946903Y-82444863D01*
X175011016Y-82290082D01*
X175043700Y-82125767D01*
X175043700Y-81958233D01*
X175011016Y-81793918D01*
X174946903Y-81639137D01*
X174888568Y-81551833D01*
X174853826Y-81499837D01*
X174735362Y-81381373D01*
X174596060Y-81288295D01*
X174441282Y-81224184D01*
X174441274Y-81224182D01*
X174276971Y-81191500D01*
X174276967Y-81191500D01*
X174109433Y-81191500D01*
X174109428Y-81191500D01*
X173945125Y-81224182D01*
X173945117Y-81224184D01*
X173790340Y-81288295D01*
X173716076Y-81337916D01*
X173649398Y-81358793D01*
X173585775Y-81341338D01*
X173585438Y-81341970D01*
X173582655Y-81340482D01*
X173582018Y-81340308D01*
X173580485Y-81339323D01*
X173580059Y-81339095D01*
X173425282Y-81274984D01*
X173425274Y-81274982D01*
X173260971Y-81242300D01*
X173260967Y-81242300D01*
X173093433Y-81242300D01*
X173093428Y-81242300D01*
X172929125Y-81274982D01*
X172929117Y-81274984D01*
X172774339Y-81339095D01*
X172635037Y-81432173D01*
X172516573Y-81550637D01*
X172423495Y-81689939D01*
X172359384Y-81844717D01*
X172359382Y-81844725D01*
X172326700Y-82009028D01*
X165307095Y-82009028D01*
X165359016Y-81883682D01*
X165391700Y-81719367D01*
X165391700Y-81551833D01*
X165359016Y-81387518D01*
X165294903Y-81232737D01*
X165263737Y-81186094D01*
X165201826Y-81093437D01*
X165083362Y-80974973D01*
X164944060Y-80881895D01*
X164789282Y-80817784D01*
X164789274Y-80817782D01*
X164624971Y-80785100D01*
X164624967Y-80785100D01*
X164457433Y-80785100D01*
X164457428Y-80785100D01*
X164293125Y-80817782D01*
X164293117Y-80817784D01*
X164138339Y-80881895D01*
X163999037Y-80974973D01*
X163880573Y-81093437D01*
X163787495Y-81232739D01*
X163723384Y-81387517D01*
X163723382Y-81387525D01*
X163690700Y-81551828D01*
X132045440Y-81551828D01*
X132045440Y-76695677D01*
X148579200Y-76695677D01*
X148579200Y-76923522D01*
X148597523Y-77062688D01*
X148608938Y-77149394D01*
X148652511Y-77312011D01*
X148667904Y-77369460D01*
X148755085Y-77579935D01*
X148755092Y-77579950D01*
X148869004Y-77777252D01*
X149007697Y-77958000D01*
X149007703Y-77958007D01*
X149168792Y-78119096D01*
X149168799Y-78119102D01*
X149349547Y-78257795D01*
X149546849Y-78371707D01*
X149546864Y-78371714D01*
X149626372Y-78404647D01*
X149757340Y-78458896D01*
X149977406Y-78517862D01*
X150192409Y-78546168D01*
X150203269Y-78547598D01*
X150203285Y-78547600D01*
X150203292Y-78547600D01*
X150431108Y-78547600D01*
X150431115Y-78547600D01*
X150656994Y-78517862D01*
X150877060Y-78458896D01*
X151087547Y-78371709D01*
X151284853Y-78257795D01*
X151465602Y-78119101D01*
X151626701Y-77958002D01*
X151765395Y-77777253D01*
X151879309Y-77579947D01*
X151966496Y-77369460D01*
X152025462Y-77149394D01*
X152055200Y-76923515D01*
X152055200Y-76695685D01*
X152025462Y-76469806D01*
X151966496Y-76249740D01*
X151897091Y-76082182D01*
X151879314Y-76039264D01*
X151879307Y-76039249D01*
X151765395Y-75841947D01*
X151626702Y-75661199D01*
X151626696Y-75661192D01*
X151489739Y-75524235D01*
X153179200Y-75524235D01*
X153179200Y-78094970D01*
X153179201Y-78094976D01*
X153185608Y-78154583D01*
X153235902Y-78289428D01*
X153235906Y-78289435D01*
X153322152Y-78404644D01*
X153322155Y-78404647D01*
X153437364Y-78490893D01*
X153437371Y-78490897D01*
X153482318Y-78507661D01*
X153572217Y-78541191D01*
X153631827Y-78547600D01*
X153919319Y-78547599D01*
X153986357Y-78567283D01*
X154032112Y-78620087D01*
X154042056Y-78689246D01*
X154040937Y-78695784D01*
X154038700Y-78707033D01*
X154038700Y-78874571D01*
X154071382Y-79038874D01*
X154071384Y-79038882D01*
X154135495Y-79193660D01*
X154228573Y-79332962D01*
X154347037Y-79451426D01*
X154411402Y-79494433D01*
X154486337Y-79544503D01*
X154641118Y-79608616D01*
X154805428Y-79641299D01*
X154805432Y-79641300D01*
X154805433Y-79641300D01*
X154972968Y-79641300D01*
X154972969Y-79641299D01*
X155137282Y-79608616D01*
X155292063Y-79544503D01*
X155367005Y-79494428D01*
X172174300Y-79494428D01*
X172174300Y-79661971D01*
X172206982Y-79826274D01*
X172206984Y-79826282D01*
X172271095Y-79981060D01*
X172364173Y-80120362D01*
X172482637Y-80238826D01*
X172575294Y-80300737D01*
X172621937Y-80331903D01*
X172776718Y-80396016D01*
X172941028Y-80428699D01*
X172941032Y-80428700D01*
X172941033Y-80428700D01*
X173108568Y-80428700D01*
X173108569Y-80428699D01*
X173272882Y-80396016D01*
X173427663Y-80331903D01*
X173566962Y-80238826D01*
X173685426Y-80120362D01*
X173778503Y-79981063D01*
X173842616Y-79826282D01*
X173875300Y-79661967D01*
X173875300Y-79494433D01*
X173842616Y-79330118D01*
X173778503Y-79175337D01*
X173747337Y-79128694D01*
X173685426Y-79036037D01*
X173566962Y-78917573D01*
X173427660Y-78824495D01*
X173272882Y-78760384D01*
X173272874Y-78760382D01*
X173108571Y-78727700D01*
X173108567Y-78727700D01*
X172941033Y-78727700D01*
X172941028Y-78727700D01*
X172776725Y-78760382D01*
X172776717Y-78760384D01*
X172621939Y-78824495D01*
X172482637Y-78917573D01*
X172364173Y-79036037D01*
X172271095Y-79175339D01*
X172206984Y-79330117D01*
X172206982Y-79330125D01*
X172174300Y-79494428D01*
X155367005Y-79494428D01*
X155431362Y-79451426D01*
X155431365Y-79451423D01*
X155482129Y-79400660D01*
X155549823Y-79332965D01*
X155549826Y-79332962D01*
X155551727Y-79330117D01*
X155642903Y-79193663D01*
X155707016Y-79038882D01*
X155739700Y-78874567D01*
X155739700Y-78707033D01*
X155737464Y-78695792D01*
X155743690Y-78626201D01*
X155786552Y-78571023D01*
X155852442Y-78547777D01*
X155859081Y-78547599D01*
X156202571Y-78547599D01*
X156202572Y-78547599D01*
X156262183Y-78541191D01*
X156397031Y-78490896D01*
X156512246Y-78404646D01*
X156598496Y-78289431D01*
X156648791Y-78154583D01*
X156655200Y-78094973D01*
X156655199Y-76675028D01*
X169735900Y-76675028D01*
X169735900Y-76842571D01*
X169768582Y-77006874D01*
X169768584Y-77006882D01*
X169832695Y-77161660D01*
X169925773Y-77300962D01*
X170044237Y-77419426D01*
X170136894Y-77481337D01*
X170183537Y-77512503D01*
X170338318Y-77576616D01*
X170470257Y-77602860D01*
X170502628Y-77609299D01*
X170502632Y-77609300D01*
X170502633Y-77609300D01*
X170670168Y-77609300D01*
X170670169Y-77609299D01*
X170834482Y-77576616D01*
X170989263Y-77512503D01*
X171128562Y-77419426D01*
X171247026Y-77300962D01*
X171340103Y-77161663D01*
X171358923Y-77116228D01*
X195749500Y-77116228D01*
X195749500Y-77283771D01*
X195782182Y-77448074D01*
X195782184Y-77448082D01*
X195846295Y-77602860D01*
X195939373Y-77742162D01*
X196057837Y-77860626D01*
X196143430Y-77917817D01*
X196197137Y-77953703D01*
X196197138Y-77953703D01*
X196197139Y-77953704D01*
X196212600Y-77960108D01*
X196351918Y-78017816D01*
X196516228Y-78050499D01*
X196516232Y-78050500D01*
X196516233Y-78050500D01*
X196683768Y-78050500D01*
X196683769Y-78050499D01*
X196848082Y-78017816D01*
X197002863Y-77953703D01*
X197142162Y-77860626D01*
X197252469Y-77750318D01*
X197313790Y-77716835D01*
X197364692Y-77718891D01*
X197365143Y-77716628D01*
X197535428Y-77750499D01*
X197535432Y-77750500D01*
X197535433Y-77750500D01*
X197702968Y-77750500D01*
X197702969Y-77750499D01*
X197867282Y-77717816D01*
X197908782Y-77700625D01*
X197978250Y-77693156D01*
X198040729Y-77724430D01*
X198043916Y-77727505D01*
X198077037Y-77760626D01*
X198169694Y-77822537D01*
X198216337Y-77853703D01*
X198371118Y-77917816D01*
X198535428Y-77950499D01*
X198535432Y-77950500D01*
X198535433Y-77950500D01*
X198702968Y-77950500D01*
X198702969Y-77950499D01*
X198867282Y-77917816D01*
X199022063Y-77853703D01*
X199161362Y-77760626D01*
X199279826Y-77642162D01*
X199372903Y-77502863D01*
X199437016Y-77348082D01*
X199469700Y-77183767D01*
X199469700Y-77016233D01*
X199437016Y-76851918D01*
X199372903Y-76697137D01*
X199315593Y-76611367D01*
X199279826Y-76557837D01*
X199161362Y-76439373D01*
X199022060Y-76346295D01*
X198867282Y-76282184D01*
X198867274Y-76282182D01*
X198702971Y-76249500D01*
X198702967Y-76249500D01*
X198535433Y-76249500D01*
X198535428Y-76249500D01*
X198371125Y-76282181D01*
X198371121Y-76282183D01*
X198371119Y-76282183D01*
X198371118Y-76282184D01*
X198352514Y-76289890D01*
X198329615Y-76299375D01*
X198260145Y-76306842D01*
X198197667Y-76275567D01*
X198194483Y-76272494D01*
X198161362Y-76239373D01*
X198022060Y-76146295D01*
X197867282Y-76082184D01*
X197867274Y-76082182D01*
X197702971Y-76049500D01*
X197702967Y-76049500D01*
X197535433Y-76049500D01*
X197535428Y-76049500D01*
X197371125Y-76082182D01*
X197371117Y-76082184D01*
X197216339Y-76146295D01*
X197077037Y-76239373D01*
X197077034Y-76239376D01*
X196966732Y-76349679D01*
X196905409Y-76383164D01*
X196854501Y-76381135D01*
X196854057Y-76383372D01*
X196683771Y-76349500D01*
X196683767Y-76349500D01*
X196516233Y-76349500D01*
X196516228Y-76349500D01*
X196351925Y-76382182D01*
X196351917Y-76382184D01*
X196197139Y-76446295D01*
X196057837Y-76539373D01*
X195939373Y-76657837D01*
X195846295Y-76797139D01*
X195782184Y-76951917D01*
X195782182Y-76951925D01*
X195749500Y-77116228D01*
X171358923Y-77116228D01*
X171404216Y-77006882D01*
X171436900Y-76842567D01*
X171436900Y-76675033D01*
X171404216Y-76510718D01*
X171350974Y-76382182D01*
X171340104Y-76355939D01*
X171337739Y-76352400D01*
X171290821Y-76282181D01*
X171247026Y-76216637D01*
X171128562Y-76098173D01*
X170989260Y-76005095D01*
X170834482Y-75940984D01*
X170834474Y-75940982D01*
X170670171Y-75908300D01*
X170670167Y-75908300D01*
X170502633Y-75908300D01*
X170502628Y-75908300D01*
X170338325Y-75940982D01*
X170338317Y-75940984D01*
X170183539Y-76005095D01*
X170044237Y-76098173D01*
X169925773Y-76216637D01*
X169832695Y-76355939D01*
X169768584Y-76510717D01*
X169768582Y-76510725D01*
X169735900Y-76675028D01*
X156655199Y-76675028D01*
X156655199Y-75524228D01*
X156648791Y-75464617D01*
X156632190Y-75420108D01*
X156598497Y-75329771D01*
X156598493Y-75329764D01*
X156512247Y-75214555D01*
X156512244Y-75214552D01*
X156397035Y-75128306D01*
X156397028Y-75128302D01*
X156262182Y-75078008D01*
X156262183Y-75078008D01*
X156202583Y-75071601D01*
X156202581Y-75071600D01*
X156202573Y-75071600D01*
X156202564Y-75071600D01*
X153631829Y-75071600D01*
X153631823Y-75071601D01*
X153572216Y-75078008D01*
X153437371Y-75128302D01*
X153437364Y-75128306D01*
X153322155Y-75214552D01*
X153322152Y-75214555D01*
X153235906Y-75329764D01*
X153235902Y-75329771D01*
X153185608Y-75464617D01*
X153179201Y-75524216D01*
X153179201Y-75524223D01*
X153179200Y-75524235D01*
X151489739Y-75524235D01*
X151465607Y-75500103D01*
X151465600Y-75500097D01*
X151284852Y-75361404D01*
X151087550Y-75247492D01*
X151087535Y-75247485D01*
X150877060Y-75160304D01*
X150852428Y-75153704D01*
X150656994Y-75101338D01*
X150619243Y-75096367D01*
X150431122Y-75071600D01*
X150431115Y-75071600D01*
X150203285Y-75071600D01*
X150203277Y-75071600D01*
X149988281Y-75099906D01*
X149977406Y-75101338D01*
X149884390Y-75126261D01*
X149757339Y-75160304D01*
X149546864Y-75247485D01*
X149546849Y-75247492D01*
X149349547Y-75361404D01*
X149168799Y-75500097D01*
X149168792Y-75500103D01*
X149007703Y-75661192D01*
X149007697Y-75661199D01*
X148869004Y-75841947D01*
X148755092Y-76039249D01*
X148755085Y-76039264D01*
X148667904Y-76249739D01*
X148653418Y-76303802D01*
X148610792Y-76462889D01*
X148608939Y-76469803D01*
X148608937Y-76469814D01*
X148579200Y-76695677D01*
X132045440Y-76695677D01*
X132045440Y-74316228D01*
X187749500Y-74316228D01*
X187749500Y-74483771D01*
X187782182Y-74648074D01*
X187782184Y-74648082D01*
X187846295Y-74802860D01*
X187939373Y-74942162D01*
X188057837Y-75060626D01*
X188118769Y-75101339D01*
X188197137Y-75153703D01*
X188351918Y-75217816D01*
X188501106Y-75247491D01*
X188516228Y-75250499D01*
X188516232Y-75250500D01*
X188516233Y-75250500D01*
X188683768Y-75250500D01*
X188683769Y-75250499D01*
X188848082Y-75217816D01*
X189002863Y-75153703D01*
X189142162Y-75060626D01*
X189260626Y-74942162D01*
X189353703Y-74802863D01*
X189417816Y-74648082D01*
X189450500Y-74483767D01*
X189450500Y-74316233D01*
X189417816Y-74151918D01*
X189353703Y-73997137D01*
X189304089Y-73922884D01*
X189260626Y-73857837D01*
X189142162Y-73739373D01*
X189002860Y-73646295D01*
X188848082Y-73582184D01*
X188848074Y-73582182D01*
X188683771Y-73549500D01*
X188683767Y-73549500D01*
X188516233Y-73549500D01*
X188516228Y-73549500D01*
X188351925Y-73582182D01*
X188351917Y-73582184D01*
X188197139Y-73646295D01*
X188057837Y-73739373D01*
X187939373Y-73857837D01*
X187846295Y-73997139D01*
X187782184Y-74151917D01*
X187782182Y-74151925D01*
X187749500Y-74316228D01*
X132045440Y-74316228D01*
X132045440Y-73116228D01*
X193949500Y-73116228D01*
X193949500Y-73283771D01*
X193982182Y-73448074D01*
X193982184Y-73448082D01*
X194046295Y-73602860D01*
X194139373Y-73742162D01*
X194257837Y-73860626D01*
X194350494Y-73922537D01*
X194397137Y-73953703D01*
X194551918Y-74017816D01*
X194716228Y-74050499D01*
X194716232Y-74050500D01*
X194716233Y-74050500D01*
X194883768Y-74050500D01*
X194883769Y-74050499D01*
X195048082Y-74017816D01*
X195202863Y-73953703D01*
X195342162Y-73860626D01*
X195460626Y-73742162D01*
X195553703Y-73602863D01*
X195617816Y-73448082D01*
X195650500Y-73283767D01*
X195650500Y-73116233D01*
X195617816Y-72951918D01*
X195553703Y-72797137D01*
X195522537Y-72750494D01*
X195460626Y-72657837D01*
X195342165Y-72539376D01*
X195342160Y-72539372D01*
X195337580Y-72536312D01*
X195337578Y-72536311D01*
X195202860Y-72446295D01*
X195183015Y-72438075D01*
X208884900Y-72438075D01*
X208884900Y-72646724D01*
X208917537Y-72852789D01*
X208982012Y-73051220D01*
X209076596Y-73236851D01*
X209076730Y-73237114D01*
X209199365Y-73405905D01*
X209346895Y-73553435D01*
X209515686Y-73676070D01*
X209562671Y-73700010D01*
X209566410Y-73701915D01*
X209617206Y-73749890D01*
X209634001Y-73817710D01*
X209611464Y-73883845D01*
X209566410Y-73922885D01*
X209515685Y-73948730D01*
X209346893Y-74071366D01*
X209199366Y-74218893D01*
X209076730Y-74387685D01*
X208982012Y-74573579D01*
X208917537Y-74772010D01*
X208884900Y-74978075D01*
X208884900Y-75186724D01*
X208917537Y-75392789D01*
X208982012Y-75591220D01*
X209076596Y-75776851D01*
X209076730Y-75777114D01*
X209199365Y-75945905D01*
X209346895Y-76093435D01*
X209515686Y-76216070D01*
X209533038Y-76224911D01*
X209566410Y-76241915D01*
X209617206Y-76289890D01*
X209634001Y-76357710D01*
X209611464Y-76423845D01*
X209566410Y-76462885D01*
X209515685Y-76488730D01*
X209346893Y-76611366D01*
X209346892Y-76611367D01*
X209199371Y-76758889D01*
X209199366Y-76758893D01*
X209076730Y-76927685D01*
X208982012Y-77113579D01*
X208917537Y-77312010D01*
X208884900Y-77518075D01*
X208884900Y-77726724D01*
X208917537Y-77932789D01*
X208982012Y-78131220D01*
X209062623Y-78289428D01*
X209076730Y-78317114D01*
X209199365Y-78485905D01*
X209346895Y-78633435D01*
X209515686Y-78756070D01*
X209603516Y-78800821D01*
X209701579Y-78850787D01*
X209701581Y-78850787D01*
X209701584Y-78850789D01*
X209807945Y-78885348D01*
X209900010Y-78915262D01*
X210106076Y-78947900D01*
X210106081Y-78947900D01*
X210314724Y-78947900D01*
X210520789Y-78915262D01*
X210719216Y-78850789D01*
X210905114Y-78756070D01*
X211073905Y-78633435D01*
X211221432Y-78485907D01*
X211282752Y-78452425D01*
X211352443Y-78457409D01*
X211408377Y-78499280D01*
X211427483Y-78547825D01*
X211430018Y-78547227D01*
X211431801Y-78554775D01*
X211440677Y-78578570D01*
X212226612Y-77792635D01*
X212237882Y-77834692D01*
X212310290Y-77960108D01*
X212412692Y-78062510D01*
X212538108Y-78134918D01*
X212580164Y-78146187D01*
X211794229Y-78932120D01*
X211794229Y-78932122D01*
X211818022Y-78940997D01*
X211818023Y-78940998D01*
X211877555Y-78947399D01*
X211877572Y-78947400D01*
X213623228Y-78947400D01*
X213623244Y-78947399D01*
X213682772Y-78940998D01*
X213706569Y-78932121D01*
X212920635Y-78146187D01*
X212962692Y-78134918D01*
X213088108Y-78062510D01*
X213190510Y-77960108D01*
X213262918Y-77834692D01*
X213274187Y-77792635D01*
X214060121Y-78578569D01*
X214068998Y-78554772D01*
X214075399Y-78495244D01*
X214075400Y-78495227D01*
X214075400Y-76749572D01*
X214075399Y-76749555D01*
X214068998Y-76690023D01*
X214068997Y-76690022D01*
X214060122Y-76666229D01*
X214060120Y-76666229D01*
X213274186Y-77452163D01*
X213262918Y-77410108D01*
X213190510Y-77284692D01*
X213088108Y-77182290D01*
X212962692Y-77109882D01*
X212920635Y-77098612D01*
X213706570Y-76312677D01*
X213706570Y-76312676D01*
X213682775Y-76303801D01*
X213623244Y-76297400D01*
X213619103Y-76297400D01*
X213552064Y-76277715D01*
X213506309Y-76224911D01*
X213499213Y-76184766D01*
X212920634Y-75606187D01*
X212962692Y-75594918D01*
X213088108Y-75522510D01*
X213190510Y-75420108D01*
X213262918Y-75294692D01*
X213274187Y-75252634D01*
X213847771Y-75826218D01*
X213847772Y-75826218D01*
X213883640Y-75776851D01*
X213978324Y-75591027D01*
X214042773Y-75392672D01*
X214075400Y-75186679D01*
X214075400Y-74978120D01*
X214042773Y-74772127D01*
X213978324Y-74573772D01*
X213883644Y-74387956D01*
X213883636Y-74387943D01*
X213847772Y-74338580D01*
X213847771Y-74338579D01*
X213274187Y-74912164D01*
X213262918Y-74870108D01*
X213190510Y-74744692D01*
X213088108Y-74642290D01*
X212962692Y-74569882D01*
X212920633Y-74558612D01*
X213494219Y-73985027D01*
X213444851Y-73949159D01*
X213393285Y-73922885D01*
X213342489Y-73874911D01*
X213325694Y-73807090D01*
X213348231Y-73740955D01*
X213393285Y-73701915D01*
X213444851Y-73675640D01*
X213494218Y-73639772D01*
X213494218Y-73639771D01*
X212920634Y-73066187D01*
X212962692Y-73054918D01*
X213088108Y-72982510D01*
X213190510Y-72880108D01*
X213262918Y-72754692D01*
X213274187Y-72712634D01*
X213847771Y-73286218D01*
X213847772Y-73286218D01*
X213883640Y-73236851D01*
X213978324Y-73051027D01*
X214042773Y-72852672D01*
X214075400Y-72646679D01*
X214075400Y-72438120D01*
X214042773Y-72232127D01*
X213978324Y-72033772D01*
X213883644Y-71847956D01*
X213883636Y-71847943D01*
X213847772Y-71798580D01*
X213847771Y-71798579D01*
X213274187Y-72372164D01*
X213262918Y-72330108D01*
X213190510Y-72204692D01*
X213088108Y-72102290D01*
X212962692Y-72029882D01*
X212920633Y-72018612D01*
X213494219Y-71445027D01*
X213444851Y-71409159D01*
X213259027Y-71314475D01*
X213060672Y-71250026D01*
X212854679Y-71217400D01*
X212646121Y-71217400D01*
X212440127Y-71250026D01*
X212241772Y-71314475D01*
X212055952Y-71409157D01*
X212006580Y-71445027D01*
X212580166Y-72018612D01*
X212538108Y-72029882D01*
X212412692Y-72102290D01*
X212310290Y-72204692D01*
X212237882Y-72330108D01*
X212226612Y-72372165D01*
X211653027Y-71798580D01*
X211617155Y-71847955D01*
X211591165Y-71898963D01*
X211543190Y-71949758D01*
X211475369Y-71966553D01*
X211409234Y-71944015D01*
X211370196Y-71898961D01*
X211344071Y-71847687D01*
X211303191Y-71791422D01*
X211221435Y-71678895D01*
X211073905Y-71531365D01*
X210905114Y-71408730D01*
X210719220Y-71314012D01*
X210520789Y-71249537D01*
X210314724Y-71216900D01*
X210314719Y-71216900D01*
X210106081Y-71216900D01*
X210106076Y-71216900D01*
X209900010Y-71249537D01*
X209701579Y-71314012D01*
X209515685Y-71408730D01*
X209346893Y-71531366D01*
X209199366Y-71678893D01*
X209076730Y-71847685D01*
X208982012Y-72033579D01*
X208917537Y-72232010D01*
X208884900Y-72438075D01*
X195183015Y-72438075D01*
X195048082Y-72382184D01*
X195048074Y-72382182D01*
X194883771Y-72349500D01*
X194883767Y-72349500D01*
X194716233Y-72349500D01*
X194716228Y-72349500D01*
X194551925Y-72382182D01*
X194551917Y-72382184D01*
X194397139Y-72446295D01*
X194257837Y-72539373D01*
X194139373Y-72657837D01*
X194046295Y-72797139D01*
X193982184Y-72951917D01*
X193982182Y-72951925D01*
X193949500Y-73116228D01*
X132045440Y-73116228D01*
X132045440Y-71493428D01*
X163639900Y-71493428D01*
X163639900Y-71660971D01*
X163672582Y-71825274D01*
X163672584Y-71825282D01*
X163736695Y-71980060D01*
X163829773Y-72119362D01*
X163948237Y-72237826D01*
X164010932Y-72279717D01*
X164087537Y-72330903D01*
X164242318Y-72395016D01*
X164406628Y-72427699D01*
X164406632Y-72427700D01*
X164406633Y-72427700D01*
X164574168Y-72427700D01*
X164574169Y-72427699D01*
X164738482Y-72395016D01*
X164893263Y-72330903D01*
X165032562Y-72237826D01*
X165151026Y-72119362D01*
X165244103Y-71980063D01*
X165308216Y-71825282D01*
X165340900Y-71660967D01*
X165340900Y-71493433D01*
X165308216Y-71329118D01*
X165244103Y-71174337D01*
X165212937Y-71127694D01*
X165151026Y-71035037D01*
X165032562Y-70916573D01*
X164893260Y-70823495D01*
X164738482Y-70759384D01*
X164738474Y-70759382D01*
X164574171Y-70726700D01*
X164574167Y-70726700D01*
X164406633Y-70726700D01*
X164406628Y-70726700D01*
X164242325Y-70759382D01*
X164242317Y-70759384D01*
X164087539Y-70823495D01*
X163948237Y-70916573D01*
X163829773Y-71035037D01*
X163736695Y-71174339D01*
X163672584Y-71329117D01*
X163672582Y-71329125D01*
X163639900Y-71493428D01*
X132045440Y-71493428D01*
X132045440Y-68496228D01*
X173799900Y-68496228D01*
X173799900Y-68663771D01*
X173832582Y-68828074D01*
X173832584Y-68828082D01*
X173896695Y-68982860D01*
X173989773Y-69122162D01*
X174108237Y-69240626D01*
X174188324Y-69294138D01*
X174247537Y-69333703D01*
X174402318Y-69397816D01*
X174559836Y-69429148D01*
X174566628Y-69430499D01*
X174566632Y-69430500D01*
X174566633Y-69430500D01*
X174734168Y-69430500D01*
X174734169Y-69430499D01*
X174898482Y-69397816D01*
X175053263Y-69333703D01*
X175192562Y-69240626D01*
X175192565Y-69240623D01*
X175299319Y-69133870D01*
X175360642Y-69100385D01*
X175430334Y-69105369D01*
X175474681Y-69133870D01*
X175581437Y-69240626D01*
X175661524Y-69294138D01*
X175720737Y-69333703D01*
X175875518Y-69397816D01*
X175886013Y-69399903D01*
X175947924Y-69432286D01*
X175982500Y-69493001D01*
X175980973Y-69545465D01*
X175983372Y-69545943D01*
X175949500Y-69716228D01*
X175949500Y-69883772D01*
X175949894Y-69887777D01*
X175949500Y-69889853D01*
X175949500Y-69889859D01*
X175949499Y-69889859D01*
X175936869Y-69956422D01*
X175888799Y-70007128D01*
X175873945Y-70014480D01*
X175797140Y-70046295D01*
X175797139Y-70046295D01*
X175657837Y-70139373D01*
X175539376Y-70257834D01*
X175539371Y-70257840D01*
X175511665Y-70299305D01*
X175458052Y-70344110D01*
X175388727Y-70352816D01*
X175325700Y-70322660D01*
X175320883Y-70318094D01*
X175251162Y-70248373D01*
X175111860Y-70155295D01*
X174957082Y-70091184D01*
X174957074Y-70091182D01*
X174792771Y-70058500D01*
X174792767Y-70058500D01*
X174625233Y-70058500D01*
X174625228Y-70058500D01*
X174460925Y-70091182D01*
X174460917Y-70091184D01*
X174306139Y-70155295D01*
X174166837Y-70248373D01*
X174048373Y-70366837D01*
X173955295Y-70506139D01*
X173891184Y-70660917D01*
X173891182Y-70660925D01*
X173858500Y-70825228D01*
X173858500Y-70992771D01*
X173891182Y-71157074D01*
X173891184Y-71157082D01*
X173955295Y-71311860D01*
X174048373Y-71451162D01*
X174166837Y-71569626D01*
X174259494Y-71631537D01*
X174306137Y-71662703D01*
X174460918Y-71726816D01*
X174625228Y-71759499D01*
X174625232Y-71759500D01*
X174625233Y-71759500D01*
X174792768Y-71759500D01*
X174792769Y-71759499D01*
X174957082Y-71726816D01*
X175111863Y-71662703D01*
X175251162Y-71569626D01*
X175369626Y-71451162D01*
X175397333Y-71409694D01*
X175450944Y-71364891D01*
X175520269Y-71356182D01*
X175583297Y-71386337D01*
X175588116Y-71390905D01*
X175657837Y-71460626D01*
X175750494Y-71522537D01*
X175797137Y-71553703D01*
X175951918Y-71617816D01*
X176116228Y-71650499D01*
X176116232Y-71650500D01*
X176116233Y-71650500D01*
X176283768Y-71650500D01*
X176283769Y-71650499D01*
X176448082Y-71617816D01*
X176602863Y-71553703D01*
X176742162Y-71460626D01*
X176824660Y-71378128D01*
X186149500Y-71378128D01*
X186149500Y-71545671D01*
X186182182Y-71709974D01*
X186182184Y-71709982D01*
X186246295Y-71864760D01*
X186339373Y-72004062D01*
X186457837Y-72122526D01*
X186550494Y-72184437D01*
X186597137Y-72215603D01*
X186751918Y-72279716D01*
X186916228Y-72312399D01*
X186916232Y-72312400D01*
X186916233Y-72312400D01*
X187083768Y-72312400D01*
X187083769Y-72312399D01*
X187248082Y-72279716D01*
X187402863Y-72215603D01*
X187542162Y-72122526D01*
X187660626Y-72004062D01*
X187753703Y-71864763D01*
X187817816Y-71709982D01*
X187850500Y-71545667D01*
X187850500Y-71378133D01*
X187817816Y-71213818D01*
X187753703Y-71059037D01*
X187709423Y-70992767D01*
X187660626Y-70919737D01*
X187542162Y-70801273D01*
X187402860Y-70708195D01*
X187248082Y-70644084D01*
X187248074Y-70644082D01*
X187083771Y-70611400D01*
X187083767Y-70611400D01*
X186916233Y-70611400D01*
X186916228Y-70611400D01*
X186751925Y-70644082D01*
X186751917Y-70644084D01*
X186597139Y-70708195D01*
X186457837Y-70801273D01*
X186339373Y-70919737D01*
X186246295Y-71059039D01*
X186182184Y-71213817D01*
X186182182Y-71213825D01*
X186149500Y-71378128D01*
X176824660Y-71378128D01*
X176860626Y-71342162D01*
X176953703Y-71202863D01*
X177017816Y-71048082D01*
X177050500Y-70883767D01*
X177050500Y-70716233D01*
X177050500Y-70716231D01*
X177050106Y-70712231D01*
X177050500Y-70710153D01*
X177050500Y-70710141D01*
X177050502Y-70710141D01*
X177063126Y-70643585D01*
X177111191Y-70592875D01*
X177126052Y-70585519D01*
X177202863Y-70553703D01*
X177342162Y-70460626D01*
X177460626Y-70342162D01*
X177553703Y-70202863D01*
X177617816Y-70048082D01*
X177650500Y-69883767D01*
X177650500Y-69752528D01*
X193949500Y-69752528D01*
X193949500Y-69920071D01*
X193982182Y-70084374D01*
X193982184Y-70084382D01*
X194046295Y-70239160D01*
X194139373Y-70378462D01*
X194257837Y-70496926D01*
X194342810Y-70553703D01*
X194397137Y-70590003D01*
X194397138Y-70590003D01*
X194397139Y-70590004D01*
X194432201Y-70604527D01*
X194551918Y-70654116D01*
X194716228Y-70686799D01*
X194716232Y-70686800D01*
X194716233Y-70686800D01*
X194883768Y-70686800D01*
X194883769Y-70686799D01*
X195048082Y-70654116D01*
X195202863Y-70590003D01*
X195342162Y-70496926D01*
X195460626Y-70378462D01*
X195553703Y-70239163D01*
X195617816Y-70084382D01*
X195650500Y-69920067D01*
X195650500Y-69752533D01*
X195617816Y-69588218D01*
X195553703Y-69433437D01*
X195522537Y-69386794D01*
X195460626Y-69294137D01*
X195342162Y-69175673D01*
X195202860Y-69082595D01*
X195048082Y-69018484D01*
X195048074Y-69018482D01*
X194883771Y-68985800D01*
X194883767Y-68985800D01*
X194716233Y-68985800D01*
X194716228Y-68985800D01*
X194551925Y-69018482D01*
X194551917Y-69018484D01*
X194397139Y-69082595D01*
X194257837Y-69175673D01*
X194139373Y-69294137D01*
X194046295Y-69433439D01*
X193982184Y-69588217D01*
X193982182Y-69588225D01*
X193949500Y-69752528D01*
X177650500Y-69752528D01*
X177650500Y-69716233D01*
X177617816Y-69551918D01*
X177553703Y-69397137D01*
X177484881Y-69294138D01*
X177460626Y-69257837D01*
X177342162Y-69139373D01*
X177202860Y-69046295D01*
X177048082Y-68982184D01*
X177048077Y-68982182D01*
X177037582Y-68980095D01*
X176975671Y-68947709D01*
X176941098Y-68886992D01*
X176942760Y-68834560D01*
X176940228Y-68834057D01*
X176974099Y-68663771D01*
X176974100Y-68663768D01*
X176974100Y-68496232D01*
X176974099Y-68496228D01*
X176941417Y-68331925D01*
X176941416Y-68331918D01*
X176877303Y-68177137D01*
X176795447Y-68054631D01*
X176784226Y-68037837D01*
X176665762Y-67919373D01*
X176526460Y-67826295D01*
X176371682Y-67762184D01*
X176371674Y-67762182D01*
X176207371Y-67729500D01*
X176207367Y-67729500D01*
X176039833Y-67729500D01*
X176039828Y-67729500D01*
X175875525Y-67762182D01*
X175875517Y-67762184D01*
X175720739Y-67826295D01*
X175581437Y-67919373D01*
X175581434Y-67919376D01*
X175474681Y-68026130D01*
X175413358Y-68059615D01*
X175343666Y-68054631D01*
X175299319Y-68026130D01*
X175192562Y-67919373D01*
X175053260Y-67826295D01*
X174898482Y-67762184D01*
X174898474Y-67762182D01*
X174734171Y-67729500D01*
X174734167Y-67729500D01*
X174566633Y-67729500D01*
X174566628Y-67729500D01*
X174402325Y-67762182D01*
X174402317Y-67762184D01*
X174247539Y-67826295D01*
X174108237Y-67919373D01*
X173989773Y-68037837D01*
X173896695Y-68177139D01*
X173832584Y-68331917D01*
X173832582Y-68331925D01*
X173799900Y-68496228D01*
X132045440Y-68496228D01*
X132045440Y-64152666D01*
X132065125Y-64085627D01*
X132117929Y-64039872D01*
X132169440Y-64028666D01*
X219601500Y-64028666D01*
X219668539Y-64048351D01*
G37*
%TD.AperFunction*%
%TD*%
M02*
