%TF.GenerationSoftware,KiCad,Pcbnew,9.0.6*%
%TF.CreationDate,2026-02-22T09:47:55+01:00*%
%TF.ProjectId,iCE40UP5K_logic_analyzer,69434534-3055-4503-954b-5f6c6f676963,rev?*%
%TF.SameCoordinates,Original*%
%TF.FileFunction,Legend,Bot*%
%TF.FilePolarity,Positive*%
%FSLAX46Y46*%
G04 Gerber Fmt 4.6, Leading zero omitted, Abs format (unit mm)*
G04 Created by KiCad (PCBNEW 9.0.6) date 2026-02-22 09:47:55*
%MOMM*%
%LPD*%
G01*
G04 APERTURE LIST*
%ADD10C,0.160000*%
G04 APERTURE END LIST*
D10*
X181180451Y-86429523D02*
X181656641Y-86429523D01*
X181656641Y-86429523D02*
X181656641Y-85429523D01*
X180704260Y-86429523D02*
X180799498Y-86381904D01*
X180799498Y-86381904D02*
X180847117Y-86334284D01*
X180847117Y-86334284D02*
X180894736Y-86239046D01*
X180894736Y-86239046D02*
X180894736Y-85953332D01*
X180894736Y-85953332D02*
X180847117Y-85858094D01*
X180847117Y-85858094D02*
X180799498Y-85810475D01*
X180799498Y-85810475D02*
X180704260Y-85762856D01*
X180704260Y-85762856D02*
X180561403Y-85762856D01*
X180561403Y-85762856D02*
X180466165Y-85810475D01*
X180466165Y-85810475D02*
X180418546Y-85858094D01*
X180418546Y-85858094D02*
X180370927Y-85953332D01*
X180370927Y-85953332D02*
X180370927Y-86239046D01*
X180370927Y-86239046D02*
X180418546Y-86334284D01*
X180418546Y-86334284D02*
X180466165Y-86381904D01*
X180466165Y-86381904D02*
X180561403Y-86429523D01*
X180561403Y-86429523D02*
X180704260Y-86429523D01*
X179513784Y-85762856D02*
X179513784Y-86572380D01*
X179513784Y-86572380D02*
X179561403Y-86667618D01*
X179561403Y-86667618D02*
X179609022Y-86715237D01*
X179609022Y-86715237D02*
X179704260Y-86762856D01*
X179704260Y-86762856D02*
X179847117Y-86762856D01*
X179847117Y-86762856D02*
X179942355Y-86715237D01*
X179513784Y-86381904D02*
X179609022Y-86429523D01*
X179609022Y-86429523D02*
X179799498Y-86429523D01*
X179799498Y-86429523D02*
X179894736Y-86381904D01*
X179894736Y-86381904D02*
X179942355Y-86334284D01*
X179942355Y-86334284D02*
X179989974Y-86239046D01*
X179989974Y-86239046D02*
X179989974Y-85953332D01*
X179989974Y-85953332D02*
X179942355Y-85858094D01*
X179942355Y-85858094D02*
X179894736Y-85810475D01*
X179894736Y-85810475D02*
X179799498Y-85762856D01*
X179799498Y-85762856D02*
X179609022Y-85762856D01*
X179609022Y-85762856D02*
X179513784Y-85810475D01*
X179037593Y-86429523D02*
X179037593Y-85762856D01*
X179037593Y-85429523D02*
X179085212Y-85477142D01*
X179085212Y-85477142D02*
X179037593Y-85524761D01*
X179037593Y-85524761D02*
X178989974Y-85477142D01*
X178989974Y-85477142D02*
X179037593Y-85429523D01*
X179037593Y-85429523D02*
X179037593Y-85524761D01*
X178132832Y-86381904D02*
X178228070Y-86429523D01*
X178228070Y-86429523D02*
X178418546Y-86429523D01*
X178418546Y-86429523D02*
X178513784Y-86381904D01*
X178513784Y-86381904D02*
X178561403Y-86334284D01*
X178561403Y-86334284D02*
X178609022Y-86239046D01*
X178609022Y-86239046D02*
X178609022Y-85953332D01*
X178609022Y-85953332D02*
X178561403Y-85858094D01*
X178561403Y-85858094D02*
X178513784Y-85810475D01*
X178513784Y-85810475D02*
X178418546Y-85762856D01*
X178418546Y-85762856D02*
X178228070Y-85762856D01*
X178228070Y-85762856D02*
X178132832Y-85810475D01*
X176989974Y-86143808D02*
X176513784Y-86143808D01*
X177085212Y-86429523D02*
X176751879Y-85429523D01*
X176751879Y-85429523D02*
X176418546Y-86429523D01*
X176085212Y-85762856D02*
X176085212Y-86429523D01*
X176085212Y-85858094D02*
X176037593Y-85810475D01*
X176037593Y-85810475D02*
X175942355Y-85762856D01*
X175942355Y-85762856D02*
X175799498Y-85762856D01*
X175799498Y-85762856D02*
X175704260Y-85810475D01*
X175704260Y-85810475D02*
X175656641Y-85905713D01*
X175656641Y-85905713D02*
X175656641Y-86429523D01*
X174751879Y-86429523D02*
X174751879Y-85905713D01*
X174751879Y-85905713D02*
X174799498Y-85810475D01*
X174799498Y-85810475D02*
X174894736Y-85762856D01*
X174894736Y-85762856D02*
X175085212Y-85762856D01*
X175085212Y-85762856D02*
X175180450Y-85810475D01*
X174751879Y-86381904D02*
X174847117Y-86429523D01*
X174847117Y-86429523D02*
X175085212Y-86429523D01*
X175085212Y-86429523D02*
X175180450Y-86381904D01*
X175180450Y-86381904D02*
X175228069Y-86286665D01*
X175228069Y-86286665D02*
X175228069Y-86191427D01*
X175228069Y-86191427D02*
X175180450Y-86096189D01*
X175180450Y-86096189D02*
X175085212Y-86048570D01*
X175085212Y-86048570D02*
X174847117Y-86048570D01*
X174847117Y-86048570D02*
X174751879Y-86000951D01*
X174132831Y-86429523D02*
X174228069Y-86381904D01*
X174228069Y-86381904D02*
X174275688Y-86286665D01*
X174275688Y-86286665D02*
X174275688Y-85429523D01*
X173847116Y-85762856D02*
X173609021Y-86429523D01*
X173370926Y-85762856D02*
X173609021Y-86429523D01*
X173609021Y-86429523D02*
X173704259Y-86667618D01*
X173704259Y-86667618D02*
X173751878Y-86715237D01*
X173751878Y-86715237D02*
X173847116Y-86762856D01*
X173085211Y-85762856D02*
X172561402Y-85762856D01*
X172561402Y-85762856D02*
X173085211Y-86429523D01*
X173085211Y-86429523D02*
X172561402Y-86429523D01*
X171799497Y-86381904D02*
X171894735Y-86429523D01*
X171894735Y-86429523D02*
X172085211Y-86429523D01*
X172085211Y-86429523D02*
X172180449Y-86381904D01*
X172180449Y-86381904D02*
X172228068Y-86286665D01*
X172228068Y-86286665D02*
X172228068Y-85905713D01*
X172228068Y-85905713D02*
X172180449Y-85810475D01*
X172180449Y-85810475D02*
X172085211Y-85762856D01*
X172085211Y-85762856D02*
X171894735Y-85762856D01*
X171894735Y-85762856D02*
X171799497Y-85810475D01*
X171799497Y-85810475D02*
X171751878Y-85905713D01*
X171751878Y-85905713D02*
X171751878Y-86000951D01*
X171751878Y-86000951D02*
X172228068Y-86096189D01*
X171323306Y-86429523D02*
X171323306Y-85762856D01*
X171323306Y-85953332D02*
X171275687Y-85858094D01*
X171275687Y-85858094D02*
X171228068Y-85810475D01*
X171228068Y-85810475D02*
X171132830Y-85762856D01*
X171132830Y-85762856D02*
X171037592Y-85762856D01*
X181656641Y-88039467D02*
X181656641Y-87372800D01*
X181656641Y-87039467D02*
X181704260Y-87087086D01*
X181704260Y-87087086D02*
X181656641Y-87134705D01*
X181656641Y-87134705D02*
X181609022Y-87087086D01*
X181609022Y-87087086D02*
X181656641Y-87039467D01*
X181656641Y-87039467D02*
X181656641Y-87134705D01*
X180609023Y-87944228D02*
X180656642Y-87991848D01*
X180656642Y-87991848D02*
X180799499Y-88039467D01*
X180799499Y-88039467D02*
X180894737Y-88039467D01*
X180894737Y-88039467D02*
X181037594Y-87991848D01*
X181037594Y-87991848D02*
X181132832Y-87896609D01*
X181132832Y-87896609D02*
X181180451Y-87801371D01*
X181180451Y-87801371D02*
X181228070Y-87610895D01*
X181228070Y-87610895D02*
X181228070Y-87468038D01*
X181228070Y-87468038D02*
X181180451Y-87277562D01*
X181180451Y-87277562D02*
X181132832Y-87182324D01*
X181132832Y-87182324D02*
X181037594Y-87087086D01*
X181037594Y-87087086D02*
X180894737Y-87039467D01*
X180894737Y-87039467D02*
X180799499Y-87039467D01*
X180799499Y-87039467D02*
X180656642Y-87087086D01*
X180656642Y-87087086D02*
X180609023Y-87134705D01*
X180180451Y-87515657D02*
X179847118Y-87515657D01*
X179704261Y-88039467D02*
X180180451Y-88039467D01*
X180180451Y-88039467D02*
X180180451Y-87039467D01*
X180180451Y-87039467D02*
X179704261Y-87039467D01*
X178847118Y-87372800D02*
X178847118Y-88039467D01*
X179085213Y-86991848D02*
X179323308Y-87706133D01*
X179323308Y-87706133D02*
X178704261Y-87706133D01*
X178132832Y-87039467D02*
X178037594Y-87039467D01*
X178037594Y-87039467D02*
X177942356Y-87087086D01*
X177942356Y-87087086D02*
X177894737Y-87134705D01*
X177894737Y-87134705D02*
X177847118Y-87229943D01*
X177847118Y-87229943D02*
X177799499Y-87420419D01*
X177799499Y-87420419D02*
X177799499Y-87658514D01*
X177799499Y-87658514D02*
X177847118Y-87848990D01*
X177847118Y-87848990D02*
X177894737Y-87944228D01*
X177894737Y-87944228D02*
X177942356Y-87991848D01*
X177942356Y-87991848D02*
X178037594Y-88039467D01*
X178037594Y-88039467D02*
X178132832Y-88039467D01*
X178132832Y-88039467D02*
X178228070Y-87991848D01*
X178228070Y-87991848D02*
X178275689Y-87944228D01*
X178275689Y-87944228D02*
X178323308Y-87848990D01*
X178323308Y-87848990D02*
X178370927Y-87658514D01*
X178370927Y-87658514D02*
X178370927Y-87420419D01*
X178370927Y-87420419D02*
X178323308Y-87229943D01*
X178323308Y-87229943D02*
X178275689Y-87134705D01*
X178275689Y-87134705D02*
X178228070Y-87087086D01*
X178228070Y-87087086D02*
X178132832Y-87039467D01*
X176609022Y-87039467D02*
X176609022Y-87848990D01*
X176609022Y-87848990D02*
X176561403Y-87944228D01*
X176561403Y-87944228D02*
X176513784Y-87991848D01*
X176513784Y-87991848D02*
X176418546Y-88039467D01*
X176418546Y-88039467D02*
X176228070Y-88039467D01*
X176228070Y-88039467D02*
X176132832Y-87991848D01*
X176132832Y-87991848D02*
X176085213Y-87944228D01*
X176085213Y-87944228D02*
X176037594Y-87848990D01*
X176037594Y-87848990D02*
X176037594Y-87039467D01*
X175561403Y-88039467D02*
X175561403Y-87039467D01*
X175561403Y-87039467D02*
X175180451Y-87039467D01*
X175180451Y-87039467D02*
X175085213Y-87087086D01*
X175085213Y-87087086D02*
X175037594Y-87134705D01*
X175037594Y-87134705D02*
X174989975Y-87229943D01*
X174989975Y-87229943D02*
X174989975Y-87372800D01*
X174989975Y-87372800D02*
X175037594Y-87468038D01*
X175037594Y-87468038D02*
X175085213Y-87515657D01*
X175085213Y-87515657D02*
X175180451Y-87563276D01*
X175180451Y-87563276D02*
X175561403Y-87563276D01*
X174085213Y-87039467D02*
X174561403Y-87039467D01*
X174561403Y-87039467D02*
X174609022Y-87515657D01*
X174609022Y-87515657D02*
X174561403Y-87468038D01*
X174561403Y-87468038D02*
X174466165Y-87420419D01*
X174466165Y-87420419D02*
X174228070Y-87420419D01*
X174228070Y-87420419D02*
X174132832Y-87468038D01*
X174132832Y-87468038D02*
X174085213Y-87515657D01*
X174085213Y-87515657D02*
X174037594Y-87610895D01*
X174037594Y-87610895D02*
X174037594Y-87848990D01*
X174037594Y-87848990D02*
X174085213Y-87944228D01*
X174085213Y-87944228D02*
X174132832Y-87991848D01*
X174132832Y-87991848D02*
X174228070Y-88039467D01*
X174228070Y-88039467D02*
X174466165Y-88039467D01*
X174466165Y-88039467D02*
X174561403Y-87991848D01*
X174561403Y-87991848D02*
X174609022Y-87944228D01*
X173609022Y-88039467D02*
X173609022Y-87039467D01*
X173037594Y-88039467D02*
X173466165Y-87468038D01*
X173037594Y-87039467D02*
X173609022Y-87610895D01*
X181799498Y-88649411D02*
X181466165Y-89649411D01*
X181466165Y-89649411D02*
X181132832Y-88649411D01*
X180418546Y-89601792D02*
X180513784Y-89649411D01*
X180513784Y-89649411D02*
X180704260Y-89649411D01*
X180704260Y-89649411D02*
X180799498Y-89601792D01*
X180799498Y-89601792D02*
X180847117Y-89506553D01*
X180847117Y-89506553D02*
X180847117Y-89125601D01*
X180847117Y-89125601D02*
X180799498Y-89030363D01*
X180799498Y-89030363D02*
X180704260Y-88982744D01*
X180704260Y-88982744D02*
X180513784Y-88982744D01*
X180513784Y-88982744D02*
X180418546Y-89030363D01*
X180418546Y-89030363D02*
X180370927Y-89125601D01*
X180370927Y-89125601D02*
X180370927Y-89220839D01*
X180370927Y-89220839D02*
X180847117Y-89316077D01*
X179942355Y-89649411D02*
X179942355Y-88982744D01*
X179942355Y-89173220D02*
X179894736Y-89077982D01*
X179894736Y-89077982D02*
X179847117Y-89030363D01*
X179847117Y-89030363D02*
X179751879Y-88982744D01*
X179751879Y-88982744D02*
X179656641Y-88982744D01*
X179370926Y-89601792D02*
X179275688Y-89649411D01*
X179275688Y-89649411D02*
X179085212Y-89649411D01*
X179085212Y-89649411D02*
X178989974Y-89601792D01*
X178989974Y-89601792D02*
X178942355Y-89506553D01*
X178942355Y-89506553D02*
X178942355Y-89458934D01*
X178942355Y-89458934D02*
X178989974Y-89363696D01*
X178989974Y-89363696D02*
X179085212Y-89316077D01*
X179085212Y-89316077D02*
X179228069Y-89316077D01*
X179228069Y-89316077D02*
X179323307Y-89268458D01*
X179323307Y-89268458D02*
X179370926Y-89173220D01*
X179370926Y-89173220D02*
X179370926Y-89125601D01*
X179370926Y-89125601D02*
X179323307Y-89030363D01*
X179323307Y-89030363D02*
X179228069Y-88982744D01*
X179228069Y-88982744D02*
X179085212Y-88982744D01*
X179085212Y-88982744D02*
X178989974Y-89030363D01*
X178513783Y-89649411D02*
X178513783Y-88982744D01*
X178513783Y-88649411D02*
X178561402Y-88697030D01*
X178561402Y-88697030D02*
X178513783Y-88744649D01*
X178513783Y-88744649D02*
X178466164Y-88697030D01*
X178466164Y-88697030D02*
X178513783Y-88649411D01*
X178513783Y-88649411D02*
X178513783Y-88744649D01*
X177894736Y-89649411D02*
X177989974Y-89601792D01*
X177989974Y-89601792D02*
X178037593Y-89554172D01*
X178037593Y-89554172D02*
X178085212Y-89458934D01*
X178085212Y-89458934D02*
X178085212Y-89173220D01*
X178085212Y-89173220D02*
X178037593Y-89077982D01*
X178037593Y-89077982D02*
X177989974Y-89030363D01*
X177989974Y-89030363D02*
X177894736Y-88982744D01*
X177894736Y-88982744D02*
X177751879Y-88982744D01*
X177751879Y-88982744D02*
X177656641Y-89030363D01*
X177656641Y-89030363D02*
X177609022Y-89077982D01*
X177609022Y-89077982D02*
X177561403Y-89173220D01*
X177561403Y-89173220D02*
X177561403Y-89458934D01*
X177561403Y-89458934D02*
X177609022Y-89554172D01*
X177609022Y-89554172D02*
X177656641Y-89601792D01*
X177656641Y-89601792D02*
X177751879Y-89649411D01*
X177751879Y-89649411D02*
X177894736Y-89649411D01*
X177132831Y-88982744D02*
X177132831Y-89649411D01*
X177132831Y-89077982D02*
X177085212Y-89030363D01*
X177085212Y-89030363D02*
X176989974Y-88982744D01*
X176989974Y-88982744D02*
X176847117Y-88982744D01*
X176847117Y-88982744D02*
X176751879Y-89030363D01*
X176751879Y-89030363D02*
X176704260Y-89125601D01*
X176704260Y-89125601D02*
X176704260Y-89649411D01*
X174942355Y-89649411D02*
X175513783Y-89649411D01*
X175228069Y-89649411D02*
X175228069Y-88649411D01*
X175228069Y-88649411D02*
X175323307Y-88792268D01*
X175323307Y-88792268D02*
X175418545Y-88887506D01*
X175418545Y-88887506D02*
X175513783Y-88935125D01*
X181704260Y-90354593D02*
X181656641Y-90306974D01*
X181656641Y-90306974D02*
X181561403Y-90259355D01*
X181561403Y-90259355D02*
X181323308Y-90259355D01*
X181323308Y-90259355D02*
X181228070Y-90306974D01*
X181228070Y-90306974D02*
X181180451Y-90354593D01*
X181180451Y-90354593D02*
X181132832Y-90449831D01*
X181132832Y-90449831D02*
X181132832Y-90545069D01*
X181132832Y-90545069D02*
X181180451Y-90687926D01*
X181180451Y-90687926D02*
X181751879Y-91259355D01*
X181751879Y-91259355D02*
X181132832Y-91259355D01*
X180751879Y-90354593D02*
X180704260Y-90306974D01*
X180704260Y-90306974D02*
X180609022Y-90259355D01*
X180609022Y-90259355D02*
X180370927Y-90259355D01*
X180370927Y-90259355D02*
X180275689Y-90306974D01*
X180275689Y-90306974D02*
X180228070Y-90354593D01*
X180228070Y-90354593D02*
X180180451Y-90449831D01*
X180180451Y-90449831D02*
X180180451Y-90545069D01*
X180180451Y-90545069D02*
X180228070Y-90687926D01*
X180228070Y-90687926D02*
X180799498Y-91259355D01*
X180799498Y-91259355D02*
X180180451Y-91259355D01*
X179751879Y-90878402D02*
X178989975Y-90878402D01*
X178323308Y-90259355D02*
X178228070Y-90259355D01*
X178228070Y-90259355D02*
X178132832Y-90306974D01*
X178132832Y-90306974D02*
X178085213Y-90354593D01*
X178085213Y-90354593D02*
X178037594Y-90449831D01*
X178037594Y-90449831D02*
X177989975Y-90640307D01*
X177989975Y-90640307D02*
X177989975Y-90878402D01*
X177989975Y-90878402D02*
X178037594Y-91068878D01*
X178037594Y-91068878D02*
X178085213Y-91164116D01*
X178085213Y-91164116D02*
X178132832Y-91211736D01*
X178132832Y-91211736D02*
X178228070Y-91259355D01*
X178228070Y-91259355D02*
X178323308Y-91259355D01*
X178323308Y-91259355D02*
X178418546Y-91211736D01*
X178418546Y-91211736D02*
X178466165Y-91164116D01*
X178466165Y-91164116D02*
X178513784Y-91068878D01*
X178513784Y-91068878D02*
X178561403Y-90878402D01*
X178561403Y-90878402D02*
X178561403Y-90640307D01*
X178561403Y-90640307D02*
X178513784Y-90449831D01*
X178513784Y-90449831D02*
X178466165Y-90354593D01*
X178466165Y-90354593D02*
X178418546Y-90306974D01*
X178418546Y-90306974D02*
X178323308Y-90259355D01*
X177609022Y-90354593D02*
X177561403Y-90306974D01*
X177561403Y-90306974D02*
X177466165Y-90259355D01*
X177466165Y-90259355D02*
X177228070Y-90259355D01*
X177228070Y-90259355D02*
X177132832Y-90306974D01*
X177132832Y-90306974D02*
X177085213Y-90354593D01*
X177085213Y-90354593D02*
X177037594Y-90449831D01*
X177037594Y-90449831D02*
X177037594Y-90545069D01*
X177037594Y-90545069D02*
X177085213Y-90687926D01*
X177085213Y-90687926D02*
X177656641Y-91259355D01*
X177656641Y-91259355D02*
X177037594Y-91259355D01*
X176609022Y-90878402D02*
X175847118Y-90878402D01*
X175418546Y-90354593D02*
X175370927Y-90306974D01*
X175370927Y-90306974D02*
X175275689Y-90259355D01*
X175275689Y-90259355D02*
X175037594Y-90259355D01*
X175037594Y-90259355D02*
X174942356Y-90306974D01*
X174942356Y-90306974D02*
X174894737Y-90354593D01*
X174894737Y-90354593D02*
X174847118Y-90449831D01*
X174847118Y-90449831D02*
X174847118Y-90545069D01*
X174847118Y-90545069D02*
X174894737Y-90687926D01*
X174894737Y-90687926D02*
X175466165Y-91259355D01*
X175466165Y-91259355D02*
X174847118Y-91259355D01*
X174228070Y-90259355D02*
X174132832Y-90259355D01*
X174132832Y-90259355D02*
X174037594Y-90306974D01*
X174037594Y-90306974D02*
X173989975Y-90354593D01*
X173989975Y-90354593D02*
X173942356Y-90449831D01*
X173942356Y-90449831D02*
X173894737Y-90640307D01*
X173894737Y-90640307D02*
X173894737Y-90878402D01*
X173894737Y-90878402D02*
X173942356Y-91068878D01*
X173942356Y-91068878D02*
X173989975Y-91164116D01*
X173989975Y-91164116D02*
X174037594Y-91211736D01*
X174037594Y-91211736D02*
X174132832Y-91259355D01*
X174132832Y-91259355D02*
X174228070Y-91259355D01*
X174228070Y-91259355D02*
X174323308Y-91211736D01*
X174323308Y-91211736D02*
X174370927Y-91164116D01*
X174370927Y-91164116D02*
X174418546Y-91068878D01*
X174418546Y-91068878D02*
X174466165Y-90878402D01*
X174466165Y-90878402D02*
X174466165Y-90640307D01*
X174466165Y-90640307D02*
X174418546Y-90449831D01*
X174418546Y-90449831D02*
X174370927Y-90354593D01*
X174370927Y-90354593D02*
X174323308Y-90306974D01*
X174323308Y-90306974D02*
X174228070Y-90259355D01*
X173513784Y-90354593D02*
X173466165Y-90306974D01*
X173466165Y-90306974D02*
X173370927Y-90259355D01*
X173370927Y-90259355D02*
X173132832Y-90259355D01*
X173132832Y-90259355D02*
X173037594Y-90306974D01*
X173037594Y-90306974D02*
X172989975Y-90354593D01*
X172989975Y-90354593D02*
X172942356Y-90449831D01*
X172942356Y-90449831D02*
X172942356Y-90545069D01*
X172942356Y-90545069D02*
X172989975Y-90687926D01*
X172989975Y-90687926D02*
X173561403Y-91259355D01*
X173561403Y-91259355D02*
X172942356Y-91259355D01*
X172085213Y-90259355D02*
X172275689Y-90259355D01*
X172275689Y-90259355D02*
X172370927Y-90306974D01*
X172370927Y-90306974D02*
X172418546Y-90354593D01*
X172418546Y-90354593D02*
X172513784Y-90497450D01*
X172513784Y-90497450D02*
X172561403Y-90687926D01*
X172561403Y-90687926D02*
X172561403Y-91068878D01*
X172561403Y-91068878D02*
X172513784Y-91164116D01*
X172513784Y-91164116D02*
X172466165Y-91211736D01*
X172466165Y-91211736D02*
X172370927Y-91259355D01*
X172370927Y-91259355D02*
X172180451Y-91259355D01*
X172180451Y-91259355D02*
X172085213Y-91211736D01*
X172085213Y-91211736D02*
X172037594Y-91164116D01*
X172037594Y-91164116D02*
X171989975Y-91068878D01*
X171989975Y-91068878D02*
X171989975Y-90830783D01*
X171989975Y-90830783D02*
X172037594Y-90735545D01*
X172037594Y-90735545D02*
X172085213Y-90687926D01*
X172085213Y-90687926D02*
X172180451Y-90640307D01*
X172180451Y-90640307D02*
X172370927Y-90640307D01*
X172370927Y-90640307D02*
X172466165Y-90687926D01*
X172466165Y-90687926D02*
X172513784Y-90735545D01*
X172513784Y-90735545D02*
X172561403Y-90830783D01*
X180942356Y-91821680D02*
X181799498Y-93107394D01*
X179894737Y-91821680D02*
X180751879Y-93107394D01*
X179275689Y-91869299D02*
X179275689Y-92583584D01*
X179275689Y-92583584D02*
X179323308Y-92726441D01*
X179323308Y-92726441D02*
X179418546Y-92821680D01*
X179418546Y-92821680D02*
X179561403Y-92869299D01*
X179561403Y-92869299D02*
X179656641Y-92869299D01*
X178799498Y-92869299D02*
X178799498Y-91869299D01*
X178228070Y-92869299D02*
X178656641Y-92297870D01*
X178228070Y-91869299D02*
X178799498Y-92440727D01*
X177609022Y-91869299D02*
X177418546Y-91869299D01*
X177418546Y-91869299D02*
X177323308Y-91916918D01*
X177323308Y-91916918D02*
X177228070Y-92012156D01*
X177228070Y-92012156D02*
X177180451Y-92202632D01*
X177180451Y-92202632D02*
X177180451Y-92535965D01*
X177180451Y-92535965D02*
X177228070Y-92726441D01*
X177228070Y-92726441D02*
X177323308Y-92821680D01*
X177323308Y-92821680D02*
X177418546Y-92869299D01*
X177418546Y-92869299D02*
X177609022Y-92869299D01*
X177609022Y-92869299D02*
X177704260Y-92821680D01*
X177704260Y-92821680D02*
X177799498Y-92726441D01*
X177799498Y-92726441D02*
X177847117Y-92535965D01*
X177847117Y-92535965D02*
X177847117Y-92202632D01*
X177847117Y-92202632D02*
X177799498Y-92012156D01*
X177799498Y-92012156D02*
X177704260Y-91916918D01*
X177704260Y-91916918D02*
X177609022Y-91869299D01*
M02*
