%TF.GenerationSoftware,KiCad,Pcbnew,9.0.6*%
%TF.CreationDate,2026-02-22T09:47:55+01:00*%
%TF.ProjectId,iCE40UP5K_logic_analyzer,69434534-3055-4503-954b-5f6c6f676963,rev?*%
%TF.SameCoordinates,Original*%
%TF.FileFunction,Legend,Top*%
%TF.FilePolarity,Positive*%
%FSLAX46Y46*%
G04 Gerber Fmt 4.6, Leading zero omitted, Abs format (unit mm)*
G04 Created by KiCad (PCBNEW 9.0.6) date 2026-02-22 09:47:55*
%MOMM*%
%LPD*%
G01*
G04 APERTURE LIST*
%ADD10C,0.100000*%
%ADD11C,0.160000*%
%ADD12C,0.120000*%
%ADD13C,0.200000*%
%ADD14C,0.250000*%
%ADD15C,0.254000*%
G04 APERTURE END LIST*
D10*
X137850000Y-92324500D02*
X151350000Y-92324500D01*
X151350000Y-98824500D01*
X137850000Y-98824500D01*
X137850000Y-92324500D01*
D11*
X180441676Y-94497918D02*
X180365486Y-94450299D01*
X180365486Y-94450299D02*
X180251200Y-94450299D01*
X180251200Y-94450299D02*
X180136914Y-94497918D01*
X180136914Y-94497918D02*
X180060724Y-94593156D01*
X180060724Y-94593156D02*
X180022629Y-94688394D01*
X180022629Y-94688394D02*
X179984533Y-94878870D01*
X179984533Y-94878870D02*
X179984533Y-95021727D01*
X179984533Y-95021727D02*
X180022629Y-95212203D01*
X180022629Y-95212203D02*
X180060724Y-95307441D01*
X180060724Y-95307441D02*
X180136914Y-95402680D01*
X180136914Y-95402680D02*
X180251200Y-95450299D01*
X180251200Y-95450299D02*
X180327391Y-95450299D01*
X180327391Y-95450299D02*
X180441676Y-95402680D01*
X180441676Y-95402680D02*
X180479772Y-95355060D01*
X180479772Y-95355060D02*
X180479772Y-95021727D01*
X180479772Y-95021727D02*
X180327391Y-95021727D01*
X180822629Y-95450299D02*
X180822629Y-94450299D01*
X180822629Y-94450299D02*
X181279772Y-95450299D01*
X181279772Y-95450299D02*
X181279772Y-94450299D01*
X181660724Y-95450299D02*
X181660724Y-94450299D01*
X181660724Y-94450299D02*
X181851200Y-94450299D01*
X181851200Y-94450299D02*
X181965486Y-94497918D01*
X181965486Y-94497918D02*
X182041676Y-94593156D01*
X182041676Y-94593156D02*
X182079771Y-94688394D01*
X182079771Y-94688394D02*
X182117867Y-94878870D01*
X182117867Y-94878870D02*
X182117867Y-95021727D01*
X182117867Y-95021727D02*
X182079771Y-95212203D01*
X182079771Y-95212203D02*
X182041676Y-95307441D01*
X182041676Y-95307441D02*
X181965486Y-95402680D01*
X181965486Y-95402680D02*
X181851200Y-95450299D01*
X181851200Y-95450299D02*
X181660724Y-95450299D01*
X180289276Y-104708718D02*
X180213086Y-104661099D01*
X180213086Y-104661099D02*
X180098800Y-104661099D01*
X180098800Y-104661099D02*
X179984514Y-104708718D01*
X179984514Y-104708718D02*
X179908324Y-104803956D01*
X179908324Y-104803956D02*
X179870229Y-104899194D01*
X179870229Y-104899194D02*
X179832133Y-105089670D01*
X179832133Y-105089670D02*
X179832133Y-105232527D01*
X179832133Y-105232527D02*
X179870229Y-105423003D01*
X179870229Y-105423003D02*
X179908324Y-105518241D01*
X179908324Y-105518241D02*
X179984514Y-105613480D01*
X179984514Y-105613480D02*
X180098800Y-105661099D01*
X180098800Y-105661099D02*
X180174991Y-105661099D01*
X180174991Y-105661099D02*
X180289276Y-105613480D01*
X180289276Y-105613480D02*
X180327372Y-105565860D01*
X180327372Y-105565860D02*
X180327372Y-105232527D01*
X180327372Y-105232527D02*
X180174991Y-105232527D01*
X180670229Y-105661099D02*
X180670229Y-104661099D01*
X180670229Y-104661099D02*
X181127372Y-105661099D01*
X181127372Y-105661099D02*
X181127372Y-104661099D01*
X181508324Y-105661099D02*
X181508324Y-104661099D01*
X181508324Y-104661099D02*
X181698800Y-104661099D01*
X181698800Y-104661099D02*
X181813086Y-104708718D01*
X181813086Y-104708718D02*
X181889276Y-104803956D01*
X181889276Y-104803956D02*
X181927371Y-104899194D01*
X181927371Y-104899194D02*
X181965467Y-105089670D01*
X181965467Y-105089670D02*
X181965467Y-105232527D01*
X181965467Y-105232527D02*
X181927371Y-105423003D01*
X181927371Y-105423003D02*
X181889276Y-105518241D01*
X181889276Y-105518241D02*
X181813086Y-105613480D01*
X181813086Y-105613480D02*
X181698800Y-105661099D01*
X181698800Y-105661099D02*
X181508324Y-105661099D01*
X153955943Y-94184060D02*
X153917847Y-94231680D01*
X153917847Y-94231680D02*
X153803562Y-94279299D01*
X153803562Y-94279299D02*
X153727371Y-94279299D01*
X153727371Y-94279299D02*
X153613085Y-94231680D01*
X153613085Y-94231680D02*
X153536895Y-94136441D01*
X153536895Y-94136441D02*
X153498800Y-94041203D01*
X153498800Y-94041203D02*
X153460704Y-93850727D01*
X153460704Y-93850727D02*
X153460704Y-93707870D01*
X153460704Y-93707870D02*
X153498800Y-93517394D01*
X153498800Y-93517394D02*
X153536895Y-93422156D01*
X153536895Y-93422156D02*
X153613085Y-93326918D01*
X153613085Y-93326918D02*
X153727371Y-93279299D01*
X153727371Y-93279299D02*
X153803562Y-93279299D01*
X153803562Y-93279299D02*
X153917847Y-93326918D01*
X153917847Y-93326918D02*
X153955943Y-93374537D01*
X154755943Y-94279299D02*
X154489276Y-93803108D01*
X154298800Y-94279299D02*
X154298800Y-93279299D01*
X154298800Y-93279299D02*
X154603562Y-93279299D01*
X154603562Y-93279299D02*
X154679752Y-93326918D01*
X154679752Y-93326918D02*
X154717847Y-93374537D01*
X154717847Y-93374537D02*
X154755943Y-93469775D01*
X154755943Y-93469775D02*
X154755943Y-93612632D01*
X154755943Y-93612632D02*
X154717847Y-93707870D01*
X154717847Y-93707870D02*
X154679752Y-93755489D01*
X154679752Y-93755489D02*
X154603562Y-93803108D01*
X154603562Y-93803108D02*
X154298800Y-93803108D01*
X155060704Y-94231680D02*
X155174990Y-94279299D01*
X155174990Y-94279299D02*
X155365466Y-94279299D01*
X155365466Y-94279299D02*
X155441657Y-94231680D01*
X155441657Y-94231680D02*
X155479752Y-94184060D01*
X155479752Y-94184060D02*
X155517847Y-94088822D01*
X155517847Y-94088822D02*
X155517847Y-93993584D01*
X155517847Y-93993584D02*
X155479752Y-93898346D01*
X155479752Y-93898346D02*
X155441657Y-93850727D01*
X155441657Y-93850727D02*
X155365466Y-93803108D01*
X155365466Y-93803108D02*
X155213085Y-93755489D01*
X155213085Y-93755489D02*
X155136895Y-93707870D01*
X155136895Y-93707870D02*
X155098800Y-93660251D01*
X155098800Y-93660251D02*
X155060704Y-93565013D01*
X155060704Y-93565013D02*
X155060704Y-93469775D01*
X155060704Y-93469775D02*
X155098800Y-93374537D01*
X155098800Y-93374537D02*
X155136895Y-93326918D01*
X155136895Y-93326918D02*
X155213085Y-93279299D01*
X155213085Y-93279299D02*
X155403562Y-93279299D01*
X155403562Y-93279299D02*
X155517847Y-93326918D01*
X155746419Y-93279299D02*
X156203562Y-93279299D01*
X155974990Y-94279299D02*
X155974990Y-93279299D01*
X156279753Y-94374537D02*
X156889276Y-94374537D01*
X157346419Y-93755489D02*
X157460705Y-93803108D01*
X157460705Y-93803108D02*
X157498800Y-93850727D01*
X157498800Y-93850727D02*
X157536896Y-93945965D01*
X157536896Y-93945965D02*
X157536896Y-94088822D01*
X157536896Y-94088822D02*
X157498800Y-94184060D01*
X157498800Y-94184060D02*
X157460705Y-94231680D01*
X157460705Y-94231680D02*
X157384515Y-94279299D01*
X157384515Y-94279299D02*
X157079753Y-94279299D01*
X157079753Y-94279299D02*
X157079753Y-93279299D01*
X157079753Y-93279299D02*
X157346419Y-93279299D01*
X157346419Y-93279299D02*
X157422610Y-93326918D01*
X157422610Y-93326918D02*
X157460705Y-93374537D01*
X157460705Y-93374537D02*
X157498800Y-93469775D01*
X157498800Y-93469775D02*
X157498800Y-93565013D01*
X157498800Y-93565013D02*
X157460705Y-93660251D01*
X157460705Y-93660251D02*
X157422610Y-93707870D01*
X157422610Y-93707870D02*
X157346419Y-93755489D01*
X157346419Y-93755489D02*
X157079753Y-93755489D01*
X153720876Y-91348318D02*
X153644686Y-91300699D01*
X153644686Y-91300699D02*
X153530400Y-91300699D01*
X153530400Y-91300699D02*
X153416114Y-91348318D01*
X153416114Y-91348318D02*
X153339924Y-91443556D01*
X153339924Y-91443556D02*
X153301829Y-91538794D01*
X153301829Y-91538794D02*
X153263733Y-91729270D01*
X153263733Y-91729270D02*
X153263733Y-91872127D01*
X153263733Y-91872127D02*
X153301829Y-92062603D01*
X153301829Y-92062603D02*
X153339924Y-92157841D01*
X153339924Y-92157841D02*
X153416114Y-92253080D01*
X153416114Y-92253080D02*
X153530400Y-92300699D01*
X153530400Y-92300699D02*
X153606591Y-92300699D01*
X153606591Y-92300699D02*
X153720876Y-92253080D01*
X153720876Y-92253080D02*
X153758972Y-92205460D01*
X153758972Y-92205460D02*
X153758972Y-91872127D01*
X153758972Y-91872127D02*
X153606591Y-91872127D01*
X154101829Y-92300699D02*
X154101829Y-91300699D01*
X154101829Y-91300699D02*
X154558972Y-92300699D01*
X154558972Y-92300699D02*
X154558972Y-91300699D01*
X154939924Y-92300699D02*
X154939924Y-91300699D01*
X154939924Y-91300699D02*
X155130400Y-91300699D01*
X155130400Y-91300699D02*
X155244686Y-91348318D01*
X155244686Y-91348318D02*
X155320876Y-91443556D01*
X155320876Y-91443556D02*
X155358971Y-91538794D01*
X155358971Y-91538794D02*
X155397067Y-91729270D01*
X155397067Y-91729270D02*
X155397067Y-91872127D01*
X155397067Y-91872127D02*
X155358971Y-92062603D01*
X155358971Y-92062603D02*
X155320876Y-92157841D01*
X155320876Y-92157841D02*
X155244686Y-92253080D01*
X155244686Y-92253080D02*
X155130400Y-92300699D01*
X155130400Y-92300699D02*
X154939924Y-92300699D01*
X145415476Y-116722918D02*
X145339286Y-116675299D01*
X145339286Y-116675299D02*
X145225000Y-116675299D01*
X145225000Y-116675299D02*
X145110714Y-116722918D01*
X145110714Y-116722918D02*
X145034524Y-116818156D01*
X145034524Y-116818156D02*
X144996429Y-116913394D01*
X144996429Y-116913394D02*
X144958333Y-117103870D01*
X144958333Y-117103870D02*
X144958333Y-117246727D01*
X144958333Y-117246727D02*
X144996429Y-117437203D01*
X144996429Y-117437203D02*
X145034524Y-117532441D01*
X145034524Y-117532441D02*
X145110714Y-117627680D01*
X145110714Y-117627680D02*
X145225000Y-117675299D01*
X145225000Y-117675299D02*
X145301191Y-117675299D01*
X145301191Y-117675299D02*
X145415476Y-117627680D01*
X145415476Y-117627680D02*
X145453572Y-117580060D01*
X145453572Y-117580060D02*
X145453572Y-117246727D01*
X145453572Y-117246727D02*
X145301191Y-117246727D01*
X145796429Y-117675299D02*
X145796429Y-116675299D01*
X145796429Y-116675299D02*
X146253572Y-117675299D01*
X146253572Y-117675299D02*
X146253572Y-116675299D01*
X146634524Y-117675299D02*
X146634524Y-116675299D01*
X146634524Y-116675299D02*
X146825000Y-116675299D01*
X146825000Y-116675299D02*
X146939286Y-116722918D01*
X146939286Y-116722918D02*
X147015476Y-116818156D01*
X147015476Y-116818156D02*
X147053571Y-116913394D01*
X147053571Y-116913394D02*
X147091667Y-117103870D01*
X147091667Y-117103870D02*
X147091667Y-117246727D01*
X147091667Y-117246727D02*
X147053571Y-117437203D01*
X147053571Y-117437203D02*
X147015476Y-117532441D01*
X147015476Y-117532441D02*
X146939286Y-117627680D01*
X146939286Y-117627680D02*
X146825000Y-117675299D01*
X146825000Y-117675299D02*
X146634524Y-117675299D01*
X145510714Y-113954299D02*
X145244047Y-113478108D01*
X145053571Y-113954299D02*
X145053571Y-112954299D01*
X145053571Y-112954299D02*
X145358333Y-112954299D01*
X145358333Y-112954299D02*
X145434523Y-113001918D01*
X145434523Y-113001918D02*
X145472618Y-113049537D01*
X145472618Y-113049537D02*
X145510714Y-113144775D01*
X145510714Y-113144775D02*
X145510714Y-113287632D01*
X145510714Y-113287632D02*
X145472618Y-113382870D01*
X145472618Y-113382870D02*
X145434523Y-113430489D01*
X145434523Y-113430489D02*
X145358333Y-113478108D01*
X145358333Y-113478108D02*
X145053571Y-113478108D01*
X146272618Y-113954299D02*
X145815475Y-113954299D01*
X146044047Y-113954299D02*
X146044047Y-112954299D01*
X146044047Y-112954299D02*
X145967856Y-113097156D01*
X145967856Y-113097156D02*
X145891666Y-113192394D01*
X145891666Y-113192394D02*
X145815475Y-113240013D01*
X146767857Y-112954299D02*
X146844047Y-112954299D01*
X146844047Y-112954299D02*
X146920238Y-113001918D01*
X146920238Y-113001918D02*
X146958333Y-113049537D01*
X146958333Y-113049537D02*
X146996428Y-113144775D01*
X146996428Y-113144775D02*
X147034523Y-113335251D01*
X147034523Y-113335251D02*
X147034523Y-113573346D01*
X147034523Y-113573346D02*
X146996428Y-113763822D01*
X146996428Y-113763822D02*
X146958333Y-113859060D01*
X146958333Y-113859060D02*
X146920238Y-113906680D01*
X146920238Y-113906680D02*
X146844047Y-113954299D01*
X146844047Y-113954299D02*
X146767857Y-113954299D01*
X146767857Y-113954299D02*
X146691666Y-113906680D01*
X146691666Y-113906680D02*
X146653571Y-113859060D01*
X146653571Y-113859060D02*
X146615476Y-113763822D01*
X146615476Y-113763822D02*
X146577380Y-113573346D01*
X146577380Y-113573346D02*
X146577380Y-113335251D01*
X146577380Y-113335251D02*
X146615476Y-113144775D01*
X146615476Y-113144775D02*
X146653571Y-113049537D01*
X146653571Y-113049537D02*
X146691666Y-113001918D01*
X146691666Y-113001918D02*
X146767857Y-112954299D01*
X148341667Y-114834060D02*
X148303571Y-114881680D01*
X148303571Y-114881680D02*
X148189286Y-114929299D01*
X148189286Y-114929299D02*
X148113095Y-114929299D01*
X148113095Y-114929299D02*
X147998809Y-114881680D01*
X147998809Y-114881680D02*
X147922619Y-114786441D01*
X147922619Y-114786441D02*
X147884524Y-114691203D01*
X147884524Y-114691203D02*
X147846428Y-114500727D01*
X147846428Y-114500727D02*
X147846428Y-114357870D01*
X147846428Y-114357870D02*
X147884524Y-114167394D01*
X147884524Y-114167394D02*
X147922619Y-114072156D01*
X147922619Y-114072156D02*
X147998809Y-113976918D01*
X147998809Y-113976918D02*
X148113095Y-113929299D01*
X148113095Y-113929299D02*
X148189286Y-113929299D01*
X148189286Y-113929299D02*
X148303571Y-113976918D01*
X148303571Y-113976918D02*
X148341667Y-114024537D01*
X148722619Y-114929299D02*
X148875000Y-114929299D01*
X148875000Y-114929299D02*
X148951190Y-114881680D01*
X148951190Y-114881680D02*
X148989286Y-114834060D01*
X148989286Y-114834060D02*
X149065476Y-114691203D01*
X149065476Y-114691203D02*
X149103571Y-114500727D01*
X149103571Y-114500727D02*
X149103571Y-114119775D01*
X149103571Y-114119775D02*
X149065476Y-114024537D01*
X149065476Y-114024537D02*
X149027381Y-113976918D01*
X149027381Y-113976918D02*
X148951190Y-113929299D01*
X148951190Y-113929299D02*
X148798809Y-113929299D01*
X148798809Y-113929299D02*
X148722619Y-113976918D01*
X148722619Y-113976918D02*
X148684524Y-114024537D01*
X148684524Y-114024537D02*
X148646428Y-114119775D01*
X148646428Y-114119775D02*
X148646428Y-114357870D01*
X148646428Y-114357870D02*
X148684524Y-114453108D01*
X148684524Y-114453108D02*
X148722619Y-114500727D01*
X148722619Y-114500727D02*
X148798809Y-114548346D01*
X148798809Y-114548346D02*
X148951190Y-114548346D01*
X148951190Y-114548346D02*
X149027381Y-114500727D01*
X149027381Y-114500727D02*
X149065476Y-114453108D01*
X149065476Y-114453108D02*
X149103571Y-114357870D01*
X176390333Y-93307299D02*
X176390333Y-94021584D01*
X176390333Y-94021584D02*
X176352238Y-94164441D01*
X176352238Y-94164441D02*
X176276047Y-94259680D01*
X176276047Y-94259680D02*
X176161762Y-94307299D01*
X176161762Y-94307299D02*
X176085571Y-94307299D01*
X176695095Y-93307299D02*
X177190333Y-93307299D01*
X177190333Y-93307299D02*
X176923667Y-93688251D01*
X176923667Y-93688251D02*
X177037952Y-93688251D01*
X177037952Y-93688251D02*
X177114143Y-93735870D01*
X177114143Y-93735870D02*
X177152238Y-93783489D01*
X177152238Y-93783489D02*
X177190333Y-93878727D01*
X177190333Y-93878727D02*
X177190333Y-94116822D01*
X177190333Y-94116822D02*
X177152238Y-94212060D01*
X177152238Y-94212060D02*
X177114143Y-94259680D01*
X177114143Y-94259680D02*
X177037952Y-94307299D01*
X177037952Y-94307299D02*
X176809381Y-94307299D01*
X176809381Y-94307299D02*
X176733190Y-94259680D01*
X176733190Y-94259680D02*
X176695095Y-94212060D01*
X142674499Y-108480951D02*
X141674499Y-108480951D01*
X142579260Y-107642856D02*
X142626880Y-107680952D01*
X142626880Y-107680952D02*
X142674499Y-107795237D01*
X142674499Y-107795237D02*
X142674499Y-107871428D01*
X142674499Y-107871428D02*
X142626880Y-107985714D01*
X142626880Y-107985714D02*
X142531641Y-108061904D01*
X142531641Y-108061904D02*
X142436403Y-108099999D01*
X142436403Y-108099999D02*
X142245927Y-108138095D01*
X142245927Y-108138095D02*
X142103070Y-108138095D01*
X142103070Y-108138095D02*
X141912594Y-108099999D01*
X141912594Y-108099999D02*
X141817356Y-108061904D01*
X141817356Y-108061904D02*
X141722118Y-107985714D01*
X141722118Y-107985714D02*
X141674499Y-107871428D01*
X141674499Y-107871428D02*
X141674499Y-107795237D01*
X141674499Y-107795237D02*
X141722118Y-107680952D01*
X141722118Y-107680952D02*
X141769737Y-107642856D01*
X141674499Y-106919047D02*
X141674499Y-107299999D01*
X141674499Y-107299999D02*
X142150689Y-107338095D01*
X142150689Y-107338095D02*
X142103070Y-107299999D01*
X142103070Y-107299999D02*
X142055451Y-107223809D01*
X142055451Y-107223809D02*
X142055451Y-107033333D01*
X142055451Y-107033333D02*
X142103070Y-106957142D01*
X142103070Y-106957142D02*
X142150689Y-106919047D01*
X142150689Y-106919047D02*
X142245927Y-106880952D01*
X142245927Y-106880952D02*
X142484022Y-106880952D01*
X142484022Y-106880952D02*
X142579260Y-106919047D01*
X142579260Y-106919047D02*
X142626880Y-106957142D01*
X142626880Y-106957142D02*
X142674499Y-107033333D01*
X142674499Y-107033333D02*
X142674499Y-107223809D01*
X142674499Y-107223809D02*
X142626880Y-107299999D01*
X142626880Y-107299999D02*
X142579260Y-107338095D01*
X144085714Y-103304299D02*
X143819047Y-102828108D01*
X143628571Y-103304299D02*
X143628571Y-102304299D01*
X143628571Y-102304299D02*
X143933333Y-102304299D01*
X143933333Y-102304299D02*
X144009523Y-102351918D01*
X144009523Y-102351918D02*
X144047618Y-102399537D01*
X144047618Y-102399537D02*
X144085714Y-102494775D01*
X144085714Y-102494775D02*
X144085714Y-102637632D01*
X144085714Y-102637632D02*
X144047618Y-102732870D01*
X144047618Y-102732870D02*
X144009523Y-102780489D01*
X144009523Y-102780489D02*
X143933333Y-102828108D01*
X143933333Y-102828108D02*
X143628571Y-102828108D01*
X144847618Y-103304299D02*
X144390475Y-103304299D01*
X144619047Y-103304299D02*
X144619047Y-102304299D01*
X144619047Y-102304299D02*
X144542856Y-102447156D01*
X144542856Y-102447156D02*
X144466666Y-102542394D01*
X144466666Y-102542394D02*
X144390475Y-102590013D01*
X145533333Y-102637632D02*
X145533333Y-103304299D01*
X145342857Y-102256680D02*
X145152380Y-102970965D01*
X145152380Y-102970965D02*
X145647619Y-102970965D01*
X151349299Y-111933332D02*
X150873108Y-112199999D01*
X151349299Y-112390475D02*
X150349299Y-112390475D01*
X150349299Y-112390475D02*
X150349299Y-112085713D01*
X150349299Y-112085713D02*
X150396918Y-112009523D01*
X150396918Y-112009523D02*
X150444537Y-111971428D01*
X150444537Y-111971428D02*
X150539775Y-111933332D01*
X150539775Y-111933332D02*
X150682632Y-111933332D01*
X150682632Y-111933332D02*
X150777870Y-111971428D01*
X150777870Y-111971428D02*
X150825489Y-112009523D01*
X150825489Y-112009523D02*
X150873108Y-112085713D01*
X150873108Y-112085713D02*
X150873108Y-112390475D01*
X151349299Y-111552380D02*
X151349299Y-111399999D01*
X151349299Y-111399999D02*
X151301680Y-111323809D01*
X151301680Y-111323809D02*
X151254060Y-111285713D01*
X151254060Y-111285713D02*
X151111203Y-111209523D01*
X151111203Y-111209523D02*
X150920727Y-111171428D01*
X150920727Y-111171428D02*
X150539775Y-111171428D01*
X150539775Y-111171428D02*
X150444537Y-111209523D01*
X150444537Y-111209523D02*
X150396918Y-111247618D01*
X150396918Y-111247618D02*
X150349299Y-111323809D01*
X150349299Y-111323809D02*
X150349299Y-111476190D01*
X150349299Y-111476190D02*
X150396918Y-111552380D01*
X150396918Y-111552380D02*
X150444537Y-111590475D01*
X150444537Y-111590475D02*
X150539775Y-111628571D01*
X150539775Y-111628571D02*
X150777870Y-111628571D01*
X150777870Y-111628571D02*
X150873108Y-111590475D01*
X150873108Y-111590475D02*
X150920727Y-111552380D01*
X150920727Y-111552380D02*
X150968346Y-111476190D01*
X150968346Y-111476190D02*
X150968346Y-111323809D01*
X150968346Y-111323809D02*
X150920727Y-111247618D01*
X150920727Y-111247618D02*
X150873108Y-111209523D01*
X150873108Y-111209523D02*
X150777870Y-111171428D01*
X171166667Y-94204299D02*
X170900000Y-93728108D01*
X170709524Y-94204299D02*
X170709524Y-93204299D01*
X170709524Y-93204299D02*
X171014286Y-93204299D01*
X171014286Y-93204299D02*
X171090476Y-93251918D01*
X171090476Y-93251918D02*
X171128571Y-93299537D01*
X171128571Y-93299537D02*
X171166667Y-93394775D01*
X171166667Y-93394775D02*
X171166667Y-93537632D01*
X171166667Y-93537632D02*
X171128571Y-93632870D01*
X171128571Y-93632870D02*
X171090476Y-93680489D01*
X171090476Y-93680489D02*
X171014286Y-93728108D01*
X171014286Y-93728108D02*
X170709524Y-93728108D01*
X171890476Y-93204299D02*
X171509524Y-93204299D01*
X171509524Y-93204299D02*
X171471428Y-93680489D01*
X171471428Y-93680489D02*
X171509524Y-93632870D01*
X171509524Y-93632870D02*
X171585714Y-93585251D01*
X171585714Y-93585251D02*
X171776190Y-93585251D01*
X171776190Y-93585251D02*
X171852381Y-93632870D01*
X171852381Y-93632870D02*
X171890476Y-93680489D01*
X171890476Y-93680489D02*
X171928571Y-93775727D01*
X171928571Y-93775727D02*
X171928571Y-94013822D01*
X171928571Y-94013822D02*
X171890476Y-94109060D01*
X171890476Y-94109060D02*
X171852381Y-94156680D01*
X171852381Y-94156680D02*
X171776190Y-94204299D01*
X171776190Y-94204299D02*
X171585714Y-94204299D01*
X171585714Y-94204299D02*
X171509524Y-94156680D01*
X171509524Y-94156680D02*
X171471428Y-94109060D01*
X151185714Y-109172660D02*
X151147618Y-109220280D01*
X151147618Y-109220280D02*
X151033333Y-109267899D01*
X151033333Y-109267899D02*
X150957142Y-109267899D01*
X150957142Y-109267899D02*
X150842856Y-109220280D01*
X150842856Y-109220280D02*
X150766666Y-109125041D01*
X150766666Y-109125041D02*
X150728571Y-109029803D01*
X150728571Y-109029803D02*
X150690475Y-108839327D01*
X150690475Y-108839327D02*
X150690475Y-108696470D01*
X150690475Y-108696470D02*
X150728571Y-108505994D01*
X150728571Y-108505994D02*
X150766666Y-108410756D01*
X150766666Y-108410756D02*
X150842856Y-108315518D01*
X150842856Y-108315518D02*
X150957142Y-108267899D01*
X150957142Y-108267899D02*
X151033333Y-108267899D01*
X151033333Y-108267899D02*
X151147618Y-108315518D01*
X151147618Y-108315518D02*
X151185714Y-108363137D01*
X151947618Y-109267899D02*
X151490475Y-109267899D01*
X151719047Y-109267899D02*
X151719047Y-108267899D01*
X151719047Y-108267899D02*
X151642856Y-108410756D01*
X151642856Y-108410756D02*
X151566666Y-108505994D01*
X151566666Y-108505994D02*
X151490475Y-108553613D01*
X152404761Y-108696470D02*
X152328571Y-108648851D01*
X152328571Y-108648851D02*
X152290476Y-108601232D01*
X152290476Y-108601232D02*
X152252380Y-108505994D01*
X152252380Y-108505994D02*
X152252380Y-108458375D01*
X152252380Y-108458375D02*
X152290476Y-108363137D01*
X152290476Y-108363137D02*
X152328571Y-108315518D01*
X152328571Y-108315518D02*
X152404761Y-108267899D01*
X152404761Y-108267899D02*
X152557142Y-108267899D01*
X152557142Y-108267899D02*
X152633333Y-108315518D01*
X152633333Y-108315518D02*
X152671428Y-108363137D01*
X152671428Y-108363137D02*
X152709523Y-108458375D01*
X152709523Y-108458375D02*
X152709523Y-108505994D01*
X152709523Y-108505994D02*
X152671428Y-108601232D01*
X152671428Y-108601232D02*
X152633333Y-108648851D01*
X152633333Y-108648851D02*
X152557142Y-108696470D01*
X152557142Y-108696470D02*
X152404761Y-108696470D01*
X152404761Y-108696470D02*
X152328571Y-108744089D01*
X152328571Y-108744089D02*
X152290476Y-108791708D01*
X152290476Y-108791708D02*
X152252380Y-108886946D01*
X152252380Y-108886946D02*
X152252380Y-109077422D01*
X152252380Y-109077422D02*
X152290476Y-109172660D01*
X152290476Y-109172660D02*
X152328571Y-109220280D01*
X152328571Y-109220280D02*
X152404761Y-109267899D01*
X152404761Y-109267899D02*
X152557142Y-109267899D01*
X152557142Y-109267899D02*
X152633333Y-109220280D01*
X152633333Y-109220280D02*
X152671428Y-109172660D01*
X152671428Y-109172660D02*
X152709523Y-109077422D01*
X152709523Y-109077422D02*
X152709523Y-108886946D01*
X152709523Y-108886946D02*
X152671428Y-108791708D01*
X152671428Y-108791708D02*
X152633333Y-108744089D01*
X152633333Y-108744089D02*
X152557142Y-108696470D01*
X150535714Y-104654299D02*
X150269047Y-104178108D01*
X150078571Y-104654299D02*
X150078571Y-103654299D01*
X150078571Y-103654299D02*
X150383333Y-103654299D01*
X150383333Y-103654299D02*
X150459523Y-103701918D01*
X150459523Y-103701918D02*
X150497618Y-103749537D01*
X150497618Y-103749537D02*
X150535714Y-103844775D01*
X150535714Y-103844775D02*
X150535714Y-103987632D01*
X150535714Y-103987632D02*
X150497618Y-104082870D01*
X150497618Y-104082870D02*
X150459523Y-104130489D01*
X150459523Y-104130489D02*
X150383333Y-104178108D01*
X150383333Y-104178108D02*
X150078571Y-104178108D01*
X151297618Y-104654299D02*
X150840475Y-104654299D01*
X151069047Y-104654299D02*
X151069047Y-103654299D01*
X151069047Y-103654299D02*
X150992856Y-103797156D01*
X150992856Y-103797156D02*
X150916666Y-103892394D01*
X150916666Y-103892394D02*
X150840475Y-103940013D01*
X151602380Y-103749537D02*
X151640476Y-103701918D01*
X151640476Y-103701918D02*
X151716666Y-103654299D01*
X151716666Y-103654299D02*
X151907142Y-103654299D01*
X151907142Y-103654299D02*
X151983333Y-103701918D01*
X151983333Y-103701918D02*
X152021428Y-103749537D01*
X152021428Y-103749537D02*
X152059523Y-103844775D01*
X152059523Y-103844775D02*
X152059523Y-103940013D01*
X152059523Y-103940013D02*
X152021428Y-104082870D01*
X152021428Y-104082870D02*
X151564285Y-104654299D01*
X151564285Y-104654299D02*
X152059523Y-104654299D01*
X147778571Y-92778799D02*
X147778571Y-93588322D01*
X147778571Y-93588322D02*
X147816666Y-93683560D01*
X147816666Y-93683560D02*
X147854761Y-93731180D01*
X147854761Y-93731180D02*
X147930952Y-93778799D01*
X147930952Y-93778799D02*
X148083333Y-93778799D01*
X148083333Y-93778799D02*
X148159523Y-93731180D01*
X148159523Y-93731180D02*
X148197618Y-93683560D01*
X148197618Y-93683560D02*
X148235714Y-93588322D01*
X148235714Y-93588322D02*
X148235714Y-92778799D01*
X148578570Y-93731180D02*
X148692856Y-93778799D01*
X148692856Y-93778799D02*
X148883332Y-93778799D01*
X148883332Y-93778799D02*
X148959523Y-93731180D01*
X148959523Y-93731180D02*
X148997618Y-93683560D01*
X148997618Y-93683560D02*
X149035713Y-93588322D01*
X149035713Y-93588322D02*
X149035713Y-93493084D01*
X149035713Y-93493084D02*
X148997618Y-93397846D01*
X148997618Y-93397846D02*
X148959523Y-93350227D01*
X148959523Y-93350227D02*
X148883332Y-93302608D01*
X148883332Y-93302608D02*
X148730951Y-93254989D01*
X148730951Y-93254989D02*
X148654761Y-93207370D01*
X148654761Y-93207370D02*
X148616666Y-93159751D01*
X148616666Y-93159751D02*
X148578570Y-93064513D01*
X148578570Y-93064513D02*
X148578570Y-92969275D01*
X148578570Y-92969275D02*
X148616666Y-92874037D01*
X148616666Y-92874037D02*
X148654761Y-92826418D01*
X148654761Y-92826418D02*
X148730951Y-92778799D01*
X148730951Y-92778799D02*
X148921428Y-92778799D01*
X148921428Y-92778799D02*
X149035713Y-92826418D01*
X149378571Y-93254989D02*
X149645237Y-93254989D01*
X149759523Y-93778799D02*
X149378571Y-93778799D01*
X149378571Y-93778799D02*
X149378571Y-92778799D01*
X149378571Y-92778799D02*
X149759523Y-92778799D01*
X150559524Y-93778799D02*
X150292857Y-93302608D01*
X150102381Y-93778799D02*
X150102381Y-92778799D01*
X150102381Y-92778799D02*
X150407143Y-92778799D01*
X150407143Y-92778799D02*
X150483333Y-92826418D01*
X150483333Y-92826418D02*
X150521428Y-92874037D01*
X150521428Y-92874037D02*
X150559524Y-92969275D01*
X150559524Y-92969275D02*
X150559524Y-93112132D01*
X150559524Y-93112132D02*
X150521428Y-93207370D01*
X150521428Y-93207370D02*
X150483333Y-93254989D01*
X150483333Y-93254989D02*
X150407143Y-93302608D01*
X150407143Y-93302608D02*
X150102381Y-93302608D01*
X167816667Y-90108373D02*
X167778571Y-90155993D01*
X167778571Y-90155993D02*
X167664286Y-90203612D01*
X167664286Y-90203612D02*
X167588095Y-90203612D01*
X167588095Y-90203612D02*
X167473809Y-90155993D01*
X167473809Y-90155993D02*
X167397619Y-90060754D01*
X167397619Y-90060754D02*
X167359524Y-89965516D01*
X167359524Y-89965516D02*
X167321428Y-89775040D01*
X167321428Y-89775040D02*
X167321428Y-89632183D01*
X167321428Y-89632183D02*
X167359524Y-89441707D01*
X167359524Y-89441707D02*
X167397619Y-89346469D01*
X167397619Y-89346469D02*
X167473809Y-89251231D01*
X167473809Y-89251231D02*
X167588095Y-89203612D01*
X167588095Y-89203612D02*
X167664286Y-89203612D01*
X167664286Y-89203612D02*
X167778571Y-89251231D01*
X167778571Y-89251231D02*
X167816667Y-89298850D01*
X168083333Y-89203612D02*
X168616667Y-89203612D01*
X168616667Y-89203612D02*
X168273809Y-90203612D01*
X161385714Y-114759060D02*
X161347618Y-114806680D01*
X161347618Y-114806680D02*
X161233333Y-114854299D01*
X161233333Y-114854299D02*
X161157142Y-114854299D01*
X161157142Y-114854299D02*
X161042856Y-114806680D01*
X161042856Y-114806680D02*
X160966666Y-114711441D01*
X160966666Y-114711441D02*
X160928571Y-114616203D01*
X160928571Y-114616203D02*
X160890475Y-114425727D01*
X160890475Y-114425727D02*
X160890475Y-114282870D01*
X160890475Y-114282870D02*
X160928571Y-114092394D01*
X160928571Y-114092394D02*
X160966666Y-113997156D01*
X160966666Y-113997156D02*
X161042856Y-113901918D01*
X161042856Y-113901918D02*
X161157142Y-113854299D01*
X161157142Y-113854299D02*
X161233333Y-113854299D01*
X161233333Y-113854299D02*
X161347618Y-113901918D01*
X161347618Y-113901918D02*
X161385714Y-113949537D01*
X162147618Y-114854299D02*
X161690475Y-114854299D01*
X161919047Y-114854299D02*
X161919047Y-113854299D01*
X161919047Y-113854299D02*
X161842856Y-113997156D01*
X161842856Y-113997156D02*
X161766666Y-114092394D01*
X161766666Y-114092394D02*
X161690475Y-114140013D01*
X162452380Y-113949537D02*
X162490476Y-113901918D01*
X162490476Y-113901918D02*
X162566666Y-113854299D01*
X162566666Y-113854299D02*
X162757142Y-113854299D01*
X162757142Y-113854299D02*
X162833333Y-113901918D01*
X162833333Y-113901918D02*
X162871428Y-113949537D01*
X162871428Y-113949537D02*
X162909523Y-114044775D01*
X162909523Y-114044775D02*
X162909523Y-114140013D01*
X162909523Y-114140013D02*
X162871428Y-114282870D01*
X162871428Y-114282870D02*
X162414285Y-114854299D01*
X162414285Y-114854299D02*
X162909523Y-114854299D01*
X157685714Y-101659060D02*
X157647618Y-101706680D01*
X157647618Y-101706680D02*
X157533333Y-101754299D01*
X157533333Y-101754299D02*
X157457142Y-101754299D01*
X157457142Y-101754299D02*
X157342856Y-101706680D01*
X157342856Y-101706680D02*
X157266666Y-101611441D01*
X157266666Y-101611441D02*
X157228571Y-101516203D01*
X157228571Y-101516203D02*
X157190475Y-101325727D01*
X157190475Y-101325727D02*
X157190475Y-101182870D01*
X157190475Y-101182870D02*
X157228571Y-100992394D01*
X157228571Y-100992394D02*
X157266666Y-100897156D01*
X157266666Y-100897156D02*
X157342856Y-100801918D01*
X157342856Y-100801918D02*
X157457142Y-100754299D01*
X157457142Y-100754299D02*
X157533333Y-100754299D01*
X157533333Y-100754299D02*
X157647618Y-100801918D01*
X157647618Y-100801918D02*
X157685714Y-100849537D01*
X158447618Y-101754299D02*
X157990475Y-101754299D01*
X158219047Y-101754299D02*
X158219047Y-100754299D01*
X158219047Y-100754299D02*
X158142856Y-100897156D01*
X158142856Y-100897156D02*
X158066666Y-100992394D01*
X158066666Y-100992394D02*
X157990475Y-101040013D01*
X158942857Y-100754299D02*
X159019047Y-100754299D01*
X159019047Y-100754299D02*
X159095238Y-100801918D01*
X159095238Y-100801918D02*
X159133333Y-100849537D01*
X159133333Y-100849537D02*
X159171428Y-100944775D01*
X159171428Y-100944775D02*
X159209523Y-101135251D01*
X159209523Y-101135251D02*
X159209523Y-101373346D01*
X159209523Y-101373346D02*
X159171428Y-101563822D01*
X159171428Y-101563822D02*
X159133333Y-101659060D01*
X159133333Y-101659060D02*
X159095238Y-101706680D01*
X159095238Y-101706680D02*
X159019047Y-101754299D01*
X159019047Y-101754299D02*
X158942857Y-101754299D01*
X158942857Y-101754299D02*
X158866666Y-101706680D01*
X158866666Y-101706680D02*
X158828571Y-101659060D01*
X158828571Y-101659060D02*
X158790476Y-101563822D01*
X158790476Y-101563822D02*
X158752380Y-101373346D01*
X158752380Y-101373346D02*
X158752380Y-101135251D01*
X158752380Y-101135251D02*
X158790476Y-100944775D01*
X158790476Y-100944775D02*
X158828571Y-100849537D01*
X158828571Y-100849537D02*
X158866666Y-100801918D01*
X158866666Y-100801918D02*
X158942857Y-100754299D01*
X138333333Y-101409899D02*
X138333333Y-102124184D01*
X138333333Y-102124184D02*
X138295238Y-102267041D01*
X138295238Y-102267041D02*
X138219047Y-102362280D01*
X138219047Y-102362280D02*
X138104762Y-102409899D01*
X138104762Y-102409899D02*
X138028571Y-102409899D01*
X138676190Y-101505137D02*
X138714286Y-101457518D01*
X138714286Y-101457518D02*
X138790476Y-101409899D01*
X138790476Y-101409899D02*
X138980952Y-101409899D01*
X138980952Y-101409899D02*
X139057143Y-101457518D01*
X139057143Y-101457518D02*
X139095238Y-101505137D01*
X139095238Y-101505137D02*
X139133333Y-101600375D01*
X139133333Y-101600375D02*
X139133333Y-101695613D01*
X139133333Y-101695613D02*
X139095238Y-101838470D01*
X139095238Y-101838470D02*
X138638095Y-102409899D01*
X138638095Y-102409899D02*
X139133333Y-102409899D01*
X163769048Y-103204299D02*
X163769048Y-102204299D01*
X164607143Y-103109060D02*
X164569047Y-103156680D01*
X164569047Y-103156680D02*
X164454762Y-103204299D01*
X164454762Y-103204299D02*
X164378571Y-103204299D01*
X164378571Y-103204299D02*
X164264285Y-103156680D01*
X164264285Y-103156680D02*
X164188095Y-103061441D01*
X164188095Y-103061441D02*
X164150000Y-102966203D01*
X164150000Y-102966203D02*
X164111904Y-102775727D01*
X164111904Y-102775727D02*
X164111904Y-102632870D01*
X164111904Y-102632870D02*
X164150000Y-102442394D01*
X164150000Y-102442394D02*
X164188095Y-102347156D01*
X164188095Y-102347156D02*
X164264285Y-102251918D01*
X164264285Y-102251918D02*
X164378571Y-102204299D01*
X164378571Y-102204299D02*
X164454762Y-102204299D01*
X164454762Y-102204299D02*
X164569047Y-102251918D01*
X164569047Y-102251918D02*
X164607143Y-102299537D01*
X165369047Y-103204299D02*
X164911904Y-103204299D01*
X165140476Y-103204299D02*
X165140476Y-102204299D01*
X165140476Y-102204299D02*
X165064285Y-102347156D01*
X165064285Y-102347156D02*
X164988095Y-102442394D01*
X164988095Y-102442394D02*
X164911904Y-102490013D01*
X150898102Y-128863236D02*
X150631436Y-128863236D01*
X150631436Y-129387046D02*
X150631436Y-128387046D01*
X150631436Y-128387046D02*
X151012388Y-128387046D01*
X151698102Y-129387046D02*
X151317150Y-129387046D01*
X151317150Y-129387046D02*
X151317150Y-128387046D01*
X152383816Y-129387046D02*
X151926673Y-129387046D01*
X152155245Y-129387046D02*
X152155245Y-128387046D01*
X152155245Y-128387046D02*
X152079054Y-128529903D01*
X152079054Y-128529903D02*
X152002864Y-128625141D01*
X152002864Y-128625141D02*
X151926673Y-128672760D01*
X178009524Y-112633299D02*
X178009524Y-111633299D01*
X178009524Y-111633299D02*
X178200000Y-111633299D01*
X178200000Y-111633299D02*
X178314286Y-111680918D01*
X178314286Y-111680918D02*
X178390476Y-111776156D01*
X178390476Y-111776156D02*
X178428571Y-111871394D01*
X178428571Y-111871394D02*
X178466667Y-112061870D01*
X178466667Y-112061870D02*
X178466667Y-112204727D01*
X178466667Y-112204727D02*
X178428571Y-112395203D01*
X178428571Y-112395203D02*
X178390476Y-112490441D01*
X178390476Y-112490441D02*
X178314286Y-112585680D01*
X178314286Y-112585680D02*
X178200000Y-112633299D01*
X178200000Y-112633299D02*
X178009524Y-112633299D01*
X178771428Y-111728537D02*
X178809524Y-111680918D01*
X178809524Y-111680918D02*
X178885714Y-111633299D01*
X178885714Y-111633299D02*
X179076190Y-111633299D01*
X179076190Y-111633299D02*
X179152381Y-111680918D01*
X179152381Y-111680918D02*
X179190476Y-111728537D01*
X179190476Y-111728537D02*
X179228571Y-111823775D01*
X179228571Y-111823775D02*
X179228571Y-111919013D01*
X179228571Y-111919013D02*
X179190476Y-112061870D01*
X179190476Y-112061870D02*
X178733333Y-112633299D01*
X178733333Y-112633299D02*
X179228571Y-112633299D01*
X141998761Y-124152299D02*
X141541618Y-124152299D01*
X141770190Y-124152299D02*
X141770190Y-123152299D01*
X141770190Y-123152299D02*
X141693999Y-123295156D01*
X141693999Y-123295156D02*
X141617809Y-123390394D01*
X141617809Y-123390394D02*
X141541618Y-123438013D01*
X142227333Y-123152299D02*
X142494000Y-124152299D01*
X142494000Y-124152299D02*
X142760666Y-123152299D01*
X142989237Y-123247537D02*
X143027333Y-123199918D01*
X143027333Y-123199918D02*
X143103523Y-123152299D01*
X143103523Y-123152299D02*
X143293999Y-123152299D01*
X143293999Y-123152299D02*
X143370190Y-123199918D01*
X143370190Y-123199918D02*
X143408285Y-123247537D01*
X143408285Y-123247537D02*
X143446380Y-123342775D01*
X143446380Y-123342775D02*
X143446380Y-123438013D01*
X143446380Y-123438013D02*
X143408285Y-123580870D01*
X143408285Y-123580870D02*
X142951142Y-124152299D01*
X142951142Y-124152299D02*
X143446380Y-124152299D01*
X145056810Y-116058060D02*
X145018714Y-116105680D01*
X145018714Y-116105680D02*
X144904429Y-116153299D01*
X144904429Y-116153299D02*
X144828238Y-116153299D01*
X144828238Y-116153299D02*
X144713952Y-116105680D01*
X144713952Y-116105680D02*
X144637762Y-116010441D01*
X144637762Y-116010441D02*
X144599667Y-115915203D01*
X144599667Y-115915203D02*
X144561571Y-115724727D01*
X144561571Y-115724727D02*
X144561571Y-115581870D01*
X144561571Y-115581870D02*
X144599667Y-115391394D01*
X144599667Y-115391394D02*
X144637762Y-115296156D01*
X144637762Y-115296156D02*
X144713952Y-115200918D01*
X144713952Y-115200918D02*
X144828238Y-115153299D01*
X144828238Y-115153299D02*
X144904429Y-115153299D01*
X144904429Y-115153299D02*
X145018714Y-115200918D01*
X145018714Y-115200918D02*
X145056810Y-115248537D01*
X145780619Y-116153299D02*
X145399667Y-116153299D01*
X145399667Y-116153299D02*
X145399667Y-115153299D01*
X146047286Y-116153299D02*
X146047286Y-115153299D01*
X146504429Y-116153299D02*
X146161571Y-115581870D01*
X146504429Y-115153299D02*
X146047286Y-115724727D01*
X164216667Y-85909060D02*
X164178571Y-85956680D01*
X164178571Y-85956680D02*
X164064286Y-86004299D01*
X164064286Y-86004299D02*
X163988095Y-86004299D01*
X163988095Y-86004299D02*
X163873809Y-85956680D01*
X163873809Y-85956680D02*
X163797619Y-85861441D01*
X163797619Y-85861441D02*
X163759524Y-85766203D01*
X163759524Y-85766203D02*
X163721428Y-85575727D01*
X163721428Y-85575727D02*
X163721428Y-85432870D01*
X163721428Y-85432870D02*
X163759524Y-85242394D01*
X163759524Y-85242394D02*
X163797619Y-85147156D01*
X163797619Y-85147156D02*
X163873809Y-85051918D01*
X163873809Y-85051918D02*
X163988095Y-85004299D01*
X163988095Y-85004299D02*
X164064286Y-85004299D01*
X164064286Y-85004299D02*
X164178571Y-85051918D01*
X164178571Y-85051918D02*
X164216667Y-85099537D01*
X164902381Y-85004299D02*
X164750000Y-85004299D01*
X164750000Y-85004299D02*
X164673809Y-85051918D01*
X164673809Y-85051918D02*
X164635714Y-85099537D01*
X164635714Y-85099537D02*
X164559524Y-85242394D01*
X164559524Y-85242394D02*
X164521428Y-85432870D01*
X164521428Y-85432870D02*
X164521428Y-85813822D01*
X164521428Y-85813822D02*
X164559524Y-85909060D01*
X164559524Y-85909060D02*
X164597619Y-85956680D01*
X164597619Y-85956680D02*
X164673809Y-86004299D01*
X164673809Y-86004299D02*
X164826190Y-86004299D01*
X164826190Y-86004299D02*
X164902381Y-85956680D01*
X164902381Y-85956680D02*
X164940476Y-85909060D01*
X164940476Y-85909060D02*
X164978571Y-85813822D01*
X164978571Y-85813822D02*
X164978571Y-85575727D01*
X164978571Y-85575727D02*
X164940476Y-85480489D01*
X164940476Y-85480489D02*
X164902381Y-85432870D01*
X164902381Y-85432870D02*
X164826190Y-85385251D01*
X164826190Y-85385251D02*
X164673809Y-85385251D01*
X164673809Y-85385251D02*
X164597619Y-85432870D01*
X164597619Y-85432870D02*
X164559524Y-85480489D01*
X164559524Y-85480489D02*
X164521428Y-85575727D01*
X158840476Y-94454299D02*
X159297619Y-94454299D01*
X159069047Y-95454299D02*
X159069047Y-94454299D01*
X159488095Y-94454299D02*
X160021429Y-95454299D01*
X160021429Y-94454299D02*
X159488095Y-95454299D01*
X157516667Y-89242334D02*
X157250000Y-88766143D01*
X157059524Y-89242334D02*
X157059524Y-88242334D01*
X157059524Y-88242334D02*
X157364286Y-88242334D01*
X157364286Y-88242334D02*
X157440476Y-88289953D01*
X157440476Y-88289953D02*
X157478571Y-88337572D01*
X157478571Y-88337572D02*
X157516667Y-88432810D01*
X157516667Y-88432810D02*
X157516667Y-88575667D01*
X157516667Y-88575667D02*
X157478571Y-88670905D01*
X157478571Y-88670905D02*
X157440476Y-88718524D01*
X157440476Y-88718524D02*
X157364286Y-88766143D01*
X157364286Y-88766143D02*
X157059524Y-88766143D01*
X157821428Y-88337572D02*
X157859524Y-88289953D01*
X157859524Y-88289953D02*
X157935714Y-88242334D01*
X157935714Y-88242334D02*
X158126190Y-88242334D01*
X158126190Y-88242334D02*
X158202381Y-88289953D01*
X158202381Y-88289953D02*
X158240476Y-88337572D01*
X158240476Y-88337572D02*
X158278571Y-88432810D01*
X158278571Y-88432810D02*
X158278571Y-88528048D01*
X158278571Y-88528048D02*
X158240476Y-88670905D01*
X158240476Y-88670905D02*
X157783333Y-89242334D01*
X157783333Y-89242334D02*
X158278571Y-89242334D01*
X167816667Y-91359060D02*
X167778571Y-91406680D01*
X167778571Y-91406680D02*
X167664286Y-91454299D01*
X167664286Y-91454299D02*
X167588095Y-91454299D01*
X167588095Y-91454299D02*
X167473809Y-91406680D01*
X167473809Y-91406680D02*
X167397619Y-91311441D01*
X167397619Y-91311441D02*
X167359524Y-91216203D01*
X167359524Y-91216203D02*
X167321428Y-91025727D01*
X167321428Y-91025727D02*
X167321428Y-90882870D01*
X167321428Y-90882870D02*
X167359524Y-90692394D01*
X167359524Y-90692394D02*
X167397619Y-90597156D01*
X167397619Y-90597156D02*
X167473809Y-90501918D01*
X167473809Y-90501918D02*
X167588095Y-90454299D01*
X167588095Y-90454299D02*
X167664286Y-90454299D01*
X167664286Y-90454299D02*
X167778571Y-90501918D01*
X167778571Y-90501918D02*
X167816667Y-90549537D01*
X168273809Y-90882870D02*
X168197619Y-90835251D01*
X168197619Y-90835251D02*
X168159524Y-90787632D01*
X168159524Y-90787632D02*
X168121428Y-90692394D01*
X168121428Y-90692394D02*
X168121428Y-90644775D01*
X168121428Y-90644775D02*
X168159524Y-90549537D01*
X168159524Y-90549537D02*
X168197619Y-90501918D01*
X168197619Y-90501918D02*
X168273809Y-90454299D01*
X168273809Y-90454299D02*
X168426190Y-90454299D01*
X168426190Y-90454299D02*
X168502381Y-90501918D01*
X168502381Y-90501918D02*
X168540476Y-90549537D01*
X168540476Y-90549537D02*
X168578571Y-90644775D01*
X168578571Y-90644775D02*
X168578571Y-90692394D01*
X168578571Y-90692394D02*
X168540476Y-90787632D01*
X168540476Y-90787632D02*
X168502381Y-90835251D01*
X168502381Y-90835251D02*
X168426190Y-90882870D01*
X168426190Y-90882870D02*
X168273809Y-90882870D01*
X168273809Y-90882870D02*
X168197619Y-90930489D01*
X168197619Y-90930489D02*
X168159524Y-90978108D01*
X168159524Y-90978108D02*
X168121428Y-91073346D01*
X168121428Y-91073346D02*
X168121428Y-91263822D01*
X168121428Y-91263822D02*
X168159524Y-91359060D01*
X168159524Y-91359060D02*
X168197619Y-91406680D01*
X168197619Y-91406680D02*
X168273809Y-91454299D01*
X168273809Y-91454299D02*
X168426190Y-91454299D01*
X168426190Y-91454299D02*
X168502381Y-91406680D01*
X168502381Y-91406680D02*
X168540476Y-91359060D01*
X168540476Y-91359060D02*
X168578571Y-91263822D01*
X168578571Y-91263822D02*
X168578571Y-91073346D01*
X168578571Y-91073346D02*
X168540476Y-90978108D01*
X168540476Y-90978108D02*
X168502381Y-90930489D01*
X168502381Y-90930489D02*
X168426190Y-90882870D01*
X146075523Y-123152299D02*
X146570761Y-123152299D01*
X146570761Y-123152299D02*
X146304095Y-123533251D01*
X146304095Y-123533251D02*
X146418380Y-123533251D01*
X146418380Y-123533251D02*
X146494571Y-123580870D01*
X146494571Y-123580870D02*
X146532666Y-123628489D01*
X146532666Y-123628489D02*
X146570761Y-123723727D01*
X146570761Y-123723727D02*
X146570761Y-123961822D01*
X146570761Y-123961822D02*
X146532666Y-124057060D01*
X146532666Y-124057060D02*
X146494571Y-124104680D01*
X146494571Y-124104680D02*
X146418380Y-124152299D01*
X146418380Y-124152299D02*
X146189809Y-124152299D01*
X146189809Y-124152299D02*
X146113618Y-124104680D01*
X146113618Y-124104680D02*
X146075523Y-124057060D01*
X146799333Y-123152299D02*
X147066000Y-124152299D01*
X147066000Y-124152299D02*
X147332666Y-123152299D01*
X147523142Y-123152299D02*
X148018380Y-123152299D01*
X148018380Y-123152299D02*
X147751714Y-123533251D01*
X147751714Y-123533251D02*
X147865999Y-123533251D01*
X147865999Y-123533251D02*
X147942190Y-123580870D01*
X147942190Y-123580870D02*
X147980285Y-123628489D01*
X147980285Y-123628489D02*
X148018380Y-123723727D01*
X148018380Y-123723727D02*
X148018380Y-123961822D01*
X148018380Y-123961822D02*
X147980285Y-124057060D01*
X147980285Y-124057060D02*
X147942190Y-124104680D01*
X147942190Y-124104680D02*
X147865999Y-124152299D01*
X147865999Y-124152299D02*
X147637428Y-124152299D01*
X147637428Y-124152299D02*
X147561237Y-124104680D01*
X147561237Y-124104680D02*
X147523142Y-124057060D01*
X160937392Y-113516060D02*
X160899296Y-113563680D01*
X160899296Y-113563680D02*
X160785011Y-113611299D01*
X160785011Y-113611299D02*
X160708820Y-113611299D01*
X160708820Y-113611299D02*
X160594534Y-113563680D01*
X160594534Y-113563680D02*
X160518344Y-113468441D01*
X160518344Y-113468441D02*
X160480249Y-113373203D01*
X160480249Y-113373203D02*
X160442153Y-113182727D01*
X160442153Y-113182727D02*
X160442153Y-113039870D01*
X160442153Y-113039870D02*
X160480249Y-112849394D01*
X160480249Y-112849394D02*
X160518344Y-112754156D01*
X160518344Y-112754156D02*
X160594534Y-112658918D01*
X160594534Y-112658918D02*
X160708820Y-112611299D01*
X160708820Y-112611299D02*
X160785011Y-112611299D01*
X160785011Y-112611299D02*
X160899296Y-112658918D01*
X160899296Y-112658918D02*
X160937392Y-112706537D01*
X161699296Y-113611299D02*
X161242153Y-113611299D01*
X161470725Y-113611299D02*
X161470725Y-112611299D01*
X161470725Y-112611299D02*
X161394534Y-112754156D01*
X161394534Y-112754156D02*
X161318344Y-112849394D01*
X161318344Y-112849394D02*
X161242153Y-112897013D01*
X162385011Y-112944632D02*
X162385011Y-113611299D01*
X162194535Y-112563680D02*
X162004058Y-113277965D01*
X162004058Y-113277965D02*
X162499297Y-113277965D01*
X155683048Y-118310299D02*
X155683048Y-117310299D01*
X156521143Y-118215060D02*
X156483047Y-118262680D01*
X156483047Y-118262680D02*
X156368762Y-118310299D01*
X156368762Y-118310299D02*
X156292571Y-118310299D01*
X156292571Y-118310299D02*
X156178285Y-118262680D01*
X156178285Y-118262680D02*
X156102095Y-118167441D01*
X156102095Y-118167441D02*
X156064000Y-118072203D01*
X156064000Y-118072203D02*
X156025904Y-117881727D01*
X156025904Y-117881727D02*
X156025904Y-117738870D01*
X156025904Y-117738870D02*
X156064000Y-117548394D01*
X156064000Y-117548394D02*
X156102095Y-117453156D01*
X156102095Y-117453156D02*
X156178285Y-117357918D01*
X156178285Y-117357918D02*
X156292571Y-117310299D01*
X156292571Y-117310299D02*
X156368762Y-117310299D01*
X156368762Y-117310299D02*
X156483047Y-117357918D01*
X156483047Y-117357918D02*
X156521143Y-117405537D01*
X156787809Y-117310299D02*
X157283047Y-117310299D01*
X157283047Y-117310299D02*
X157016381Y-117691251D01*
X157016381Y-117691251D02*
X157130666Y-117691251D01*
X157130666Y-117691251D02*
X157206857Y-117738870D01*
X157206857Y-117738870D02*
X157244952Y-117786489D01*
X157244952Y-117786489D02*
X157283047Y-117881727D01*
X157283047Y-117881727D02*
X157283047Y-118119822D01*
X157283047Y-118119822D02*
X157244952Y-118215060D01*
X157244952Y-118215060D02*
X157206857Y-118262680D01*
X157206857Y-118262680D02*
X157130666Y-118310299D01*
X157130666Y-118310299D02*
X156902095Y-118310299D01*
X156902095Y-118310299D02*
X156825904Y-118262680D01*
X156825904Y-118262680D02*
X156787809Y-118215060D01*
X150985714Y-103154299D02*
X150719047Y-102678108D01*
X150528571Y-103154299D02*
X150528571Y-102154299D01*
X150528571Y-102154299D02*
X150833333Y-102154299D01*
X150833333Y-102154299D02*
X150909523Y-102201918D01*
X150909523Y-102201918D02*
X150947618Y-102249537D01*
X150947618Y-102249537D02*
X150985714Y-102344775D01*
X150985714Y-102344775D02*
X150985714Y-102487632D01*
X150985714Y-102487632D02*
X150947618Y-102582870D01*
X150947618Y-102582870D02*
X150909523Y-102630489D01*
X150909523Y-102630489D02*
X150833333Y-102678108D01*
X150833333Y-102678108D02*
X150528571Y-102678108D01*
X151747618Y-103154299D02*
X151290475Y-103154299D01*
X151519047Y-103154299D02*
X151519047Y-102154299D01*
X151519047Y-102154299D02*
X151442856Y-102297156D01*
X151442856Y-102297156D02*
X151366666Y-102392394D01*
X151366666Y-102392394D02*
X151290475Y-102440013D01*
X152509523Y-103154299D02*
X152052380Y-103154299D01*
X152280952Y-103154299D02*
X152280952Y-102154299D01*
X152280952Y-102154299D02*
X152204761Y-102297156D01*
X152204761Y-102297156D02*
X152128571Y-102392394D01*
X152128571Y-102392394D02*
X152052380Y-102440013D01*
X156016667Y-86904299D02*
X155750000Y-86428108D01*
X155559524Y-86904299D02*
X155559524Y-85904299D01*
X155559524Y-85904299D02*
X155864286Y-85904299D01*
X155864286Y-85904299D02*
X155940476Y-85951918D01*
X155940476Y-85951918D02*
X155978571Y-85999537D01*
X155978571Y-85999537D02*
X156016667Y-86094775D01*
X156016667Y-86094775D02*
X156016667Y-86237632D01*
X156016667Y-86237632D02*
X155978571Y-86332870D01*
X155978571Y-86332870D02*
X155940476Y-86380489D01*
X155940476Y-86380489D02*
X155864286Y-86428108D01*
X155864286Y-86428108D02*
X155559524Y-86428108D01*
X156702381Y-86237632D02*
X156702381Y-86904299D01*
X156511905Y-85856680D02*
X156321428Y-86570965D01*
X156321428Y-86570965D02*
X156816667Y-86570965D01*
X138983333Y-93778799D02*
X138983333Y-92778799D01*
X138983333Y-92778799D02*
X139288095Y-92778799D01*
X139288095Y-92778799D02*
X139364285Y-92826418D01*
X139364285Y-92826418D02*
X139402380Y-92874037D01*
X139402380Y-92874037D02*
X139440476Y-92969275D01*
X139440476Y-92969275D02*
X139440476Y-93112132D01*
X139440476Y-93112132D02*
X139402380Y-93207370D01*
X139402380Y-93207370D02*
X139364285Y-93254989D01*
X139364285Y-93254989D02*
X139288095Y-93302608D01*
X139288095Y-93302608D02*
X138983333Y-93302608D01*
X139707142Y-92778799D02*
X139897618Y-93778799D01*
X139897618Y-93778799D02*
X140049999Y-93064513D01*
X140049999Y-93064513D02*
X140202380Y-93778799D01*
X140202380Y-93778799D02*
X140392857Y-92778799D01*
X141154762Y-93778799D02*
X140888095Y-93302608D01*
X140697619Y-93778799D02*
X140697619Y-92778799D01*
X140697619Y-92778799D02*
X141002381Y-92778799D01*
X141002381Y-92778799D02*
X141078571Y-92826418D01*
X141078571Y-92826418D02*
X141116666Y-92874037D01*
X141116666Y-92874037D02*
X141154762Y-92969275D01*
X141154762Y-92969275D02*
X141154762Y-93112132D01*
X141154762Y-93112132D02*
X141116666Y-93207370D01*
X141116666Y-93207370D02*
X141078571Y-93254989D01*
X141078571Y-93254989D02*
X141002381Y-93302608D01*
X141002381Y-93302608D02*
X140697619Y-93302608D01*
X143185483Y-93778799D02*
X143185483Y-92778799D01*
X143185483Y-92778799D02*
X143375959Y-92778799D01*
X143375959Y-92778799D02*
X143490245Y-92826418D01*
X143490245Y-92826418D02*
X143566435Y-92921656D01*
X143566435Y-92921656D02*
X143604530Y-93016894D01*
X143604530Y-93016894D02*
X143642626Y-93207370D01*
X143642626Y-93207370D02*
X143642626Y-93350227D01*
X143642626Y-93350227D02*
X143604530Y-93540703D01*
X143604530Y-93540703D02*
X143566435Y-93635941D01*
X143566435Y-93635941D02*
X143490245Y-93731180D01*
X143490245Y-93731180D02*
X143375959Y-93778799D01*
X143375959Y-93778799D02*
X143185483Y-93778799D01*
X144137864Y-92778799D02*
X144290245Y-92778799D01*
X144290245Y-92778799D02*
X144366435Y-92826418D01*
X144366435Y-92826418D02*
X144442626Y-92921656D01*
X144442626Y-92921656D02*
X144480721Y-93112132D01*
X144480721Y-93112132D02*
X144480721Y-93445465D01*
X144480721Y-93445465D02*
X144442626Y-93635941D01*
X144442626Y-93635941D02*
X144366435Y-93731180D01*
X144366435Y-93731180D02*
X144290245Y-93778799D01*
X144290245Y-93778799D02*
X144137864Y-93778799D01*
X144137864Y-93778799D02*
X144061673Y-93731180D01*
X144061673Y-93731180D02*
X143985483Y-93635941D01*
X143985483Y-93635941D02*
X143947387Y-93445465D01*
X143947387Y-93445465D02*
X143947387Y-93112132D01*
X143947387Y-93112132D02*
X143985483Y-92921656D01*
X143985483Y-92921656D02*
X144061673Y-92826418D01*
X144061673Y-92826418D02*
X144137864Y-92778799D01*
X144823578Y-93778799D02*
X144823578Y-92778799D01*
X144823578Y-92778799D02*
X145280721Y-93778799D01*
X145280721Y-93778799D02*
X145280721Y-92778799D01*
X145661673Y-93254989D02*
X145928339Y-93254989D01*
X146042625Y-93778799D02*
X145661673Y-93778799D01*
X145661673Y-93778799D02*
X145661673Y-92778799D01*
X145661673Y-92778799D02*
X146042625Y-92778799D01*
X165169867Y-96154299D02*
X164903200Y-95678108D01*
X164712724Y-96154299D02*
X164712724Y-95154299D01*
X164712724Y-95154299D02*
X165017486Y-95154299D01*
X165017486Y-95154299D02*
X165093676Y-95201918D01*
X165093676Y-95201918D02*
X165131771Y-95249537D01*
X165131771Y-95249537D02*
X165169867Y-95344775D01*
X165169867Y-95344775D02*
X165169867Y-95487632D01*
X165169867Y-95487632D02*
X165131771Y-95582870D01*
X165131771Y-95582870D02*
X165093676Y-95630489D01*
X165093676Y-95630489D02*
X165017486Y-95678108D01*
X165017486Y-95678108D02*
X164712724Y-95678108D01*
X165436533Y-95154299D02*
X165969867Y-95154299D01*
X165969867Y-95154299D02*
X165627009Y-96154299D01*
X164585714Y-101859060D02*
X164547618Y-101906680D01*
X164547618Y-101906680D02*
X164433333Y-101954299D01*
X164433333Y-101954299D02*
X164357142Y-101954299D01*
X164357142Y-101954299D02*
X164242856Y-101906680D01*
X164242856Y-101906680D02*
X164166666Y-101811441D01*
X164166666Y-101811441D02*
X164128571Y-101716203D01*
X164128571Y-101716203D02*
X164090475Y-101525727D01*
X164090475Y-101525727D02*
X164090475Y-101382870D01*
X164090475Y-101382870D02*
X164128571Y-101192394D01*
X164128571Y-101192394D02*
X164166666Y-101097156D01*
X164166666Y-101097156D02*
X164242856Y-101001918D01*
X164242856Y-101001918D02*
X164357142Y-100954299D01*
X164357142Y-100954299D02*
X164433333Y-100954299D01*
X164433333Y-100954299D02*
X164547618Y-101001918D01*
X164547618Y-101001918D02*
X164585714Y-101049537D01*
X165347618Y-101954299D02*
X164890475Y-101954299D01*
X165119047Y-101954299D02*
X165119047Y-100954299D01*
X165119047Y-100954299D02*
X165042856Y-101097156D01*
X165042856Y-101097156D02*
X164966666Y-101192394D01*
X164966666Y-101192394D02*
X164890475Y-101240013D01*
X165728571Y-101954299D02*
X165880952Y-101954299D01*
X165880952Y-101954299D02*
X165957142Y-101906680D01*
X165957142Y-101906680D02*
X165995238Y-101859060D01*
X165995238Y-101859060D02*
X166071428Y-101716203D01*
X166071428Y-101716203D02*
X166109523Y-101525727D01*
X166109523Y-101525727D02*
X166109523Y-101144775D01*
X166109523Y-101144775D02*
X166071428Y-101049537D01*
X166071428Y-101049537D02*
X166033333Y-101001918D01*
X166033333Y-101001918D02*
X165957142Y-100954299D01*
X165957142Y-100954299D02*
X165804761Y-100954299D01*
X165804761Y-100954299D02*
X165728571Y-101001918D01*
X165728571Y-101001918D02*
X165690476Y-101049537D01*
X165690476Y-101049537D02*
X165652380Y-101144775D01*
X165652380Y-101144775D02*
X165652380Y-101382870D01*
X165652380Y-101382870D02*
X165690476Y-101478108D01*
X165690476Y-101478108D02*
X165728571Y-101525727D01*
X165728571Y-101525727D02*
X165804761Y-101573346D01*
X165804761Y-101573346D02*
X165957142Y-101573346D01*
X165957142Y-101573346D02*
X166033333Y-101525727D01*
X166033333Y-101525727D02*
X166071428Y-101478108D01*
X166071428Y-101478108D02*
X166109523Y-101382870D01*
X154971749Y-123782311D02*
X154705083Y-123782311D01*
X154705083Y-124306121D02*
X154705083Y-123306121D01*
X154705083Y-123306121D02*
X155086035Y-123306121D01*
X155809844Y-124306121D02*
X155352701Y-124306121D01*
X155581273Y-124306121D02*
X155581273Y-123306121D01*
X155581273Y-123306121D02*
X155505082Y-123448978D01*
X155505082Y-123448978D02*
X155428892Y-123544216D01*
X155428892Y-123544216D02*
X155352701Y-123591835D01*
X141585714Y-112754299D02*
X141319047Y-112278108D01*
X141128571Y-112754299D02*
X141128571Y-111754299D01*
X141128571Y-111754299D02*
X141433333Y-111754299D01*
X141433333Y-111754299D02*
X141509523Y-111801918D01*
X141509523Y-111801918D02*
X141547618Y-111849537D01*
X141547618Y-111849537D02*
X141585714Y-111944775D01*
X141585714Y-111944775D02*
X141585714Y-112087632D01*
X141585714Y-112087632D02*
X141547618Y-112182870D01*
X141547618Y-112182870D02*
X141509523Y-112230489D01*
X141509523Y-112230489D02*
X141433333Y-112278108D01*
X141433333Y-112278108D02*
X141128571Y-112278108D01*
X142347618Y-112754299D02*
X141890475Y-112754299D01*
X142119047Y-112754299D02*
X142119047Y-111754299D01*
X142119047Y-111754299D02*
X142042856Y-111897156D01*
X142042856Y-111897156D02*
X141966666Y-111992394D01*
X141966666Y-111992394D02*
X141890475Y-112040013D01*
X142804761Y-112182870D02*
X142728571Y-112135251D01*
X142728571Y-112135251D02*
X142690476Y-112087632D01*
X142690476Y-112087632D02*
X142652380Y-111992394D01*
X142652380Y-111992394D02*
X142652380Y-111944775D01*
X142652380Y-111944775D02*
X142690476Y-111849537D01*
X142690476Y-111849537D02*
X142728571Y-111801918D01*
X142728571Y-111801918D02*
X142804761Y-111754299D01*
X142804761Y-111754299D02*
X142957142Y-111754299D01*
X142957142Y-111754299D02*
X143033333Y-111801918D01*
X143033333Y-111801918D02*
X143071428Y-111849537D01*
X143071428Y-111849537D02*
X143109523Y-111944775D01*
X143109523Y-111944775D02*
X143109523Y-111992394D01*
X143109523Y-111992394D02*
X143071428Y-112087632D01*
X143071428Y-112087632D02*
X143033333Y-112135251D01*
X143033333Y-112135251D02*
X142957142Y-112182870D01*
X142957142Y-112182870D02*
X142804761Y-112182870D01*
X142804761Y-112182870D02*
X142728571Y-112230489D01*
X142728571Y-112230489D02*
X142690476Y-112278108D01*
X142690476Y-112278108D02*
X142652380Y-112373346D01*
X142652380Y-112373346D02*
X142652380Y-112563822D01*
X142652380Y-112563822D02*
X142690476Y-112659060D01*
X142690476Y-112659060D02*
X142728571Y-112706680D01*
X142728571Y-112706680D02*
X142804761Y-112754299D01*
X142804761Y-112754299D02*
X142957142Y-112754299D01*
X142957142Y-112754299D02*
X143033333Y-112706680D01*
X143033333Y-112706680D02*
X143071428Y-112659060D01*
X143071428Y-112659060D02*
X143109523Y-112563822D01*
X143109523Y-112563822D02*
X143109523Y-112373346D01*
X143109523Y-112373346D02*
X143071428Y-112278108D01*
X143071428Y-112278108D02*
X143033333Y-112230489D01*
X143033333Y-112230489D02*
X142957142Y-112182870D01*
X139740476Y-128025918D02*
X139664286Y-127978299D01*
X139664286Y-127978299D02*
X139550000Y-127978299D01*
X139550000Y-127978299D02*
X139435714Y-128025918D01*
X139435714Y-128025918D02*
X139359524Y-128121156D01*
X139359524Y-128121156D02*
X139321429Y-128216394D01*
X139321429Y-128216394D02*
X139283333Y-128406870D01*
X139283333Y-128406870D02*
X139283333Y-128549727D01*
X139283333Y-128549727D02*
X139321429Y-128740203D01*
X139321429Y-128740203D02*
X139359524Y-128835441D01*
X139359524Y-128835441D02*
X139435714Y-128930680D01*
X139435714Y-128930680D02*
X139550000Y-128978299D01*
X139550000Y-128978299D02*
X139626191Y-128978299D01*
X139626191Y-128978299D02*
X139740476Y-128930680D01*
X139740476Y-128930680D02*
X139778572Y-128883060D01*
X139778572Y-128883060D02*
X139778572Y-128549727D01*
X139778572Y-128549727D02*
X139626191Y-128549727D01*
X140121429Y-128978299D02*
X140121429Y-127978299D01*
X140121429Y-127978299D02*
X140578572Y-128978299D01*
X140578572Y-128978299D02*
X140578572Y-127978299D01*
X140959524Y-128978299D02*
X140959524Y-127978299D01*
X140959524Y-127978299D02*
X141150000Y-127978299D01*
X141150000Y-127978299D02*
X141264286Y-128025918D01*
X141264286Y-128025918D02*
X141340476Y-128121156D01*
X141340476Y-128121156D02*
X141378571Y-128216394D01*
X141378571Y-128216394D02*
X141416667Y-128406870D01*
X141416667Y-128406870D02*
X141416667Y-128549727D01*
X141416667Y-128549727D02*
X141378571Y-128740203D01*
X141378571Y-128740203D02*
X141340476Y-128835441D01*
X141340476Y-128835441D02*
X141264286Y-128930680D01*
X141264286Y-128930680D02*
X141150000Y-128978299D01*
X141150000Y-128978299D02*
X140959524Y-128978299D01*
X153265619Y-88751060D02*
X153227523Y-88798680D01*
X153227523Y-88798680D02*
X153113238Y-88846299D01*
X153113238Y-88846299D02*
X153037047Y-88846299D01*
X153037047Y-88846299D02*
X152922761Y-88798680D01*
X152922761Y-88798680D02*
X152846571Y-88703441D01*
X152846571Y-88703441D02*
X152808476Y-88608203D01*
X152808476Y-88608203D02*
X152770380Y-88417727D01*
X152770380Y-88417727D02*
X152770380Y-88274870D01*
X152770380Y-88274870D02*
X152808476Y-88084394D01*
X152808476Y-88084394D02*
X152846571Y-87989156D01*
X152846571Y-87989156D02*
X152922761Y-87893918D01*
X152922761Y-87893918D02*
X153037047Y-87846299D01*
X153037047Y-87846299D02*
X153113238Y-87846299D01*
X153113238Y-87846299D02*
X153227523Y-87893918D01*
X153227523Y-87893918D02*
X153265619Y-87941537D01*
X153608476Y-88846299D02*
X153608476Y-87846299D01*
X153608476Y-87846299D02*
X153798952Y-87846299D01*
X153798952Y-87846299D02*
X153913238Y-87893918D01*
X153913238Y-87893918D02*
X153989428Y-87989156D01*
X153989428Y-87989156D02*
X154027523Y-88084394D01*
X154027523Y-88084394D02*
X154065619Y-88274870D01*
X154065619Y-88274870D02*
X154065619Y-88417727D01*
X154065619Y-88417727D02*
X154027523Y-88608203D01*
X154027523Y-88608203D02*
X153989428Y-88703441D01*
X153989428Y-88703441D02*
X153913238Y-88798680D01*
X153913238Y-88798680D02*
X153798952Y-88846299D01*
X153798952Y-88846299D02*
X153608476Y-88846299D01*
X154560857Y-87846299D02*
X154713238Y-87846299D01*
X154713238Y-87846299D02*
X154789428Y-87893918D01*
X154789428Y-87893918D02*
X154865619Y-87989156D01*
X154865619Y-87989156D02*
X154903714Y-88179632D01*
X154903714Y-88179632D02*
X154903714Y-88512965D01*
X154903714Y-88512965D02*
X154865619Y-88703441D01*
X154865619Y-88703441D02*
X154789428Y-88798680D01*
X154789428Y-88798680D02*
X154713238Y-88846299D01*
X154713238Y-88846299D02*
X154560857Y-88846299D01*
X154560857Y-88846299D02*
X154484666Y-88798680D01*
X154484666Y-88798680D02*
X154408476Y-88703441D01*
X154408476Y-88703441D02*
X154370380Y-88512965D01*
X154370380Y-88512965D02*
X154370380Y-88179632D01*
X154370380Y-88179632D02*
X154408476Y-87989156D01*
X154408476Y-87989156D02*
X154484666Y-87893918D01*
X154484666Y-87893918D02*
X154560857Y-87846299D01*
X155246571Y-88846299D02*
X155246571Y-87846299D01*
X155246571Y-87846299D02*
X155703714Y-88846299D01*
X155703714Y-88846299D02*
X155703714Y-87846299D01*
X156084666Y-88322489D02*
X156351332Y-88322489D01*
X156465618Y-88846299D02*
X156084666Y-88846299D01*
X156084666Y-88846299D02*
X156084666Y-87846299D01*
X156084666Y-87846299D02*
X156465618Y-87846299D01*
X163366667Y-119155785D02*
X163328571Y-119203405D01*
X163328571Y-119203405D02*
X163214286Y-119251024D01*
X163214286Y-119251024D02*
X163138095Y-119251024D01*
X163138095Y-119251024D02*
X163023809Y-119203405D01*
X163023809Y-119203405D02*
X162947619Y-119108166D01*
X162947619Y-119108166D02*
X162909524Y-119012928D01*
X162909524Y-119012928D02*
X162871428Y-118822452D01*
X162871428Y-118822452D02*
X162871428Y-118679595D01*
X162871428Y-118679595D02*
X162909524Y-118489119D01*
X162909524Y-118489119D02*
X162947619Y-118393881D01*
X162947619Y-118393881D02*
X163023809Y-118298643D01*
X163023809Y-118298643D02*
X163138095Y-118251024D01*
X163138095Y-118251024D02*
X163214286Y-118251024D01*
X163214286Y-118251024D02*
X163328571Y-118298643D01*
X163328571Y-118298643D02*
X163366667Y-118346262D01*
X164090476Y-118251024D02*
X163709524Y-118251024D01*
X163709524Y-118251024D02*
X163671428Y-118727214D01*
X163671428Y-118727214D02*
X163709524Y-118679595D01*
X163709524Y-118679595D02*
X163785714Y-118631976D01*
X163785714Y-118631976D02*
X163976190Y-118631976D01*
X163976190Y-118631976D02*
X164052381Y-118679595D01*
X164052381Y-118679595D02*
X164090476Y-118727214D01*
X164090476Y-118727214D02*
X164128571Y-118822452D01*
X164128571Y-118822452D02*
X164128571Y-119060547D01*
X164128571Y-119060547D02*
X164090476Y-119155785D01*
X164090476Y-119155785D02*
X164052381Y-119203405D01*
X164052381Y-119203405D02*
X163976190Y-119251024D01*
X163976190Y-119251024D02*
X163785714Y-119251024D01*
X163785714Y-119251024D02*
X163709524Y-119203405D01*
X163709524Y-119203405D02*
X163671428Y-119155785D01*
X179783333Y-117904299D02*
X179783333Y-118618584D01*
X179783333Y-118618584D02*
X179745238Y-118761441D01*
X179745238Y-118761441D02*
X179669047Y-118856680D01*
X179669047Y-118856680D02*
X179554762Y-118904299D01*
X179554762Y-118904299D02*
X179478571Y-118904299D01*
X180583333Y-118904299D02*
X180126190Y-118904299D01*
X180354762Y-118904299D02*
X180354762Y-117904299D01*
X180354762Y-117904299D02*
X180278571Y-118047156D01*
X180278571Y-118047156D02*
X180202381Y-118142394D01*
X180202381Y-118142394D02*
X180126190Y-118190013D01*
X141522514Y-119554299D02*
X141255847Y-119078108D01*
X141065371Y-119554299D02*
X141065371Y-118554299D01*
X141065371Y-118554299D02*
X141370133Y-118554299D01*
X141370133Y-118554299D02*
X141446323Y-118601918D01*
X141446323Y-118601918D02*
X141484418Y-118649537D01*
X141484418Y-118649537D02*
X141522514Y-118744775D01*
X141522514Y-118744775D02*
X141522514Y-118887632D01*
X141522514Y-118887632D02*
X141484418Y-118982870D01*
X141484418Y-118982870D02*
X141446323Y-119030489D01*
X141446323Y-119030489D02*
X141370133Y-119078108D01*
X141370133Y-119078108D02*
X141065371Y-119078108D01*
X142284418Y-119554299D02*
X141827275Y-119554299D01*
X142055847Y-119554299D02*
X142055847Y-118554299D01*
X142055847Y-118554299D02*
X141979656Y-118697156D01*
X141979656Y-118697156D02*
X141903466Y-118792394D01*
X141903466Y-118792394D02*
X141827275Y-118840013D01*
X142970133Y-118554299D02*
X142817752Y-118554299D01*
X142817752Y-118554299D02*
X142741561Y-118601918D01*
X142741561Y-118601918D02*
X142703466Y-118649537D01*
X142703466Y-118649537D02*
X142627276Y-118792394D01*
X142627276Y-118792394D02*
X142589180Y-118982870D01*
X142589180Y-118982870D02*
X142589180Y-119363822D01*
X142589180Y-119363822D02*
X142627276Y-119459060D01*
X142627276Y-119459060D02*
X142665371Y-119506680D01*
X142665371Y-119506680D02*
X142741561Y-119554299D01*
X142741561Y-119554299D02*
X142893942Y-119554299D01*
X142893942Y-119554299D02*
X142970133Y-119506680D01*
X142970133Y-119506680D02*
X143008228Y-119459060D01*
X143008228Y-119459060D02*
X143046323Y-119363822D01*
X143046323Y-119363822D02*
X143046323Y-119125727D01*
X143046323Y-119125727D02*
X143008228Y-119030489D01*
X143008228Y-119030489D02*
X142970133Y-118982870D01*
X142970133Y-118982870D02*
X142893942Y-118935251D01*
X142893942Y-118935251D02*
X142741561Y-118935251D01*
X142741561Y-118935251D02*
X142665371Y-118982870D01*
X142665371Y-118982870D02*
X142627276Y-119030489D01*
X142627276Y-119030489D02*
X142589180Y-119125727D01*
X155187714Y-116564060D02*
X155149618Y-116611680D01*
X155149618Y-116611680D02*
X155035333Y-116659299D01*
X155035333Y-116659299D02*
X154959142Y-116659299D01*
X154959142Y-116659299D02*
X154844856Y-116611680D01*
X154844856Y-116611680D02*
X154768666Y-116516441D01*
X154768666Y-116516441D02*
X154730571Y-116421203D01*
X154730571Y-116421203D02*
X154692475Y-116230727D01*
X154692475Y-116230727D02*
X154692475Y-116087870D01*
X154692475Y-116087870D02*
X154730571Y-115897394D01*
X154730571Y-115897394D02*
X154768666Y-115802156D01*
X154768666Y-115802156D02*
X154844856Y-115706918D01*
X154844856Y-115706918D02*
X154959142Y-115659299D01*
X154959142Y-115659299D02*
X155035333Y-115659299D01*
X155035333Y-115659299D02*
X155149618Y-115706918D01*
X155149618Y-115706918D02*
X155187714Y-115754537D01*
X155492475Y-115754537D02*
X155530571Y-115706918D01*
X155530571Y-115706918D02*
X155606761Y-115659299D01*
X155606761Y-115659299D02*
X155797237Y-115659299D01*
X155797237Y-115659299D02*
X155873428Y-115706918D01*
X155873428Y-115706918D02*
X155911523Y-115754537D01*
X155911523Y-115754537D02*
X155949618Y-115849775D01*
X155949618Y-115849775D02*
X155949618Y-115945013D01*
X155949618Y-115945013D02*
X155911523Y-116087870D01*
X155911523Y-116087870D02*
X155454380Y-116659299D01*
X155454380Y-116659299D02*
X155949618Y-116659299D01*
X156711523Y-116659299D02*
X156254380Y-116659299D01*
X156482952Y-116659299D02*
X156482952Y-115659299D01*
X156482952Y-115659299D02*
X156406761Y-115802156D01*
X156406761Y-115802156D02*
X156330571Y-115897394D01*
X156330571Y-115897394D02*
X156254380Y-115945013D01*
X141852714Y-92054299D02*
X141586047Y-91578108D01*
X141395571Y-92054299D02*
X141395571Y-91054299D01*
X141395571Y-91054299D02*
X141700333Y-91054299D01*
X141700333Y-91054299D02*
X141776523Y-91101918D01*
X141776523Y-91101918D02*
X141814618Y-91149537D01*
X141814618Y-91149537D02*
X141852714Y-91244775D01*
X141852714Y-91244775D02*
X141852714Y-91387632D01*
X141852714Y-91387632D02*
X141814618Y-91482870D01*
X141814618Y-91482870D02*
X141776523Y-91530489D01*
X141776523Y-91530489D02*
X141700333Y-91578108D01*
X141700333Y-91578108D02*
X141395571Y-91578108D01*
X142157475Y-91149537D02*
X142195571Y-91101918D01*
X142195571Y-91101918D02*
X142271761Y-91054299D01*
X142271761Y-91054299D02*
X142462237Y-91054299D01*
X142462237Y-91054299D02*
X142538428Y-91101918D01*
X142538428Y-91101918D02*
X142576523Y-91149537D01*
X142576523Y-91149537D02*
X142614618Y-91244775D01*
X142614618Y-91244775D02*
X142614618Y-91340013D01*
X142614618Y-91340013D02*
X142576523Y-91482870D01*
X142576523Y-91482870D02*
X142119380Y-92054299D01*
X142119380Y-92054299D02*
X142614618Y-92054299D01*
X143109857Y-91054299D02*
X143186047Y-91054299D01*
X143186047Y-91054299D02*
X143262238Y-91101918D01*
X143262238Y-91101918D02*
X143300333Y-91149537D01*
X143300333Y-91149537D02*
X143338428Y-91244775D01*
X143338428Y-91244775D02*
X143376523Y-91435251D01*
X143376523Y-91435251D02*
X143376523Y-91673346D01*
X143376523Y-91673346D02*
X143338428Y-91863822D01*
X143338428Y-91863822D02*
X143300333Y-91959060D01*
X143300333Y-91959060D02*
X143262238Y-92006680D01*
X143262238Y-92006680D02*
X143186047Y-92054299D01*
X143186047Y-92054299D02*
X143109857Y-92054299D01*
X143109857Y-92054299D02*
X143033666Y-92006680D01*
X143033666Y-92006680D02*
X142995571Y-91959060D01*
X142995571Y-91959060D02*
X142957476Y-91863822D01*
X142957476Y-91863822D02*
X142919380Y-91673346D01*
X142919380Y-91673346D02*
X142919380Y-91435251D01*
X142919380Y-91435251D02*
X142957476Y-91244775D01*
X142957476Y-91244775D02*
X142995571Y-91149537D01*
X142995571Y-91149537D02*
X143033666Y-91101918D01*
X143033666Y-91101918D02*
X143109857Y-91054299D01*
X166866667Y-93654299D02*
X166600000Y-93178108D01*
X166409524Y-93654299D02*
X166409524Y-92654299D01*
X166409524Y-92654299D02*
X166714286Y-92654299D01*
X166714286Y-92654299D02*
X166790476Y-92701918D01*
X166790476Y-92701918D02*
X166828571Y-92749537D01*
X166828571Y-92749537D02*
X166866667Y-92844775D01*
X166866667Y-92844775D02*
X166866667Y-92987632D01*
X166866667Y-92987632D02*
X166828571Y-93082870D01*
X166828571Y-93082870D02*
X166790476Y-93130489D01*
X166790476Y-93130489D02*
X166714286Y-93178108D01*
X166714286Y-93178108D02*
X166409524Y-93178108D01*
X167552381Y-92654299D02*
X167400000Y-92654299D01*
X167400000Y-92654299D02*
X167323809Y-92701918D01*
X167323809Y-92701918D02*
X167285714Y-92749537D01*
X167285714Y-92749537D02*
X167209524Y-92892394D01*
X167209524Y-92892394D02*
X167171428Y-93082870D01*
X167171428Y-93082870D02*
X167171428Y-93463822D01*
X167171428Y-93463822D02*
X167209524Y-93559060D01*
X167209524Y-93559060D02*
X167247619Y-93606680D01*
X167247619Y-93606680D02*
X167323809Y-93654299D01*
X167323809Y-93654299D02*
X167476190Y-93654299D01*
X167476190Y-93654299D02*
X167552381Y-93606680D01*
X167552381Y-93606680D02*
X167590476Y-93559060D01*
X167590476Y-93559060D02*
X167628571Y-93463822D01*
X167628571Y-93463822D02*
X167628571Y-93225727D01*
X167628571Y-93225727D02*
X167590476Y-93130489D01*
X167590476Y-93130489D02*
X167552381Y-93082870D01*
X167552381Y-93082870D02*
X167476190Y-93035251D01*
X167476190Y-93035251D02*
X167323809Y-93035251D01*
X167323809Y-93035251D02*
X167247619Y-93082870D01*
X167247619Y-93082870D02*
X167209524Y-93130489D01*
X167209524Y-93130489D02*
X167171428Y-93225727D01*
X149206048Y-122247299D02*
X149206048Y-121247299D01*
X150044143Y-122152060D02*
X150006047Y-122199680D01*
X150006047Y-122199680D02*
X149891762Y-122247299D01*
X149891762Y-122247299D02*
X149815571Y-122247299D01*
X149815571Y-122247299D02*
X149701285Y-122199680D01*
X149701285Y-122199680D02*
X149625095Y-122104441D01*
X149625095Y-122104441D02*
X149587000Y-122009203D01*
X149587000Y-122009203D02*
X149548904Y-121818727D01*
X149548904Y-121818727D02*
X149548904Y-121675870D01*
X149548904Y-121675870D02*
X149587000Y-121485394D01*
X149587000Y-121485394D02*
X149625095Y-121390156D01*
X149625095Y-121390156D02*
X149701285Y-121294918D01*
X149701285Y-121294918D02*
X149815571Y-121247299D01*
X149815571Y-121247299D02*
X149891762Y-121247299D01*
X149891762Y-121247299D02*
X150006047Y-121294918D01*
X150006047Y-121294918D02*
X150044143Y-121342537D01*
X150348904Y-121342537D02*
X150387000Y-121294918D01*
X150387000Y-121294918D02*
X150463190Y-121247299D01*
X150463190Y-121247299D02*
X150653666Y-121247299D01*
X150653666Y-121247299D02*
X150729857Y-121294918D01*
X150729857Y-121294918D02*
X150767952Y-121342537D01*
X150767952Y-121342537D02*
X150806047Y-121437775D01*
X150806047Y-121437775D02*
X150806047Y-121533013D01*
X150806047Y-121533013D02*
X150767952Y-121675870D01*
X150767952Y-121675870D02*
X150310809Y-122247299D01*
X150310809Y-122247299D02*
X150806047Y-122247299D01*
X164706499Y-110809060D02*
X164668403Y-110856680D01*
X164668403Y-110856680D02*
X164554118Y-110904299D01*
X164554118Y-110904299D02*
X164477927Y-110904299D01*
X164477927Y-110904299D02*
X164363641Y-110856680D01*
X164363641Y-110856680D02*
X164287451Y-110761441D01*
X164287451Y-110761441D02*
X164249356Y-110666203D01*
X164249356Y-110666203D02*
X164211260Y-110475727D01*
X164211260Y-110475727D02*
X164211260Y-110332870D01*
X164211260Y-110332870D02*
X164249356Y-110142394D01*
X164249356Y-110142394D02*
X164287451Y-110047156D01*
X164287451Y-110047156D02*
X164363641Y-109951918D01*
X164363641Y-109951918D02*
X164477927Y-109904299D01*
X164477927Y-109904299D02*
X164554118Y-109904299D01*
X164554118Y-109904299D02*
X164668403Y-109951918D01*
X164668403Y-109951918D02*
X164706499Y-109999537D01*
X165468403Y-110904299D02*
X165011260Y-110904299D01*
X165239832Y-110904299D02*
X165239832Y-109904299D01*
X165239832Y-109904299D02*
X165163641Y-110047156D01*
X165163641Y-110047156D02*
X165087451Y-110142394D01*
X165087451Y-110142394D02*
X165011260Y-110190013D01*
X166192213Y-109904299D02*
X165811261Y-109904299D01*
X165811261Y-109904299D02*
X165773165Y-110380489D01*
X165773165Y-110380489D02*
X165811261Y-110332870D01*
X165811261Y-110332870D02*
X165887451Y-110285251D01*
X165887451Y-110285251D02*
X166077927Y-110285251D01*
X166077927Y-110285251D02*
X166154118Y-110332870D01*
X166154118Y-110332870D02*
X166192213Y-110380489D01*
X166192213Y-110380489D02*
X166230308Y-110475727D01*
X166230308Y-110475727D02*
X166230308Y-110713822D01*
X166230308Y-110713822D02*
X166192213Y-110809060D01*
X166192213Y-110809060D02*
X166154118Y-110856680D01*
X166154118Y-110856680D02*
X166077927Y-110904299D01*
X166077927Y-110904299D02*
X165887451Y-110904299D01*
X165887451Y-110904299D02*
X165811261Y-110856680D01*
X165811261Y-110856680D02*
X165773165Y-110809060D01*
X151985714Y-114659060D02*
X151947618Y-114706680D01*
X151947618Y-114706680D02*
X151833333Y-114754299D01*
X151833333Y-114754299D02*
X151757142Y-114754299D01*
X151757142Y-114754299D02*
X151642856Y-114706680D01*
X151642856Y-114706680D02*
X151566666Y-114611441D01*
X151566666Y-114611441D02*
X151528571Y-114516203D01*
X151528571Y-114516203D02*
X151490475Y-114325727D01*
X151490475Y-114325727D02*
X151490475Y-114182870D01*
X151490475Y-114182870D02*
X151528571Y-113992394D01*
X151528571Y-113992394D02*
X151566666Y-113897156D01*
X151566666Y-113897156D02*
X151642856Y-113801918D01*
X151642856Y-113801918D02*
X151757142Y-113754299D01*
X151757142Y-113754299D02*
X151833333Y-113754299D01*
X151833333Y-113754299D02*
X151947618Y-113801918D01*
X151947618Y-113801918D02*
X151985714Y-113849537D01*
X152747618Y-114754299D02*
X152290475Y-114754299D01*
X152519047Y-114754299D02*
X152519047Y-113754299D01*
X152519047Y-113754299D02*
X152442856Y-113897156D01*
X152442856Y-113897156D02*
X152366666Y-113992394D01*
X152366666Y-113992394D02*
X152290475Y-114040013D01*
X153014285Y-113754299D02*
X153547619Y-113754299D01*
X153547619Y-113754299D02*
X153204761Y-114754299D01*
X155470435Y-121454299D02*
X155470435Y-120454299D01*
X155470435Y-120454299D02*
X155660911Y-120454299D01*
X155660911Y-120454299D02*
X155775197Y-120501918D01*
X155775197Y-120501918D02*
X155851387Y-120597156D01*
X155851387Y-120597156D02*
X155889482Y-120692394D01*
X155889482Y-120692394D02*
X155927578Y-120882870D01*
X155927578Y-120882870D02*
X155927578Y-121025727D01*
X155927578Y-121025727D02*
X155889482Y-121216203D01*
X155889482Y-121216203D02*
X155851387Y-121311441D01*
X155851387Y-121311441D02*
X155775197Y-121406680D01*
X155775197Y-121406680D02*
X155660911Y-121454299D01*
X155660911Y-121454299D02*
X155470435Y-121454299D01*
X156689482Y-121454299D02*
X156232339Y-121454299D01*
X156460911Y-121454299D02*
X156460911Y-120454299D01*
X156460911Y-120454299D02*
X156384720Y-120597156D01*
X156384720Y-120597156D02*
X156308530Y-120692394D01*
X156308530Y-120692394D02*
X156232339Y-120740013D01*
X146297714Y-101393899D02*
X146031047Y-100917708D01*
X145840571Y-101393899D02*
X145840571Y-100393899D01*
X145840571Y-100393899D02*
X146145333Y-100393899D01*
X146145333Y-100393899D02*
X146221523Y-100441518D01*
X146221523Y-100441518D02*
X146259618Y-100489137D01*
X146259618Y-100489137D02*
X146297714Y-100584375D01*
X146297714Y-100584375D02*
X146297714Y-100727232D01*
X146297714Y-100727232D02*
X146259618Y-100822470D01*
X146259618Y-100822470D02*
X146221523Y-100870089D01*
X146221523Y-100870089D02*
X146145333Y-100917708D01*
X146145333Y-100917708D02*
X145840571Y-100917708D01*
X146602475Y-100489137D02*
X146640571Y-100441518D01*
X146640571Y-100441518D02*
X146716761Y-100393899D01*
X146716761Y-100393899D02*
X146907237Y-100393899D01*
X146907237Y-100393899D02*
X146983428Y-100441518D01*
X146983428Y-100441518D02*
X147021523Y-100489137D01*
X147021523Y-100489137D02*
X147059618Y-100584375D01*
X147059618Y-100584375D02*
X147059618Y-100679613D01*
X147059618Y-100679613D02*
X147021523Y-100822470D01*
X147021523Y-100822470D02*
X146564380Y-101393899D01*
X146564380Y-101393899D02*
X147059618Y-101393899D01*
X147745333Y-100727232D02*
X147745333Y-101393899D01*
X147554857Y-100346280D02*
X147364380Y-101060565D01*
X147364380Y-101060565D02*
X147859619Y-101060565D01*
X153466667Y-115959060D02*
X153428571Y-116006680D01*
X153428571Y-116006680D02*
X153314286Y-116054299D01*
X153314286Y-116054299D02*
X153238095Y-116054299D01*
X153238095Y-116054299D02*
X153123809Y-116006680D01*
X153123809Y-116006680D02*
X153047619Y-115911441D01*
X153047619Y-115911441D02*
X153009524Y-115816203D01*
X153009524Y-115816203D02*
X152971428Y-115625727D01*
X152971428Y-115625727D02*
X152971428Y-115482870D01*
X152971428Y-115482870D02*
X153009524Y-115292394D01*
X153009524Y-115292394D02*
X153047619Y-115197156D01*
X153047619Y-115197156D02*
X153123809Y-115101918D01*
X153123809Y-115101918D02*
X153238095Y-115054299D01*
X153238095Y-115054299D02*
X153314286Y-115054299D01*
X153314286Y-115054299D02*
X153428571Y-115101918D01*
X153428571Y-115101918D02*
X153466667Y-115149537D01*
X154152381Y-115387632D02*
X154152381Y-116054299D01*
X153961905Y-115006680D02*
X153771428Y-115720965D01*
X153771428Y-115720965D02*
X154266667Y-115720965D01*
X147974114Y-118759060D02*
X147936018Y-118806680D01*
X147936018Y-118806680D02*
X147821733Y-118854299D01*
X147821733Y-118854299D02*
X147745542Y-118854299D01*
X147745542Y-118854299D02*
X147631256Y-118806680D01*
X147631256Y-118806680D02*
X147555066Y-118711441D01*
X147555066Y-118711441D02*
X147516971Y-118616203D01*
X147516971Y-118616203D02*
X147478875Y-118425727D01*
X147478875Y-118425727D02*
X147478875Y-118282870D01*
X147478875Y-118282870D02*
X147516971Y-118092394D01*
X147516971Y-118092394D02*
X147555066Y-117997156D01*
X147555066Y-117997156D02*
X147631256Y-117901918D01*
X147631256Y-117901918D02*
X147745542Y-117854299D01*
X147745542Y-117854299D02*
X147821733Y-117854299D01*
X147821733Y-117854299D02*
X147936018Y-117901918D01*
X147936018Y-117901918D02*
X147974114Y-117949537D01*
X148278875Y-117949537D02*
X148316971Y-117901918D01*
X148316971Y-117901918D02*
X148393161Y-117854299D01*
X148393161Y-117854299D02*
X148583637Y-117854299D01*
X148583637Y-117854299D02*
X148659828Y-117901918D01*
X148659828Y-117901918D02*
X148697923Y-117949537D01*
X148697923Y-117949537D02*
X148736018Y-118044775D01*
X148736018Y-118044775D02*
X148736018Y-118140013D01*
X148736018Y-118140013D02*
X148697923Y-118282870D01*
X148697923Y-118282870D02*
X148240780Y-118854299D01*
X148240780Y-118854299D02*
X148736018Y-118854299D01*
X149040780Y-117949537D02*
X149078876Y-117901918D01*
X149078876Y-117901918D02*
X149155066Y-117854299D01*
X149155066Y-117854299D02*
X149345542Y-117854299D01*
X149345542Y-117854299D02*
X149421733Y-117901918D01*
X149421733Y-117901918D02*
X149459828Y-117949537D01*
X149459828Y-117949537D02*
X149497923Y-118044775D01*
X149497923Y-118044775D02*
X149497923Y-118140013D01*
X149497923Y-118140013D02*
X149459828Y-118282870D01*
X149459828Y-118282870D02*
X149002685Y-118854299D01*
X149002685Y-118854299D02*
X149497923Y-118854299D01*
X151682514Y-100073733D02*
X151415847Y-99597542D01*
X151225371Y-100073733D02*
X151225371Y-99073733D01*
X151225371Y-99073733D02*
X151530133Y-99073733D01*
X151530133Y-99073733D02*
X151606323Y-99121352D01*
X151606323Y-99121352D02*
X151644418Y-99168971D01*
X151644418Y-99168971D02*
X151682514Y-99264209D01*
X151682514Y-99264209D02*
X151682514Y-99407066D01*
X151682514Y-99407066D02*
X151644418Y-99502304D01*
X151644418Y-99502304D02*
X151606323Y-99549923D01*
X151606323Y-99549923D02*
X151530133Y-99597542D01*
X151530133Y-99597542D02*
X151225371Y-99597542D01*
X151987275Y-99168971D02*
X152025371Y-99121352D01*
X152025371Y-99121352D02*
X152101561Y-99073733D01*
X152101561Y-99073733D02*
X152292037Y-99073733D01*
X152292037Y-99073733D02*
X152368228Y-99121352D01*
X152368228Y-99121352D02*
X152406323Y-99168971D01*
X152406323Y-99168971D02*
X152444418Y-99264209D01*
X152444418Y-99264209D02*
X152444418Y-99359447D01*
X152444418Y-99359447D02*
X152406323Y-99502304D01*
X152406323Y-99502304D02*
X151949180Y-100073733D01*
X151949180Y-100073733D02*
X152444418Y-100073733D01*
X152749180Y-99168971D02*
X152787276Y-99121352D01*
X152787276Y-99121352D02*
X152863466Y-99073733D01*
X152863466Y-99073733D02*
X153053942Y-99073733D01*
X153053942Y-99073733D02*
X153130133Y-99121352D01*
X153130133Y-99121352D02*
X153168228Y-99168971D01*
X153168228Y-99168971D02*
X153206323Y-99264209D01*
X153206323Y-99264209D02*
X153206323Y-99359447D01*
X153206323Y-99359447D02*
X153168228Y-99502304D01*
X153168228Y-99502304D02*
X152711085Y-100073733D01*
X152711085Y-100073733D02*
X153206323Y-100073733D01*
X157324644Y-99517037D02*
X157286548Y-99564657D01*
X157286548Y-99564657D02*
X157172263Y-99612276D01*
X157172263Y-99612276D02*
X157096072Y-99612276D01*
X157096072Y-99612276D02*
X156981786Y-99564657D01*
X156981786Y-99564657D02*
X156905596Y-99469418D01*
X156905596Y-99469418D02*
X156867501Y-99374180D01*
X156867501Y-99374180D02*
X156829405Y-99183704D01*
X156829405Y-99183704D02*
X156829405Y-99040847D01*
X156829405Y-99040847D02*
X156867501Y-98850371D01*
X156867501Y-98850371D02*
X156905596Y-98755133D01*
X156905596Y-98755133D02*
X156981786Y-98659895D01*
X156981786Y-98659895D02*
X157096072Y-98612276D01*
X157096072Y-98612276D02*
X157172263Y-98612276D01*
X157172263Y-98612276D02*
X157286548Y-98659895D01*
X157286548Y-98659895D02*
X157324644Y-98707514D01*
X158086548Y-99612276D02*
X157629405Y-99612276D01*
X157857977Y-99612276D02*
X157857977Y-98612276D01*
X157857977Y-98612276D02*
X157781786Y-98755133D01*
X157781786Y-98755133D02*
X157705596Y-98850371D01*
X157705596Y-98850371D02*
X157629405Y-98897990D01*
X146852907Y-92013699D02*
X146586240Y-91537508D01*
X146395764Y-92013699D02*
X146395764Y-91013699D01*
X146395764Y-91013699D02*
X146700526Y-91013699D01*
X146700526Y-91013699D02*
X146776716Y-91061318D01*
X146776716Y-91061318D02*
X146814811Y-91108937D01*
X146814811Y-91108937D02*
X146852907Y-91204175D01*
X146852907Y-91204175D02*
X146852907Y-91347032D01*
X146852907Y-91347032D02*
X146814811Y-91442270D01*
X146814811Y-91442270D02*
X146776716Y-91489889D01*
X146776716Y-91489889D02*
X146700526Y-91537508D01*
X146700526Y-91537508D02*
X146395764Y-91537508D01*
X147157668Y-91108937D02*
X147195764Y-91061318D01*
X147195764Y-91061318D02*
X147271954Y-91013699D01*
X147271954Y-91013699D02*
X147462430Y-91013699D01*
X147462430Y-91013699D02*
X147538621Y-91061318D01*
X147538621Y-91061318D02*
X147576716Y-91108937D01*
X147576716Y-91108937D02*
X147614811Y-91204175D01*
X147614811Y-91204175D02*
X147614811Y-91299413D01*
X147614811Y-91299413D02*
X147576716Y-91442270D01*
X147576716Y-91442270D02*
X147119573Y-92013699D01*
X147119573Y-92013699D02*
X147614811Y-92013699D01*
X148376716Y-92013699D02*
X147919573Y-92013699D01*
X148148145Y-92013699D02*
X148148145Y-91013699D01*
X148148145Y-91013699D02*
X148071954Y-91156556D01*
X148071954Y-91156556D02*
X147995764Y-91251794D01*
X147995764Y-91251794D02*
X147919573Y-91299413D01*
X180460667Y-97482299D02*
X180194000Y-97006108D01*
X180003524Y-97482299D02*
X180003524Y-96482299D01*
X180003524Y-96482299D02*
X180308286Y-96482299D01*
X180308286Y-96482299D02*
X180384476Y-96529918D01*
X180384476Y-96529918D02*
X180422571Y-96577537D01*
X180422571Y-96577537D02*
X180460667Y-96672775D01*
X180460667Y-96672775D02*
X180460667Y-96815632D01*
X180460667Y-96815632D02*
X180422571Y-96910870D01*
X180422571Y-96910870D02*
X180384476Y-96958489D01*
X180384476Y-96958489D02*
X180308286Y-97006108D01*
X180308286Y-97006108D02*
X180003524Y-97006108D01*
X180727333Y-96482299D02*
X181260667Y-97482299D01*
X181260667Y-96482299D02*
X180727333Y-97482299D01*
X180397619Y-103409060D02*
X180359523Y-103456680D01*
X180359523Y-103456680D02*
X180245238Y-103504299D01*
X180245238Y-103504299D02*
X180169047Y-103504299D01*
X180169047Y-103504299D02*
X180054761Y-103456680D01*
X180054761Y-103456680D02*
X179978571Y-103361441D01*
X179978571Y-103361441D02*
X179940476Y-103266203D01*
X179940476Y-103266203D02*
X179902380Y-103075727D01*
X179902380Y-103075727D02*
X179902380Y-102932870D01*
X179902380Y-102932870D02*
X179940476Y-102742394D01*
X179940476Y-102742394D02*
X179978571Y-102647156D01*
X179978571Y-102647156D02*
X180054761Y-102551918D01*
X180054761Y-102551918D02*
X180169047Y-102504299D01*
X180169047Y-102504299D02*
X180245238Y-102504299D01*
X180245238Y-102504299D02*
X180359523Y-102551918D01*
X180359523Y-102551918D02*
X180397619Y-102599537D01*
X180740476Y-103504299D02*
X180740476Y-102504299D01*
X180740476Y-102980489D02*
X181197619Y-102980489D01*
X181197619Y-103504299D02*
X181197619Y-102504299D01*
X181730952Y-102504299D02*
X181807142Y-102504299D01*
X181807142Y-102504299D02*
X181883333Y-102551918D01*
X181883333Y-102551918D02*
X181921428Y-102599537D01*
X181921428Y-102599537D02*
X181959523Y-102694775D01*
X181959523Y-102694775D02*
X181997618Y-102885251D01*
X181997618Y-102885251D02*
X181997618Y-103123346D01*
X181997618Y-103123346D02*
X181959523Y-103313822D01*
X181959523Y-103313822D02*
X181921428Y-103409060D01*
X181921428Y-103409060D02*
X181883333Y-103456680D01*
X181883333Y-103456680D02*
X181807142Y-103504299D01*
X181807142Y-103504299D02*
X181730952Y-103504299D01*
X181730952Y-103504299D02*
X181654761Y-103456680D01*
X181654761Y-103456680D02*
X181616666Y-103409060D01*
X181616666Y-103409060D02*
X181578571Y-103313822D01*
X181578571Y-103313822D02*
X181540475Y-103123346D01*
X181540475Y-103123346D02*
X181540475Y-102885251D01*
X181540475Y-102885251D02*
X181578571Y-102694775D01*
X181578571Y-102694775D02*
X181616666Y-102599537D01*
X181616666Y-102599537D02*
X181654761Y-102551918D01*
X181654761Y-102551918D02*
X181730952Y-102504299D01*
X160059060Y-113964285D02*
X160106680Y-114002381D01*
X160106680Y-114002381D02*
X160154299Y-114116666D01*
X160154299Y-114116666D02*
X160154299Y-114192857D01*
X160154299Y-114192857D02*
X160106680Y-114307143D01*
X160106680Y-114307143D02*
X160011441Y-114383333D01*
X160011441Y-114383333D02*
X159916203Y-114421428D01*
X159916203Y-114421428D02*
X159725727Y-114459524D01*
X159725727Y-114459524D02*
X159582870Y-114459524D01*
X159582870Y-114459524D02*
X159392394Y-114421428D01*
X159392394Y-114421428D02*
X159297156Y-114383333D01*
X159297156Y-114383333D02*
X159201918Y-114307143D01*
X159201918Y-114307143D02*
X159154299Y-114192857D01*
X159154299Y-114192857D02*
X159154299Y-114116666D01*
X159154299Y-114116666D02*
X159201918Y-114002381D01*
X159201918Y-114002381D02*
X159249537Y-113964285D01*
X160154299Y-113202381D02*
X160154299Y-113659524D01*
X160154299Y-113430952D02*
X159154299Y-113430952D01*
X159154299Y-113430952D02*
X159297156Y-113507143D01*
X159297156Y-113507143D02*
X159392394Y-113583333D01*
X159392394Y-113583333D02*
X159440013Y-113659524D01*
X160154299Y-112440476D02*
X160154299Y-112897619D01*
X160154299Y-112669047D02*
X159154299Y-112669047D01*
X159154299Y-112669047D02*
X159297156Y-112745238D01*
X159297156Y-112745238D02*
X159392394Y-112821428D01*
X159392394Y-112821428D02*
X159440013Y-112897619D01*
X137896619Y-123152299D02*
X137515667Y-123152299D01*
X137515667Y-123152299D02*
X137477571Y-123628489D01*
X137477571Y-123628489D02*
X137515667Y-123580870D01*
X137515667Y-123580870D02*
X137591857Y-123533251D01*
X137591857Y-123533251D02*
X137782333Y-123533251D01*
X137782333Y-123533251D02*
X137858524Y-123580870D01*
X137858524Y-123580870D02*
X137896619Y-123628489D01*
X137896619Y-123628489D02*
X137934714Y-123723727D01*
X137934714Y-123723727D02*
X137934714Y-123961822D01*
X137934714Y-123961822D02*
X137896619Y-124057060D01*
X137896619Y-124057060D02*
X137858524Y-124104680D01*
X137858524Y-124104680D02*
X137782333Y-124152299D01*
X137782333Y-124152299D02*
X137591857Y-124152299D01*
X137591857Y-124152299D02*
X137515667Y-124104680D01*
X137515667Y-124104680D02*
X137477571Y-124057060D01*
X138163286Y-123152299D02*
X138429953Y-124152299D01*
X138429953Y-124152299D02*
X138696619Y-123152299D01*
X150285714Y-106169099D02*
X150019047Y-105692908D01*
X149828571Y-106169099D02*
X149828571Y-105169099D01*
X149828571Y-105169099D02*
X150133333Y-105169099D01*
X150133333Y-105169099D02*
X150209523Y-105216718D01*
X150209523Y-105216718D02*
X150247618Y-105264337D01*
X150247618Y-105264337D02*
X150285714Y-105359575D01*
X150285714Y-105359575D02*
X150285714Y-105502432D01*
X150285714Y-105502432D02*
X150247618Y-105597670D01*
X150247618Y-105597670D02*
X150209523Y-105645289D01*
X150209523Y-105645289D02*
X150133333Y-105692908D01*
X150133333Y-105692908D02*
X149828571Y-105692908D01*
X151047618Y-106169099D02*
X150590475Y-106169099D01*
X150819047Y-106169099D02*
X150819047Y-105169099D01*
X150819047Y-105169099D02*
X150742856Y-105311956D01*
X150742856Y-105311956D02*
X150666666Y-105407194D01*
X150666666Y-105407194D02*
X150590475Y-105454813D01*
X151314285Y-105169099D02*
X151809523Y-105169099D01*
X151809523Y-105169099D02*
X151542857Y-105550051D01*
X151542857Y-105550051D02*
X151657142Y-105550051D01*
X151657142Y-105550051D02*
X151733333Y-105597670D01*
X151733333Y-105597670D02*
X151771428Y-105645289D01*
X151771428Y-105645289D02*
X151809523Y-105740527D01*
X151809523Y-105740527D02*
X151809523Y-105978622D01*
X151809523Y-105978622D02*
X151771428Y-106073860D01*
X151771428Y-106073860D02*
X151733333Y-106121480D01*
X151733333Y-106121480D02*
X151657142Y-106169099D01*
X151657142Y-106169099D02*
X151428571Y-106169099D01*
X151428571Y-106169099D02*
X151352380Y-106121480D01*
X151352380Y-106121480D02*
X151314285Y-106073860D01*
X153167167Y-96205899D02*
X152900500Y-95729708D01*
X152710024Y-96205899D02*
X152710024Y-95205899D01*
X152710024Y-95205899D02*
X153014786Y-95205899D01*
X153014786Y-95205899D02*
X153090976Y-95253518D01*
X153090976Y-95253518D02*
X153129071Y-95301137D01*
X153129071Y-95301137D02*
X153167167Y-95396375D01*
X153167167Y-95396375D02*
X153167167Y-95539232D01*
X153167167Y-95539232D02*
X153129071Y-95634470D01*
X153129071Y-95634470D02*
X153090976Y-95682089D01*
X153090976Y-95682089D02*
X153014786Y-95729708D01*
X153014786Y-95729708D02*
X152710024Y-95729708D01*
X153929071Y-96205899D02*
X153471928Y-96205899D01*
X153700500Y-96205899D02*
X153700500Y-95205899D01*
X153700500Y-95205899D02*
X153624309Y-95348756D01*
X153624309Y-95348756D02*
X153548119Y-95443994D01*
X153548119Y-95443994D02*
X153471928Y-95491613D01*
X154661214Y-96195241D02*
X154394547Y-95719050D01*
X154204071Y-96195241D02*
X154204071Y-95195241D01*
X154204071Y-95195241D02*
X154508833Y-95195241D01*
X154508833Y-95195241D02*
X154585023Y-95242860D01*
X154585023Y-95242860D02*
X154623118Y-95290479D01*
X154623118Y-95290479D02*
X154661214Y-95385717D01*
X154661214Y-95385717D02*
X154661214Y-95528574D01*
X154661214Y-95528574D02*
X154623118Y-95623812D01*
X154623118Y-95623812D02*
X154585023Y-95671431D01*
X154585023Y-95671431D02*
X154508833Y-95719050D01*
X154508833Y-95719050D02*
X154204071Y-95719050D01*
X155423118Y-96195241D02*
X154965975Y-96195241D01*
X155194547Y-96195241D02*
X155194547Y-95195241D01*
X155194547Y-95195241D02*
X155118356Y-95338098D01*
X155118356Y-95338098D02*
X155042166Y-95433336D01*
X155042166Y-95433336D02*
X154965975Y-95480955D01*
X156146928Y-95195241D02*
X155765976Y-95195241D01*
X155765976Y-95195241D02*
X155727880Y-95671431D01*
X155727880Y-95671431D02*
X155765976Y-95623812D01*
X155765976Y-95623812D02*
X155842166Y-95576193D01*
X155842166Y-95576193D02*
X156032642Y-95576193D01*
X156032642Y-95576193D02*
X156108833Y-95623812D01*
X156108833Y-95623812D02*
X156146928Y-95671431D01*
X156146928Y-95671431D02*
X156185023Y-95766669D01*
X156185023Y-95766669D02*
X156185023Y-96004764D01*
X156185023Y-96004764D02*
X156146928Y-96100002D01*
X156146928Y-96100002D02*
X156108833Y-96147622D01*
X156108833Y-96147622D02*
X156032642Y-96195241D01*
X156032642Y-96195241D02*
X155842166Y-96195241D01*
X155842166Y-96195241D02*
X155765976Y-96147622D01*
X155765976Y-96147622D02*
X155727880Y-96100002D01*
X166116956Y-99257782D02*
X166078860Y-99305402D01*
X166078860Y-99305402D02*
X165964575Y-99353021D01*
X165964575Y-99353021D02*
X165888384Y-99353021D01*
X165888384Y-99353021D02*
X165774098Y-99305402D01*
X165774098Y-99305402D02*
X165697908Y-99210163D01*
X165697908Y-99210163D02*
X165659813Y-99114925D01*
X165659813Y-99114925D02*
X165621717Y-98924449D01*
X165621717Y-98924449D02*
X165621717Y-98781592D01*
X165621717Y-98781592D02*
X165659813Y-98591116D01*
X165659813Y-98591116D02*
X165697908Y-98495878D01*
X165697908Y-98495878D02*
X165774098Y-98400640D01*
X165774098Y-98400640D02*
X165888384Y-98353021D01*
X165888384Y-98353021D02*
X165964575Y-98353021D01*
X165964575Y-98353021D02*
X166078860Y-98400640D01*
X166078860Y-98400640D02*
X166116956Y-98448259D01*
X166421717Y-98448259D02*
X166459813Y-98400640D01*
X166459813Y-98400640D02*
X166536003Y-98353021D01*
X166536003Y-98353021D02*
X166726479Y-98353021D01*
X166726479Y-98353021D02*
X166802670Y-98400640D01*
X166802670Y-98400640D02*
X166840765Y-98448259D01*
X166840765Y-98448259D02*
X166878860Y-98543497D01*
X166878860Y-98543497D02*
X166878860Y-98638735D01*
X166878860Y-98638735D02*
X166840765Y-98781592D01*
X166840765Y-98781592D02*
X166383622Y-99353021D01*
X166383622Y-99353021D02*
X166878860Y-99353021D01*
X167374099Y-98353021D02*
X167450289Y-98353021D01*
X167450289Y-98353021D02*
X167526480Y-98400640D01*
X167526480Y-98400640D02*
X167564575Y-98448259D01*
X167564575Y-98448259D02*
X167602670Y-98543497D01*
X167602670Y-98543497D02*
X167640765Y-98733973D01*
X167640765Y-98733973D02*
X167640765Y-98972068D01*
X167640765Y-98972068D02*
X167602670Y-99162544D01*
X167602670Y-99162544D02*
X167564575Y-99257782D01*
X167564575Y-99257782D02*
X167526480Y-99305402D01*
X167526480Y-99305402D02*
X167450289Y-99353021D01*
X167450289Y-99353021D02*
X167374099Y-99353021D01*
X167374099Y-99353021D02*
X167297908Y-99305402D01*
X167297908Y-99305402D02*
X167259813Y-99257782D01*
X167259813Y-99257782D02*
X167221718Y-99162544D01*
X167221718Y-99162544D02*
X167183622Y-98972068D01*
X167183622Y-98972068D02*
X167183622Y-98733973D01*
X167183622Y-98733973D02*
X167221718Y-98543497D01*
X167221718Y-98543497D02*
X167259813Y-98448259D01*
X167259813Y-98448259D02*
X167297908Y-98400640D01*
X167297908Y-98400640D02*
X167374099Y-98353021D01*
X158341374Y-90975039D02*
X158074707Y-90498848D01*
X157884231Y-90975039D02*
X157884231Y-89975039D01*
X157884231Y-89975039D02*
X158188993Y-89975039D01*
X158188993Y-89975039D02*
X158265183Y-90022658D01*
X158265183Y-90022658D02*
X158303278Y-90070277D01*
X158303278Y-90070277D02*
X158341374Y-90165515D01*
X158341374Y-90165515D02*
X158341374Y-90308372D01*
X158341374Y-90308372D02*
X158303278Y-90403610D01*
X158303278Y-90403610D02*
X158265183Y-90451229D01*
X158265183Y-90451229D02*
X158188993Y-90498848D01*
X158188993Y-90498848D02*
X157884231Y-90498848D01*
X158798516Y-90403610D02*
X158722326Y-90355991D01*
X158722326Y-90355991D02*
X158684231Y-90308372D01*
X158684231Y-90308372D02*
X158646135Y-90213134D01*
X158646135Y-90213134D02*
X158646135Y-90165515D01*
X158646135Y-90165515D02*
X158684231Y-90070277D01*
X158684231Y-90070277D02*
X158722326Y-90022658D01*
X158722326Y-90022658D02*
X158798516Y-89975039D01*
X158798516Y-89975039D02*
X158950897Y-89975039D01*
X158950897Y-89975039D02*
X159027088Y-90022658D01*
X159027088Y-90022658D02*
X159065183Y-90070277D01*
X159065183Y-90070277D02*
X159103278Y-90165515D01*
X159103278Y-90165515D02*
X159103278Y-90213134D01*
X159103278Y-90213134D02*
X159065183Y-90308372D01*
X159065183Y-90308372D02*
X159027088Y-90355991D01*
X159027088Y-90355991D02*
X158950897Y-90403610D01*
X158950897Y-90403610D02*
X158798516Y-90403610D01*
X158798516Y-90403610D02*
X158722326Y-90451229D01*
X158722326Y-90451229D02*
X158684231Y-90498848D01*
X158684231Y-90498848D02*
X158646135Y-90594086D01*
X158646135Y-90594086D02*
X158646135Y-90784562D01*
X158646135Y-90784562D02*
X158684231Y-90879800D01*
X158684231Y-90879800D02*
X158722326Y-90927420D01*
X158722326Y-90927420D02*
X158798516Y-90975039D01*
X158798516Y-90975039D02*
X158950897Y-90975039D01*
X158950897Y-90975039D02*
X159027088Y-90927420D01*
X159027088Y-90927420D02*
X159065183Y-90879800D01*
X159065183Y-90879800D02*
X159103278Y-90784562D01*
X159103278Y-90784562D02*
X159103278Y-90594086D01*
X159103278Y-90594086D02*
X159065183Y-90498848D01*
X159065183Y-90498848D02*
X159027088Y-90451229D01*
X159027088Y-90451229D02*
X158950897Y-90403610D01*
X140835714Y-100073733D02*
X140569047Y-99597542D01*
X140378571Y-100073733D02*
X140378571Y-99073733D01*
X140378571Y-99073733D02*
X140683333Y-99073733D01*
X140683333Y-99073733D02*
X140759523Y-99121352D01*
X140759523Y-99121352D02*
X140797618Y-99168971D01*
X140797618Y-99168971D02*
X140835714Y-99264209D01*
X140835714Y-99264209D02*
X140835714Y-99407066D01*
X140835714Y-99407066D02*
X140797618Y-99502304D01*
X140797618Y-99502304D02*
X140759523Y-99549923D01*
X140759523Y-99549923D02*
X140683333Y-99597542D01*
X140683333Y-99597542D02*
X140378571Y-99597542D01*
X141140475Y-99168971D02*
X141178571Y-99121352D01*
X141178571Y-99121352D02*
X141254761Y-99073733D01*
X141254761Y-99073733D02*
X141445237Y-99073733D01*
X141445237Y-99073733D02*
X141521428Y-99121352D01*
X141521428Y-99121352D02*
X141559523Y-99168971D01*
X141559523Y-99168971D02*
X141597618Y-99264209D01*
X141597618Y-99264209D02*
X141597618Y-99359447D01*
X141597618Y-99359447D02*
X141559523Y-99502304D01*
X141559523Y-99502304D02*
X141102380Y-100073733D01*
X141102380Y-100073733D02*
X141597618Y-100073733D01*
X141864285Y-99073733D02*
X142359523Y-99073733D01*
X142359523Y-99073733D02*
X142092857Y-99454685D01*
X142092857Y-99454685D02*
X142207142Y-99454685D01*
X142207142Y-99454685D02*
X142283333Y-99502304D01*
X142283333Y-99502304D02*
X142321428Y-99549923D01*
X142321428Y-99549923D02*
X142359523Y-99645161D01*
X142359523Y-99645161D02*
X142359523Y-99883256D01*
X142359523Y-99883256D02*
X142321428Y-99978494D01*
X142321428Y-99978494D02*
X142283333Y-100026114D01*
X142283333Y-100026114D02*
X142207142Y-100073733D01*
X142207142Y-100073733D02*
X141978571Y-100073733D01*
X141978571Y-100073733D02*
X141902380Y-100026114D01*
X141902380Y-100026114D02*
X141864285Y-99978494D01*
X141743987Y-95023806D02*
X142201130Y-95023806D01*
X141972558Y-96023806D02*
X141972558Y-95023806D01*
X142391606Y-95023806D02*
X142924940Y-96023806D01*
X142924940Y-95023806D02*
X142391606Y-96023806D01*
X149816667Y-125359060D02*
X149778571Y-125406680D01*
X149778571Y-125406680D02*
X149664286Y-125454299D01*
X149664286Y-125454299D02*
X149588095Y-125454299D01*
X149588095Y-125454299D02*
X149473809Y-125406680D01*
X149473809Y-125406680D02*
X149397619Y-125311441D01*
X149397619Y-125311441D02*
X149359524Y-125216203D01*
X149359524Y-125216203D02*
X149321428Y-125025727D01*
X149321428Y-125025727D02*
X149321428Y-124882870D01*
X149321428Y-124882870D02*
X149359524Y-124692394D01*
X149359524Y-124692394D02*
X149397619Y-124597156D01*
X149397619Y-124597156D02*
X149473809Y-124501918D01*
X149473809Y-124501918D02*
X149588095Y-124454299D01*
X149588095Y-124454299D02*
X149664286Y-124454299D01*
X149664286Y-124454299D02*
X149778571Y-124501918D01*
X149778571Y-124501918D02*
X149816667Y-124549537D01*
X150121428Y-124549537D02*
X150159524Y-124501918D01*
X150159524Y-124501918D02*
X150235714Y-124454299D01*
X150235714Y-124454299D02*
X150426190Y-124454299D01*
X150426190Y-124454299D02*
X150502381Y-124501918D01*
X150502381Y-124501918D02*
X150540476Y-124549537D01*
X150540476Y-124549537D02*
X150578571Y-124644775D01*
X150578571Y-124644775D02*
X150578571Y-124740013D01*
X150578571Y-124740013D02*
X150540476Y-124882870D01*
X150540476Y-124882870D02*
X150083333Y-125454299D01*
X150083333Y-125454299D02*
X150578571Y-125454299D01*
X150635714Y-107955780D02*
X150597618Y-108003400D01*
X150597618Y-108003400D02*
X150483333Y-108051019D01*
X150483333Y-108051019D02*
X150407142Y-108051019D01*
X150407142Y-108051019D02*
X150292856Y-108003400D01*
X150292856Y-108003400D02*
X150216666Y-107908161D01*
X150216666Y-107908161D02*
X150178571Y-107812923D01*
X150178571Y-107812923D02*
X150140475Y-107622447D01*
X150140475Y-107622447D02*
X150140475Y-107479590D01*
X150140475Y-107479590D02*
X150178571Y-107289114D01*
X150178571Y-107289114D02*
X150216666Y-107193876D01*
X150216666Y-107193876D02*
X150292856Y-107098638D01*
X150292856Y-107098638D02*
X150407142Y-107051019D01*
X150407142Y-107051019D02*
X150483333Y-107051019D01*
X150483333Y-107051019D02*
X150597618Y-107098638D01*
X150597618Y-107098638D02*
X150635714Y-107146257D01*
X151397618Y-108051019D02*
X150940475Y-108051019D01*
X151169047Y-108051019D02*
X151169047Y-107051019D01*
X151169047Y-107051019D02*
X151092856Y-107193876D01*
X151092856Y-107193876D02*
X151016666Y-107289114D01*
X151016666Y-107289114D02*
X150940475Y-107336733D01*
X152083333Y-107051019D02*
X151930952Y-107051019D01*
X151930952Y-107051019D02*
X151854761Y-107098638D01*
X151854761Y-107098638D02*
X151816666Y-107146257D01*
X151816666Y-107146257D02*
X151740476Y-107289114D01*
X151740476Y-107289114D02*
X151702380Y-107479590D01*
X151702380Y-107479590D02*
X151702380Y-107860542D01*
X151702380Y-107860542D02*
X151740476Y-107955780D01*
X151740476Y-107955780D02*
X151778571Y-108003400D01*
X151778571Y-108003400D02*
X151854761Y-108051019D01*
X151854761Y-108051019D02*
X152007142Y-108051019D01*
X152007142Y-108051019D02*
X152083333Y-108003400D01*
X152083333Y-108003400D02*
X152121428Y-107955780D01*
X152121428Y-107955780D02*
X152159523Y-107860542D01*
X152159523Y-107860542D02*
X152159523Y-107622447D01*
X152159523Y-107622447D02*
X152121428Y-107527209D01*
X152121428Y-107527209D02*
X152083333Y-107479590D01*
X152083333Y-107479590D02*
X152007142Y-107431971D01*
X152007142Y-107431971D02*
X151854761Y-107431971D01*
X151854761Y-107431971D02*
X151778571Y-107479590D01*
X151778571Y-107479590D02*
X151740476Y-107527209D01*
X151740476Y-107527209D02*
X151702380Y-107622447D01*
X149604299Y-106714285D02*
X149128108Y-106980952D01*
X149604299Y-107171428D02*
X148604299Y-107171428D01*
X148604299Y-107171428D02*
X148604299Y-106866666D01*
X148604299Y-106866666D02*
X148651918Y-106790476D01*
X148651918Y-106790476D02*
X148699537Y-106752381D01*
X148699537Y-106752381D02*
X148794775Y-106714285D01*
X148794775Y-106714285D02*
X148937632Y-106714285D01*
X148937632Y-106714285D02*
X149032870Y-106752381D01*
X149032870Y-106752381D02*
X149080489Y-106790476D01*
X149080489Y-106790476D02*
X149128108Y-106866666D01*
X149128108Y-106866666D02*
X149128108Y-107171428D01*
X149604299Y-105952381D02*
X149604299Y-106409524D01*
X149604299Y-106180952D02*
X148604299Y-106180952D01*
X148604299Y-106180952D02*
X148747156Y-106257143D01*
X148747156Y-106257143D02*
X148842394Y-106333333D01*
X148842394Y-106333333D02*
X148890013Y-106409524D01*
X149604299Y-105571428D02*
X149604299Y-105419047D01*
X149604299Y-105419047D02*
X149556680Y-105342857D01*
X149556680Y-105342857D02*
X149509060Y-105304761D01*
X149509060Y-105304761D02*
X149366203Y-105228571D01*
X149366203Y-105228571D02*
X149175727Y-105190476D01*
X149175727Y-105190476D02*
X148794775Y-105190476D01*
X148794775Y-105190476D02*
X148699537Y-105228571D01*
X148699537Y-105228571D02*
X148651918Y-105266666D01*
X148651918Y-105266666D02*
X148604299Y-105342857D01*
X148604299Y-105342857D02*
X148604299Y-105495238D01*
X148604299Y-105495238D02*
X148651918Y-105571428D01*
X148651918Y-105571428D02*
X148699537Y-105609523D01*
X148699537Y-105609523D02*
X148794775Y-105647619D01*
X148794775Y-105647619D02*
X149032870Y-105647619D01*
X149032870Y-105647619D02*
X149128108Y-105609523D01*
X149128108Y-105609523D02*
X149175727Y-105571428D01*
X149175727Y-105571428D02*
X149223346Y-105495238D01*
X149223346Y-105495238D02*
X149223346Y-105342857D01*
X149223346Y-105342857D02*
X149175727Y-105266666D01*
X149175727Y-105266666D02*
X149128108Y-105228571D01*
X149128108Y-105228571D02*
X149032870Y-105190476D01*
X164696915Y-114151060D02*
X164658819Y-114198680D01*
X164658819Y-114198680D02*
X164544534Y-114246299D01*
X164544534Y-114246299D02*
X164468343Y-114246299D01*
X164468343Y-114246299D02*
X164354057Y-114198680D01*
X164354057Y-114198680D02*
X164277867Y-114103441D01*
X164277867Y-114103441D02*
X164239772Y-114008203D01*
X164239772Y-114008203D02*
X164201676Y-113817727D01*
X164201676Y-113817727D02*
X164201676Y-113674870D01*
X164201676Y-113674870D02*
X164239772Y-113484394D01*
X164239772Y-113484394D02*
X164277867Y-113389156D01*
X164277867Y-113389156D02*
X164354057Y-113293918D01*
X164354057Y-113293918D02*
X164468343Y-113246299D01*
X164468343Y-113246299D02*
X164544534Y-113246299D01*
X164544534Y-113246299D02*
X164658819Y-113293918D01*
X164658819Y-113293918D02*
X164696915Y-113341537D01*
X165001676Y-113341537D02*
X165039772Y-113293918D01*
X165039772Y-113293918D02*
X165115962Y-113246299D01*
X165115962Y-113246299D02*
X165306438Y-113246299D01*
X165306438Y-113246299D02*
X165382629Y-113293918D01*
X165382629Y-113293918D02*
X165420724Y-113341537D01*
X165420724Y-113341537D02*
X165458819Y-113436775D01*
X165458819Y-113436775D02*
X165458819Y-113532013D01*
X165458819Y-113532013D02*
X165420724Y-113674870D01*
X165420724Y-113674870D02*
X164963581Y-114246299D01*
X164963581Y-114246299D02*
X165458819Y-114246299D01*
X165725486Y-113246299D02*
X166220724Y-113246299D01*
X166220724Y-113246299D02*
X165954058Y-113627251D01*
X165954058Y-113627251D02*
X166068343Y-113627251D01*
X166068343Y-113627251D02*
X166144534Y-113674870D01*
X166144534Y-113674870D02*
X166182629Y-113722489D01*
X166182629Y-113722489D02*
X166220724Y-113817727D01*
X166220724Y-113817727D02*
X166220724Y-114055822D01*
X166220724Y-114055822D02*
X166182629Y-114151060D01*
X166182629Y-114151060D02*
X166144534Y-114198680D01*
X166144534Y-114198680D02*
X166068343Y-114246299D01*
X166068343Y-114246299D02*
X165839772Y-114246299D01*
X165839772Y-114246299D02*
X165763581Y-114198680D01*
X165763581Y-114198680D02*
X165725486Y-114151060D01*
X159918476Y-130819918D02*
X159842286Y-130772299D01*
X159842286Y-130772299D02*
X159728000Y-130772299D01*
X159728000Y-130772299D02*
X159613714Y-130819918D01*
X159613714Y-130819918D02*
X159537524Y-130915156D01*
X159537524Y-130915156D02*
X159499429Y-131010394D01*
X159499429Y-131010394D02*
X159461333Y-131200870D01*
X159461333Y-131200870D02*
X159461333Y-131343727D01*
X159461333Y-131343727D02*
X159499429Y-131534203D01*
X159499429Y-131534203D02*
X159537524Y-131629441D01*
X159537524Y-131629441D02*
X159613714Y-131724680D01*
X159613714Y-131724680D02*
X159728000Y-131772299D01*
X159728000Y-131772299D02*
X159804191Y-131772299D01*
X159804191Y-131772299D02*
X159918476Y-131724680D01*
X159918476Y-131724680D02*
X159956572Y-131677060D01*
X159956572Y-131677060D02*
X159956572Y-131343727D01*
X159956572Y-131343727D02*
X159804191Y-131343727D01*
X160299429Y-131772299D02*
X160299429Y-130772299D01*
X160299429Y-130772299D02*
X160756572Y-131772299D01*
X160756572Y-131772299D02*
X160756572Y-130772299D01*
X161137524Y-131772299D02*
X161137524Y-130772299D01*
X161137524Y-130772299D02*
X161328000Y-130772299D01*
X161328000Y-130772299D02*
X161442286Y-130819918D01*
X161442286Y-130819918D02*
X161518476Y-130915156D01*
X161518476Y-130915156D02*
X161556571Y-131010394D01*
X161556571Y-131010394D02*
X161594667Y-131200870D01*
X161594667Y-131200870D02*
X161594667Y-131343727D01*
X161594667Y-131343727D02*
X161556571Y-131534203D01*
X161556571Y-131534203D02*
X161518476Y-131629441D01*
X161518476Y-131629441D02*
X161442286Y-131724680D01*
X161442286Y-131724680D02*
X161328000Y-131772299D01*
X161328000Y-131772299D02*
X161137524Y-131772299D01*
X151416667Y-115959060D02*
X151378571Y-116006680D01*
X151378571Y-116006680D02*
X151264286Y-116054299D01*
X151264286Y-116054299D02*
X151188095Y-116054299D01*
X151188095Y-116054299D02*
X151073809Y-116006680D01*
X151073809Y-116006680D02*
X150997619Y-115911441D01*
X150997619Y-115911441D02*
X150959524Y-115816203D01*
X150959524Y-115816203D02*
X150921428Y-115625727D01*
X150921428Y-115625727D02*
X150921428Y-115482870D01*
X150921428Y-115482870D02*
X150959524Y-115292394D01*
X150959524Y-115292394D02*
X150997619Y-115197156D01*
X150997619Y-115197156D02*
X151073809Y-115101918D01*
X151073809Y-115101918D02*
X151188095Y-115054299D01*
X151188095Y-115054299D02*
X151264286Y-115054299D01*
X151264286Y-115054299D02*
X151378571Y-115101918D01*
X151378571Y-115101918D02*
X151416667Y-115149537D01*
X151683333Y-115054299D02*
X152178571Y-115054299D01*
X152178571Y-115054299D02*
X151911905Y-115435251D01*
X151911905Y-115435251D02*
X152026190Y-115435251D01*
X152026190Y-115435251D02*
X152102381Y-115482870D01*
X152102381Y-115482870D02*
X152140476Y-115530489D01*
X152140476Y-115530489D02*
X152178571Y-115625727D01*
X152178571Y-115625727D02*
X152178571Y-115863822D01*
X152178571Y-115863822D02*
X152140476Y-115959060D01*
X152140476Y-115959060D02*
X152102381Y-116006680D01*
X152102381Y-116006680D02*
X152026190Y-116054299D01*
X152026190Y-116054299D02*
X151797619Y-116054299D01*
X151797619Y-116054299D02*
X151721428Y-116006680D01*
X151721428Y-116006680D02*
X151683333Y-115959060D01*
X158728060Y-114214285D02*
X158775680Y-114252381D01*
X158775680Y-114252381D02*
X158823299Y-114366666D01*
X158823299Y-114366666D02*
X158823299Y-114442857D01*
X158823299Y-114442857D02*
X158775680Y-114557143D01*
X158775680Y-114557143D02*
X158680441Y-114633333D01*
X158680441Y-114633333D02*
X158585203Y-114671428D01*
X158585203Y-114671428D02*
X158394727Y-114709524D01*
X158394727Y-114709524D02*
X158251870Y-114709524D01*
X158251870Y-114709524D02*
X158061394Y-114671428D01*
X158061394Y-114671428D02*
X157966156Y-114633333D01*
X157966156Y-114633333D02*
X157870918Y-114557143D01*
X157870918Y-114557143D02*
X157823299Y-114442857D01*
X157823299Y-114442857D02*
X157823299Y-114366666D01*
X157823299Y-114366666D02*
X157870918Y-114252381D01*
X157870918Y-114252381D02*
X157918537Y-114214285D01*
X158823299Y-113452381D02*
X158823299Y-113909524D01*
X158823299Y-113680952D02*
X157823299Y-113680952D01*
X157823299Y-113680952D02*
X157966156Y-113757143D01*
X157966156Y-113757143D02*
X158061394Y-113833333D01*
X158061394Y-113833333D02*
X158109013Y-113909524D01*
X157823299Y-113185714D02*
X157823299Y-112690476D01*
X157823299Y-112690476D02*
X158204251Y-112957142D01*
X158204251Y-112957142D02*
X158204251Y-112842857D01*
X158204251Y-112842857D02*
X158251870Y-112766666D01*
X158251870Y-112766666D02*
X158299489Y-112728571D01*
X158299489Y-112728571D02*
X158394727Y-112690476D01*
X158394727Y-112690476D02*
X158632822Y-112690476D01*
X158632822Y-112690476D02*
X158728060Y-112728571D01*
X158728060Y-112728571D02*
X158775680Y-112766666D01*
X158775680Y-112766666D02*
X158823299Y-112842857D01*
X158823299Y-112842857D02*
X158823299Y-113071428D01*
X158823299Y-113071428D02*
X158775680Y-113147619D01*
X158775680Y-113147619D02*
X158728060Y-113185714D01*
X154759299Y-111512285D02*
X154283108Y-111778952D01*
X154759299Y-111969428D02*
X153759299Y-111969428D01*
X153759299Y-111969428D02*
X153759299Y-111664666D01*
X153759299Y-111664666D02*
X153806918Y-111588476D01*
X153806918Y-111588476D02*
X153854537Y-111550381D01*
X153854537Y-111550381D02*
X153949775Y-111512285D01*
X153949775Y-111512285D02*
X154092632Y-111512285D01*
X154092632Y-111512285D02*
X154187870Y-111550381D01*
X154187870Y-111550381D02*
X154235489Y-111588476D01*
X154235489Y-111588476D02*
X154283108Y-111664666D01*
X154283108Y-111664666D02*
X154283108Y-111969428D01*
X154759299Y-110750381D02*
X154759299Y-111207524D01*
X154759299Y-110978952D02*
X153759299Y-110978952D01*
X153759299Y-110978952D02*
X153902156Y-111055143D01*
X153902156Y-111055143D02*
X153997394Y-111131333D01*
X153997394Y-111131333D02*
X154045013Y-111207524D01*
X153759299Y-110483714D02*
X153759299Y-109950380D01*
X153759299Y-109950380D02*
X154759299Y-110293238D01*
X158966667Y-86204299D02*
X158700000Y-85728108D01*
X158509524Y-86204299D02*
X158509524Y-85204299D01*
X158509524Y-85204299D02*
X158814286Y-85204299D01*
X158814286Y-85204299D02*
X158890476Y-85251918D01*
X158890476Y-85251918D02*
X158928571Y-85299537D01*
X158928571Y-85299537D02*
X158966667Y-85394775D01*
X158966667Y-85394775D02*
X158966667Y-85537632D01*
X158966667Y-85537632D02*
X158928571Y-85632870D01*
X158928571Y-85632870D02*
X158890476Y-85680489D01*
X158890476Y-85680489D02*
X158814286Y-85728108D01*
X158814286Y-85728108D02*
X158509524Y-85728108D01*
X159233333Y-85204299D02*
X159728571Y-85204299D01*
X159728571Y-85204299D02*
X159461905Y-85585251D01*
X159461905Y-85585251D02*
X159576190Y-85585251D01*
X159576190Y-85585251D02*
X159652381Y-85632870D01*
X159652381Y-85632870D02*
X159690476Y-85680489D01*
X159690476Y-85680489D02*
X159728571Y-85775727D01*
X159728571Y-85775727D02*
X159728571Y-86013822D01*
X159728571Y-86013822D02*
X159690476Y-86109060D01*
X159690476Y-86109060D02*
X159652381Y-86156680D01*
X159652381Y-86156680D02*
X159576190Y-86204299D01*
X159576190Y-86204299D02*
X159347619Y-86204299D01*
X159347619Y-86204299D02*
X159271428Y-86156680D01*
X159271428Y-86156680D02*
X159233333Y-86109060D01*
X146712044Y-96052413D02*
X146445377Y-95576222D01*
X146254901Y-96052413D02*
X146254901Y-95052413D01*
X146254901Y-95052413D02*
X146559663Y-95052413D01*
X146559663Y-95052413D02*
X146635853Y-95100032D01*
X146635853Y-95100032D02*
X146673948Y-95147651D01*
X146673948Y-95147651D02*
X146712044Y-95242889D01*
X146712044Y-95242889D02*
X146712044Y-95385746D01*
X146712044Y-95385746D02*
X146673948Y-95480984D01*
X146673948Y-95480984D02*
X146635853Y-95528603D01*
X146635853Y-95528603D02*
X146559663Y-95576222D01*
X146559663Y-95576222D02*
X146254901Y-95576222D01*
X146978710Y-95052413D02*
X147512044Y-96052413D01*
X147512044Y-95052413D02*
X146978710Y-96052413D01*
X164569048Y-94704299D02*
X164569048Y-93704299D01*
X165407143Y-94609060D02*
X165369047Y-94656680D01*
X165369047Y-94656680D02*
X165254762Y-94704299D01*
X165254762Y-94704299D02*
X165178571Y-94704299D01*
X165178571Y-94704299D02*
X165064285Y-94656680D01*
X165064285Y-94656680D02*
X164988095Y-94561441D01*
X164988095Y-94561441D02*
X164950000Y-94466203D01*
X164950000Y-94466203D02*
X164911904Y-94275727D01*
X164911904Y-94275727D02*
X164911904Y-94132870D01*
X164911904Y-94132870D02*
X164950000Y-93942394D01*
X164950000Y-93942394D02*
X164988095Y-93847156D01*
X164988095Y-93847156D02*
X165064285Y-93751918D01*
X165064285Y-93751918D02*
X165178571Y-93704299D01*
X165178571Y-93704299D02*
X165254762Y-93704299D01*
X165254762Y-93704299D02*
X165369047Y-93751918D01*
X165369047Y-93751918D02*
X165407143Y-93799537D01*
X166092857Y-94037632D02*
X166092857Y-94704299D01*
X165902381Y-93656680D02*
X165711904Y-94370965D01*
X165711904Y-94370965D02*
X166207143Y-94370965D01*
X150390475Y-89806680D02*
X150504761Y-89854299D01*
X150504761Y-89854299D02*
X150695237Y-89854299D01*
X150695237Y-89854299D02*
X150771428Y-89806680D01*
X150771428Y-89806680D02*
X150809523Y-89759060D01*
X150809523Y-89759060D02*
X150847618Y-89663822D01*
X150847618Y-89663822D02*
X150847618Y-89568584D01*
X150847618Y-89568584D02*
X150809523Y-89473346D01*
X150809523Y-89473346D02*
X150771428Y-89425727D01*
X150771428Y-89425727D02*
X150695237Y-89378108D01*
X150695237Y-89378108D02*
X150542856Y-89330489D01*
X150542856Y-89330489D02*
X150466666Y-89282870D01*
X150466666Y-89282870D02*
X150428571Y-89235251D01*
X150428571Y-89235251D02*
X150390475Y-89140013D01*
X150390475Y-89140013D02*
X150390475Y-89044775D01*
X150390475Y-89044775D02*
X150428571Y-88949537D01*
X150428571Y-88949537D02*
X150466666Y-88901918D01*
X150466666Y-88901918D02*
X150542856Y-88854299D01*
X150542856Y-88854299D02*
X150733333Y-88854299D01*
X150733333Y-88854299D02*
X150847618Y-88901918D01*
X151609523Y-89854299D02*
X151152380Y-89854299D01*
X151380952Y-89854299D02*
X151380952Y-88854299D01*
X151380952Y-88854299D02*
X151304761Y-88997156D01*
X151304761Y-88997156D02*
X151228571Y-89092394D01*
X151228571Y-89092394D02*
X151152380Y-89140013D01*
X142500715Y-85830060D02*
X142462619Y-85877680D01*
X142462619Y-85877680D02*
X142348334Y-85925299D01*
X142348334Y-85925299D02*
X142272143Y-85925299D01*
X142272143Y-85925299D02*
X142157857Y-85877680D01*
X142157857Y-85877680D02*
X142081667Y-85782441D01*
X142081667Y-85782441D02*
X142043572Y-85687203D01*
X142043572Y-85687203D02*
X142005476Y-85496727D01*
X142005476Y-85496727D02*
X142005476Y-85353870D01*
X142005476Y-85353870D02*
X142043572Y-85163394D01*
X142043572Y-85163394D02*
X142081667Y-85068156D01*
X142081667Y-85068156D02*
X142157857Y-84972918D01*
X142157857Y-84972918D02*
X142272143Y-84925299D01*
X142272143Y-84925299D02*
X142348334Y-84925299D01*
X142348334Y-84925299D02*
X142462619Y-84972918D01*
X142462619Y-84972918D02*
X142500715Y-85020537D01*
X142995953Y-84925299D02*
X143148334Y-84925299D01*
X143148334Y-84925299D02*
X143224524Y-84972918D01*
X143224524Y-84972918D02*
X143300715Y-85068156D01*
X143300715Y-85068156D02*
X143338810Y-85258632D01*
X143338810Y-85258632D02*
X143338810Y-85591965D01*
X143338810Y-85591965D02*
X143300715Y-85782441D01*
X143300715Y-85782441D02*
X143224524Y-85877680D01*
X143224524Y-85877680D02*
X143148334Y-85925299D01*
X143148334Y-85925299D02*
X142995953Y-85925299D01*
X142995953Y-85925299D02*
X142919762Y-85877680D01*
X142919762Y-85877680D02*
X142843572Y-85782441D01*
X142843572Y-85782441D02*
X142805476Y-85591965D01*
X142805476Y-85591965D02*
X142805476Y-85258632D01*
X142805476Y-85258632D02*
X142843572Y-85068156D01*
X142843572Y-85068156D02*
X142919762Y-84972918D01*
X142919762Y-84972918D02*
X142995953Y-84925299D01*
X143681667Y-85925299D02*
X143681667Y-84925299D01*
X143681667Y-84925299D02*
X144138810Y-85925299D01*
X144138810Y-85925299D02*
X144138810Y-84925299D01*
X144786428Y-85401489D02*
X144519762Y-85401489D01*
X144519762Y-85925299D02*
X144519762Y-84925299D01*
X144519762Y-84925299D02*
X144900714Y-84925299D01*
X145205476Y-85925299D02*
X145205476Y-84925299D01*
X146005475Y-84972918D02*
X145929285Y-84925299D01*
X145929285Y-84925299D02*
X145814999Y-84925299D01*
X145814999Y-84925299D02*
X145700713Y-84972918D01*
X145700713Y-84972918D02*
X145624523Y-85068156D01*
X145624523Y-85068156D02*
X145586428Y-85163394D01*
X145586428Y-85163394D02*
X145548332Y-85353870D01*
X145548332Y-85353870D02*
X145548332Y-85496727D01*
X145548332Y-85496727D02*
X145586428Y-85687203D01*
X145586428Y-85687203D02*
X145624523Y-85782441D01*
X145624523Y-85782441D02*
X145700713Y-85877680D01*
X145700713Y-85877680D02*
X145814999Y-85925299D01*
X145814999Y-85925299D02*
X145891190Y-85925299D01*
X145891190Y-85925299D02*
X146005475Y-85877680D01*
X146005475Y-85877680D02*
X146043571Y-85830060D01*
X146043571Y-85830060D02*
X146043571Y-85496727D01*
X146043571Y-85496727D02*
X145891190Y-85496727D01*
X146195952Y-86020537D02*
X146805475Y-86020537D01*
X147453095Y-85925299D02*
X147186428Y-85449108D01*
X146995952Y-85925299D02*
X146995952Y-84925299D01*
X146995952Y-84925299D02*
X147300714Y-84925299D01*
X147300714Y-84925299D02*
X147376904Y-84972918D01*
X147376904Y-84972918D02*
X147414999Y-85020537D01*
X147414999Y-85020537D02*
X147453095Y-85115775D01*
X147453095Y-85115775D02*
X147453095Y-85258632D01*
X147453095Y-85258632D02*
X147414999Y-85353870D01*
X147414999Y-85353870D02*
X147376904Y-85401489D01*
X147376904Y-85401489D02*
X147300714Y-85449108D01*
X147300714Y-85449108D02*
X146995952Y-85449108D01*
X147757856Y-85877680D02*
X147872142Y-85925299D01*
X147872142Y-85925299D02*
X148062618Y-85925299D01*
X148062618Y-85925299D02*
X148138809Y-85877680D01*
X148138809Y-85877680D02*
X148176904Y-85830060D01*
X148176904Y-85830060D02*
X148214999Y-85734822D01*
X148214999Y-85734822D02*
X148214999Y-85639584D01*
X148214999Y-85639584D02*
X148176904Y-85544346D01*
X148176904Y-85544346D02*
X148138809Y-85496727D01*
X148138809Y-85496727D02*
X148062618Y-85449108D01*
X148062618Y-85449108D02*
X147910237Y-85401489D01*
X147910237Y-85401489D02*
X147834047Y-85353870D01*
X147834047Y-85353870D02*
X147795952Y-85306251D01*
X147795952Y-85306251D02*
X147757856Y-85211013D01*
X147757856Y-85211013D02*
X147757856Y-85115775D01*
X147757856Y-85115775D02*
X147795952Y-85020537D01*
X147795952Y-85020537D02*
X147834047Y-84972918D01*
X147834047Y-84972918D02*
X147910237Y-84925299D01*
X147910237Y-84925299D02*
X148100714Y-84925299D01*
X148100714Y-84925299D02*
X148214999Y-84972918D01*
X148443571Y-84925299D02*
X148900714Y-84925299D01*
X148672142Y-85925299D02*
X148672142Y-84925299D01*
D12*
%TO.C,TP15*%
X179719200Y-94996000D02*
G75*
G02*
X178319200Y-94996000I-700000J0D01*
G01*
X178319200Y-94996000D02*
G75*
G02*
X179719200Y-94996000I700000J0D01*
G01*
%TO.C,TP14*%
X179617600Y-105206800D02*
G75*
G02*
X178217600Y-105206800I-700000J0D01*
G01*
X178217600Y-105206800D02*
G75*
G02*
X179617600Y-105206800I700000J0D01*
G01*
%TO.C,TP6*%
X153350000Y-94300000D02*
G75*
G02*
X151950000Y-94300000I-700000J0D01*
G01*
X151950000Y-94300000D02*
G75*
G02*
X153350000Y-94300000I700000J0D01*
G01*
%TO.C,TP13*%
X153049200Y-91846400D02*
G75*
G02*
X151649200Y-91846400I-700000J0D01*
G01*
X151649200Y-91846400D02*
G75*
G02*
X153049200Y-91846400I700000J0D01*
G01*
%TO.C,TP12*%
X144718000Y-117221000D02*
G75*
G02*
X143318000Y-117221000I-700000J0D01*
G01*
X143318000Y-117221000D02*
G75*
G02*
X144718000Y-117221000I700000J0D01*
G01*
%TO.C,R10*%
X145812742Y-112722500D02*
X146287258Y-112722500D01*
X145812742Y-111677500D02*
X146287258Y-111677500D01*
D13*
%TO.C,J3*%
X168305000Y-100000000D02*
X168305000Y-115410000D01*
X168305000Y-115410000D02*
X177305000Y-115410000D01*
X177305000Y-94900000D02*
X171460000Y-94900000D01*
X177305000Y-115410000D02*
X177305000Y-94900000D01*
%TO.C,IC5*%
X148150000Y-106100000D02*
X148150000Y-109300000D01*
X148150000Y-109300000D02*
X143250000Y-109300000D01*
X143250000Y-109300000D02*
X143250000Y-106100000D01*
X143250000Y-106100000D02*
X148150000Y-106100000D01*
X148305000Y-104225000D02*
X148305000Y-105750000D01*
D12*
%TO.C,R14*%
X147256554Y-103633053D02*
X146782038Y-103633053D01*
X147256554Y-102588053D02*
X146782038Y-102588053D01*
%TO.C,R9*%
X150122500Y-111987258D02*
X150122500Y-111512742D01*
X149077500Y-111987258D02*
X149077500Y-111512742D01*
%TO.C,R5*%
X169487258Y-93227500D02*
X169012742Y-93227500D01*
X169487258Y-94272500D02*
X169012742Y-94272500D01*
%TO.C,R12*%
X153737258Y-103730283D02*
X153262742Y-103730283D01*
X153737258Y-104775283D02*
X153262742Y-104775283D01*
D10*
%TO.C,D5*%
X147350000Y-94324500D02*
X147350000Y-94324500D01*
X147450000Y-94324500D02*
X147450000Y-94324500D01*
X147350000Y-94324500D02*
G75*
G02*
X147450000Y-94324500I50000J0D01*
G01*
X147450000Y-94324500D02*
G75*
G02*
X147350000Y-94324500I-50000J0D01*
G01*
D13*
%TO.C,C12*%
X158900000Y-115696271D02*
G75*
G02*
X158800000Y-115696271I-50000J0D01*
G01*
X158800000Y-115696271D02*
G75*
G02*
X158900000Y-115696271I50000J0D01*
G01*
%TO.C,J2*%
X138155000Y-102930000D02*
X138155000Y-117050000D01*
X139500000Y-118470000D02*
X140845000Y-118470000D01*
X140845000Y-102930000D02*
X138155000Y-102930000D01*
X140845000Y-118470000D02*
X140845000Y-102930000D01*
D14*
%TO.C,IC1*%
X163125000Y-102125000D02*
G75*
G02*
X162875000Y-102125000I-125000J0D01*
G01*
X162875000Y-102125000D02*
G75*
G02*
X163125000Y-102125000I125000J0D01*
G01*
D13*
%TO.C,FL1*%
X151500000Y-126975000D02*
X151500000Y-128025000D01*
%TO.C,D2*%
X178000000Y-116475000D02*
X178000000Y-115125000D01*
D12*
%TO.C,TP3*%
X143444000Y-125349000D02*
G75*
G02*
X141544000Y-125349000I-950000J0D01*
G01*
X141544000Y-125349000D02*
G75*
G02*
X143444000Y-125349000I950000J0D01*
G01*
%TO.C,TP7*%
X144718000Y-114554000D02*
G75*
G02*
X143318000Y-114554000I-700000J0D01*
G01*
X143318000Y-114554000D02*
G75*
G02*
X144718000Y-114554000I700000J0D01*
G01*
D13*
%TO.C,C6*%
X162865955Y-88750000D02*
G75*
G02*
X162765955Y-88750000I-50000J0D01*
G01*
X162765955Y-88750000D02*
G75*
G02*
X162865955Y-88750000I50000J0D01*
G01*
D12*
%TO.C,TP8*%
X158700000Y-95000000D02*
G75*
G02*
X157300000Y-95000000I-700000J0D01*
G01*
X157300000Y-95000000D02*
G75*
G02*
X158700000Y-95000000I700000J0D01*
G01*
%TO.C,R2*%
X159394574Y-88265535D02*
X159869090Y-88265535D01*
X159394574Y-89310535D02*
X159869090Y-89310535D01*
%TO.C,TP2*%
X148016000Y-125349000D02*
G75*
G02*
X146116000Y-125349000I-950000J0D01*
G01*
X146116000Y-125349000D02*
G75*
G02*
X148016000Y-125349000I950000J0D01*
G01*
D13*
%TO.C,IC3*%
X157460418Y-117565184D02*
X158660418Y-117565184D01*
X159010418Y-117615184D02*
X159610418Y-117615184D01*
X159010418Y-120515184D02*
X159010418Y-117615184D01*
X159610418Y-117615184D02*
X159610418Y-120515184D01*
X159610418Y-120515184D02*
X159010418Y-120515184D01*
D12*
%TO.C,R11*%
X154127607Y-102266136D02*
X153653091Y-102266136D01*
X154127607Y-103311136D02*
X153653091Y-103311136D01*
%TO.C,R4*%
X158361186Y-86724240D02*
X157886670Y-86724240D01*
X158361186Y-87769240D02*
X157886670Y-87769240D01*
D10*
%TO.C,D3*%
X138350000Y-94324500D02*
X138350000Y-94324500D01*
X138450000Y-94324500D02*
X138450000Y-94324500D01*
X138350000Y-94324500D02*
G75*
G02*
X138450000Y-94324500I50000J0D01*
G01*
X138450000Y-94324500D02*
G75*
G02*
X138350000Y-94324500I-50000J0D01*
G01*
%TO.C,D4*%
X142895007Y-94322649D02*
X142895007Y-94322649D01*
X142995007Y-94322649D02*
X142995007Y-94322649D01*
X142895007Y-94322649D02*
G75*
G02*
X142995007Y-94322649I50000J0D01*
G01*
X142995007Y-94322649D02*
G75*
G02*
X142895007Y-94322649I-50000J0D01*
G01*
D12*
%TO.C,R7*%
X163487258Y-95177500D02*
X163012742Y-95177500D01*
X163487258Y-96222500D02*
X163012742Y-96222500D01*
D13*
%TO.C,F1*%
X158321109Y-129666259D02*
X158321109Y-124746259D01*
D12*
%TO.C,R18*%
X141387300Y-113937742D02*
X141387300Y-114412258D01*
X142432300Y-113937742D02*
X142432300Y-114412258D01*
%TO.C,TP11*%
X138999000Y-128524000D02*
G75*
G02*
X137099000Y-128524000I-950000J0D01*
G01*
X137099000Y-128524000D02*
G75*
G02*
X138999000Y-128524000I950000J0D01*
G01*
%TO.C,TP5*%
X155386000Y-89789000D02*
G75*
G02*
X153986000Y-89789000I-700000J0D01*
G01*
X153986000Y-89789000D02*
G75*
G02*
X155386000Y-89789000I700000J0D01*
G01*
D13*
%TO.C,C5*%
X162469610Y-118796725D02*
X161869610Y-118796725D01*
D10*
%TO.C,J1*%
X163978930Y-124261028D02*
X163978930Y-124261028D01*
X164078930Y-124261028D02*
X164078930Y-124261028D01*
D13*
X164768930Y-119611028D02*
X164768930Y-131611028D01*
X164768930Y-119611028D02*
X168954930Y-119611028D01*
X164768930Y-131611028D02*
X168917930Y-131611028D01*
D15*
X181268930Y-119611028D02*
X173550930Y-119611028D01*
D13*
X181268930Y-119611028D02*
X181268930Y-131611028D01*
X181268930Y-131611028D02*
X173366930Y-131611028D01*
D10*
X163978930Y-124261028D02*
G75*
G02*
X164078930Y-124261028I50000J0D01*
G01*
X164078930Y-124261028D02*
G75*
G02*
X163978930Y-124261028I-50000J0D01*
G01*
D12*
%TO.C,R16*%
X141387300Y-117435459D02*
X141387300Y-116960943D01*
X142432300Y-117435459D02*
X142432300Y-116960943D01*
D13*
%TO.C,C21*%
X155900000Y-112250000D02*
G75*
G02*
X155800000Y-112250000I-50000J0D01*
G01*
X155800000Y-112250000D02*
G75*
G02*
X155900000Y-112250000I50000J0D01*
G01*
D12*
%TO.C,R20*%
X140262758Y-91077500D02*
X139788242Y-91077500D01*
X140262758Y-92122500D02*
X139788242Y-92122500D01*
%TO.C,R6*%
X166477500Y-94837742D02*
X166477500Y-95312258D01*
X167522500Y-94837742D02*
X167522500Y-95312258D01*
D13*
%TO.C,IC2*%
X151101858Y-122897264D02*
X151101858Y-121697264D01*
X151151858Y-120747264D02*
X154051858Y-120747264D01*
X151151858Y-121347264D02*
X151151858Y-120747264D01*
X154051858Y-120747264D02*
X154051858Y-121347264D01*
X154051858Y-121347264D02*
X151151858Y-121347264D01*
%TO.C,C15*%
X167020785Y-111755842D02*
G75*
G02*
X166920785Y-111755842I-50000J0D01*
G01*
X166920785Y-111755842D02*
G75*
G02*
X167020785Y-111755842I50000J0D01*
G01*
%TO.C,C17*%
X152250000Y-113700000D02*
G75*
G02*
X152150000Y-113700000I-50000J0D01*
G01*
X152150000Y-113700000D02*
G75*
G02*
X152250000Y-113700000I50000J0D01*
G01*
%TO.C,D1*%
X156978615Y-123897184D02*
X162355615Y-123897184D01*
X162082615Y-121233184D02*
X156978615Y-121233184D01*
D12*
%TO.C,R24*%
X146588242Y-99027500D02*
X147062758Y-99027500D01*
X146588242Y-100072500D02*
X147062758Y-100072500D01*
D13*
%TO.C,C4*%
X153100000Y-117450000D02*
X153700000Y-117450000D01*
%TO.C,C22*%
X150335889Y-119751531D02*
G75*
G02*
X150235889Y-119751531I-50000J0D01*
G01*
X150235889Y-119751531D02*
G75*
G02*
X150335889Y-119751531I50000J0D01*
G01*
D12*
%TO.C,R22*%
X149612742Y-99096934D02*
X150087258Y-99096934D01*
X149612742Y-100141934D02*
X150087258Y-100141934D01*
D13*
%TO.C,C1*%
X156657977Y-97714133D02*
G75*
G02*
X156557977Y-97714133I-50000J0D01*
G01*
X156557977Y-97714133D02*
G75*
G02*
X156657977Y-97714133I50000J0D01*
G01*
D12*
%TO.C,R21*%
X145271258Y-91044500D02*
X144796742Y-91044500D01*
X145271258Y-92089500D02*
X144796742Y-92089500D01*
%TO.C,TP9*%
X179719200Y-97028000D02*
G75*
G02*
X178319200Y-97028000I-700000J0D01*
G01*
X178319200Y-97028000D02*
G75*
G02*
X179719200Y-97028000I700000J0D01*
G01*
%TO.C,TP10*%
X179617600Y-103022400D02*
G75*
G02*
X178217600Y-103022400I-700000J0D01*
G01*
X178217600Y-103022400D02*
G75*
G02*
X179617600Y-103022400I700000J0D01*
G01*
%TO.C,TP1*%
X138999000Y-125349000D02*
G75*
G02*
X137099000Y-125349000I-950000J0D01*
G01*
X137099000Y-125349000D02*
G75*
G02*
X138999000Y-125349000I950000J0D01*
G01*
%TO.C,R13*%
X153487258Y-105227500D02*
X153012742Y-105227500D01*
X153487258Y-106272500D02*
X153012742Y-106272500D01*
%TO.C,R1*%
X152877500Y-97337742D02*
X152877500Y-97812258D01*
X153922500Y-97337742D02*
X153922500Y-97812258D01*
%TO.C,R15*%
X154452500Y-97337742D02*
X154452500Y-97812258D01*
X155497500Y-97337742D02*
X155497500Y-97812258D01*
D13*
%TO.C,C20*%
X162334078Y-98898722D02*
G75*
G02*
X162234078Y-98898722I-50000J0D01*
G01*
X162234078Y-98898722D02*
G75*
G02*
X162334078Y-98898722I50000J0D01*
G01*
D12*
%TO.C,R8*%
X157927500Y-92637258D02*
X157927500Y-92162742D01*
X158972500Y-92637258D02*
X158972500Y-92162742D01*
%TO.C,R23*%
X143557422Y-99096934D02*
X144031938Y-99096934D01*
X143557422Y-100141934D02*
X144031938Y-100141934D01*
D13*
%TO.C,D6*%
X140600000Y-96274500D02*
X140600000Y-98374500D01*
X140600000Y-98374500D02*
X143300000Y-98374500D01*
X143300000Y-96274500D02*
X140600000Y-96274500D01*
%TO.C,C2*%
X152000000Y-124700000D02*
X152000000Y-125300000D01*
D12*
%TO.C,R19*%
X148977500Y-108987258D02*
X148977500Y-108512742D01*
X150022500Y-108987258D02*
X150022500Y-108512742D01*
D13*
%TO.C,C23*%
X163511201Y-115074784D02*
G75*
G02*
X163411201Y-115074784I-50000J0D01*
G01*
X163411201Y-115074784D02*
G75*
G02*
X163511201Y-115074784I50000J0D01*
G01*
D12*
%TO.C,TP4*%
X161478000Y-132969000D02*
G75*
G02*
X159578000Y-132969000I-950000J0D01*
G01*
X159578000Y-132969000D02*
G75*
G02*
X161478000Y-132969000I950000J0D01*
G01*
D13*
%TO.C,C3*%
X151509895Y-117446005D02*
X152109895Y-117446005D01*
D12*
%TO.C,R17*%
X156365863Y-110465893D02*
X155891347Y-110465893D01*
X156365863Y-111510893D02*
X155891347Y-111510893D01*
%TO.C,R3*%
X159877500Y-86262742D02*
X159877500Y-86737258D01*
X160922500Y-86262742D02*
X160922500Y-86737258D01*
D13*
%TO.C,D7*%
X145100000Y-96274500D02*
X145100000Y-98374500D01*
X145100000Y-98374500D02*
X147800000Y-98374500D01*
X147800000Y-96274500D02*
X145100000Y-96274500D01*
D14*
%TO.C,IC4*%
X164313637Y-94311359D02*
G75*
G02*
X164063637Y-94311359I-125000J0D01*
G01*
X164063637Y-94311359D02*
G75*
G02*
X164313637Y-94311359I125000J0D01*
G01*
D13*
%TO.C,S1*%
X143700000Y-86260000D02*
X149900000Y-86260000D01*
X143700000Y-87200000D02*
X143700000Y-86260000D01*
X143700000Y-89740000D02*
X143700000Y-88800000D01*
X149900000Y-86260000D02*
X149900000Y-87200000D01*
X149900000Y-88800000D02*
X149900000Y-89740000D01*
X149900000Y-89740000D02*
X143700000Y-89740000D01*
D10*
X151200000Y-87000000D02*
X151200000Y-87000000D01*
X151200000Y-87100000D02*
X151200000Y-87100000D01*
X151200000Y-87000000D02*
G75*
G02*
X151200000Y-87100000I0J-50000D01*
G01*
X151200000Y-87100000D02*
G75*
G02*
X151200000Y-87000000I0J50000D01*
G01*
%TD*%
M02*
