%TF.GenerationSoftware,KiCad,Pcbnew,9.0.6*%
%TF.CreationDate,2026-02-22T09:47:55+01:00*%
%TF.ProjectId,iCE40UP5K_logic_analyzer,69434534-3055-4503-954b-5f6c6f676963,rev?*%
%TF.SameCoordinates,Original*%
%TF.FileFunction,Copper,L2,Bot*%
%TF.FilePolarity,Positive*%
%FSLAX46Y46*%
G04 Gerber Fmt 4.6, Leading zero omitted, Abs format (unit mm)*
G04 Created by KiCad (PCBNEW 9.0.6) date 2026-02-22 09:47:55*
%MOMM*%
%LPD*%
G01*
G04 APERTURE LIST*
%TA.AperFunction,ComponentPad*%
%ADD10R,1.650000X1.650000*%
%TD*%
%TA.AperFunction,ComponentPad*%
%ADD11C,1.650000*%
%TD*%
%TA.AperFunction,ComponentPad*%
%ADD12R,1.420000X1.420000*%
%TD*%
%TA.AperFunction,ComponentPad*%
%ADD13C,1.420000*%
%TD*%
%TA.AperFunction,ComponentPad*%
%ADD14C,3.450000*%
%TD*%
%TA.AperFunction,ViaPad*%
%ADD15C,0.700000*%
%TD*%
%TA.AperFunction,Conductor*%
%ADD16C,0.400000*%
%TD*%
%TA.AperFunction,Conductor*%
%ADD17C,0.250000*%
%TD*%
%TA.AperFunction,Conductor*%
%ADD18C,0.200000*%
%TD*%
G04 APERTURE END LIST*
D10*
%TO.P,J3,1,1*%
%TO.N,GND*%
X171460000Y-100000000D03*
D11*
%TO.P,J3,2,2*%
%TO.N,/LA0*%
X174000000Y-100000000D03*
%TO.P,J3,3,3*%
%TO.N,/LA1*%
X171460000Y-102540000D03*
%TO.P,J3,4,4*%
%TO.N,/LA2*%
X174000000Y-102540000D03*
%TO.P,J3,5,5*%
%TO.N,/LA3*%
X171460000Y-105080000D03*
%TO.P,J3,6,6*%
%TO.N,GND*%
X174000000Y-105080000D03*
%TO.P,J3,7,7*%
%TO.N,/LA4*%
X171460000Y-107620000D03*
%TO.P,J3,8,8*%
%TO.N,/LA5*%
X174000000Y-107620000D03*
%TO.P,J3,9,9*%
%TO.N,/LA6*%
X171460000Y-110160000D03*
%TO.P,J3,10,10*%
%TO.N,/LA7*%
X174000000Y-110160000D03*
%TD*%
D10*
%TO.P,J2,1,1*%
%TO.N,GND*%
X139500000Y-117050000D03*
D11*
%TO.P,J2,2,2*%
%TO.N,Net-(J2-Pad2)*%
X139500000Y-114510000D03*
%TO.P,J2,3,3*%
%TO.N,/SPI_CLK*%
X139500000Y-111970000D03*
%TO.P,J2,4,4*%
%TO.N,/SPI_MOSI*%
X139500000Y-109430000D03*
%TO.P,J2,5,5*%
%TO.N,/SPI_MISO*%
X139500000Y-106890000D03*
%TO.P,J2,6,6*%
%TO.N,/SPI_CSn*%
X139500000Y-104350000D03*
%TD*%
D12*
%TO.P,J1,1,1*%
%TO.N,Net-(D1-K)*%
X166278930Y-124361028D03*
D13*
%TO.P,J1,2,2*%
%TO.N,Net-(D2-K_1)*%
X166278930Y-126861028D03*
%TO.P,J1,3,3*%
%TO.N,Net-(D2-K_2)*%
X168278930Y-126861028D03*
%TO.P,J1,4,4*%
%TO.N,GND*%
X168278930Y-124361028D03*
D14*
%TO.P,J1,MH1,MH1*%
X170988930Y-119591028D03*
%TO.P,J1,MH2,MH2*%
X170988930Y-131631028D03*
%TD*%
D15*
%TO.N,GND*%
X178536600Y-94513400D03*
X143425000Y-116625000D03*
X147500000Y-113825000D03*
X144100000Y-103800000D03*
%TO.N,Net-(IC5-~{WP})*%
X146897131Y-106412648D03*
X148475000Y-108173298D03*
%TO.N,Net-(D2-K_2)*%
X181777000Y-94107000D03*
X180427000Y-94107000D03*
%TO.N,/SPI_MISO*%
X148488400Y-103632000D03*
X150448798Y-106855798D03*
%TO.N,GND*%
X142350000Y-94369434D03*
X163000000Y-111755842D03*
X162169610Y-120500000D03*
X165950000Y-130400000D03*
X169400000Y-122200000D03*
X155638277Y-122544366D03*
X174350000Y-124900000D03*
X152600000Y-116150000D03*
X157734000Y-104292400D03*
X152600000Y-107950000D03*
X181800000Y-121100000D03*
X174350000Y-117850000D03*
X161239200Y-107746800D03*
X161813637Y-92311359D03*
X173800000Y-133750000D03*
X167444960Y-115784502D03*
X166150000Y-118150000D03*
X143450000Y-129650000D03*
X164000000Y-86500000D03*
X160250000Y-99000000D03*
X153000000Y-123500000D03*
X136100000Y-123600000D03*
X177800000Y-129700000D03*
X164500000Y-101500000D03*
X157734000Y-107746800D03*
X165950000Y-133950000D03*
X162909315Y-93055138D03*
X142400000Y-88750000D03*
X158750000Y-96500000D03*
X149700000Y-133950000D03*
X148950000Y-126675000D03*
X181800000Y-133900000D03*
X157000000Y-119000000D03*
X167000000Y-91000000D03*
X166350000Y-121200000D03*
X140350000Y-123900000D03*
X144600000Y-97369434D03*
X138100000Y-134050000D03*
X161000000Y-112950000D03*
X159571424Y-112928576D03*
X167000000Y-89700100D03*
X149750000Y-129950000D03*
X181900000Y-118200000D03*
X157734000Y-106019600D03*
X152500000Y-124000000D03*
X144900000Y-124050000D03*
X177800000Y-134000000D03*
X159512000Y-104292400D03*
X158375000Y-112875000D03*
X161500000Y-114500000D03*
X178100000Y-121350000D03*
X136400000Y-130650000D03*
X181800000Y-129500000D03*
X159512000Y-107746800D03*
X161239200Y-104241600D03*
X146500000Y-119751531D03*
X151800000Y-110100000D03*
X179750000Y-111500000D03*
X143400000Y-133900000D03*
X177950000Y-125050000D03*
X165972314Y-98898722D03*
X156150000Y-133850000D03*
X152500000Y-109000000D03*
X157250000Y-86250000D03*
X161239200Y-106019600D03*
X154675000Y-114350000D03*
X181850000Y-124950000D03*
X174100000Y-128850000D03*
%TO.N,+5V*%
X138016714Y-88588314D03*
X139148086Y-89719686D03*
%TO.N,+3V3*%
X158325000Y-115348964D03*
X163300000Y-97700000D03*
X170050000Y-91386359D03*
X149025000Y-115900000D03*
X149978186Y-117528186D03*
X163300000Y-96400000D03*
X148336000Y-121372000D03*
X170050000Y-93236359D03*
X157450000Y-91950000D03*
X157925000Y-116948964D03*
X148336000Y-122722000D03*
X155850000Y-91950000D03*
%TO.N,+1V2*%
X142494000Y-121372000D03*
X142494000Y-122722000D03*
%TO.N,/SPI_CSn*%
X149024500Y-107454096D03*
X147731686Y-106075718D03*
%TD*%
D16*
%TO.N,+3V3*%
X149025000Y-116575000D02*
X149025000Y-115900000D01*
X149978186Y-117528186D02*
X149025000Y-116575000D01*
D17*
%TO.N,/SPI_MISO*%
X150400000Y-106807000D02*
X150448798Y-106855798D01*
X149332000Y-106807000D02*
X150400000Y-106807000D01*
X148539200Y-106014200D02*
X149332000Y-106807000D01*
X148488400Y-103632000D02*
X148539200Y-103682800D01*
X148539200Y-103682800D02*
X148539200Y-106014200D01*
%TO.N,Net-(IC5-~{WP})*%
X148475000Y-108173298D02*
X148475000Y-107860605D01*
X148348500Y-107734105D02*
X148348500Y-107648500D01*
X148475000Y-107860605D02*
X148348500Y-107734105D01*
X148348500Y-107648500D02*
X147451718Y-106751718D01*
X147451718Y-106751718D02*
X147451677Y-106751718D01*
X147451677Y-106751718D02*
X147112607Y-106412648D01*
X147112607Y-106412648D02*
X146897131Y-106412648D01*
%TO.N,Net-(D2-K_2)*%
X181777000Y-94107000D02*
X180427000Y-94107000D01*
%TO.N,+5V*%
X138016714Y-88588314D02*
X139148086Y-89719686D01*
D18*
%TO.N,+3V3*%
X157450000Y-91950000D02*
X155850000Y-91950000D01*
D16*
X158300000Y-116573964D02*
X157925000Y-116948964D01*
D18*
X148336000Y-121372000D02*
X148336000Y-122722000D01*
D16*
X158300000Y-115373964D02*
X158300000Y-116573964D01*
X163300000Y-97700000D02*
X163300000Y-96400000D01*
X170050000Y-93236359D02*
X170050000Y-91386359D01*
X158325000Y-115348964D02*
X158300000Y-115373964D01*
D18*
%TO.N,+1V2*%
X142494000Y-122722000D02*
X142494000Y-121372000D01*
D17*
%TO.N,/SPI_CSn*%
X149003798Y-107474798D02*
X149003798Y-107347830D01*
X149024500Y-107454096D02*
X149003798Y-107474798D01*
X149003798Y-107347830D02*
X147731686Y-106075718D01*
%TD*%
%TA.AperFunction,Conductor*%
%TO.N,GND*%
G36*
X182071026Y-84195972D02*
G01*
X182090005Y-84206461D01*
X182101779Y-84213859D01*
X182364789Y-84400475D01*
X182375649Y-84409135D01*
X182616127Y-84624039D01*
X182625960Y-84633872D01*
X182840859Y-84874344D01*
X182849519Y-84885204D01*
X182976630Y-85064349D01*
X182999369Y-85130412D01*
X182999500Y-85136102D01*
X182999500Y-134113895D01*
X182979815Y-134180934D01*
X182976629Y-134185651D01*
X182849523Y-134364789D01*
X182840854Y-134375660D01*
X182625960Y-134616127D01*
X182616127Y-134625960D01*
X182375655Y-134840859D01*
X182364786Y-134849525D01*
X182185651Y-134976629D01*
X182119587Y-134999369D01*
X182113897Y-134999500D01*
X136386103Y-134999500D01*
X136319064Y-134979815D01*
X136314368Y-134976643D01*
X136135201Y-134849517D01*
X136124344Y-134840859D01*
X135883872Y-134625960D01*
X135874039Y-134616127D01*
X135659135Y-134375649D01*
X135650482Y-134364798D01*
X135463848Y-134101764D01*
X135456465Y-134090013D01*
X135439366Y-134059075D01*
X135415971Y-134016743D01*
X135400500Y-133956764D01*
X135400500Y-131485200D01*
X168763930Y-131485200D01*
X168763930Y-131776855D01*
X168763931Y-131776872D01*
X168801999Y-132066031D01*
X168877492Y-132347772D01*
X168989101Y-132617223D01*
X168989109Y-132617239D01*
X169134936Y-132869816D01*
X169134942Y-132869824D01*
X169248538Y-133017865D01*
X170016842Y-132249560D01*
X170111759Y-132380203D01*
X170239755Y-132508199D01*
X170370395Y-132603114D01*
X169602091Y-133371418D01*
X169750133Y-133485015D01*
X169750141Y-133485021D01*
X170002718Y-133630848D01*
X170002734Y-133630856D01*
X170272185Y-133742465D01*
X170553926Y-133817958D01*
X170843085Y-133856026D01*
X170843103Y-133856028D01*
X171134757Y-133856028D01*
X171134774Y-133856026D01*
X171423933Y-133817958D01*
X171705674Y-133742465D01*
X171975125Y-133630856D01*
X171975141Y-133630848D01*
X172227718Y-133485021D01*
X172227736Y-133485009D01*
X172375767Y-133371419D01*
X172375767Y-133371417D01*
X171607463Y-132603114D01*
X171738105Y-132508199D01*
X171866101Y-132380203D01*
X171961016Y-132249562D01*
X172729319Y-133017865D01*
X172729321Y-133017865D01*
X172842911Y-132869834D01*
X172842923Y-132869816D01*
X172988750Y-132617239D01*
X172988758Y-132617223D01*
X173100367Y-132347772D01*
X173175860Y-132066031D01*
X173213928Y-131776872D01*
X173213930Y-131776855D01*
X173213930Y-131485200D01*
X173213928Y-131485183D01*
X173175860Y-131196024D01*
X173100367Y-130914283D01*
X172988758Y-130644832D01*
X172988750Y-130644816D01*
X172842923Y-130392239D01*
X172842917Y-130392231D01*
X172729320Y-130244189D01*
X171961016Y-131012493D01*
X171866101Y-130881853D01*
X171738105Y-130753857D01*
X171607462Y-130658940D01*
X172375767Y-129890636D01*
X172227726Y-129777040D01*
X172227718Y-129777034D01*
X171975141Y-129631207D01*
X171975125Y-129631199D01*
X171705674Y-129519590D01*
X171423933Y-129444097D01*
X171134774Y-129406029D01*
X171134757Y-129406028D01*
X170843103Y-129406028D01*
X170843085Y-129406029D01*
X170553926Y-129444097D01*
X170272185Y-129519590D01*
X170002734Y-129631199D01*
X170002718Y-129631207D01*
X169750141Y-129777034D01*
X169750125Y-129777045D01*
X169602091Y-129890634D01*
X169602091Y-129890636D01*
X170370396Y-130658941D01*
X170239755Y-130753857D01*
X170111759Y-130881853D01*
X170016843Y-131012494D01*
X169248538Y-130244189D01*
X169248536Y-130244189D01*
X169134947Y-130392223D01*
X169134936Y-130392239D01*
X168989109Y-130644816D01*
X168989101Y-130644832D01*
X168877492Y-130914283D01*
X168801999Y-131196024D01*
X168763931Y-131485183D01*
X168763930Y-131485200D01*
X135400500Y-131485200D01*
X135400500Y-126761497D01*
X165268430Y-126761497D01*
X165268430Y-126960558D01*
X165307261Y-127155772D01*
X165307263Y-127155780D01*
X165383435Y-127339675D01*
X165383440Y-127339685D01*
X165494023Y-127505183D01*
X165494026Y-127505187D01*
X165634770Y-127645931D01*
X165634774Y-127645934D01*
X165800272Y-127756517D01*
X165800276Y-127756519D01*
X165800279Y-127756521D01*
X165984178Y-127832695D01*
X166179399Y-127871527D01*
X166179402Y-127871528D01*
X166179404Y-127871528D01*
X166378458Y-127871528D01*
X166378459Y-127871527D01*
X166573682Y-127832695D01*
X166757581Y-127756521D01*
X166923086Y-127645934D01*
X167063836Y-127505184D01*
X167174423Y-127339679D01*
X167175828Y-127337577D01*
X167229440Y-127292772D01*
X167298765Y-127284065D01*
X167361793Y-127314219D01*
X167382032Y-127337577D01*
X167494023Y-127505183D01*
X167494026Y-127505187D01*
X167634770Y-127645931D01*
X167634774Y-127645934D01*
X167800272Y-127756517D01*
X167800276Y-127756519D01*
X167800279Y-127756521D01*
X167984178Y-127832695D01*
X168179399Y-127871527D01*
X168179402Y-127871528D01*
X168179404Y-127871528D01*
X168378458Y-127871528D01*
X168378459Y-127871527D01*
X168573682Y-127832695D01*
X168757581Y-127756521D01*
X168923086Y-127645934D01*
X169063836Y-127505184D01*
X169174423Y-127339679D01*
X169250597Y-127155780D01*
X169289430Y-126960554D01*
X169289430Y-126761502D01*
X169289430Y-126761499D01*
X169289429Y-126761497D01*
X169250598Y-126566283D01*
X169250597Y-126566276D01*
X169174423Y-126382377D01*
X169174421Y-126382374D01*
X169174419Y-126382370D01*
X169063836Y-126216872D01*
X169063833Y-126216868D01*
X168923089Y-126076124D01*
X168923085Y-126076121D01*
X168757587Y-125965538D01*
X168757577Y-125965533D01*
X168573682Y-125889361D01*
X168573674Y-125889359D01*
X168378459Y-125850528D01*
X168378456Y-125850528D01*
X168179404Y-125850528D01*
X168179401Y-125850528D01*
X167984185Y-125889359D01*
X167984177Y-125889361D01*
X167800282Y-125965533D01*
X167800272Y-125965538D01*
X167634774Y-126076121D01*
X167634770Y-126076124D01*
X167494026Y-126216868D01*
X167494023Y-126216872D01*
X167382032Y-126384478D01*
X167328420Y-126429283D01*
X167259095Y-126437990D01*
X167196067Y-126407835D01*
X167175828Y-126384478D01*
X167063836Y-126216872D01*
X167063833Y-126216868D01*
X166923089Y-126076124D01*
X166923085Y-126076121D01*
X166757587Y-125965538D01*
X166757577Y-125965533D01*
X166573682Y-125889361D01*
X166573674Y-125889359D01*
X166378459Y-125850528D01*
X166378456Y-125850528D01*
X166179404Y-125850528D01*
X166179401Y-125850528D01*
X165984185Y-125889359D01*
X165984177Y-125889361D01*
X165800282Y-125965533D01*
X165800272Y-125965538D01*
X165634774Y-126076121D01*
X165634770Y-126076124D01*
X165494026Y-126216868D01*
X165494023Y-126216872D01*
X165383440Y-126382370D01*
X165383435Y-126382380D01*
X165307263Y-126566275D01*
X165307261Y-126566283D01*
X165268430Y-126761497D01*
X135400500Y-126761497D01*
X135400500Y-123606159D01*
X165268430Y-123606159D01*
X165268430Y-125115884D01*
X165268432Y-125115910D01*
X165271343Y-125141015D01*
X165271345Y-125141019D01*
X165316723Y-125243792D01*
X165316724Y-125243793D01*
X165396165Y-125323234D01*
X165498939Y-125368613D01*
X165524065Y-125371528D01*
X167033794Y-125371527D01*
X167033809Y-125371525D01*
X167033812Y-125371525D01*
X167058917Y-125368614D01*
X167058918Y-125368613D01*
X167058921Y-125368613D01*
X167161695Y-125323234D01*
X167241136Y-125243793D01*
X167286515Y-125141019D01*
X167289430Y-125115893D01*
X167289429Y-125048333D01*
X167309113Y-124981297D01*
X167325748Y-124960654D01*
X167828626Y-124457776D01*
X167850279Y-124538581D01*
X167910839Y-124643474D01*
X167996484Y-124729119D01*
X168101377Y-124789679D01*
X168182180Y-124811330D01*
X167617440Y-125376069D01*
X167644752Y-125395913D01*
X167814446Y-125482377D01*
X167995587Y-125541234D01*
X168183696Y-125571028D01*
X168374164Y-125571028D01*
X168562272Y-125541234D01*
X168743413Y-125482377D01*
X168913104Y-125395915D01*
X168940418Y-125376069D01*
X168375679Y-124811330D01*
X168456483Y-124789679D01*
X168561376Y-124729119D01*
X168647021Y-124643474D01*
X168707581Y-124538581D01*
X168729232Y-124457776D01*
X169293971Y-125022515D01*
X169313817Y-124995202D01*
X169400279Y-124825511D01*
X169459136Y-124644370D01*
X169488930Y-124456262D01*
X169488930Y-124265793D01*
X169459136Y-124077685D01*
X169400279Y-123896544D01*
X169313815Y-123726850D01*
X169293971Y-123699539D01*
X169293971Y-123699538D01*
X168729232Y-124264278D01*
X168707581Y-124183475D01*
X168647021Y-124078582D01*
X168561376Y-123992937D01*
X168456483Y-123932377D01*
X168375679Y-123910725D01*
X168940418Y-123345986D01*
X168940417Y-123345985D01*
X168913108Y-123326143D01*
X168743413Y-123239678D01*
X168562272Y-123180821D01*
X168374164Y-123151028D01*
X168183696Y-123151028D01*
X167995587Y-123180821D01*
X167814446Y-123239678D01*
X167644745Y-123326146D01*
X167617441Y-123345984D01*
X167617441Y-123345985D01*
X168182181Y-123910725D01*
X168101377Y-123932377D01*
X167996484Y-123992937D01*
X167910839Y-124078582D01*
X167850279Y-124183475D01*
X167828627Y-124264279D01*
X167325748Y-123761400D01*
X167292263Y-123700077D01*
X167289429Y-123673719D01*
X167289429Y-123606171D01*
X167289429Y-123606164D01*
X167289427Y-123606145D01*
X167286516Y-123581040D01*
X167286515Y-123581038D01*
X167286515Y-123581037D01*
X167241136Y-123478263D01*
X167161695Y-123398822D01*
X167161693Y-123398821D01*
X167058922Y-123353443D01*
X167033795Y-123350528D01*
X165524073Y-123350528D01*
X165524047Y-123350530D01*
X165498942Y-123353441D01*
X165498938Y-123353443D01*
X165396165Y-123398821D01*
X165316724Y-123478262D01*
X165271345Y-123581034D01*
X165271345Y-123581036D01*
X165268430Y-123606159D01*
X135400500Y-123606159D01*
X135400500Y-121436071D01*
X141843499Y-121436071D01*
X141868497Y-121561738D01*
X141868499Y-121561744D01*
X141917533Y-121680124D01*
X141917538Y-121680133D01*
X141988722Y-121786667D01*
X141988723Y-121786668D01*
X141988724Y-121786669D01*
X142057182Y-121855127D01*
X142071888Y-121882058D01*
X142088477Y-121907872D01*
X142089368Y-121914071D01*
X142090666Y-121916448D01*
X142093500Y-121942807D01*
X142093500Y-122151192D01*
X142073815Y-122218231D01*
X142057181Y-122238873D01*
X141988726Y-122307327D01*
X141988723Y-122307331D01*
X141917538Y-122413866D01*
X141917533Y-122413875D01*
X141868499Y-122532255D01*
X141868497Y-122532261D01*
X141843500Y-122657928D01*
X141843500Y-122657931D01*
X141843500Y-122786069D01*
X141843500Y-122786071D01*
X141843499Y-122786071D01*
X141868497Y-122911738D01*
X141868499Y-122911744D01*
X141917533Y-123030124D01*
X141917538Y-123030133D01*
X141988723Y-123136668D01*
X141988726Y-123136672D01*
X142079327Y-123227273D01*
X142079331Y-123227276D01*
X142185866Y-123298461D01*
X142185872Y-123298464D01*
X142185873Y-123298465D01*
X142304256Y-123347501D01*
X142304260Y-123347501D01*
X142304261Y-123347502D01*
X142429928Y-123372500D01*
X142429931Y-123372500D01*
X142558071Y-123372500D01*
X142653882Y-123353441D01*
X142683744Y-123347501D01*
X142802127Y-123298465D01*
X142908669Y-123227276D01*
X142999276Y-123136669D01*
X143070465Y-123030127D01*
X143119501Y-122911744D01*
X143144500Y-122786069D01*
X143144500Y-122657931D01*
X143144500Y-122657928D01*
X143119502Y-122532261D01*
X143119501Y-122532260D01*
X143119501Y-122532256D01*
X143070465Y-122413873D01*
X143070464Y-122413872D01*
X143070461Y-122413866D01*
X142999276Y-122307331D01*
X142999273Y-122307327D01*
X142930819Y-122238873D01*
X142916115Y-122211945D01*
X142899523Y-122186127D01*
X142898631Y-122179926D01*
X142897334Y-122177550D01*
X142894500Y-122151192D01*
X142894500Y-121942807D01*
X142914185Y-121875768D01*
X142930814Y-121855130D01*
X142999276Y-121786669D01*
X143070465Y-121680127D01*
X143119501Y-121561744D01*
X143127682Y-121520615D01*
X143144500Y-121436071D01*
X147685499Y-121436071D01*
X147710497Y-121561738D01*
X147710499Y-121561744D01*
X147759533Y-121680124D01*
X147759538Y-121680133D01*
X147830722Y-121786667D01*
X147830723Y-121786668D01*
X147830724Y-121786669D01*
X147899182Y-121855127D01*
X147913888Y-121882058D01*
X147930477Y-121907872D01*
X147931368Y-121914071D01*
X147932666Y-121916448D01*
X147935500Y-121942807D01*
X147935500Y-122151192D01*
X147915815Y-122218231D01*
X147899181Y-122238873D01*
X147830726Y-122307327D01*
X147830723Y-122307331D01*
X147759538Y-122413866D01*
X147759533Y-122413875D01*
X147710499Y-122532255D01*
X147710497Y-122532261D01*
X147685500Y-122657928D01*
X147685500Y-122657931D01*
X147685500Y-122786069D01*
X147685500Y-122786071D01*
X147685499Y-122786071D01*
X147710497Y-122911738D01*
X147710499Y-122911744D01*
X147759533Y-123030124D01*
X147759538Y-123030133D01*
X147830723Y-123136668D01*
X147830726Y-123136672D01*
X147921327Y-123227273D01*
X147921331Y-123227276D01*
X148027866Y-123298461D01*
X148027872Y-123298464D01*
X148027873Y-123298465D01*
X148146256Y-123347501D01*
X148146260Y-123347501D01*
X148146261Y-123347502D01*
X148271928Y-123372500D01*
X148271931Y-123372500D01*
X148400071Y-123372500D01*
X148495882Y-123353441D01*
X148525744Y-123347501D01*
X148644127Y-123298465D01*
X148750669Y-123227276D01*
X148841276Y-123136669D01*
X148912465Y-123030127D01*
X148961501Y-122911744D01*
X148986500Y-122786069D01*
X148986500Y-122657931D01*
X148986500Y-122657928D01*
X148961502Y-122532261D01*
X148961501Y-122532260D01*
X148961501Y-122532256D01*
X148912465Y-122413873D01*
X148912464Y-122413872D01*
X148912461Y-122413866D01*
X148841276Y-122307331D01*
X148841273Y-122307327D01*
X148772819Y-122238873D01*
X148758115Y-122211945D01*
X148741523Y-122186127D01*
X148740631Y-122179926D01*
X148739334Y-122177550D01*
X148736500Y-122151192D01*
X148736500Y-121942807D01*
X148756185Y-121875768D01*
X148772814Y-121855130D01*
X148841276Y-121786669D01*
X148912465Y-121680127D01*
X148961501Y-121561744D01*
X148969682Y-121520615D01*
X148986500Y-121436071D01*
X148986500Y-121307932D01*
X148986446Y-121307661D01*
X148986446Y-121307658D01*
X148961502Y-121182261D01*
X148961501Y-121182260D01*
X148961501Y-121182256D01*
X148912465Y-121063873D01*
X148912464Y-121063872D01*
X148912461Y-121063866D01*
X148841276Y-120957331D01*
X148841273Y-120957327D01*
X148750672Y-120866726D01*
X148750668Y-120866723D01*
X148644133Y-120795538D01*
X148644124Y-120795533D01*
X148525744Y-120746499D01*
X148525738Y-120746497D01*
X148400071Y-120721500D01*
X148400069Y-120721500D01*
X148271931Y-120721500D01*
X148271929Y-120721500D01*
X148146261Y-120746497D01*
X148146255Y-120746499D01*
X148027875Y-120795533D01*
X148027866Y-120795538D01*
X147921331Y-120866723D01*
X147921327Y-120866726D01*
X147830726Y-120957327D01*
X147830723Y-120957331D01*
X147759538Y-121063866D01*
X147759533Y-121063875D01*
X147710499Y-121182255D01*
X147710497Y-121182261D01*
X147685500Y-121307928D01*
X147685500Y-121307931D01*
X147685500Y-121436069D01*
X147685500Y-121436071D01*
X147685499Y-121436071D01*
X143144500Y-121436071D01*
X143144500Y-121307928D01*
X143119502Y-121182261D01*
X143119501Y-121182260D01*
X143119501Y-121182256D01*
X143070465Y-121063873D01*
X143070464Y-121063872D01*
X143070461Y-121063866D01*
X142999276Y-120957331D01*
X142999273Y-120957327D01*
X142908672Y-120866726D01*
X142908668Y-120866723D01*
X142802133Y-120795538D01*
X142802124Y-120795533D01*
X142683744Y-120746499D01*
X142683738Y-120746497D01*
X142558071Y-120721500D01*
X142558069Y-120721500D01*
X142429931Y-120721500D01*
X142429929Y-120721500D01*
X142304261Y-120746497D01*
X142304255Y-120746499D01*
X142185875Y-120795533D01*
X142185866Y-120795538D01*
X142079331Y-120866723D01*
X142079327Y-120866726D01*
X141988726Y-120957327D01*
X141988723Y-120957331D01*
X141917538Y-121063866D01*
X141917533Y-121063875D01*
X141868499Y-121182255D01*
X141868497Y-121182261D01*
X141843500Y-121307928D01*
X141843500Y-121307931D01*
X141843500Y-121436069D01*
X141843500Y-121436071D01*
X141843499Y-121436071D01*
X135400500Y-121436071D01*
X135400500Y-119445200D01*
X168763930Y-119445200D01*
X168763930Y-119736855D01*
X168763931Y-119736872D01*
X168801999Y-120026031D01*
X168877492Y-120307772D01*
X168989101Y-120577223D01*
X168989109Y-120577239D01*
X169134936Y-120829816D01*
X169134942Y-120829824D01*
X169248538Y-120977865D01*
X170016842Y-120209560D01*
X170111759Y-120340203D01*
X170239755Y-120468199D01*
X170370395Y-120563114D01*
X169602091Y-121331418D01*
X169750133Y-121445015D01*
X169750141Y-121445021D01*
X170002718Y-121590848D01*
X170002734Y-121590856D01*
X170272185Y-121702465D01*
X170553926Y-121777958D01*
X170843085Y-121816026D01*
X170843103Y-121816028D01*
X171134757Y-121816028D01*
X171134774Y-121816026D01*
X171423933Y-121777958D01*
X171705674Y-121702465D01*
X171975125Y-121590856D01*
X171975141Y-121590848D01*
X172227718Y-121445021D01*
X172227736Y-121445009D01*
X172375767Y-121331419D01*
X172375767Y-121331417D01*
X171607463Y-120563114D01*
X171738105Y-120468199D01*
X171866101Y-120340203D01*
X171961016Y-120209562D01*
X172729319Y-120977865D01*
X172729321Y-120977865D01*
X172842911Y-120829834D01*
X172842923Y-120829816D01*
X172988750Y-120577239D01*
X172988758Y-120577223D01*
X173100367Y-120307772D01*
X173175860Y-120026031D01*
X173213928Y-119736872D01*
X173213930Y-119736855D01*
X173213930Y-119445200D01*
X173213928Y-119445183D01*
X173175860Y-119156024D01*
X173100367Y-118874283D01*
X172988758Y-118604832D01*
X172988750Y-118604816D01*
X172842923Y-118352239D01*
X172842917Y-118352231D01*
X172729320Y-118204189D01*
X171961016Y-118972493D01*
X171866101Y-118841853D01*
X171738105Y-118713857D01*
X171607462Y-118618940D01*
X172375767Y-117850636D01*
X172227726Y-117737040D01*
X172227718Y-117737034D01*
X171975141Y-117591207D01*
X171975125Y-117591199D01*
X171705674Y-117479590D01*
X171423933Y-117404097D01*
X171134774Y-117366029D01*
X171134757Y-117366028D01*
X170843103Y-117366028D01*
X170843085Y-117366029D01*
X170553926Y-117404097D01*
X170272185Y-117479590D01*
X170002734Y-117591199D01*
X170002718Y-117591207D01*
X169750141Y-117737034D01*
X169750125Y-117737045D01*
X169602091Y-117850634D01*
X169602091Y-117850636D01*
X170370396Y-118618941D01*
X170239755Y-118713857D01*
X170111759Y-118841853D01*
X170016843Y-118972494D01*
X169248538Y-118204189D01*
X169248536Y-118204189D01*
X169134947Y-118352223D01*
X169134936Y-118352239D01*
X168989109Y-118604816D01*
X168989101Y-118604832D01*
X168877492Y-118874283D01*
X168801999Y-119156024D01*
X168763931Y-119445183D01*
X168763930Y-119445200D01*
X135400500Y-119445200D01*
X135400500Y-116177155D01*
X138175000Y-116177155D01*
X138175000Y-116800000D01*
X139009252Y-116800000D01*
X138987482Y-116837708D01*
X138950000Y-116977591D01*
X138950000Y-117122409D01*
X138987482Y-117262292D01*
X139009252Y-117300000D01*
X138175000Y-117300000D01*
X138175000Y-117922844D01*
X138181401Y-117982372D01*
X138181403Y-117982379D01*
X138231645Y-118117086D01*
X138231649Y-118117093D01*
X138317809Y-118232187D01*
X138317812Y-118232190D01*
X138432906Y-118318350D01*
X138432913Y-118318354D01*
X138567620Y-118368596D01*
X138567627Y-118368598D01*
X138627155Y-118374999D01*
X138627172Y-118375000D01*
X139250000Y-118375000D01*
X139250000Y-117540747D01*
X139287708Y-117562518D01*
X139427591Y-117600000D01*
X139572409Y-117600000D01*
X139712292Y-117562518D01*
X139750000Y-117540747D01*
X139750000Y-118375000D01*
X140372828Y-118375000D01*
X140372844Y-118374999D01*
X140432372Y-118368598D01*
X140432379Y-118368596D01*
X140567086Y-118318354D01*
X140567093Y-118318350D01*
X140682187Y-118232190D01*
X140682190Y-118232187D01*
X140768350Y-118117093D01*
X140768354Y-118117086D01*
X140818596Y-117982379D01*
X140818598Y-117982372D01*
X140824999Y-117922844D01*
X140825000Y-117922827D01*
X140825000Y-117300000D01*
X139990748Y-117300000D01*
X140012518Y-117262292D01*
X140050000Y-117122409D01*
X140050000Y-116977591D01*
X140012518Y-116837708D01*
X139990748Y-116800000D01*
X140825000Y-116800000D01*
X140825000Y-116177172D01*
X140824999Y-116177155D01*
X140818598Y-116117627D01*
X140818596Y-116117620D01*
X140768354Y-115982913D01*
X140768350Y-115982906D01*
X140754250Y-115964071D01*
X148374499Y-115964071D01*
X148399497Y-116089738D01*
X148399499Y-116089744D01*
X148448533Y-116208124D01*
X148448538Y-116208133D01*
X148503602Y-116290541D01*
X148524480Y-116357218D01*
X148524500Y-116359432D01*
X148524500Y-116640891D01*
X148558608Y-116768187D01*
X148576976Y-116800000D01*
X148624500Y-116882314D01*
X148624502Y-116882316D01*
X149299410Y-117557224D01*
X149332895Y-117618547D01*
X149333346Y-117620713D01*
X149352683Y-117717924D01*
X149352685Y-117717930D01*
X149401719Y-117836310D01*
X149401724Y-117836319D01*
X149472909Y-117942854D01*
X149472912Y-117942858D01*
X149563513Y-118033459D01*
X149563517Y-118033462D01*
X149670052Y-118104647D01*
X149670058Y-118104650D01*
X149670059Y-118104651D01*
X149788442Y-118153687D01*
X149788446Y-118153687D01*
X149788447Y-118153688D01*
X149914114Y-118178686D01*
X149914117Y-118178686D01*
X150042257Y-118178686D01*
X150126801Y-118161868D01*
X150167930Y-118153687D01*
X150286313Y-118104651D01*
X150392855Y-118033462D01*
X150483462Y-117942855D01*
X150554651Y-117836313D01*
X150603687Y-117717930D01*
X150623456Y-117618547D01*
X150628686Y-117592257D01*
X150628686Y-117464114D01*
X150603688Y-117338447D01*
X150603687Y-117338446D01*
X150603687Y-117338442D01*
X150554651Y-117220059D01*
X150554650Y-117220058D01*
X150554647Y-117220052D01*
X150483462Y-117113517D01*
X150483459Y-117113513D01*
X150392855Y-117022909D01*
X150378077Y-117013035D01*
X157274499Y-117013035D01*
X157299497Y-117138702D01*
X157299499Y-117138708D01*
X157348533Y-117257088D01*
X157348538Y-117257097D01*
X157419723Y-117363632D01*
X157419726Y-117363636D01*
X157510327Y-117454237D01*
X157510331Y-117454240D01*
X157616866Y-117525425D01*
X157616872Y-117525428D01*
X157616873Y-117525429D01*
X157735256Y-117574465D01*
X157735260Y-117574465D01*
X157735261Y-117574466D01*
X157860928Y-117599464D01*
X157860931Y-117599464D01*
X157989071Y-117599464D01*
X158073615Y-117582646D01*
X158114744Y-117574465D01*
X158233127Y-117525429D01*
X158339669Y-117454240D01*
X158430276Y-117363633D01*
X158501465Y-117257091D01*
X158550501Y-117138708D01*
X158569839Y-117041492D01*
X158602224Y-116979581D01*
X158603668Y-116978109D01*
X158700500Y-116881278D01*
X158766392Y-116767150D01*
X158800500Y-116639857D01*
X158800500Y-116508072D01*
X158800500Y-115844283D01*
X158820185Y-115777244D01*
X158828649Y-115765615D01*
X158830269Y-115763639D01*
X158830276Y-115763633D01*
X158901465Y-115657091D01*
X158950501Y-115538708D01*
X158963648Y-115472614D01*
X158975500Y-115413035D01*
X158975500Y-115284892D01*
X158950502Y-115159225D01*
X158950501Y-115159224D01*
X158950501Y-115159220D01*
X158901465Y-115040837D01*
X158901464Y-115040836D01*
X158901461Y-115040830D01*
X158830276Y-114934295D01*
X158830273Y-114934291D01*
X158739672Y-114843690D01*
X158739668Y-114843687D01*
X158633133Y-114772502D01*
X158633124Y-114772497D01*
X158514744Y-114723463D01*
X158514738Y-114723461D01*
X158389071Y-114698464D01*
X158389069Y-114698464D01*
X158260931Y-114698464D01*
X158260929Y-114698464D01*
X158135261Y-114723461D01*
X158135255Y-114723463D01*
X158016875Y-114772497D01*
X158016866Y-114772502D01*
X157910331Y-114843687D01*
X157910327Y-114843690D01*
X157819726Y-114934291D01*
X157819723Y-114934295D01*
X157748538Y-115040830D01*
X157748533Y-115040839D01*
X157699499Y-115159219D01*
X157699497Y-115159225D01*
X157674500Y-115284892D01*
X157674500Y-115284895D01*
X157674500Y-115413033D01*
X157674500Y-115413035D01*
X157674499Y-115413035D01*
X157699497Y-115538702D01*
X157699499Y-115538708D01*
X157748532Y-115657086D01*
X157748534Y-115657089D01*
X157748535Y-115657091D01*
X157778603Y-115702091D01*
X157799480Y-115768765D01*
X157799500Y-115770979D01*
X157799500Y-116213998D01*
X157779815Y-116281037D01*
X157727011Y-116326792D01*
X157722953Y-116328559D01*
X157616875Y-116372497D01*
X157616866Y-116372502D01*
X157510331Y-116443687D01*
X157510327Y-116443690D01*
X157419726Y-116534291D01*
X157419723Y-116534295D01*
X157348538Y-116640830D01*
X157348533Y-116640839D01*
X157299499Y-116759219D01*
X157299497Y-116759225D01*
X157274500Y-116884892D01*
X157274500Y-116884895D01*
X157274500Y-117013033D01*
X157274500Y-117013035D01*
X157274499Y-117013035D01*
X150378077Y-117013035D01*
X150331487Y-116981905D01*
X150286318Y-116951724D01*
X150286310Y-116951719D01*
X150167930Y-116902685D01*
X150167924Y-116902683D01*
X150070713Y-116883346D01*
X150008802Y-116850960D01*
X150007224Y-116849410D01*
X149579085Y-116421271D01*
X149545600Y-116359948D01*
X149550584Y-116290256D01*
X149563663Y-116264701D01*
X149601465Y-116208127D01*
X149650501Y-116089744D01*
X149675500Y-115964069D01*
X149675500Y-115835931D01*
X149675500Y-115835928D01*
X149650502Y-115710261D01*
X149650501Y-115710260D01*
X149650501Y-115710256D01*
X149608056Y-115607786D01*
X149601466Y-115591875D01*
X149601461Y-115591866D01*
X149530276Y-115485331D01*
X149530273Y-115485327D01*
X149439672Y-115394726D01*
X149439668Y-115394723D01*
X149333133Y-115323538D01*
X149333124Y-115323533D01*
X149214744Y-115274499D01*
X149214738Y-115274497D01*
X149089071Y-115249500D01*
X149089069Y-115249500D01*
X148960931Y-115249500D01*
X148960929Y-115249500D01*
X148835261Y-115274497D01*
X148835255Y-115274499D01*
X148716875Y-115323533D01*
X148716866Y-115323538D01*
X148610331Y-115394723D01*
X148610327Y-115394726D01*
X148519726Y-115485327D01*
X148519723Y-115485331D01*
X148448538Y-115591866D01*
X148448533Y-115591875D01*
X148399499Y-115710255D01*
X148399497Y-115710261D01*
X148374500Y-115835928D01*
X148374500Y-115835931D01*
X148374500Y-115964069D01*
X148374500Y-115964071D01*
X148374499Y-115964071D01*
X140754250Y-115964071D01*
X140709393Y-115904150D01*
X140682190Y-115867812D01*
X140682187Y-115867809D01*
X140567093Y-115781649D01*
X140567086Y-115781645D01*
X140432379Y-115731403D01*
X140432372Y-115731401D01*
X140372844Y-115725000D01*
X140111052Y-115725000D01*
X140044013Y-115705315D01*
X139998258Y-115652511D01*
X139988314Y-115583353D01*
X140017339Y-115519797D01*
X140054757Y-115490515D01*
X140089890Y-115472614D01*
X140233214Y-115368483D01*
X140358483Y-115243214D01*
X140462614Y-115099890D01*
X140543042Y-114942042D01*
X140597786Y-114773555D01*
X140625500Y-114598579D01*
X140625500Y-114421421D01*
X140597786Y-114246445D01*
X140543042Y-114077958D01*
X140543042Y-114077957D01*
X140462613Y-113920109D01*
X140358483Y-113776786D01*
X140233214Y-113651517D01*
X140089890Y-113547386D01*
X139932042Y-113466957D01*
X139932039Y-113466956D01*
X139763556Y-113412214D01*
X139676067Y-113398357D01*
X139588579Y-113384500D01*
X139411421Y-113384500D01*
X139353095Y-113393738D01*
X139236443Y-113412214D01*
X139067960Y-113466956D01*
X139067957Y-113466957D01*
X138910109Y-113547386D01*
X138828338Y-113606796D01*
X138766786Y-113651517D01*
X138766784Y-113651519D01*
X138766783Y-113651519D01*
X138641519Y-113776783D01*
X138641519Y-113776784D01*
X138641517Y-113776786D01*
X138596796Y-113838338D01*
X138537386Y-113920109D01*
X138456957Y-114077957D01*
X138456956Y-114077960D01*
X138402214Y-114246443D01*
X138374500Y-114421421D01*
X138374500Y-114598578D01*
X138402214Y-114773556D01*
X138456956Y-114942039D01*
X138456957Y-114942042D01*
X138537386Y-115099890D01*
X138641517Y-115243214D01*
X138766786Y-115368483D01*
X138910110Y-115472614D01*
X138945243Y-115490515D01*
X138996039Y-115538490D01*
X139012834Y-115606311D01*
X138990297Y-115672445D01*
X138935582Y-115715897D01*
X138888948Y-115725000D01*
X138627155Y-115725000D01*
X138567627Y-115731401D01*
X138567620Y-115731403D01*
X138432913Y-115781645D01*
X138432906Y-115781649D01*
X138317812Y-115867809D01*
X138317809Y-115867812D01*
X138231649Y-115982906D01*
X138231645Y-115982913D01*
X138181403Y-116117620D01*
X138181401Y-116117627D01*
X138175000Y-116177155D01*
X135400500Y-116177155D01*
X135400500Y-111881421D01*
X138374500Y-111881421D01*
X138374500Y-112058578D01*
X138402214Y-112233556D01*
X138456956Y-112402039D01*
X138456957Y-112402042D01*
X138537386Y-112559890D01*
X138641517Y-112703214D01*
X138766786Y-112828483D01*
X138910110Y-112932614D01*
X138987529Y-112972061D01*
X139067957Y-113013042D01*
X139067960Y-113013043D01*
X139152201Y-113040414D01*
X139236445Y-113067786D01*
X139411421Y-113095500D01*
X139411422Y-113095500D01*
X139588578Y-113095500D01*
X139588579Y-113095500D01*
X139763555Y-113067786D01*
X139932042Y-113013042D01*
X140089890Y-112932614D01*
X140233214Y-112828483D01*
X140358483Y-112703214D01*
X140462614Y-112559890D01*
X140543042Y-112402042D01*
X140597786Y-112233555D01*
X140625500Y-112058579D01*
X140625500Y-111881421D01*
X140597786Y-111706445D01*
X140543042Y-111537958D01*
X140543042Y-111537957D01*
X140462613Y-111380109D01*
X140358483Y-111236786D01*
X140233214Y-111111517D01*
X140089890Y-111007386D01*
X139932042Y-110926957D01*
X139932039Y-110926956D01*
X139763556Y-110872214D01*
X139676067Y-110858357D01*
X139588579Y-110844500D01*
X139411421Y-110844500D01*
X139353095Y-110853738D01*
X139236443Y-110872214D01*
X139067960Y-110926956D01*
X139067957Y-110926957D01*
X138910109Y-111007386D01*
X138828338Y-111066796D01*
X138766786Y-111111517D01*
X138766784Y-111111519D01*
X138766783Y-111111519D01*
X138641519Y-111236783D01*
X138641519Y-111236784D01*
X138641517Y-111236786D01*
X138626260Y-111257786D01*
X138537386Y-111380109D01*
X138456957Y-111537957D01*
X138456956Y-111537960D01*
X138402214Y-111706443D01*
X138374500Y-111881421D01*
X135400500Y-111881421D01*
X135400500Y-109341421D01*
X138374500Y-109341421D01*
X138374500Y-109518578D01*
X138402214Y-109693556D01*
X138456956Y-109862039D01*
X138456957Y-109862042D01*
X138474487Y-109896445D01*
X138537386Y-110019890D01*
X138641517Y-110163214D01*
X138766786Y-110288483D01*
X138910110Y-110392614D01*
X138970835Y-110423555D01*
X139067957Y-110473042D01*
X139067960Y-110473043D01*
X139152201Y-110500414D01*
X139236445Y-110527786D01*
X139411421Y-110555500D01*
X139411422Y-110555500D01*
X139588578Y-110555500D01*
X139588579Y-110555500D01*
X139763555Y-110527786D01*
X139932042Y-110473042D01*
X140089890Y-110392614D01*
X140233214Y-110288483D01*
X140358483Y-110163214D01*
X140425175Y-110071421D01*
X170334500Y-110071421D01*
X170334500Y-110248578D01*
X170362214Y-110423556D01*
X170416956Y-110592039D01*
X170416957Y-110592042D01*
X170497386Y-110749890D01*
X170601517Y-110893214D01*
X170726786Y-111018483D01*
X170870110Y-111122614D01*
X170947529Y-111162061D01*
X171027957Y-111203042D01*
X171027960Y-111203043D01*
X171112201Y-111230414D01*
X171196445Y-111257786D01*
X171371421Y-111285500D01*
X171371422Y-111285500D01*
X171548578Y-111285500D01*
X171548579Y-111285500D01*
X171723555Y-111257786D01*
X171892042Y-111203042D01*
X172049890Y-111122614D01*
X172193214Y-111018483D01*
X172318483Y-110893214D01*
X172422614Y-110749890D01*
X172503042Y-110592042D01*
X172557786Y-110423555D01*
X172585500Y-110248579D01*
X172585500Y-110071421D01*
X172874500Y-110071421D01*
X172874500Y-110248578D01*
X172902214Y-110423556D01*
X172956956Y-110592039D01*
X172956957Y-110592042D01*
X173037386Y-110749890D01*
X173141517Y-110893214D01*
X173266786Y-111018483D01*
X173410110Y-111122614D01*
X173487529Y-111162061D01*
X173567957Y-111203042D01*
X173567960Y-111203043D01*
X173652201Y-111230414D01*
X173736445Y-111257786D01*
X173911421Y-111285500D01*
X173911422Y-111285500D01*
X174088578Y-111285500D01*
X174088579Y-111285500D01*
X174263555Y-111257786D01*
X174432042Y-111203042D01*
X174589890Y-111122614D01*
X174733214Y-111018483D01*
X174858483Y-110893214D01*
X174962614Y-110749890D01*
X175043042Y-110592042D01*
X175097786Y-110423555D01*
X175125500Y-110248579D01*
X175125500Y-110071421D01*
X175097786Y-109896445D01*
X175043042Y-109727958D01*
X175043042Y-109727957D01*
X174962613Y-109570109D01*
X174858483Y-109426786D01*
X174733214Y-109301517D01*
X174589890Y-109197386D01*
X174432042Y-109116957D01*
X174432039Y-109116956D01*
X174263556Y-109062214D01*
X174176067Y-109048357D01*
X174088579Y-109034500D01*
X173911421Y-109034500D01*
X173853095Y-109043738D01*
X173736443Y-109062214D01*
X173567960Y-109116956D01*
X173567957Y-109116957D01*
X173410109Y-109197386D01*
X173328338Y-109256796D01*
X173266786Y-109301517D01*
X173266784Y-109301519D01*
X173266783Y-109301519D01*
X173141519Y-109426783D01*
X173141519Y-109426784D01*
X173141517Y-109426786D01*
X173096796Y-109488338D01*
X173037386Y-109570109D01*
X172956957Y-109727957D01*
X172956956Y-109727960D01*
X172902214Y-109896443D01*
X172874500Y-110071421D01*
X172585500Y-110071421D01*
X172557786Y-109896445D01*
X172503042Y-109727958D01*
X172503042Y-109727957D01*
X172422613Y-109570109D01*
X172318483Y-109426786D01*
X172193214Y-109301517D01*
X172049890Y-109197386D01*
X171892042Y-109116957D01*
X171892039Y-109116956D01*
X171723556Y-109062214D01*
X171636067Y-109048357D01*
X171548579Y-109034500D01*
X171371421Y-109034500D01*
X171313095Y-109043738D01*
X171196443Y-109062214D01*
X171027960Y-109116956D01*
X171027957Y-109116957D01*
X170870109Y-109197386D01*
X170788338Y-109256796D01*
X170726786Y-109301517D01*
X170726784Y-109301519D01*
X170726783Y-109301519D01*
X170601519Y-109426783D01*
X170601519Y-109426784D01*
X170601517Y-109426786D01*
X170556796Y-109488338D01*
X170497386Y-109570109D01*
X170416957Y-109727957D01*
X170416956Y-109727960D01*
X170362214Y-109896443D01*
X170334500Y-110071421D01*
X140425175Y-110071421D01*
X140462614Y-110019890D01*
X140543042Y-109862042D01*
X140597786Y-109693555D01*
X140625500Y-109518579D01*
X140625500Y-109341421D01*
X140597786Y-109166445D01*
X140543042Y-108997958D01*
X140543042Y-108997957D01*
X140462613Y-108840109D01*
X140358483Y-108696786D01*
X140233214Y-108571517D01*
X140089890Y-108467386D01*
X139932042Y-108386957D01*
X139932039Y-108386956D01*
X139763556Y-108332214D01*
X139676067Y-108318357D01*
X139588579Y-108304500D01*
X139411421Y-108304500D01*
X139353095Y-108313738D01*
X139236443Y-108332214D01*
X139067960Y-108386956D01*
X139067957Y-108386957D01*
X138910109Y-108467386D01*
X138828338Y-108526796D01*
X138766786Y-108571517D01*
X138766784Y-108571519D01*
X138766783Y-108571519D01*
X138641519Y-108696783D01*
X138641519Y-108696784D01*
X138641517Y-108696786D01*
X138626260Y-108717786D01*
X138537386Y-108840109D01*
X138456957Y-108997957D01*
X138456956Y-108997960D01*
X138402214Y-109166443D01*
X138374500Y-109341421D01*
X135400500Y-109341421D01*
X135400500Y-106801421D01*
X138374500Y-106801421D01*
X138374500Y-106978579D01*
X138382662Y-107030109D01*
X138402214Y-107153556D01*
X138456956Y-107322039D01*
X138456957Y-107322042D01*
X138513119Y-107432264D01*
X138537386Y-107479890D01*
X138641517Y-107623214D01*
X138766786Y-107748483D01*
X138910110Y-107852614D01*
X138941814Y-107868768D01*
X139067957Y-107933042D01*
X139067960Y-107933043D01*
X139152201Y-107960414D01*
X139236445Y-107987786D01*
X139411421Y-108015500D01*
X139411422Y-108015500D01*
X139588578Y-108015500D01*
X139588579Y-108015500D01*
X139763555Y-107987786D01*
X139932042Y-107933042D01*
X140089890Y-107852614D01*
X140233214Y-107748483D01*
X140358483Y-107623214D01*
X140462614Y-107479890D01*
X140543042Y-107322042D01*
X140597786Y-107153555D01*
X140625500Y-106978579D01*
X140625500Y-106801421D01*
X140597786Y-106626445D01*
X140549138Y-106476719D01*
X146246630Y-106476719D01*
X146271628Y-106602386D01*
X146271630Y-106602392D01*
X146320664Y-106720772D01*
X146320669Y-106720781D01*
X146391854Y-106827316D01*
X146391857Y-106827320D01*
X146482458Y-106917921D01*
X146482462Y-106917924D01*
X146588997Y-106989109D01*
X146589003Y-106989112D01*
X146589004Y-106989113D01*
X146707387Y-107038149D01*
X146707391Y-107038149D01*
X146707392Y-107038150D01*
X146833059Y-107063148D01*
X146833062Y-107063148D01*
X146961202Y-107063148D01*
X147063143Y-107042870D01*
X147070989Y-107043572D01*
X147078367Y-107040812D01*
X147105294Y-107046641D01*
X147132735Y-107049097D01*
X147140690Y-107054304D01*
X147146655Y-107055596D01*
X147174686Y-107076559D01*
X147174930Y-107076719D01*
X147190414Y-107092203D01*
X147190486Y-107092244D01*
X147195750Y-107097498D01*
X147196256Y-107098004D01*
X147196267Y-107098024D01*
X147196341Y-107098089D01*
X147530516Y-107432264D01*
X147858953Y-107760700D01*
X147892438Y-107822023D01*
X147887454Y-107891714D01*
X147885833Y-107895833D01*
X147849500Y-107983549D01*
X147849497Y-107983559D01*
X147824500Y-108109226D01*
X147824500Y-108109229D01*
X147824500Y-108237367D01*
X147824500Y-108237369D01*
X147824499Y-108237369D01*
X147849497Y-108363036D01*
X147849499Y-108363042D01*
X147898533Y-108481422D01*
X147898538Y-108481431D01*
X147969723Y-108587966D01*
X147969726Y-108587970D01*
X148060327Y-108678571D01*
X148060331Y-108678574D01*
X148166866Y-108749759D01*
X148166872Y-108749762D01*
X148166873Y-108749763D01*
X148285256Y-108798799D01*
X148285260Y-108798799D01*
X148285261Y-108798800D01*
X148410928Y-108823798D01*
X148410931Y-108823798D01*
X148539071Y-108823798D01*
X148623615Y-108806980D01*
X148664744Y-108798799D01*
X148783127Y-108749763D01*
X148889669Y-108678574D01*
X148980276Y-108587967D01*
X149051465Y-108481425D01*
X149100501Y-108363042D01*
X149125500Y-108237367D01*
X149125500Y-108198481D01*
X149145185Y-108131442D01*
X149197989Y-108085687D01*
X149213516Y-108079817D01*
X149214229Y-108079599D01*
X149214244Y-108079597D01*
X149332627Y-108030561D01*
X149439169Y-107959372D01*
X149529776Y-107868765D01*
X149600965Y-107762223D01*
X149650001Y-107643840D01*
X149672363Y-107531421D01*
X170334500Y-107531421D01*
X170334500Y-107708579D01*
X170348357Y-107796067D01*
X170362214Y-107883556D01*
X170416956Y-108052039D01*
X170416957Y-108052042D01*
X170491573Y-108198481D01*
X170497386Y-108209890D01*
X170601517Y-108353214D01*
X170726786Y-108478483D01*
X170870110Y-108582614D01*
X170947529Y-108622061D01*
X171027957Y-108663042D01*
X171027960Y-108663043D01*
X171075752Y-108678571D01*
X171196445Y-108717786D01*
X171371421Y-108745500D01*
X171371422Y-108745500D01*
X171548578Y-108745500D01*
X171548579Y-108745500D01*
X171723555Y-108717786D01*
X171892042Y-108663042D01*
X172049890Y-108582614D01*
X172193214Y-108478483D01*
X172318483Y-108353214D01*
X172422614Y-108209890D01*
X172503042Y-108052042D01*
X172557786Y-107883555D01*
X172585500Y-107708579D01*
X172585500Y-107531421D01*
X172874500Y-107531421D01*
X172874500Y-107708579D01*
X172888357Y-107796067D01*
X172902214Y-107883556D01*
X172956956Y-108052039D01*
X172956957Y-108052042D01*
X173031573Y-108198481D01*
X173037386Y-108209890D01*
X173141517Y-108353214D01*
X173266786Y-108478483D01*
X173410110Y-108582614D01*
X173487529Y-108622061D01*
X173567957Y-108663042D01*
X173567960Y-108663043D01*
X173615752Y-108678571D01*
X173736445Y-108717786D01*
X173911421Y-108745500D01*
X173911422Y-108745500D01*
X174088578Y-108745500D01*
X174088579Y-108745500D01*
X174263555Y-108717786D01*
X174432042Y-108663042D01*
X174589890Y-108582614D01*
X174733214Y-108478483D01*
X174858483Y-108353214D01*
X174962614Y-108209890D01*
X175043042Y-108052042D01*
X175097786Y-107883555D01*
X175125500Y-107708579D01*
X175125500Y-107531421D01*
X175097786Y-107356445D01*
X175062847Y-107248913D01*
X175043043Y-107187960D01*
X175043042Y-107187957D01*
X174994252Y-107092203D01*
X174962614Y-107030110D01*
X174858483Y-106886786D01*
X174733214Y-106761517D01*
X174589890Y-106657386D01*
X174432042Y-106576957D01*
X174432039Y-106576956D01*
X174263556Y-106522214D01*
X174176067Y-106508357D01*
X174088579Y-106494500D01*
X173911421Y-106494500D01*
X173853095Y-106503738D01*
X173736443Y-106522214D01*
X173567960Y-106576956D01*
X173567957Y-106576957D01*
X173410109Y-106657386D01*
X173328338Y-106716796D01*
X173266786Y-106761517D01*
X173266784Y-106761519D01*
X173266783Y-106761519D01*
X173141519Y-106886783D01*
X173141519Y-106886784D01*
X173141517Y-106886786D01*
X173118896Y-106917921D01*
X173037386Y-107030109D01*
X172956957Y-107187957D01*
X172956956Y-107187960D01*
X172902214Y-107356443D01*
X172878479Y-107506298D01*
X172874500Y-107531421D01*
X172585500Y-107531421D01*
X172557786Y-107356445D01*
X172522847Y-107248913D01*
X172503043Y-107187960D01*
X172503042Y-107187957D01*
X172454252Y-107092203D01*
X172422614Y-107030110D01*
X172318483Y-106886786D01*
X172193214Y-106761517D01*
X172049890Y-106657386D01*
X171892042Y-106576957D01*
X171892039Y-106576956D01*
X171723556Y-106522214D01*
X171636067Y-106508357D01*
X171548579Y-106494500D01*
X171371421Y-106494500D01*
X171313095Y-106503738D01*
X171196443Y-106522214D01*
X171027960Y-106576956D01*
X171027957Y-106576957D01*
X170870109Y-106657386D01*
X170788338Y-106716796D01*
X170726786Y-106761517D01*
X170726784Y-106761519D01*
X170726783Y-106761519D01*
X170601519Y-106886783D01*
X170601519Y-106886784D01*
X170601517Y-106886786D01*
X170578896Y-106917921D01*
X170497386Y-107030109D01*
X170416957Y-107187957D01*
X170416956Y-107187960D01*
X170362214Y-107356443D01*
X170338479Y-107506298D01*
X170334500Y-107531421D01*
X149672363Y-107531421D01*
X149675000Y-107518165D01*
X149675000Y-107390027D01*
X149673143Y-107380689D01*
X149675021Y-107359704D01*
X149672023Y-107338853D01*
X149678073Y-107325604D01*
X149679372Y-107311097D01*
X149692296Y-107294460D01*
X149701048Y-107275297D01*
X149713300Y-107267422D01*
X149722236Y-107255921D01*
X149742102Y-107248913D01*
X149759826Y-107237523D01*
X149784414Y-107233987D01*
X149788127Y-107232678D01*
X149794761Y-107232500D01*
X149854192Y-107232500D01*
X149921231Y-107252185D01*
X149941873Y-107268819D01*
X150034125Y-107361071D01*
X150034129Y-107361074D01*
X150140664Y-107432259D01*
X150140670Y-107432262D01*
X150140671Y-107432263D01*
X150259054Y-107481299D01*
X150259058Y-107481299D01*
X150259059Y-107481300D01*
X150384726Y-107506298D01*
X150384729Y-107506298D01*
X150512869Y-107506298D01*
X150597413Y-107489480D01*
X150638542Y-107481299D01*
X150756925Y-107432263D01*
X150756931Y-107432259D01*
X150770120Y-107423447D01*
X150834111Y-107380689D01*
X150863467Y-107361074D01*
X150954074Y-107270467D01*
X151025263Y-107163925D01*
X151074299Y-107045542D01*
X151099298Y-106919867D01*
X151099298Y-106791729D01*
X151099298Y-106791726D01*
X151074300Y-106666059D01*
X151074299Y-106666058D01*
X151074299Y-106666054D01*
X151025263Y-106547671D01*
X151025262Y-106547670D01*
X151025259Y-106547664D01*
X150954074Y-106441129D01*
X150954071Y-106441125D01*
X150863470Y-106350524D01*
X150863466Y-106350521D01*
X150756931Y-106279336D01*
X150756922Y-106279331D01*
X150638542Y-106230297D01*
X150638536Y-106230295D01*
X150512869Y-106205298D01*
X150512867Y-106205298D01*
X150384729Y-106205298D01*
X150384727Y-106205298D01*
X150259059Y-106230295D01*
X150259053Y-106230297D01*
X150140673Y-106279331D01*
X150140664Y-106279336D01*
X150034128Y-106350521D01*
X150030679Y-106353353D01*
X149966370Y-106380666D01*
X149952014Y-106381500D01*
X149559610Y-106381500D01*
X149492571Y-106361815D01*
X149471929Y-106345181D01*
X149001019Y-105874271D01*
X148967534Y-105812948D01*
X148964700Y-105786590D01*
X148964700Y-104991421D01*
X170334500Y-104991421D01*
X170334500Y-105168578D01*
X170362214Y-105343556D01*
X170416956Y-105512039D01*
X170416957Y-105512042D01*
X170446714Y-105570442D01*
X170497386Y-105669890D01*
X170601517Y-105813214D01*
X170726786Y-105938483D01*
X170870110Y-106042614D01*
X170947529Y-106082061D01*
X171027957Y-106123042D01*
X171027960Y-106123043D01*
X171112201Y-106150414D01*
X171196445Y-106177786D01*
X171371421Y-106205500D01*
X171371422Y-106205500D01*
X171548578Y-106205500D01*
X171548579Y-106205500D01*
X171723555Y-106177786D01*
X171892042Y-106123042D01*
X172049890Y-106042614D01*
X172193214Y-105938483D01*
X172318483Y-105813214D01*
X172422614Y-105669890D01*
X172503042Y-105512042D01*
X172557786Y-105343555D01*
X172585500Y-105168579D01*
X172585500Y-104991421D01*
X172557786Y-104816445D01*
X172503042Y-104647958D01*
X172503042Y-104647957D01*
X172422613Y-104490109D01*
X172318483Y-104346786D01*
X172193214Y-104221517D01*
X172049890Y-104117386D01*
X171892042Y-104036957D01*
X171892039Y-104036956D01*
X171723556Y-103982214D01*
X171636067Y-103968357D01*
X171548579Y-103954500D01*
X171371421Y-103954500D01*
X171313095Y-103963738D01*
X171196443Y-103982214D01*
X171027960Y-104036956D01*
X171027957Y-104036957D01*
X170870109Y-104117386D01*
X170805976Y-104163982D01*
X170726786Y-104221517D01*
X170726784Y-104221519D01*
X170726783Y-104221519D01*
X170601519Y-104346783D01*
X170601519Y-104346784D01*
X170601517Y-104346786D01*
X170556796Y-104408338D01*
X170497386Y-104490109D01*
X170416957Y-104647957D01*
X170416956Y-104647960D01*
X170362214Y-104816443D01*
X170334500Y-104991421D01*
X148964700Y-104991421D01*
X148964700Y-104126344D01*
X148984385Y-104059305D01*
X148992851Y-104047674D01*
X148993668Y-104046676D01*
X148993676Y-104046669D01*
X149064865Y-103940127D01*
X149113901Y-103821744D01*
X149138900Y-103696069D01*
X149138900Y-103567931D01*
X149138900Y-103567928D01*
X149113902Y-103442261D01*
X149113901Y-103442260D01*
X149113901Y-103442256D01*
X149064865Y-103323873D01*
X149064864Y-103323872D01*
X149064861Y-103323866D01*
X148993676Y-103217331D01*
X148993673Y-103217327D01*
X148903072Y-103126726D01*
X148903068Y-103126723D01*
X148796533Y-103055538D01*
X148796524Y-103055533D01*
X148678144Y-103006499D01*
X148678138Y-103006497D01*
X148552471Y-102981500D01*
X148552469Y-102981500D01*
X148424331Y-102981500D01*
X148424329Y-102981500D01*
X148298661Y-103006497D01*
X148298655Y-103006499D01*
X148180275Y-103055533D01*
X148180266Y-103055538D01*
X148073731Y-103126723D01*
X148073727Y-103126726D01*
X147983126Y-103217327D01*
X147983123Y-103217331D01*
X147911938Y-103323866D01*
X147911933Y-103323875D01*
X147862899Y-103442255D01*
X147862897Y-103442261D01*
X147837900Y-103567928D01*
X147837900Y-103567931D01*
X147837900Y-103696069D01*
X147837900Y-103696071D01*
X147837899Y-103696071D01*
X147862897Y-103821738D01*
X147862899Y-103821744D01*
X147911933Y-103940124D01*
X147911938Y-103940133D01*
X147983123Y-104046668D01*
X147983126Y-104046672D01*
X148077381Y-104140927D01*
X148110866Y-104202250D01*
X148113700Y-104228608D01*
X148113700Y-105344278D01*
X148094015Y-105411317D01*
X148041211Y-105457072D01*
X147972053Y-105467016D01*
X147942250Y-105458840D01*
X147921434Y-105450218D01*
X147921424Y-105450215D01*
X147795757Y-105425218D01*
X147795755Y-105425218D01*
X147667617Y-105425218D01*
X147667615Y-105425218D01*
X147541947Y-105450215D01*
X147541941Y-105450217D01*
X147423561Y-105499251D01*
X147423552Y-105499256D01*
X147317017Y-105570441D01*
X147317013Y-105570444D01*
X147226412Y-105661045D01*
X147226409Y-105661049D01*
X147181700Y-105727961D01*
X147128087Y-105772766D01*
X147058762Y-105781473D01*
X147054407Y-105780687D01*
X146961204Y-105762148D01*
X146961200Y-105762148D01*
X146833062Y-105762148D01*
X146833060Y-105762148D01*
X146707392Y-105787145D01*
X146707386Y-105787147D01*
X146589006Y-105836181D01*
X146588997Y-105836186D01*
X146482462Y-105907371D01*
X146482458Y-105907374D01*
X146391857Y-105997975D01*
X146391854Y-105997979D01*
X146320669Y-106104514D01*
X146320664Y-106104523D01*
X146271630Y-106222903D01*
X146271628Y-106222909D01*
X146246631Y-106348576D01*
X146246631Y-106348579D01*
X146246631Y-106476717D01*
X146246631Y-106476719D01*
X146246630Y-106476719D01*
X140549138Y-106476719D01*
X140543042Y-106457958D01*
X140543037Y-106457947D01*
X140512892Y-106398784D01*
X140512890Y-106398782D01*
X140504084Y-106381500D01*
X140462614Y-106300110D01*
X140358483Y-106156786D01*
X140233214Y-106031517D01*
X140089890Y-105927386D01*
X139932042Y-105846957D01*
X139932039Y-105846956D01*
X139763556Y-105792214D01*
X139608094Y-105767591D01*
X139588579Y-105764500D01*
X139411421Y-105764500D01*
X139391906Y-105767591D01*
X139236443Y-105792214D01*
X139067960Y-105846956D01*
X139067957Y-105846957D01*
X138910109Y-105927386D01*
X138828338Y-105986796D01*
X138766786Y-106031517D01*
X138766784Y-106031519D01*
X138766783Y-106031519D01*
X138641519Y-106156783D01*
X138641519Y-106156784D01*
X138641517Y-106156786D01*
X138626260Y-106177786D01*
X138537386Y-106300109D01*
X138456957Y-106457957D01*
X138456956Y-106457960D01*
X138402214Y-106626443D01*
X138387274Y-106720772D01*
X138374500Y-106801421D01*
X135400500Y-106801421D01*
X135400500Y-104261421D01*
X138374500Y-104261421D01*
X138374500Y-104438578D01*
X138402214Y-104613556D01*
X138456956Y-104782039D01*
X138456957Y-104782042D01*
X138474487Y-104816445D01*
X138537386Y-104939890D01*
X138641517Y-105083214D01*
X138766786Y-105208483D01*
X138910110Y-105312614D01*
X138970835Y-105343555D01*
X139067957Y-105393042D01*
X139067960Y-105393043D01*
X139124203Y-105411317D01*
X139236445Y-105447786D01*
X139411421Y-105475500D01*
X139411422Y-105475500D01*
X139588578Y-105475500D01*
X139588579Y-105475500D01*
X139763555Y-105447786D01*
X139932042Y-105393042D01*
X140089890Y-105312614D01*
X140233214Y-105208483D01*
X140358483Y-105083214D01*
X140462614Y-104939890D01*
X140543042Y-104782042D01*
X140597786Y-104613555D01*
X140625500Y-104438579D01*
X140625500Y-104261421D01*
X140597786Y-104086445D01*
X140543042Y-103917958D01*
X140543042Y-103917957D01*
X140462613Y-103760109D01*
X140358483Y-103616786D01*
X140233214Y-103491517D01*
X140089890Y-103387386D01*
X139932042Y-103306957D01*
X139932039Y-103306956D01*
X139763556Y-103252214D01*
X139676067Y-103238357D01*
X139588579Y-103224500D01*
X139411421Y-103224500D01*
X139353095Y-103233738D01*
X139236443Y-103252214D01*
X139067960Y-103306956D01*
X139067957Y-103306957D01*
X138910109Y-103387386D01*
X138834589Y-103442255D01*
X138766786Y-103491517D01*
X138766784Y-103491519D01*
X138766783Y-103491519D01*
X138641519Y-103616783D01*
X138641519Y-103616784D01*
X138641517Y-103616786D01*
X138626260Y-103637786D01*
X138537386Y-103760109D01*
X138456957Y-103917957D01*
X138456956Y-103917960D01*
X138402214Y-104086443D01*
X138374500Y-104261421D01*
X135400500Y-104261421D01*
X135400500Y-99127155D01*
X170135000Y-99127155D01*
X170135000Y-99750000D01*
X170969252Y-99750000D01*
X170947482Y-99787708D01*
X170910000Y-99927591D01*
X170910000Y-100072409D01*
X170947482Y-100212292D01*
X170969252Y-100250000D01*
X170135000Y-100250000D01*
X170135000Y-100872844D01*
X170141401Y-100932372D01*
X170141403Y-100932379D01*
X170191645Y-101067086D01*
X170191649Y-101067093D01*
X170277809Y-101182187D01*
X170277812Y-101182190D01*
X170392906Y-101268350D01*
X170392913Y-101268354D01*
X170527620Y-101318596D01*
X170527627Y-101318598D01*
X170587155Y-101324999D01*
X170587172Y-101325000D01*
X170848948Y-101325000D01*
X170915987Y-101344685D01*
X170961742Y-101397489D01*
X170971686Y-101466647D01*
X170942661Y-101530203D01*
X170905243Y-101559485D01*
X170870109Y-101577386D01*
X170788338Y-101636796D01*
X170726786Y-101681517D01*
X170726784Y-101681519D01*
X170726783Y-101681519D01*
X170601519Y-101806783D01*
X170601519Y-101806784D01*
X170601517Y-101806786D01*
X170556796Y-101868338D01*
X170497386Y-101950109D01*
X170416957Y-102107957D01*
X170416956Y-102107960D01*
X170362214Y-102276443D01*
X170334500Y-102451421D01*
X170334500Y-102628578D01*
X170362214Y-102803556D01*
X170416956Y-102972039D01*
X170416957Y-102972042D01*
X170495772Y-103126723D01*
X170497386Y-103129890D01*
X170601517Y-103273214D01*
X170726786Y-103398483D01*
X170870110Y-103502614D01*
X170947529Y-103542061D01*
X171027957Y-103583042D01*
X171027960Y-103583043D01*
X171112201Y-103610414D01*
X171196445Y-103637786D01*
X171371421Y-103665500D01*
X171371422Y-103665500D01*
X171548578Y-103665500D01*
X171548579Y-103665500D01*
X171723555Y-103637786D01*
X171892042Y-103583042D01*
X172049890Y-103502614D01*
X172193214Y-103398483D01*
X172318483Y-103273214D01*
X172422614Y-103129890D01*
X172503042Y-102972042D01*
X172557786Y-102803555D01*
X172585500Y-102628579D01*
X172585500Y-102451421D01*
X172874500Y-102451421D01*
X172874500Y-102628578D01*
X172902214Y-102803556D01*
X172956956Y-102972039D01*
X172956957Y-102972042D01*
X173035772Y-103126723D01*
X173037386Y-103129890D01*
X173141517Y-103273214D01*
X173266786Y-103398483D01*
X173410110Y-103502614D01*
X173487529Y-103542061D01*
X173567957Y-103583042D01*
X173567960Y-103583043D01*
X173652201Y-103610414D01*
X173736445Y-103637786D01*
X173911421Y-103665500D01*
X173911422Y-103665500D01*
X174088578Y-103665500D01*
X174088579Y-103665500D01*
X174263555Y-103637786D01*
X174432042Y-103583042D01*
X174589890Y-103502614D01*
X174733214Y-103398483D01*
X174858483Y-103273214D01*
X174962614Y-103129890D01*
X175043042Y-102972042D01*
X175097786Y-102803555D01*
X175125500Y-102628579D01*
X175125500Y-102451421D01*
X175097786Y-102276445D01*
X175043042Y-102107958D01*
X175043042Y-102107957D01*
X174962613Y-101950109D01*
X174858483Y-101806786D01*
X174733214Y-101681517D01*
X174589890Y-101577386D01*
X174432042Y-101496957D01*
X174432039Y-101496956D01*
X174263556Y-101442214D01*
X174176067Y-101428357D01*
X174088579Y-101414500D01*
X173911421Y-101414500D01*
X173853095Y-101423738D01*
X173736443Y-101442214D01*
X173567960Y-101496956D01*
X173567957Y-101496957D01*
X173410109Y-101577386D01*
X173328338Y-101636796D01*
X173266786Y-101681517D01*
X173266784Y-101681519D01*
X173266783Y-101681519D01*
X173141519Y-101806783D01*
X173141519Y-101806784D01*
X173141517Y-101806786D01*
X173096796Y-101868338D01*
X173037386Y-101950109D01*
X172956957Y-102107957D01*
X172956956Y-102107960D01*
X172902214Y-102276443D01*
X172874500Y-102451421D01*
X172585500Y-102451421D01*
X172557786Y-102276445D01*
X172503042Y-102107958D01*
X172503042Y-102107957D01*
X172422613Y-101950109D01*
X172318483Y-101806786D01*
X172193214Y-101681517D01*
X172049890Y-101577386D01*
X172014756Y-101559484D01*
X171963961Y-101511510D01*
X171947166Y-101443689D01*
X171969703Y-101377555D01*
X172024418Y-101334103D01*
X172071052Y-101325000D01*
X172332828Y-101325000D01*
X172332844Y-101324999D01*
X172392372Y-101318598D01*
X172392379Y-101318596D01*
X172527086Y-101268354D01*
X172527093Y-101268350D01*
X172642187Y-101182190D01*
X172642190Y-101182187D01*
X172728350Y-101067093D01*
X172728354Y-101067086D01*
X172778596Y-100932379D01*
X172778598Y-100932372D01*
X172784999Y-100872844D01*
X172785000Y-100872827D01*
X172785000Y-100611052D01*
X172804685Y-100544013D01*
X172857489Y-100498258D01*
X172926647Y-100488314D01*
X172990203Y-100517339D01*
X173019484Y-100554756D01*
X173037386Y-100589890D01*
X173141517Y-100733214D01*
X173266786Y-100858483D01*
X173410110Y-100962614D01*
X173487529Y-101002061D01*
X173567957Y-101043042D01*
X173567960Y-101043043D01*
X173641959Y-101067086D01*
X173736445Y-101097786D01*
X173911421Y-101125500D01*
X173911422Y-101125500D01*
X174088578Y-101125500D01*
X174088579Y-101125500D01*
X174263555Y-101097786D01*
X174432042Y-101043042D01*
X174589890Y-100962614D01*
X174733214Y-100858483D01*
X174858483Y-100733214D01*
X174962614Y-100589890D01*
X175043042Y-100432042D01*
X175097786Y-100263555D01*
X175125500Y-100088579D01*
X175125500Y-99911421D01*
X175097786Y-99736445D01*
X175043042Y-99567958D01*
X175043042Y-99567957D01*
X174962613Y-99410109D01*
X174947238Y-99388947D01*
X174858483Y-99266786D01*
X174733214Y-99141517D01*
X174589890Y-99037386D01*
X174432042Y-98956957D01*
X174432039Y-98956956D01*
X174263556Y-98902214D01*
X174176067Y-98888357D01*
X174088579Y-98874500D01*
X173911421Y-98874500D01*
X173853095Y-98883738D01*
X173736443Y-98902214D01*
X173567960Y-98956956D01*
X173567957Y-98956957D01*
X173410109Y-99037386D01*
X173328338Y-99096796D01*
X173266786Y-99141517D01*
X173266784Y-99141519D01*
X173266783Y-99141519D01*
X173141519Y-99266783D01*
X173141519Y-99266784D01*
X173141517Y-99266786D01*
X173089451Y-99338448D01*
X173037384Y-99410112D01*
X173019484Y-99445243D01*
X172971509Y-99496038D01*
X172903688Y-99512833D01*
X172837554Y-99490295D01*
X172794103Y-99435579D01*
X172785000Y-99388947D01*
X172785000Y-99127172D01*
X172784999Y-99127155D01*
X172778598Y-99067627D01*
X172778596Y-99067620D01*
X172728354Y-98932913D01*
X172728350Y-98932906D01*
X172642190Y-98817812D01*
X172642187Y-98817809D01*
X172527093Y-98731649D01*
X172527086Y-98731645D01*
X172392379Y-98681403D01*
X172392372Y-98681401D01*
X172332844Y-98675000D01*
X171710000Y-98675000D01*
X171710000Y-99509252D01*
X171672292Y-99487482D01*
X171532409Y-99450000D01*
X171387591Y-99450000D01*
X171247708Y-99487482D01*
X171210000Y-99509252D01*
X171210000Y-98675000D01*
X170587155Y-98675000D01*
X170527627Y-98681401D01*
X170527620Y-98681403D01*
X170392913Y-98731645D01*
X170392906Y-98731649D01*
X170277812Y-98817809D01*
X170277809Y-98817812D01*
X170191649Y-98932906D01*
X170191645Y-98932913D01*
X170141403Y-99067620D01*
X170141401Y-99067627D01*
X170135000Y-99127155D01*
X135400500Y-99127155D01*
X135400500Y-96464071D01*
X162649499Y-96464071D01*
X162674497Y-96589738D01*
X162674499Y-96589744D01*
X162723533Y-96708124D01*
X162723538Y-96708133D01*
X162778602Y-96790541D01*
X162799480Y-96857218D01*
X162799500Y-96859432D01*
X162799500Y-97240567D01*
X162779815Y-97307606D01*
X162778602Y-97309457D01*
X162723541Y-97391861D01*
X162723533Y-97391875D01*
X162674499Y-97510255D01*
X162674497Y-97510261D01*
X162649500Y-97635928D01*
X162649500Y-97635931D01*
X162649500Y-97764069D01*
X162649500Y-97764071D01*
X162649499Y-97764071D01*
X162674497Y-97889738D01*
X162674499Y-97889744D01*
X162723533Y-98008124D01*
X162723538Y-98008133D01*
X162794723Y-98114668D01*
X162794726Y-98114672D01*
X162885327Y-98205273D01*
X162885331Y-98205276D01*
X162991866Y-98276461D01*
X162991872Y-98276464D01*
X162991873Y-98276465D01*
X163110256Y-98325501D01*
X163110260Y-98325501D01*
X163110261Y-98325502D01*
X163235928Y-98350500D01*
X163235931Y-98350500D01*
X163364071Y-98350500D01*
X163448615Y-98333682D01*
X163489744Y-98325501D01*
X163608127Y-98276465D01*
X163714669Y-98205276D01*
X163805276Y-98114669D01*
X163876465Y-98008127D01*
X163925501Y-97889744D01*
X163950500Y-97764069D01*
X163950500Y-97635931D01*
X163950500Y-97635928D01*
X163925502Y-97510261D01*
X163925501Y-97510260D01*
X163925501Y-97510256D01*
X163876465Y-97391873D01*
X163876464Y-97391871D01*
X163876458Y-97391861D01*
X163821398Y-97309457D01*
X163800520Y-97242780D01*
X163800500Y-97240567D01*
X163800500Y-96859432D01*
X163820185Y-96792393D01*
X163821398Y-96790541D01*
X163876461Y-96708133D01*
X163876461Y-96708132D01*
X163876465Y-96708127D01*
X163925501Y-96589744D01*
X163950500Y-96464069D01*
X163950500Y-96335931D01*
X163950500Y-96335928D01*
X163925502Y-96210261D01*
X163925501Y-96210260D01*
X163925501Y-96210256D01*
X163876465Y-96091873D01*
X163876464Y-96091872D01*
X163876461Y-96091866D01*
X163805276Y-95985331D01*
X163805273Y-95985327D01*
X163714672Y-95894726D01*
X163714668Y-95894723D01*
X163608133Y-95823538D01*
X163608124Y-95823533D01*
X163489744Y-95774499D01*
X163489738Y-95774497D01*
X163364071Y-95749500D01*
X163364069Y-95749500D01*
X163235931Y-95749500D01*
X163235929Y-95749500D01*
X163110261Y-95774497D01*
X163110255Y-95774499D01*
X162991875Y-95823533D01*
X162991866Y-95823538D01*
X162885331Y-95894723D01*
X162885327Y-95894726D01*
X162794726Y-95985327D01*
X162794723Y-95985331D01*
X162723538Y-96091866D01*
X162723533Y-96091875D01*
X162674499Y-96210255D01*
X162674497Y-96210261D01*
X162649500Y-96335928D01*
X162649500Y-96335931D01*
X162649500Y-96464069D01*
X162649500Y-96464071D01*
X162649499Y-96464071D01*
X135400500Y-96464071D01*
X135400500Y-94171071D01*
X179776499Y-94171071D01*
X179801497Y-94296738D01*
X179801499Y-94296744D01*
X179850533Y-94415124D01*
X179850538Y-94415133D01*
X179921723Y-94521668D01*
X179921726Y-94521672D01*
X180012327Y-94612273D01*
X180012331Y-94612276D01*
X180118866Y-94683461D01*
X180118872Y-94683464D01*
X180118873Y-94683465D01*
X180237256Y-94732501D01*
X180237260Y-94732501D01*
X180237261Y-94732502D01*
X180362928Y-94757500D01*
X180362931Y-94757500D01*
X180491071Y-94757500D01*
X180575615Y-94740682D01*
X180616744Y-94732501D01*
X180735127Y-94683465D01*
X180841669Y-94612276D01*
X180885125Y-94568820D01*
X180946448Y-94535334D01*
X180972807Y-94532500D01*
X181231193Y-94532500D01*
X181298232Y-94552185D01*
X181318875Y-94568820D01*
X181362327Y-94612273D01*
X181362331Y-94612276D01*
X181468866Y-94683461D01*
X181468872Y-94683464D01*
X181468873Y-94683465D01*
X181587256Y-94732501D01*
X181587260Y-94732501D01*
X181587261Y-94732502D01*
X181712928Y-94757500D01*
X181712931Y-94757500D01*
X181841071Y-94757500D01*
X181925615Y-94740682D01*
X181966744Y-94732501D01*
X182085127Y-94683465D01*
X182191669Y-94612276D01*
X182282276Y-94521669D01*
X182353465Y-94415127D01*
X182402501Y-94296744D01*
X182427500Y-94171069D01*
X182427500Y-94042931D01*
X182427500Y-94042928D01*
X182402502Y-93917261D01*
X182402501Y-93917260D01*
X182402501Y-93917256D01*
X182353465Y-93798873D01*
X182353464Y-93798872D01*
X182353461Y-93798866D01*
X182282276Y-93692331D01*
X182282273Y-93692327D01*
X182191672Y-93601726D01*
X182191668Y-93601723D01*
X182085133Y-93530538D01*
X182085124Y-93530533D01*
X181966744Y-93481499D01*
X181966738Y-93481497D01*
X181841071Y-93456500D01*
X181841069Y-93456500D01*
X181712931Y-93456500D01*
X181712929Y-93456500D01*
X181587261Y-93481497D01*
X181587255Y-93481499D01*
X181468875Y-93530533D01*
X181468866Y-93530538D01*
X181362331Y-93601723D01*
X181362327Y-93601726D01*
X181318875Y-93645180D01*
X181257552Y-93678666D01*
X181231193Y-93681500D01*
X180972807Y-93681500D01*
X180905768Y-93661815D01*
X180885125Y-93645180D01*
X180841672Y-93601726D01*
X180841668Y-93601723D01*
X180735133Y-93530538D01*
X180735124Y-93530533D01*
X180616744Y-93481499D01*
X180616738Y-93481497D01*
X180491071Y-93456500D01*
X180491069Y-93456500D01*
X180362931Y-93456500D01*
X180362929Y-93456500D01*
X180237261Y-93481497D01*
X180237255Y-93481499D01*
X180118875Y-93530533D01*
X180118866Y-93530538D01*
X180012331Y-93601723D01*
X180012327Y-93601726D01*
X179921726Y-93692327D01*
X179921723Y-93692331D01*
X179850538Y-93798866D01*
X179850533Y-93798875D01*
X179801499Y-93917255D01*
X179801497Y-93917261D01*
X179776500Y-94042928D01*
X179776500Y-94042931D01*
X179776500Y-94171069D01*
X179776500Y-94171071D01*
X179776499Y-94171071D01*
X135400500Y-94171071D01*
X135400500Y-92014071D01*
X155199499Y-92014071D01*
X155224497Y-92139738D01*
X155224499Y-92139744D01*
X155273533Y-92258124D01*
X155273538Y-92258133D01*
X155344723Y-92364668D01*
X155344726Y-92364672D01*
X155435327Y-92455273D01*
X155435331Y-92455276D01*
X155541866Y-92526461D01*
X155541872Y-92526464D01*
X155541873Y-92526465D01*
X155660256Y-92575501D01*
X155660260Y-92575501D01*
X155660261Y-92575502D01*
X155785928Y-92600500D01*
X155785931Y-92600500D01*
X155914071Y-92600500D01*
X155998615Y-92583682D01*
X156039744Y-92575501D01*
X156158127Y-92526465D01*
X156264669Y-92455276D01*
X156333127Y-92386817D01*
X156394448Y-92353334D01*
X156420807Y-92350500D01*
X156879193Y-92350500D01*
X156946232Y-92370185D01*
X156966869Y-92386814D01*
X157035328Y-92455273D01*
X157035332Y-92455277D01*
X157141866Y-92526461D01*
X157141872Y-92526464D01*
X157141873Y-92526465D01*
X157260256Y-92575501D01*
X157260260Y-92575501D01*
X157260261Y-92575502D01*
X157385928Y-92600500D01*
X157385931Y-92600500D01*
X157514071Y-92600500D01*
X157598615Y-92583682D01*
X157639744Y-92575501D01*
X157758127Y-92526465D01*
X157864669Y-92455276D01*
X157955276Y-92364669D01*
X158026465Y-92258127D01*
X158075501Y-92139744D01*
X158100500Y-92014069D01*
X158100500Y-91885931D01*
X158100500Y-91885928D01*
X158075502Y-91760261D01*
X158075501Y-91760260D01*
X158075501Y-91760256D01*
X158026465Y-91641873D01*
X158026464Y-91641872D01*
X158026461Y-91641866D01*
X157955276Y-91535331D01*
X157955273Y-91535327D01*
X157870376Y-91450430D01*
X169399499Y-91450430D01*
X169424497Y-91576097D01*
X169424499Y-91576103D01*
X169473533Y-91694483D01*
X169473538Y-91694492D01*
X169528602Y-91776900D01*
X169549480Y-91843577D01*
X169549500Y-91845791D01*
X169549500Y-92776926D01*
X169529815Y-92843965D01*
X169528602Y-92845816D01*
X169473541Y-92928220D01*
X169473533Y-92928234D01*
X169424499Y-93046614D01*
X169424497Y-93046620D01*
X169399500Y-93172287D01*
X169399500Y-93172290D01*
X169399500Y-93300428D01*
X169399500Y-93300430D01*
X169399499Y-93300430D01*
X169424497Y-93426097D01*
X169424499Y-93426103D01*
X169473533Y-93544483D01*
X169473538Y-93544492D01*
X169544723Y-93651027D01*
X169544726Y-93651031D01*
X169635327Y-93741632D01*
X169635331Y-93741635D01*
X169741866Y-93812820D01*
X169741872Y-93812823D01*
X169741873Y-93812824D01*
X169860256Y-93861860D01*
X169860260Y-93861860D01*
X169860261Y-93861861D01*
X169985928Y-93886859D01*
X169985931Y-93886859D01*
X170114071Y-93886859D01*
X170198615Y-93870041D01*
X170239744Y-93861860D01*
X170358127Y-93812824D01*
X170464669Y-93741635D01*
X170555276Y-93651028D01*
X170626465Y-93544486D01*
X170675501Y-93426103D01*
X170700500Y-93300428D01*
X170700500Y-93172290D01*
X170700500Y-93172287D01*
X170675502Y-93046620D01*
X170675501Y-93046619D01*
X170675501Y-93046615D01*
X170626465Y-92928232D01*
X170626464Y-92928230D01*
X170626458Y-92928220D01*
X170571398Y-92845816D01*
X170550520Y-92779139D01*
X170550500Y-92776926D01*
X170550500Y-91845791D01*
X170570185Y-91778752D01*
X170571398Y-91776900D01*
X170626461Y-91694492D01*
X170626461Y-91694491D01*
X170626465Y-91694486D01*
X170675501Y-91576103D01*
X170700500Y-91450428D01*
X170700500Y-91322290D01*
X170700500Y-91322287D01*
X170675502Y-91196620D01*
X170675501Y-91196619D01*
X170675501Y-91196615D01*
X170626465Y-91078232D01*
X170626464Y-91078231D01*
X170626461Y-91078225D01*
X170555276Y-90971690D01*
X170555273Y-90971686D01*
X170464672Y-90881085D01*
X170464668Y-90881082D01*
X170358133Y-90809897D01*
X170358124Y-90809892D01*
X170239744Y-90760858D01*
X170239738Y-90760856D01*
X170114071Y-90735859D01*
X170114069Y-90735859D01*
X169985931Y-90735859D01*
X169985929Y-90735859D01*
X169860261Y-90760856D01*
X169860255Y-90760858D01*
X169741875Y-90809892D01*
X169741866Y-90809897D01*
X169635331Y-90881082D01*
X169635327Y-90881085D01*
X169544726Y-90971686D01*
X169544723Y-90971690D01*
X169473538Y-91078225D01*
X169473533Y-91078234D01*
X169424499Y-91196614D01*
X169424497Y-91196620D01*
X169399500Y-91322287D01*
X169399500Y-91322290D01*
X169399500Y-91450428D01*
X169399500Y-91450430D01*
X169399499Y-91450430D01*
X157870376Y-91450430D01*
X157864672Y-91444726D01*
X157864668Y-91444723D01*
X157826620Y-91419300D01*
X157758133Y-91373538D01*
X157758124Y-91373533D01*
X157639744Y-91324499D01*
X157639738Y-91324497D01*
X157514071Y-91299500D01*
X157514069Y-91299500D01*
X157385931Y-91299500D01*
X157385929Y-91299500D01*
X157260261Y-91324497D01*
X157260255Y-91324499D01*
X157141875Y-91373533D01*
X157141866Y-91373538D01*
X157035332Y-91444722D01*
X157001103Y-91478951D01*
X156966872Y-91513182D01*
X156905552Y-91546666D01*
X156879193Y-91549500D01*
X156420807Y-91549500D01*
X156353768Y-91529815D01*
X156333130Y-91513185D01*
X156264669Y-91444724D01*
X156264668Y-91444723D01*
X156264667Y-91444722D01*
X156158133Y-91373538D01*
X156158124Y-91373533D01*
X156039744Y-91324499D01*
X156039738Y-91324497D01*
X155914071Y-91299500D01*
X155914069Y-91299500D01*
X155785931Y-91299500D01*
X155785929Y-91299500D01*
X155660261Y-91324497D01*
X155660255Y-91324499D01*
X155541875Y-91373533D01*
X155541866Y-91373538D01*
X155435331Y-91444723D01*
X155435327Y-91444726D01*
X155344726Y-91535327D01*
X155344723Y-91535331D01*
X155273538Y-91641866D01*
X155273533Y-91641875D01*
X155224499Y-91760255D01*
X155224497Y-91760261D01*
X155199500Y-91885928D01*
X155199500Y-91885931D01*
X155199500Y-92014069D01*
X155199500Y-92014071D01*
X155199499Y-92014071D01*
X135400500Y-92014071D01*
X135400500Y-88652385D01*
X137366213Y-88652385D01*
X137391211Y-88778052D01*
X137391213Y-88778058D01*
X137440247Y-88896438D01*
X137440252Y-88896447D01*
X137511437Y-89002982D01*
X137511440Y-89002986D01*
X137602041Y-89093587D01*
X137602045Y-89093590D01*
X137708580Y-89164775D01*
X137708586Y-89164778D01*
X137708587Y-89164779D01*
X137826970Y-89213815D01*
X137826974Y-89213815D01*
X137826975Y-89213816D01*
X137952642Y-89238814D01*
X137952645Y-89238814D01*
X138014104Y-89238814D01*
X138081143Y-89258499D01*
X138101785Y-89275133D01*
X138461267Y-89634615D01*
X138494752Y-89695938D01*
X138497586Y-89722296D01*
X138497586Y-89783755D01*
X138497586Y-89783757D01*
X138497585Y-89783757D01*
X138522583Y-89909424D01*
X138522585Y-89909430D01*
X138571619Y-90027810D01*
X138571624Y-90027819D01*
X138642809Y-90134354D01*
X138642812Y-90134358D01*
X138733413Y-90224959D01*
X138733417Y-90224962D01*
X138839952Y-90296147D01*
X138839958Y-90296150D01*
X138839959Y-90296151D01*
X138958342Y-90345187D01*
X138958346Y-90345187D01*
X138958347Y-90345188D01*
X139084014Y-90370186D01*
X139084017Y-90370186D01*
X139212157Y-90370186D01*
X139296701Y-90353368D01*
X139337830Y-90345187D01*
X139456213Y-90296151D01*
X139562755Y-90224962D01*
X139653362Y-90134355D01*
X139724551Y-90027813D01*
X139773587Y-89909430D01*
X139798586Y-89783755D01*
X139798586Y-89655617D01*
X139798586Y-89655614D01*
X139773588Y-89529947D01*
X139773587Y-89529946D01*
X139773587Y-89529942D01*
X139724551Y-89411559D01*
X139724550Y-89411558D01*
X139724547Y-89411552D01*
X139653362Y-89305017D01*
X139653359Y-89305013D01*
X139562758Y-89214412D01*
X139562754Y-89214409D01*
X139456219Y-89143224D01*
X139456210Y-89143219D01*
X139337830Y-89094185D01*
X139337824Y-89094183D01*
X139212157Y-89069186D01*
X139212155Y-89069186D01*
X139150696Y-89069186D01*
X139083657Y-89049501D01*
X139063015Y-89032867D01*
X138703533Y-88673385D01*
X138670048Y-88612062D01*
X138667214Y-88585704D01*
X138667214Y-88524242D01*
X138642216Y-88398575D01*
X138642215Y-88398574D01*
X138642215Y-88398570D01*
X138593179Y-88280187D01*
X138593178Y-88280186D01*
X138593175Y-88280180D01*
X138521990Y-88173645D01*
X138521987Y-88173641D01*
X138431386Y-88083040D01*
X138431382Y-88083037D01*
X138324847Y-88011852D01*
X138324838Y-88011847D01*
X138206458Y-87962813D01*
X138206452Y-87962811D01*
X138080785Y-87937814D01*
X138080783Y-87937814D01*
X137952645Y-87937814D01*
X137952643Y-87937814D01*
X137826975Y-87962811D01*
X137826969Y-87962813D01*
X137708589Y-88011847D01*
X137708580Y-88011852D01*
X137602045Y-88083037D01*
X137602041Y-88083040D01*
X137511440Y-88173641D01*
X137511437Y-88173645D01*
X137440252Y-88280180D01*
X137440247Y-88280189D01*
X137391213Y-88398569D01*
X137391211Y-88398575D01*
X137366214Y-88524242D01*
X137366214Y-88524245D01*
X137366214Y-88652383D01*
X137366214Y-88652385D01*
X137366213Y-88652385D01*
X135400500Y-88652385D01*
X135400500Y-85293234D01*
X135404286Y-85278554D01*
X135403470Y-85266259D01*
X135415972Y-85233253D01*
X135456467Y-85159983D01*
X135463854Y-85148228D01*
X135650482Y-84885201D01*
X135659128Y-84874358D01*
X135874049Y-84633861D01*
X135883861Y-84624049D01*
X136124358Y-84409128D01*
X136135201Y-84400482D01*
X136398228Y-84213854D01*
X136409994Y-84206461D01*
X136428973Y-84195972D01*
X136428977Y-84195970D01*
X136488954Y-84180500D01*
X182011046Y-84180500D01*
X182071026Y-84195972D01*
G37*
%TD.AperFunction*%
%TD*%
M02*
