%TF.GenerationSoftware,KiCad,Pcbnew,9.0.6*%
%TF.CreationDate,2026-02-22T09:47:55+01:00*%
%TF.ProjectId,iCE40UP5K_logic_analyzer,69434534-3055-4503-954b-5f6c6f676963,rev?*%
%TF.SameCoordinates,Original*%
%TF.FileFunction,Paste,Top*%
%TF.FilePolarity,Positive*%
%FSLAX46Y46*%
G04 Gerber Fmt 4.6, Leading zero omitted, Abs format (unit mm)*
G04 Created by KiCad (PCBNEW 9.0.6) date 2026-02-22 09:47:55*
%MOMM*%
%LPD*%
G01*
G04 APERTURE LIST*
G04 Aperture macros list*
%AMRoundRect*
0 Rectangle with rounded corners*
0 $1 Rounding radius*
0 $2 $3 $4 $5 $6 $7 $8 $9 X,Y pos of 4 corners*
0 Add a 4 corners polygon primitive as box body*
4,1,4,$2,$3,$4,$5,$6,$7,$8,$9,$2,$3,0*
0 Add four circle primitives for the rounded corners*
1,1,$1+$1,$2,$3*
1,1,$1+$1,$4,$5*
1,1,$1+$1,$6,$7*
1,1,$1+$1,$8,$9*
0 Add four rect primitives between the rounded corners*
20,1,$1+$1,$2,$3,$4,$5,0*
20,1,$1+$1,$4,$5,$6,$7,0*
20,1,$1+$1,$6,$7,$8,$9,0*
20,1,$1+$1,$8,$9,$2,$3,0*%
G04 Aperture macros list end*
%ADD10RoundRect,0.200000X-0.200000X-0.275000X0.200000X-0.275000X0.200000X0.275000X-0.200000X0.275000X0*%
%ADD11R,0.980000X0.780000*%
%ADD12R,0.700000X1.525000*%
%ADD13RoundRect,0.200000X0.200000X0.275000X-0.200000X0.275000X-0.200000X-0.275000X0.200000X-0.275000X0*%
%ADD14RoundRect,0.200000X0.275000X-0.200000X0.275000X0.200000X-0.275000X0.200000X-0.275000X-0.200000X0*%
%ADD15R,0.780000X0.980000*%
%ADD16R,0.800000X0.800000*%
%ADD17R,1.150000X1.450000*%
%ADD18R,0.250000X0.850000*%
%ADD19R,0.850000X0.250000*%
%ADD20R,5.500000X5.500000*%
%ADD21R,0.600000X1.250000*%
%ADD22R,0.600000X1.350000*%
%ADD23R,1.450000X1.150000*%
%ADD24R,1.200000X0.600000*%
%ADD25R,2.900000X5.450000*%
%ADD26RoundRect,0.200000X-0.275000X0.200000X-0.275000X-0.200000X0.275000X-0.200000X0.275000X0.200000X0*%
%ADD27R,0.950000X0.950000*%
%ADD28R,0.600000X1.200000*%
%ADD29R,2.200000X1.550000*%
%ADD30R,0.900000X1.400000*%
%ADD31R,0.850000X0.300000*%
%ADD32R,0.300000X0.850000*%
%ADD33R,2.550000X2.550000*%
%ADD34R,2.200000X1.100000*%
G04 APERTURE END LIST*
D10*
%TO.C,R10*%
X146875000Y-112200000D03*
X145225000Y-112200000D03*
%TD*%
D11*
%TO.C,C9*%
X148200000Y-113400000D03*
X148200000Y-112000000D03*
%TD*%
D12*
%TO.C,IC5*%
X147605000Y-104988000D03*
X146335000Y-104988000D03*
X145065000Y-104988000D03*
X143795000Y-104988000D03*
X143795000Y-110412000D03*
X145065000Y-110412000D03*
X146335000Y-110412000D03*
X147605000Y-110412000D03*
%TD*%
D13*
%TO.C,R14*%
X146194296Y-103110553D03*
X147844296Y-103110553D03*
%TD*%
D14*
%TO.C,R9*%
X149600000Y-110925000D03*
X149600000Y-112575000D03*
%TD*%
D13*
%TO.C,R5*%
X170075000Y-93750000D03*
X168425000Y-93750000D03*
%TD*%
D15*
%TO.C,C18*%
X154789844Y-108919933D03*
X153389844Y-108919933D03*
%TD*%
D13*
%TO.C,R12*%
X154325000Y-104252783D03*
X152675000Y-104252783D03*
%TD*%
D16*
%TO.C,D5*%
X148350000Y-94324500D03*
X149950000Y-94324500D03*
%TD*%
D15*
%TO.C,C7*%
X164983170Y-89700100D03*
X166383170Y-89700100D03*
%TD*%
D17*
%TO.C,C12*%
X159700000Y-115696271D03*
X161500000Y-115696271D03*
%TD*%
D11*
%TO.C,C10*%
X159972633Y-101310064D03*
X159972633Y-99910064D03*
%TD*%
D18*
%TO.C,IC1*%
X162250000Y-102550000D03*
X161750000Y-102550000D03*
X161250000Y-102550000D03*
X160750000Y-102550000D03*
X160250000Y-102550000D03*
X159750000Y-102550000D03*
X159250000Y-102550000D03*
X158750000Y-102550000D03*
X158250000Y-102550000D03*
X157750000Y-102550000D03*
X157250000Y-102550000D03*
X156750000Y-102550000D03*
D19*
X156050000Y-103250000D03*
X156050000Y-103750000D03*
X156050000Y-104250000D03*
X156050000Y-104750000D03*
X156050000Y-105250000D03*
X156050000Y-105750000D03*
X156050000Y-106250000D03*
X156050000Y-106750000D03*
X156050000Y-107250000D03*
X156050000Y-107750000D03*
X156050000Y-108250000D03*
X156050000Y-108750000D03*
D18*
X156750000Y-109450000D03*
X157250000Y-109450000D03*
X157750000Y-109450000D03*
X158250000Y-109450000D03*
X158750000Y-109450000D03*
X159250000Y-109450000D03*
X159750000Y-109450000D03*
X160250000Y-109450000D03*
X160750000Y-109450000D03*
X161250000Y-109450000D03*
X161750000Y-109450000D03*
X162250000Y-109450000D03*
D19*
X162950000Y-108750000D03*
X162950000Y-108250000D03*
X162950000Y-107750000D03*
X162950000Y-107250000D03*
X162950000Y-106750000D03*
X162950000Y-106250000D03*
X162950000Y-105750000D03*
X162950000Y-105250000D03*
X162950000Y-104750000D03*
X162950000Y-104250000D03*
X162950000Y-103750000D03*
X162950000Y-103250000D03*
D20*
X159500000Y-106000000D03*
%TD*%
D21*
%TO.C,FL1*%
X150600000Y-127500000D03*
X152400000Y-127500000D03*
%TD*%
D22*
%TO.C,D2*%
X178550000Y-115800000D03*
X180450000Y-115800000D03*
X179500000Y-113800000D03*
%TD*%
D23*
%TO.C,C6*%
X162815955Y-87900000D03*
X162815955Y-86100000D03*
%TD*%
D10*
%TO.C,R2*%
X158806832Y-88788035D03*
X160456832Y-88788035D03*
%TD*%
D15*
%TO.C,C8*%
X165003685Y-91020974D03*
X166403685Y-91020974D03*
%TD*%
D11*
%TO.C,C14*%
X160864149Y-110684024D03*
X160864149Y-112084024D03*
%TD*%
D24*
%TO.C,IC3*%
X158060418Y-118115184D03*
X158060418Y-119065184D03*
X158060418Y-120015184D03*
X160560418Y-120015184D03*
X160560418Y-118115184D03*
%TD*%
D13*
%TO.C,R11*%
X154715349Y-102788636D03*
X153065349Y-102788636D03*
%TD*%
%TO.C,R4*%
X158948928Y-87246740D03*
X157298928Y-87246740D03*
%TD*%
D16*
%TO.C,D3*%
X139250000Y-94324500D03*
X140850000Y-94324500D03*
%TD*%
%TO.C,D4*%
X143795007Y-94322649D03*
X145395007Y-94322649D03*
%TD*%
D13*
%TO.C,R7*%
X164075000Y-95700000D03*
X162425000Y-95700000D03*
%TD*%
D15*
%TO.C,C19*%
X162190058Y-101219095D03*
X163590058Y-101219095D03*
%TD*%
D25*
%TO.C,F1*%
X161211109Y-127206259D03*
X155431109Y-127206259D03*
%TD*%
D26*
%TO.C,R18*%
X141909800Y-113350000D03*
X141909800Y-115000000D03*
%TD*%
D27*
%TO.C,C5*%
X162169610Y-118046725D03*
X162169610Y-119546725D03*
%TD*%
D14*
%TO.C,R16*%
X141909800Y-118023201D03*
X141909800Y-116373201D03*
%TD*%
D23*
%TO.C,C21*%
X155850000Y-113100000D03*
X155850000Y-114900000D03*
%TD*%
D13*
%TO.C,R20*%
X140850500Y-91600000D03*
X139200500Y-91600000D03*
%TD*%
D26*
%TO.C,R6*%
X167000000Y-94250000D03*
X167000000Y-95900000D03*
%TD*%
D28*
%TO.C,IC2*%
X151651858Y-122297264D03*
X152601858Y-122297264D03*
X153551858Y-122297264D03*
X153551858Y-119797264D03*
X151651858Y-119797264D03*
%TD*%
D17*
%TO.C,C15*%
X166120785Y-111755842D03*
X164320785Y-111755842D03*
%TD*%
D23*
%TO.C,C17*%
X152200000Y-112850000D03*
X152200000Y-111050000D03*
%TD*%
D29*
%TO.C,D1*%
X161580615Y-122565184D03*
X157480615Y-122565184D03*
%TD*%
D10*
%TO.C,R24*%
X146000500Y-99550000D03*
X147650500Y-99550000D03*
%TD*%
D27*
%TO.C,C4*%
X153400000Y-118200000D03*
X153400000Y-116700000D03*
%TD*%
D17*
%TO.C,C22*%
X149435889Y-119751531D03*
X147635889Y-119751531D03*
%TD*%
D10*
%TO.C,R22*%
X149025000Y-99619434D03*
X150675000Y-99619434D03*
%TD*%
D17*
%TO.C,C1*%
X157457977Y-97714133D03*
X159257977Y-97714133D03*
%TD*%
D13*
%TO.C,R21*%
X145859000Y-91567000D03*
X144209000Y-91567000D03*
%TD*%
D11*
%TO.C,C11*%
X159571424Y-110679540D03*
X159571424Y-112079540D03*
%TD*%
D13*
%TO.C,R13*%
X154075000Y-105750000D03*
X152425000Y-105750000D03*
%TD*%
D26*
%TO.C,R1*%
X153400000Y-96750000D03*
X153400000Y-98400000D03*
%TD*%
%TO.C,R15*%
X154975000Y-96750000D03*
X154975000Y-98400000D03*
%TD*%
D17*
%TO.C,C20*%
X163134078Y-98898722D03*
X164934078Y-98898722D03*
%TD*%
D14*
%TO.C,R8*%
X158450000Y-93225000D03*
X158450000Y-91575000D03*
%TD*%
D10*
%TO.C,R23*%
X142969680Y-99619434D03*
X144619680Y-99619434D03*
%TD*%
D30*
%TO.C,D6*%
X141400000Y-97324500D03*
X143300000Y-97324500D03*
%TD*%
D27*
%TO.C,C2*%
X151250000Y-125000000D03*
X152750000Y-125000000D03*
%TD*%
D15*
%TO.C,C16*%
X154786499Y-107596720D03*
X153386499Y-107596720D03*
%TD*%
D14*
%TO.C,R19*%
X149500000Y-109575000D03*
X149500000Y-107925000D03*
%TD*%
D17*
%TO.C,C23*%
X164311201Y-115074784D03*
X166111201Y-115074784D03*
%TD*%
D27*
%TO.C,C3*%
X151809895Y-118196005D03*
X151809895Y-116696005D03*
%TD*%
D11*
%TO.C,C13*%
X158260758Y-110684024D03*
X158260758Y-112084024D03*
%TD*%
D13*
%TO.C,R17*%
X156953605Y-110988393D03*
X155303605Y-110988393D03*
%TD*%
D26*
%TO.C,R3*%
X160400000Y-85675000D03*
X160400000Y-87325000D03*
%TD*%
D30*
%TO.C,D7*%
X145900000Y-97324500D03*
X147800000Y-97324500D03*
%TD*%
D31*
%TO.C,IC4*%
X163763637Y-93561359D03*
X163763637Y-93061359D03*
X163763637Y-92561359D03*
X163763637Y-92061359D03*
X163763637Y-91561359D03*
X163763637Y-91061359D03*
D32*
X163063637Y-90361359D03*
X162563637Y-90361359D03*
X162063637Y-90361359D03*
X161563637Y-90361359D03*
X161063637Y-90361359D03*
X160563637Y-90361359D03*
D31*
X159863637Y-91061359D03*
X159863637Y-91561359D03*
X159863637Y-92061359D03*
X159863637Y-92561359D03*
X159863637Y-93061359D03*
X159863637Y-93561359D03*
D32*
X160563637Y-94261359D03*
X161063637Y-94261359D03*
X161563637Y-94261359D03*
X162063637Y-94261359D03*
X162563637Y-94261359D03*
X163063637Y-94261359D03*
D33*
X161813637Y-92311359D03*
%TD*%
D34*
%TO.C,S1*%
X151200000Y-88000000D03*
X142400000Y-88000000D03*
%TD*%
M02*
