M48
; DRILL file {KiCad 9.0.6} date 2026-02-22T09:47:23+0100
; FORMAT={-:-/ absolute / metric / decimal}
; #@! TF.CreationDate,2026-02-22T09:47:23+01:00
; #@! TF.GenerationSoftware,Kicad,Pcbnew,9.0.6
; #@! TF.FileFunction,Plated,1,2,PTH
FMAT,2
METRIC
; #@! TA.AperFunction,Plated,PTH,ViaDrill
T1C0.300
; #@! TA.AperFunction,Plated,PTH,ComponentDrill
T2C0.920
; #@! TA.AperFunction,Plated,PTH,ComponentDrill
T3C1.100
; #@! TA.AperFunction,Plated,PTH,ComponentDrill
T4C2.300
%
G90
G05
T1
X136.1Y-123.6
X136.4Y-130.65
X138.017Y-88.588
X138.1Y-134.05
X139.148Y-89.72
X140.35Y-123.9
X142.35Y-94.369
X142.4Y-88.75
X142.494Y-121.372
X142.494Y-122.722
X143.4Y-133.9
X143.425Y-116.625
X143.45Y-129.65
X144.1Y-103.8
X144.6Y-97.369
X144.9Y-124.05
X146.5Y-119.752
X146.897Y-106.413
X147.5Y-113.825
X147.732Y-106.076
X148.336Y-121.372
X148.336Y-122.722
X148.475Y-108.173
X148.488Y-103.632
X148.95Y-126.675
X149.024Y-107.454
X149.025Y-115.9
X149.7Y-133.95
X149.75Y-129.95
X149.978Y-117.528
X150.449Y-106.856
X151.8Y-110.1
X152.5Y-109.0
X152.5Y-124.0
X152.6Y-107.95
X152.6Y-116.15
X153.0Y-123.5
X154.675Y-114.35
X155.638Y-122.544
X155.85Y-91.95
X156.15Y-133.85
X157.0Y-119.0
X157.25Y-86.25
X157.45Y-91.95
X157.734Y-104.292
X157.734Y-106.02
X157.734Y-107.747
X157.925Y-116.949
X158.325Y-115.349
X158.375Y-112.875
X158.75Y-96.5
X159.512Y-104.292
X159.512Y-107.747
X159.571Y-112.929
X160.25Y-99.0
X161.0Y-112.95
X161.239Y-104.242
X161.239Y-106.02
X161.239Y-107.747
X161.5Y-114.5
X161.814Y-92.311
X162.17Y-120.5
X162.909Y-93.055
X163.0Y-111.756
X163.3Y-96.4
X163.3Y-97.7
X164.0Y-86.5
X164.5Y-101.5
X165.95Y-130.4
X165.95Y-133.95
X165.972Y-98.899
X166.15Y-118.15
X166.35Y-121.2
X167.0Y-89.7
X167.0Y-91.0
X167.445Y-115.785
X169.4Y-122.2
X170.05Y-91.386
X170.05Y-93.236
X173.8Y-133.75
X174.1Y-128.85
X174.35Y-117.85
X174.35Y-124.9
X177.8Y-129.7
X177.8Y-134.0
X177.95Y-125.05
X178.1Y-121.35
X178.537Y-94.513
X179.75Y-111.5
X180.427Y-94.107
X181.777Y-94.107
X181.8Y-121.1
X181.8Y-129.5
X181.8Y-133.9
X181.85Y-124.95
X181.9Y-118.2
T2
X166.279Y-124.361
X166.279Y-126.861
X168.279Y-124.361
X168.279Y-126.861
T3
X139.5Y-104.35
X139.5Y-106.89
X139.5Y-109.43
X139.5Y-111.97
X139.5Y-114.51
X139.5Y-117.05
X171.46Y-100.0
X171.46Y-102.54
X171.46Y-105.08
X171.46Y-107.62
X171.46Y-110.16
X174.0Y-100.0
X174.0Y-102.54
X174.0Y-105.08
X174.0Y-107.62
X174.0Y-110.16
T4
X170.989Y-119.591
X170.989Y-131.631
M30
